<svg width="53" height="53" viewBox="0 0 53 53" fill="none" xmlns="http://www.w3.org/2000/svg">
<g clip-path="url(#clip0)">
<path fill-rule="evenodd" clip-rule="evenodd" d="M7.73529 10.0308C7.54516 10.2977 7.31805 10.5219 7.11784 10.6404C7.00111 10.7094 6.99422 10.7284 6.97196 11.0452C6.94241 11.4647 6.9819 11.3116 5.68671 16.0194C4.18257 21.4868 3.27945 24.625 3.08998 25.0435C2.87042 25.5283 2.58568 25.7292 2.00295 25.8108C1.54224 25.8753 1.52568 25.8887 1.54648 26.1802C1.56861 26.4889 1.5392 26.4807 2.44656 26.4311C3.00094 26.4008 3.55704 26.3996 4.23928 26.427C5.35917 26.4718 5.30895 26.4848 5.30895 26.1497C5.30895 25.8536 5.34433 25.8787 4.8252 25.8057C3.92234 25.6788 3.92194 25.7385 4.84613 21.9442C5.24284 20.3157 5.26907 20.2377 5.44887 20.1445C5.61529 20.0582 8.77051 20.0525 8.97483 20.138C9.16828 20.2191 9.1973 20.3109 9.69073 22.4082C10.4954 25.828 10.5031 25.6517 9.54206 25.8066C9.08785 25.8799 9.07421 25.8913 9.09488 26.1802C9.11714 26.4903 9.07619 26.4803 10.1158 26.4283C10.9815 26.3849 12.4596 26.3994 13.147 26.4579L13.4366 26.4824L13.4801 26.3209C13.5788 25.9538 13.5185 25.8804 13.0585 25.8057C12.0619 25.6441 11.9815 25.4829 11.0826 21.849C10.7846 20.6442 10.0966 17.8753 9.55359 15.6958C9.01047 13.5164 8.47093 11.3238 8.3546 10.8234C8.23826 10.323 8.12696 9.89274 8.10722 9.86739C8.00692 9.73837 7.9147 9.77886 7.73529 10.0308ZM7.38205 12.9361C7.53601 13.4308 8.75462 18.4701 8.78774 18.7487C8.82882 19.0955 8.84975 19.0907 7.25246 19.103C5.78026 19.1144 5.68565 19.1035 5.65942 18.9199C5.64378 18.8116 6.8604 14.1557 7.17005 13.1384C7.28095 12.774 7.32004 12.7367 7.38205 12.9361ZM18.7111 13.4539C15.7252 13.92 13.8025 16.7712 13.9407 20.5279C14.1076 25.0683 17.2187 27.6653 21.1328 26.5314C21.5607 26.4075 22.12 26.1663 22.1926 26.0743C22.3748 25.8438 22.9136 23.6189 22.8228 23.472C22.692 23.2599 22.4974 23.3678 22.3797 23.7176C21.1517 27.3705 17.0942 26.913 15.7877 22.9743C15.1863 21.1613 15.1942 18.5123 15.8063 16.8078C16.5397 14.7651 18.2277 13.6855 20.0753 14.0776C21.1228 14.2999 21.9162 15.23 22.1636 16.5259C22.223 16.8374 22.2569 16.8886 22.4037 16.8886C22.5858 16.8886 22.6063 16.8261 22.5638 16.4015C22.5203 15.9675 22.4037 14.2732 22.4037 14.0758C22.4037 13.9598 22.3897 13.9438 22.2725 13.9274C22.2004 13.9175 21.9271 13.8428 21.6653 13.7615C20.7331 13.4723 19.4495 13.3385 18.7111 13.4539ZM26.965 13.679C26.5475 13.701 25.6753 13.7768 25.5502 13.8019C25.4148 13.829 25.3404 13.9945 25.3864 14.1672C25.4156 14.2772 25.4284 14.2821 25.8174 14.3293C26.5116 14.4139 26.6972 14.5107 26.8309 14.858C26.9253 15.1028 26.9473 25.0172 26.8541 25.3235C26.7346 25.717 26.5352 25.8698 26.0108 25.9697C25.434 26.0796 25.4528 26.0703 25.4395 26.2508C25.4172 26.5524 25.3957 26.5476 26.5939 26.5033C27.285 26.4775 28.0669 26.4777 28.8341 26.5034C30.1554 26.5479 30.1319 26.5521 30.1319 26.2717C30.1319 26.0657 30.1564 26.0791 29.6528 26.0083C28.7503 25.8814 28.5546 25.7272 28.4595 25.0686C28.3865 24.563 28.4058 14.5387 28.48 14.4327C28.6592 14.1764 29.9661 14.201 30.6182 14.4728C31.7366 14.939 32.2883 15.9735 32.241 17.5154C32.1902 19.1748 31.5018 20.0883 29.981 20.5149C29.5612 20.6327 29.5035 20.686 29.5694 20.8944C29.6468 21.1385 31.3744 20.8077 32.1304 20.4041C33.7723 19.5274 34.395 17.4104 33.5269 15.6554C32.7139 14.0115 30.9168 13.4702 26.965 13.679ZM37.3995 13.6991C35.8754 13.7686 35.7245 13.8002 35.7245 14.0484C35.7245 14.2554 35.7784 14.2885 36.2016 14.3404C37.2312 14.4667 37.1769 14.143 37.1769 20.1437C37.1769 26.0856 37.2202 25.8091 36.2647 25.9694C35.5867 26.0832 35.6251 26.0669 35.6116 26.2495C35.5893 26.5532 35.5603 26.5472 36.827 26.5032C37.5502 26.4781 38.3261 26.4781 39.0067 26.5034C40.1773 26.5468 40.1653 26.5491 40.164 26.2924C40.1631 26.0961 40.1244 26.0724 39.6739 25.9909C39.1866 25.903 39.0378 25.8379 38.9007 25.6532C38.6937 25.3736 38.6947 25.3864 38.6801 23.0552L38.6665 20.872L38.7541 20.801C38.8707 20.7063 39.8021 20.6986 40.1086 20.7898C40.5212 20.9126 40.5696 20.9767 41.7404 22.9568C43.194 25.4152 43.8715 26.1648 44.9524 26.5116C45.5483 26.7029 46.55 26.7522 46.9911 26.612C47.1203 26.5708 47.0938 26.3573 46.9561 26.3305C46.2614 26.1951 46.0625 26.0807 45.4519 25.4649C44.5651 24.5707 43.7644 23.4159 42.4773 21.1749C41.9351 20.231 41.9376 20.2474 42.304 20.0626C45.0723 18.6661 44.9747 14.8285 42.1482 13.9418C41.2472 13.6591 39.8479 13.5877 37.3995 13.6991ZM40.4941 14.3174C41.873 14.5827 42.6684 15.6752 42.6668 17.3014C42.6653 18.7499 42.1612 19.6198 41.1089 19.9896C40.731 20.1223 38.8823 20.1677 38.7379 20.0479C38.6314 19.9593 38.6359 14.5555 38.7427 14.4233C38.876 14.2585 39.8741 14.1981 40.4941 14.3174ZM21.6849 32.8505C21.6975 32.9162 21.8089 32.9221 23.2436 32.9319C24.7808 32.9425 24.7884 32.9421 24.7452 32.8612C24.6818 32.7424 21.6621 32.732 21.6849 32.8505ZM29.4947 32.8067C29.3664 32.9352 29.456 32.9426 31.0112 32.9319C32.4442 32.9221 32.5556 32.9162 32.5682 32.8505C32.5822 32.7778 29.5665 32.7348 29.4947 32.8067ZM22.0885 33.4976C22.1011 33.5632 22.2108 33.5691 23.6097 33.579C24.9754 33.5885 25.1149 33.5835 25.0925 33.5251C25.079 33.4896 25.0679 33.453 25.0679 33.4437C25.0679 33.4344 24.3945 33.4268 23.5714 33.4268C22.1679 33.4268 22.0758 33.4312 22.0885 33.4976ZM29.1717 33.4538C29.0438 33.5819 29.1342 33.5896 30.6479 33.579C32.0424 33.5691 32.152 33.5632 32.1646 33.4976C32.1785 33.4249 29.2435 33.3818 29.1717 33.4538ZM22.4441 34.1062C22.4441 34.2256 22.5616 34.2356 23.9904 34.2356C25.2955 34.2356 25.4374 34.2292 25.4153 34.1716C25.4018 34.1364 25.3908 34.0999 25.3908 34.0906C25.3908 34.0813 24.7278 34.0738 23.9175 34.0738C23.1071 34.0738 22.4441 34.0884 22.4441 34.1062ZM28.8464 34.1377C28.8329 34.1729 28.8219 34.2093 28.8219 34.2186C28.8219 34.2279 29.4849 34.2356 30.2953 34.2356C31.7416 34.2356 31.7685 34.234 31.7685 34.1546C31.7685 34.0422 28.8893 34.0256 28.8464 34.1377ZM22.815 34.791C22.8277 34.8573 22.9305 34.863 24.2742 34.8729C25.6364 34.8829 25.7191 34.8794 25.7061 34.8123C25.6934 34.7459 25.5907 34.7402 24.2469 34.7304C22.8847 34.7203 22.8021 34.7237 22.815 34.791ZM28.5639 34.7847C28.5504 34.8198 28.5394 34.8562 28.5394 34.8655C28.5394 34.8749 29.1823 34.8825 29.968 34.8825C31.4365 34.8825 31.4456 34.8816 31.4456 34.7377C31.4456 34.6781 28.5868 34.7248 28.5639 34.7847ZM19.0937 35.3996C19.0937 35.5203 19.2094 35.5294 20.7195 35.5294C22.1537 35.5294 22.2474 35.525 22.2346 35.4587C22.2199 35.3825 19.0937 35.3235 19.0937 35.3996ZM23.138 35.4385C23.1506 35.5041 23.2565 35.51 24.5784 35.5199C25.8706 35.5294 26.0031 35.5244 25.9807 35.466C25.967 35.4305 25.9559 35.3939 25.9559 35.3846C25.9559 35.3753 25.3188 35.3677 24.5401 35.3677C23.2135 35.3677 23.1253 35.3721 23.138 35.4385ZM28.2972 35.4486C28.2544 35.5287 28.2664 35.5294 29.684 35.5294C31.154 35.5294 31.1631 35.5285 31.1631 35.3846C31.1631 35.3108 28.3371 35.3739 28.2972 35.4486ZM32.0995 35.4162C32.0729 35.4429 32.0512 35.4792 32.0512 35.497C32.0512 35.5149 32.7286 35.5294 33.5568 35.5294C35.0424 35.5294 35.1593 35.52 35.1593 35.4C35.1593 35.3443 32.1556 35.36 32.0995 35.4162ZM19.6037 36.0748C19.6356 36.1582 22.6233 36.1688 22.5956 36.0854C22.5826 36.0464 22.2354 36.0325 21.0795 36.0242C19.7553 36.0149 19.583 36.0208 19.6037 36.0748ZM23.4387 36.0753C23.4587 36.1276 23.6533 36.136 24.849 36.136C26.0652 36.136 26.2331 36.1286 26.2127 36.0753C26.1927 36.023 25.9982 36.0147 24.8025 36.0147C23.5861 36.0147 23.4183 36.0221 23.4387 36.0753ZM28.0401 36.0759C28.0195 36.1299 28.1827 36.1357 29.4352 36.1264C30.5265 36.1182 30.8575 36.1041 30.8705 36.0652C30.8981 35.9819 28.0721 35.9925 28.0401 36.0759ZM31.7136 36.0753C31.6933 36.1286 31.8678 36.136 33.1374 36.136C34.3743 36.136 34.5916 36.1272 34.6345 36.0753C34.679 36.0216 34.5165 36.0147 33.2108 36.0147C31.9379 36.0147 31.7337 36.0229 31.7136 36.0753ZM20.0222 36.7222C20.0652 36.7741 20.2825 36.7829 21.5194 36.7829C22.789 36.7829 22.9635 36.7755 22.9431 36.7222C22.9231 36.67 22.7189 36.6616 21.4459 36.6616C20.1403 36.6616 19.9776 36.6685 20.0222 36.7222ZM23.7359 36.7222C23.7359 36.7749 23.913 36.7829 25.088 36.7829C26.2632 36.7829 26.4403 36.7749 26.4403 36.7222C26.4403 36.6696 26.2632 36.6616 25.088 36.6616C23.913 36.6616 23.7359 36.6696 23.7359 36.7222ZM27.7982 36.7222C27.7778 36.7755 27.9457 36.7829 29.162 36.7829C30.3577 36.7829 30.5522 36.7745 30.5722 36.7222C30.5926 36.6692 30.4247 36.6616 29.2084 36.6616C28.0127 36.6616 27.8182 36.67 27.7982 36.7222ZM31.3918 36.6885C31.3097 36.7708 31.4894 36.7829 32.7936 36.7829C34.0262 36.7829 34.2255 36.7747 34.2455 36.7222C34.2699 36.6584 31.455 36.6252 31.3918 36.6885ZM20.3851 37.3688C20.454 37.4519 23.2689 37.4623 23.2414 37.3794C23.2284 37.3405 22.892 37.3263 21.7795 37.3182C20.4933 37.3088 20.34 37.3144 20.3851 37.3688ZM23.9781 37.3693C23.9781 37.422 24.1551 37.43 25.329 37.43C26.5133 37.43 26.6771 37.4224 26.6567 37.3693C26.6367 37.317 26.4488 37.3086 25.3057 37.3086C24.1524 37.3086 23.9781 37.3166 23.9781 37.3693ZM27.5964 37.3693C27.576 37.4224 27.7416 37.43 28.9399 37.43C30.1177 37.43 30.31 37.4215 30.33 37.3693C30.3504 37.3161 30.1848 37.3086 28.9864 37.3086C27.8086 37.3086 27.6164 37.317 27.5964 37.3693ZM31.0689 37.3356C31.0541 37.3503 31.042 37.3779 31.042 37.3968C31.042 37.4557 33.8782 37.4184 33.8978 37.3591C33.9161 37.3044 31.1233 37.281 31.0689 37.3356ZM16.5104 37.9343C16.5104 37.9448 16.564 37.9812 16.6295 38.0152C16.7604 38.083 19.901 38.1111 19.901 38.0445C19.901 37.9237 19.7854 37.9151 18.1573 37.9151C17.2514 37.9151 16.5104 37.9237 16.5104 37.9343ZM20.6837 37.9785C20.6972 38.014 20.7084 38.0506 20.7084 38.0599C20.7084 38.0693 21.3364 38.0769 22.104 38.0769C23.4114 38.0769 23.4987 38.0724 23.486 38.0061C23.4734 37.9406 23.3684 37.9346 22.0657 37.9246C20.792 37.9151 20.6613 37.9201 20.6837 37.9785ZM24.1876 37.9858C24.2001 38.0513 24.3012 38.0575 25.5271 38.0673C26.7272 38.077 26.8507 38.0718 26.8283 38.0134C26.8148 37.978 26.8036 37.9414 26.8036 37.9321C26.8036 37.9228 26.2119 37.9151 25.4888 37.9151C24.2583 37.9151 24.1748 37.9196 24.1876 37.9858ZM27.4335 37.9791C27.4202 38.0142 27.4092 38.0506 27.4092 38.0599C27.4092 38.0693 28.0176 38.0769 28.7613 38.0769C30.0867 38.0769 30.1136 38.0753 30.1136 37.9961C30.1136 37.8836 27.4765 37.867 27.4335 37.9791ZM30.8267 37.942C30.6994 38.0696 30.7916 38.0779 32.2019 38.0673C33.5004 38.0574 33.6051 38.0514 33.6177 37.9858C33.6318 37.9131 30.8984 37.8702 30.8267 37.942ZM34.4327 37.9961C34.3898 38.0762 34.402 38.0769 35.9873 38.0769C37.5636 38.0769 37.8234 38.0567 37.8234 37.9343C37.8234 37.8588 34.4734 37.9197 34.4327 37.9961ZM17.3984 38.6228C17.4413 38.6746 17.6565 38.6835 18.8755 38.6835C20.1271 38.6835 20.2993 38.6759 20.2789 38.6228C20.2589 38.5704 20.057 38.5621 18.802 38.5621C17.5143 38.5621 17.3539 38.569 17.3984 38.6228ZM20.9506 38.6228C20.9506 38.6755 21.1321 38.6835 22.342 38.6835C23.5622 38.6835 23.7304 38.6759 23.71 38.6228C23.69 38.5705 23.4976 38.5621 22.3188 38.5621C21.1296 38.5621 20.9506 38.57 20.9506 38.6228ZM24.3671 38.6228C24.3871 38.675 24.5727 38.6835 25.6966 38.6835C26.8411 38.6835 27 38.6759 26.9797 38.6228C26.9597 38.5705 26.7741 38.5621 25.6501 38.5621C24.5056 38.5621 24.3467 38.5696 24.3671 38.6228ZM27.2881 38.6233C27.2881 38.7064 29.9143 38.6958 29.942 38.6126C29.9553 38.5729 29.6738 38.5621 28.6234 38.5621C27.4579 38.5621 27.2881 38.5698 27.2881 38.6233ZM30.598 38.6228C30.598 38.6755 30.7769 38.6835 31.9661 38.6835C33.1449 38.6835 33.3375 38.675 33.3575 38.6228C33.3778 38.5696 33.2095 38.5621 31.9893 38.5621C30.7794 38.5621 30.598 38.57 30.598 38.6228ZM34.056 38.5891C33.9739 38.6712 34.1517 38.6835 35.4369 38.6835C36.6391 38.6835 36.852 38.6746 36.895 38.6228C36.948 38.559 34.1196 38.5254 34.056 38.5891ZM17.9232 39.201C17.9232 39.3192 18.0419 39.3304 19.308 39.3304C20.4659 39.3304 20.5935 39.3239 20.5715 39.2664C20.558 39.2312 20.547 39.1949 20.547 39.1856C20.547 39.1763 19.9566 39.1686 19.2351 39.1686C18.5135 39.1686 17.9232 39.1832 17.9232 39.201ZM21.1683 39.2326C21.1818 39.2677 21.1928 39.3041 21.1928 39.3134C21.1928 39.3228 21.8014 39.3304 22.5451 39.3304C23.8703 39.3304 23.8972 39.3288 23.8972 39.2495C23.8972 39.1702 23.8703 39.1686 22.5206 39.1686C21.2817 39.1686 21.1463 39.1751 21.1683 39.2326ZM24.5432 39.2495C24.5432 39.3287 24.5701 39.3304 25.8147 39.3304C27.0592 39.3304 27.0861 39.3287 27.0861 39.2495C27.0861 39.1703 27.0592 39.1686 25.8147 39.1686C24.5701 39.1686 24.5432 39.1703 24.5432 39.2495ZM27.1938 39.1955C27.0673 39.3223 27.1612 39.3316 28.4681 39.3208C29.6704 39.311 29.7704 39.3048 29.783 39.2393C29.7969 39.1666 27.2655 39.1239 27.1938 39.1955ZM30.423 39.1955C30.2961 39.3228 30.3889 39.3314 31.7579 39.3208C33.0179 39.311 33.1207 39.3049 33.1333 39.2393C33.1473 39.1666 30.4948 39.1237 30.423 39.1955ZM33.7734 39.1955C33.6494 39.3199 33.7456 39.3304 35.0099 39.3304C36.2513 39.3304 36.3703 39.3191 36.3703 39.201C36.3703 39.1622 33.8121 39.1569 33.7734 39.1955Z" fill="#F8F9FB"/>
<path fill-rule="evenodd" clip-rule="evenodd" d="M6.95471 10.9454C6.95471 11.0455 6.96253 11.0864 6.9722 11.0363C6.98187 10.9863 6.98187 10.9044 6.9722 10.8543C6.96253 10.8043 6.95471 10.8453 6.95471 10.9454ZM19.1846 13.3993C19.2234 13.4095 19.287 13.4095 19.3258 13.3993C19.3647 13.3892 19.333 13.3809 19.2552 13.3809C19.1776 13.3809 19.1458 13.3892 19.1846 13.3993ZM28.551 13.6441C28.7018 13.6519 28.938 13.6519 29.0758 13.6439C29.2136 13.6361 29.0903 13.6297 28.8017 13.6297C28.5131 13.6299 28.4002 13.6364 28.551 13.6441ZM39.4481 13.6439C39.5758 13.652 39.7846 13.652 39.9124 13.6439C40.04 13.636 39.9355 13.6293 39.6802 13.6293C39.4249 13.6293 39.3205 13.636 39.4481 13.6439ZM37.5716 13.6831C37.6218 13.6928 37.6944 13.6924 37.733 13.6823C37.7717 13.6722 37.7305 13.6642 37.6417 13.6648C37.5529 13.6652 37.5214 13.6734 37.5716 13.6831ZM22.4131 14.1398C22.4131 14.2176 22.4214 14.2494 22.4315 14.2105C22.4417 14.1715 22.4417 14.1079 22.4315 14.0689C22.4214 14.03 22.4131 14.0619 22.4131 14.1398ZM32.818 14.678C32.818 14.6851 32.8771 14.7441 32.9492 14.8094L33.0804 14.9282L32.9619 14.7968C32.8513 14.6743 32.818 14.6468 32.818 14.678ZM37.1492 15.8784C37.1492 16.0008 37.1569 16.0508 37.166 15.9897C37.1753 15.9285 37.1753 15.8284 37.166 15.7673C37.1569 15.7061 37.1492 15.7562 37.1492 15.8784ZM33.9208 17.3342C33.9208 17.4787 33.9281 17.5378 33.9371 17.4656C33.946 17.3933 33.946 17.275 33.9371 17.2027C33.9281 17.1305 33.9208 17.1895 33.9208 17.3342ZM15.3499 19.4569C15.3504 19.546 15.3587 19.5776 15.3683 19.5273C15.378 19.477 15.3776 19.4042 15.3675 19.3655C15.3573 19.3269 15.3495 19.368 15.3499 19.4569ZM13.8976 20.1647C13.8976 20.2647 13.9055 20.3056 13.9151 20.2556C13.9247 20.2055 13.9247 20.1236 13.9151 20.0736C13.9055 20.0236 13.8976 20.0646 13.8976 20.1647ZM6.38602 20.1141C6.823 20.1206 7.54963 20.1206 8.00066 20.1141C8.45169 20.1076 8.09408 20.1021 7.20606 20.1021C6.31805 20.1021 5.94903 20.1074 6.38602 20.1141ZM15.3491 20.3263C15.3491 20.4042 15.3575 20.4361 15.3675 20.3971C15.3777 20.3582 15.3777 20.2945 15.3675 20.2556C15.3575 20.2167 15.3491 20.2485 15.3491 20.3263ZM37.1492 24.4104C37.1492 24.5326 37.1569 24.5827 37.166 24.5215C37.1753 24.4604 37.1753 24.3604 37.166 24.2992C37.1569 24.238 37.1492 24.288 37.1492 24.4104ZM15.7838 25.401C15.8591 25.4789 15.9299 25.5426 15.9409 25.5426C15.952 25.5426 15.8995 25.4789 15.8241 25.401C15.7489 25.3232 15.6781 25.2595 15.667 25.2595C15.656 25.2595 15.7085 25.3232 15.7838 25.401ZM45.4507 25.4718C45.6181 25.6504 45.6542 25.6823 45.6542 25.6521C45.6542 25.6456 45.568 25.5592 45.4625 25.46L45.2708 25.2796L45.4507 25.4718ZM43.594 25.674C43.7612 25.8525 43.7975 25.8846 43.7975 25.8542C43.7975 25.8477 43.7113 25.7613 43.6058 25.6622L43.4141 25.4819L43.594 25.674ZM5.33847 26.149C5.33847 26.2269 5.34682 26.2588 5.35689 26.2198C5.36709 26.1809 5.36709 26.1172 5.35689 26.0783C5.34682 26.0394 5.33847 26.0712 5.33847 26.149ZM9.05205 26.149C9.05205 26.2269 9.0604 26.2588 9.0706 26.2198C9.08067 26.1809 9.08067 26.1172 9.0706 26.0783C9.0604 26.0394 9.05205 26.0712 9.05205 26.149ZM11.1721 26.4202C11.222 26.4299 11.3038 26.4299 11.3537 26.4202C11.4037 26.4106 11.3627 26.4027 11.2628 26.4027C11.1629 26.4027 11.1221 26.4106 11.1721 26.4202ZM4.57223 26.46C4.61105 26.4701 4.67465 26.4701 4.71347 26.46C4.75243 26.4498 4.72063 26.4416 4.64285 26.4416C4.5652 26.4416 4.5334 26.4498 4.57223 26.46ZM26.0064 26.5408C26.0452 26.5511 26.1088 26.5511 26.1476 26.5408C26.1866 26.5308 26.1548 26.5224 26.077 26.5224C25.9993 26.5224 25.9675 26.5308 26.0064 26.5408ZM29.2966 26.5416C29.3468 26.5512 29.4196 26.5509 29.4581 26.5407C29.4967 26.5306 29.4556 26.5228 29.3668 26.5232C29.278 26.5236 29.2464 26.5319 29.2966 26.5416ZM36.2188 26.5408C36.2577 26.5511 36.3213 26.5511 36.3602 26.5408C36.399 26.5308 36.3672 26.5224 36.2895 26.5224C36.2118 26.5224 36.18 26.5308 36.2188 26.5408ZM39.4481 26.5408C39.4869 26.5511 39.5505 26.5511 39.5893 26.5408C39.6283 26.5308 39.5965 26.5224 39.5187 26.5224C39.4411 26.5224 39.4093 26.5308 39.4481 26.5408ZM19.5377 36.0052C19.5377 36.0329 20.7351 36.0322 22.0606 36.0038C22.3492 35.9975 21.8996 35.9885 21.0616 35.9837C20.2235 35.9788 19.5377 35.9885 19.5377 36.0052ZM24.0864 36.0051C24.4679 36.0117 25.1036 36.0117 25.4991 36.0051C25.8947 35.9985 25.5825 35.9932 24.8055 35.993C24.0284 35.993 23.7048 35.9985 24.0864 36.0051ZM28.5394 36.0037C29.8147 36.0322 30.9116 36.0329 30.8945 36.0052C30.8842 35.9885 30.2365 35.9788 29.4552 35.9836C28.674 35.9885 28.2618 35.9975 28.5394 36.0037ZM32.4674 36.0051C32.8852 36.0117 33.5573 36.0117 33.961 36.0051C34.3647 35.9986 34.023 35.9932 33.2015 35.9932C32.3801 35.9932 32.0498 35.9986 32.4674 36.0051ZM29.4274 36.1366L27.9944 36.1584L29.4149 36.1677C30.3285 36.1737 30.8443 36.1627 30.8604 36.1366C30.874 36.1143 30.8797 36.1004 30.8728 36.1056C30.8659 36.1106 30.2155 36.1247 29.4274 36.1366ZM20.3955 36.1669C20.8118 36.1734 21.493 36.1734 21.9093 36.1669C22.3255 36.1603 21.985 36.155 21.1523 36.155C20.3198 36.155 19.9793 36.1603 20.3955 36.1669ZM24.1267 36.1669C24.5083 36.1735 25.144 36.1735 25.5396 36.1669C25.9351 36.1603 25.6229 36.1548 24.8459 36.1548C24.0688 36.1548 23.7452 36.1603 24.1267 36.1669ZM32.4042 36.1669C32.8094 36.1735 33.4725 36.1735 33.8776 36.1669C34.2828 36.1603 33.9513 36.155 33.1409 36.155C32.3306 36.155 31.9992 36.1603 32.4042 36.1669ZM20.7211 36.6522C21.1388 36.6587 21.8109 36.6587 22.2146 36.6522C22.6183 36.6455 22.2766 36.6401 21.4551 36.6401C20.6337 36.6402 20.3034 36.6455 20.7211 36.6522ZM24.3716 36.6522C24.7545 36.6588 25.3812 36.6588 25.7641 36.6522C26.1472 36.6455 25.8338 36.6401 25.0679 36.6401C24.3019 36.6401 23.9886 36.6455 24.3716 36.6522ZM28.4862 36.6522C28.8678 36.6588 29.5036 36.6588 29.8991 36.6522C30.2946 36.6455 29.9824 36.6401 29.2053 36.6401C28.4283 36.6401 28.1048 36.6455 28.4862 36.6522ZM32.1244 36.6522C32.5309 36.6587 33.1849 36.6587 33.5775 36.6522C33.9701 36.6455 33.6374 36.6401 32.8382 36.6401C32.0389 36.6401 31.7178 36.6455 32.1244 36.6522ZM29.165 36.7836L27.7522 36.8053L29.1524 36.8148C30.0526 36.8207 30.5617 36.8096 30.5777 36.7836C30.5915 36.7614 30.5971 36.7473 30.5902 36.7525C30.5834 36.7576 29.942 36.7716 29.165 36.7836ZM32.7776 36.7836L31.3044 36.8053L32.7652 36.8146C33.7058 36.8207 34.235 36.8096 34.251 36.7836C34.2648 36.7614 34.2704 36.7473 34.2635 36.7525C34.2566 36.7577 33.588 36.7716 32.7776 36.7836ZM20.779 36.8138C21.1841 36.8205 21.8472 36.8205 22.2524 36.8138C22.6575 36.8073 22.326 36.8019 21.5157 36.8019C20.7053 36.8019 20.3739 36.8073 20.779 36.8138ZM24.4295 36.8138C24.7999 36.8205 25.4175 36.8205 25.8019 36.8138C26.1863 36.8072 25.8833 36.8018 25.1284 36.8018C24.3736 36.8018 24.0591 36.8072 24.4295 36.8138ZM18.0772 38.5526C18.4838 38.5592 19.1377 38.5592 19.5303 38.5526C19.9229 38.546 19.5903 38.5405 18.7911 38.5405C17.9918 38.5406 17.6705 38.546 18.0772 38.5526ZM21.5838 38.5526C21.9652 38.5592 22.601 38.5592 22.9965 38.5526C23.392 38.546 23.0798 38.5405 22.3028 38.5405C21.5257 38.5405 21.2022 38.546 21.5838 38.5526ZM24.9998 38.5526C25.373 38.5592 25.9724 38.5592 26.3319 38.5526C26.6912 38.5458 26.3858 38.5404 25.6531 38.5404C24.9205 38.5404 24.6265 38.546 24.9998 38.5526ZM27.9439 38.5526C28.3158 38.5592 28.9243 38.5592 29.2962 38.5526C29.668 38.546 29.3638 38.5405 28.62 38.5405C27.8763 38.5405 27.5721 38.546 27.9439 38.5526ZM31.2715 38.5526C31.653 38.5592 32.2887 38.5592 32.6842 38.5526C33.0797 38.546 32.7676 38.5405 31.9906 38.5405C31.2135 38.5405 30.8899 38.546 31.2715 38.5526ZM34.0553 38.5526C34.0384 38.5803 35.1784 38.5795 36.4509 38.5511C36.7285 38.545 36.3072 38.536 35.5148 38.5311C34.7225 38.5263 34.0657 38.536 34.0553 38.5526ZM24.3761 38.6947C24.3932 38.7117 24.9962 38.7208 25.7163 38.7149L27.0255 38.7042L25.6854 38.684C24.9483 38.673 24.3591 38.6777 24.3761 38.6947ZM18.1755 38.7144C18.5695 38.7209 19.2144 38.7209 19.6085 38.7144C20.0025 38.7077 19.68 38.7023 18.8919 38.7023C18.1038 38.7023 17.7814 38.7077 18.1755 38.7144ZM21.6671 38.7144C22.05 38.721 22.6768 38.721 23.0597 38.7144C23.4426 38.7076 23.1292 38.7023 22.3634 38.7023C21.5974 38.7023 21.2841 38.7076 21.6671 38.7144ZM27.9464 38.7144C28.3198 38.721 28.9192 38.721 29.2786 38.7143C29.6379 38.7076 29.3325 38.7022 28.5999 38.7022C27.8672 38.7022 27.5732 38.7076 27.9464 38.7144ZM31.2311 38.7143C31.6127 38.7209 32.2484 38.721 32.6439 38.7144C33.0395 38.7077 32.7273 38.7023 31.9502 38.7023C31.1732 38.7023 30.8496 38.7076 31.2311 38.7143ZM34.685 38.7144C35.079 38.7209 35.7239 38.7209 36.118 38.7144C36.512 38.7077 36.1896 38.7023 35.4014 38.7023C34.6133 38.7023 34.2909 38.7077 34.685 38.7144Z" fill="#486FBD"/>
<path fill-rule="evenodd" clip-rule="evenodd" d="M19.4262 13.3988C19.465 13.409 19.5286 13.409 19.5674 13.3988C19.6063 13.3887 19.5745 13.3804 19.4968 13.3804C19.4192 13.3804 19.3874 13.3887 19.4262 13.3988ZM26.9951 13.6826C27.0453 13.6923 27.1181 13.6919 27.1566 13.6818C27.1952 13.6717 27.1541 13.6637 27.0654 13.6643C26.9766 13.6647 26.945 13.6729 26.9951 13.6826ZM37.8531 13.6826C37.9031 13.6922 37.9848 13.6922 38.0348 13.6826C38.0847 13.6729 38.0438 13.6651 37.9439 13.6651C37.844 13.6651 37.8032 13.6729 37.8531 13.6826ZM6.50918 19.1026C6.8811 19.1094 7.48954 19.1094 7.86147 19.1026C8.23327 19.096 7.92905 19.0905 7.18532 19.0905C6.4416 19.0905 6.13738 19.096 6.50918 19.1026ZM29.6791 21.0008C29.7179 21.0109 29.7815 21.0109 29.8203 21.0008C29.8591 20.9905 29.8273 20.9822 29.7497 20.9822C29.672 20.9822 29.6402 20.9905 29.6791 21.0008ZM2.9167 26.4201C2.97765 26.4294 3.07756 26.4294 3.13864 26.4201C3.19972 26.4109 3.14977 26.4034 3.02761 26.4034C2.90557 26.4034 2.85562 26.4109 2.9167 26.4201ZM3.48235 26.4202C3.54369 26.4295 3.63446 26.4293 3.68414 26.4197C3.73383 26.41 3.68361 26.4025 3.57258 26.4027C3.46154 26.4031 3.421 26.4109 3.48235 26.4202ZM10.6669 26.4206C10.7501 26.4294 10.8863 26.4294 10.9697 26.4206C11.0529 26.4119 10.9848 26.4048 10.8182 26.4048C10.6517 26.4048 10.5835 26.4119 10.6669 26.4206ZM11.5965 26.421C11.7026 26.4293 11.866 26.4293 11.9598 26.4208C12.0535 26.4123 11.9666 26.4054 11.7668 26.4055C11.567 26.4056 11.4904 26.4127 11.5965 26.421ZM27.2772 26.5023C27.5049 26.5094 27.8772 26.5094 28.1048 26.5023C28.3323 26.495 28.1462 26.4891 27.691 26.4891C27.2359 26.4891 27.0497 26.495 27.2772 26.5023ZM37.5323 26.5023C37.761 26.5094 38.1243 26.5094 38.3396 26.5021C38.5548 26.495 38.3677 26.489 37.9237 26.4891C37.4797 26.4891 37.3035 26.4951 37.5323 26.5023ZM25.7635 26.5404C25.8024 26.5506 25.866 26.5506 25.9048 26.5404C25.9437 26.5303 25.9119 26.5219 25.8342 26.5219C25.7565 26.5219 25.7247 26.5303 25.7635 26.5404ZM29.5786 26.5412C29.6288 26.5507 29.7014 26.5504 29.74 26.5402C29.7787 26.5301 29.7376 26.5223 29.6487 26.5227C29.5599 26.5231 29.5284 26.5315 29.5786 26.5412ZM35.9357 26.5404C35.9745 26.5506 36.0381 26.5506 36.0769 26.5404C36.1158 26.5303 36.0841 26.5219 36.0063 26.5219C35.9287 26.5219 35.8969 26.5303 35.9357 26.5404ZM39.6897 26.5404C39.7285 26.5506 39.7921 26.5506 39.8309 26.5404C39.8699 26.5303 39.8381 26.5219 39.7603 26.5219C39.6827 26.5219 39.6509 26.5303 39.6897 26.5404ZM20.8288 37.2971C22.1015 37.3255 23.2415 37.3263 23.2244 37.2986C23.2141 37.282 22.5574 37.2723 21.765 37.2771C20.9726 37.282 20.5514 37.291 20.8288 37.2971ZM23.9634 37.2986C23.9531 37.3153 24.338 37.3244 24.8188 37.3186C26.4638 37.2993 26.6211 37.2857 25.3018 37.277C24.5759 37.2722 23.9737 37.282 23.9634 37.2986ZM28.2865 37.2986C28.6694 37.3052 29.2961 37.3052 29.6791 37.2986C30.062 37.292 29.7486 37.2865 28.9828 37.2865C28.2168 37.2865 27.9034 37.292 28.2865 37.2986ZM31.778 37.2986C32.1722 37.3052 32.8169 37.3052 33.211 37.2986C33.605 37.292 33.2827 37.2865 32.4945 37.2865C31.7064 37.2865 31.3839 37.292 31.778 37.2986Z" fill="#849CD4"/>
<path fill-rule="evenodd" clip-rule="evenodd" d="M0.322516 19.8812V39.4924H26.4795C40.8657 39.4924 52.6363 39.4832 52.6363 39.4718C52.6363 39.4605 52.4568 39.0916 52.2372 38.6523C47.3473 28.865 46.497 17.9067 49.797 7.20473C50.478 4.99638 51.5952 2.26441 52.4471 0.724485C52.5734 0.496323 52.6767 0.30068 52.6767 0.289796C52.6767 0.278912 40.8971 0.27002 26.4996 0.27002H0.322516V19.8812ZM8.08569 9.82295C8.13299 9.85759 8.21859 10.1499 8.35997 10.7588C8.69162 12.1875 11.6488 24.0338 11.7676 24.41C12.0861 25.4179 12.3412 25.6838 13.0902 25.7884C13.5055 25.8464 13.5407 25.8821 13.513 26.2166C13.4894 26.5023 13.49 26.502 12.9973 26.4688C12.459 26.4326 10.3024 26.4306 9.67331 26.4658C9.14198 26.4954 9.14463 26.4959 9.08434 26.3373C8.95026 25.9838 9.05254 25.8633 9.55684 25.7807C10.4655 25.6317 10.4585 25.7853 9.70338 22.5757C9.19578 20.4187 9.1441 20.2409 9.00339 20.1655C8.8322 20.0736 5.51506 20.1121 5.39422 20.2073C5.26384 20.31 5.26649 20.3009 4.76577 22.368C3.94374 25.7612 3.93924 25.6919 4.98479 25.8082C5.32227 25.8458 5.41515 25.964 5.34798 26.2704C5.30028 26.4878 5.26755 26.498 4.73861 26.4604C4.33395 26.4316 1.92656 26.4485 1.67534 26.4818C1.56298 26.4967 1.46692 26.1974 1.5178 25.9911L1.55371 25.8454L1.92192 25.7997C2.86214 25.6831 2.94694 25.5633 3.55565 23.4954C5.11491 18.1975 6.94182 11.4588 6.94222 11.0029L6.94248 10.7173L7.09605 10.6309C7.27413 10.5305 7.65109 10.1439 7.78505 9.92396C7.88124 9.76628 7.96869 9.73681 8.08569 9.82295ZM7.14799 13.2802C6.8606 14.2525 5.69115 18.7486 5.69115 18.8809C5.69115 19.078 5.64729 19.0725 7.21079 19.0725C8.77535 19.0725 8.75892 19.0753 8.75892 18.8124C8.75892 18.6302 7.65334 13.9792 7.36211 12.9364C7.31719 12.7754 7.2789 12.8367 7.14799 13.2802ZM20.0671 13.4139C20.611 13.4697 21.3252 13.6219 21.865 13.7971C22.1022 13.8743 22.3183 13.9372 22.3451 13.9372C22.4172 13.9372 22.4429 14.0358 22.4431 14.3145C22.4435 14.5355 22.5177 15.6575 22.5899 16.5335C22.6154 16.8417 22.6144 16.8457 22.5091 16.8937C22.299 16.9897 22.2236 16.905 22.1212 16.4578C21.6306 14.3157 19.762 13.4069 17.8229 14.3675C14.5115 16.0076 14.4964 23.7907 17.8009 25.7007C19.7093 26.8038 21.6559 25.9469 22.3668 23.6909C22.5225 23.1969 22.8808 23.214 22.8298 23.7131C22.7687 24.3092 22.4247 25.6685 22.2469 26.0155C22.1465 26.2117 21.533 26.4705 20.7274 26.6564C17.0679 27.5009 14.1782 24.9915 13.9285 20.7524C13.6635 16.2526 16.3562 13.0337 20.0671 13.4139ZM29.7232 13.6558C31.7823 13.7808 32.9166 14.3744 33.5448 15.6557C34.4422 17.4859 33.7715 19.6149 32.0296 20.4652C31.3006 20.8212 29.8031 21.1353 29.6081 20.9733C29.4655 20.8548 29.5307 20.6164 29.7188 20.5681C31.3478 20.1498 32.0536 19.3714 32.2203 17.8089C32.3948 16.1729 31.7096 14.8631 30.4592 14.4426C29.8198 14.2276 28.7745 14.2057 28.5459 14.4025L28.4372 14.4962L28.4254 19.3419C28.4087 26.1958 28.3415 25.8065 29.5691 25.9745C30.1222 26.0502 30.1529 26.0654 30.1521 26.2648C30.1509 26.5467 30.3179 26.528 27.7748 26.5305L25.4717 26.5328L25.4252 26.4204C25.3355 26.2034 25.42 26.0542 25.6532 26.0175C27.0112 25.8044 26.9212 26.2255 26.9218 20.0833C26.9222 14.1384 26.9873 14.5074 25.9114 14.3667C25.418 14.3022 25.3492 14.2639 25.3492 14.0553C25.3492 13.7605 25.6141 13.707 27.3271 13.6563C28.8412 13.6114 28.9927 13.6114 29.7232 13.6558ZM41.2511 13.7175C43.2553 13.9944 44.2968 15.0846 44.2998 16.9092C44.3021 18.3138 43.6442 19.3834 42.3691 20.0479C41.9638 20.2592 41.9634 20.2563 42.4883 21.1631C44.4828 24.6099 45.6533 26.0109 46.7553 26.2702C47.7534 26.5053 46.5858 26.8547 45.459 26.6582C44.0416 26.4111 43.3219 25.6913 41.6547 22.8533C40.4334 20.7742 40.4464 20.7871 39.5175 20.743C38.9638 20.7167 38.7234 20.7648 38.6872 20.9092C38.6234 21.1637 38.6947 25.1146 38.767 25.3399C38.9006 25.7555 39.1074 25.8856 39.8046 25.9926C40.1804 26.0502 40.2474 26.1238 40.1679 26.3913L40.1258 26.5328L37.8741 26.53L35.6222 26.5272L35.5882 26.3885C35.5251 26.1315 35.5979 26.0402 35.8921 26.008C37.2377 25.8601 37.1733 26.1553 37.1733 20.144C37.1733 14.2476 37.217 14.5056 36.1928 14.3616C35.9633 14.3294 35.7766 14.2825 35.7577 14.2525C35.7069 14.1725 35.7168 13.9204 35.7736 13.8465C35.9185 13.6579 40.1056 13.5592 41.2511 13.7175ZM39.0997 14.3015C38.6537 14.3586 38.6919 14.1015 38.6782 17.1428C38.6647 20.152 38.6569 20.0278 38.8631 20.0718C39.1559 20.134 40.6038 20.1052 40.9 20.0313C42.0951 19.7328 42.7256 18.6752 42.6524 17.0912C42.5609 15.1088 41.1919 14.0338 39.0997 14.3015ZM24.7437 32.7971C24.7437 32.8064 24.7547 32.8427 24.7682 32.8779C24.7902 32.9355 24.6388 32.9419 23.2343 32.9419C22.3771 32.9419 21.676 32.9343 21.676 32.9249C21.676 32.9156 21.665 32.8792 21.6514 32.8441C21.6293 32.7865 21.7809 32.7801 23.1853 32.7801C24.0424 32.7801 24.7437 32.7878 24.7437 32.7971ZM32.615 32.7971C32.615 32.9418 32.6132 32.9419 30.996 32.9419C30.1326 32.9419 29.4261 32.9343 29.4261 32.9249C29.4261 32.7802 29.4279 32.7801 31.045 32.7801C31.9085 32.7801 32.615 32.7878 32.615 32.7971ZM25.107 33.508C25.1498 33.5881 25.1376 33.5888 23.615 33.5888C22.7705 33.5888 22.0795 33.5812 22.0795 33.572C22.0795 33.5627 22.0685 33.5263 22.055 33.491C22.0121 33.3787 25.0469 33.3956 25.107 33.508ZM32.2113 33.444C32.2113 33.5884 32.2075 33.5888 30.6328 33.5888C29.7914 33.5888 29.1032 33.5812 29.1032 33.572C29.1032 33.4274 29.1071 33.4271 30.6817 33.4271C31.5231 33.4271 32.2113 33.4347 32.2113 33.444ZM25.4299 34.1549C25.4727 34.2351 25.4607 34.2359 23.9796 34.2359C22.5274 34.2359 22.4849 34.2336 22.4429 34.1549C22.4001 34.0747 22.4121 34.0741 23.8932 34.0741C25.3454 34.0741 25.3879 34.0763 25.4299 34.1549ZM31.8077 34.0909C31.8077 34.2352 31.8017 34.2359 30.268 34.2359C28.7899 34.2359 28.7778 34.2351 28.8206 34.1549C28.8605 34.0802 31.8077 34.0171 31.8077 34.0909ZM25.7124 34.738C25.7124 34.7473 25.7236 34.7836 25.7369 34.8188C25.7591 34.8764 25.6146 34.8828 24.2838 34.8828C23.4711 34.8828 22.8062 34.8752 22.8062 34.8658C22.8062 34.8565 22.7952 34.8201 22.7817 34.785C22.7595 34.7274 22.904 34.721 24.2348 34.721C25.0475 34.721 25.7124 34.7287 25.7124 34.738ZM31.4367 34.7917C31.4241 34.8574 31.3164 34.8633 29.9588 34.8731C28.5022 34.8837 28.4945 34.8833 28.5379 34.8024C28.6012 34.6837 31.4595 34.6732 31.4367 34.7917ZM22.2411 35.3849C22.2411 35.3942 22.2521 35.4306 22.2656 35.4657C22.3086 35.5782 19.1526 35.5613 19.0925 35.4489C19.0497 35.3686 19.0619 35.368 20.6452 35.368C21.5229 35.368 22.2411 35.3756 22.2411 35.3849ZM25.9951 35.4489C26.0379 35.529 26.0258 35.5297 24.5837 35.5297C23.7836 35.5297 23.1291 35.5221 23.1291 35.5129C23.1291 35.5036 23.1181 35.4672 23.1046 35.4319C23.0615 35.3196 25.935 35.3365 25.9951 35.4489ZM31.1619 35.4489C31.1065 35.5524 28.2555 35.5788 28.2555 35.4758C28.2555 35.3726 28.3183 35.368 29.7571 35.368C31.1925 35.368 31.2047 35.3687 31.1619 35.4489ZM35.1581 35.4489C35.116 35.5276 35.0736 35.5297 33.5608 35.5297C32.0192 35.5297 32.007 35.529 32.0499 35.4489C32.0919 35.3702 32.1344 35.368 33.6472 35.368C35.1887 35.368 35.2009 35.3687 35.1581 35.4489ZM22.6029 36.0528C22.6258 36.0958 22.6447 36.1412 22.6447 36.1538C22.6447 36.1664 21.9786 36.1768 21.1645 36.1768C19.6343 36.1768 19.5366 36.1665 19.5366 36.0087C19.5366 35.9256 22.5583 35.969 22.6029 36.0528ZM26.23 36.0857L26.2428 36.1768H24.8517C23.3934 36.1768 23.4117 36.1788 23.4117 36.0111C23.4117 35.9884 23.9677 35.9777 24.8143 35.984L26.217 35.9948L26.23 36.0857ZM30.8913 36.0001C30.9054 36.014 30.8986 36.0596 30.8765 36.1011C30.8142 36.2175 28.0133 36.219 28.0133 36.1026C28.0133 36.0618 28.0255 36.0163 28.0402 36.0014C28.0745 35.9672 30.8571 35.9657 30.8913 36.0001ZM34.6737 36.0271C34.6737 36.1696 34.6 36.1768 33.1316 36.1768C32.281 36.1768 31.6866 36.1614 31.6866 36.1396C31.6866 35.9721 31.6638 35.9745 33.2046 35.9745C34.3831 35.9745 34.6737 35.985 34.6737 36.0271ZM22.9432 36.6855C22.9566 36.7207 22.9676 36.7661 22.9676 36.7865C22.9676 36.846 20.0886 36.8348 20.029 36.7751C19.8816 36.6275 19.9366 36.6215 21.4496 36.6215C22.752 36.6215 22.9215 36.6287 22.9432 36.6855ZM26.455 36.6855C26.4683 36.7207 26.4795 36.7661 26.4795 36.7865C26.4795 36.846 23.8022 36.8348 23.7427 36.7751C23.596 36.6283 23.6544 36.6215 25.0623 36.6215C26.2726 36.6215 26.4332 36.6288 26.455 36.6855ZM30.5895 36.7125L30.5765 36.8035L29.1739 36.8141C28.3272 36.8205 27.7711 36.8098 27.7711 36.7871C27.7711 36.6194 27.7529 36.6215 29.2112 36.6215H30.6023L30.5895 36.7125ZM34.2627 36.7125L34.2498 36.8035L32.7866 36.814C31.9818 36.8198 31.3233 36.8141 31.3233 36.8013C31.3233 36.6217 31.3249 36.6215 32.8412 36.6215H34.2756L34.2627 36.7125ZM23.262 37.3498C23.283 37.4304 23.2689 37.4311 21.8242 37.4206C20.4715 37.4108 20.3642 37.4048 20.3515 37.3392C20.3287 37.2204 23.231 37.231 23.262 37.3498ZM26.6409 37.2853C26.6409 37.2946 26.652 37.3312 26.6656 37.3668C26.688 37.4252 26.5608 37.4303 25.3239 37.4206C24.0598 37.4108 23.9567 37.4046 23.9441 37.3392C23.9314 37.273 24.0167 37.2685 25.2856 37.2685C26.0311 37.2685 26.6409 37.276 26.6409 37.2853ZM30.3546 37.3493C30.3546 37.4287 30.3277 37.4303 28.9619 37.4303C27.5653 37.4303 27.471 37.4208 27.5962 37.2954C27.6762 37.2152 30.3546 37.2677 30.3546 37.3493ZM33.947 37.2853C33.947 37.4295 33.939 37.4303 32.4478 37.4303C31.01 37.4303 30.9979 37.4295 31.0408 37.3493C31.0807 37.2746 33.947 37.2115 33.947 37.2853ZM19.8998 37.9964C19.9427 38.0765 19.9305 38.0772 18.325 38.0772C16.7279 38.0772 16.4688 38.0573 16.4688 37.9346C16.4688 37.8591 19.8591 37.92 19.8998 37.9964ZM23.4924 37.9324C23.4924 37.9417 23.5034 37.978 23.5169 38.0132C23.5598 38.1255 20.7269 38.1086 20.6668 37.9964C20.6239 37.9162 20.6361 37.9154 22.0579 37.9154C22.8469 37.9154 23.4924 37.9231 23.4924 37.9324ZM26.8544 37.9964C26.8753 38.076 26.8556 38.0772 25.5271 38.0772C24.7855 38.0772 24.1786 38.0696 24.1786 38.0602C24.1786 38.0509 24.1676 38.0145 24.1541 37.9794C24.1321 37.9219 24.2653 37.9154 25.4815 37.9154C26.7993 37.9154 26.8338 37.9175 26.8544 37.9964ZM30.1451 37.9861C30.1222 38.1049 27.4079 38.1155 27.4079 37.9969C27.4079 37.9169 27.4318 37.9154 28.7833 37.9154C30.0714 37.9154 30.1578 37.9199 30.1451 37.9861ZM33.6646 37.9324C33.6646 38.0763 33.6553 38.0772 32.1868 38.0772C31.4011 38.0772 30.7582 38.0696 30.7582 38.0602C30.7582 37.9163 30.7674 37.9154 32.2358 37.9154C33.0217 37.9154 33.6646 37.9231 33.6646 37.9324ZM37.8626 37.9346C37.8626 37.9451 37.8089 37.9815 37.7434 38.0155C37.6125 38.0833 34.3911 38.1114 34.3911 38.0448C34.3911 37.9238 34.5065 37.9154 36.1753 37.9154C37.1032 37.9154 37.8626 37.924 37.8626 37.9346ZM20.255 38.5705C20.402 38.7176 20.3446 38.7241 18.9039 38.7241C17.4599 38.7241 17.3568 38.713 17.3568 38.5561C17.3568 38.4991 20.1979 38.5132 20.255 38.5705ZM23.7273 38.6332L23.7402 38.7241H22.373C20.984 38.7241 20.909 38.7164 20.909 38.574C20.909 38.531 21.1752 38.5229 22.3117 38.5315L23.7143 38.5421L23.7273 38.6332ZM26.997 38.6337L27.01 38.7253L25.6851 38.7146L24.3603 38.7039L24.3473 38.6124L24.3343 38.5209L25.6592 38.5315L26.984 38.5421L26.997 38.6337ZM29.9436 38.6129L29.9307 38.7039L28.6213 38.7146C27.3149 38.7253 27.2208 38.7165 27.2696 38.5894C27.2929 38.5283 27.4212 38.522 28.626 38.522H29.9565L29.9436 38.6129ZM33.3819 38.5591C33.3819 38.7261 33.3993 38.7241 31.9447 38.7241C31.1285 38.7241 30.5564 38.7088 30.5564 38.6869C30.5564 38.52 30.539 38.522 31.9936 38.522C32.8098 38.522 33.3819 38.5372 33.3819 38.5591ZM36.9341 38.549C36.9341 38.7153 36.8566 38.7241 35.3939 38.7241C34.6204 38.7241 33.9875 38.7139 33.9875 38.7013C33.9875 38.5222 33.99 38.522 35.5026 38.522C36.2899 38.522 36.9341 38.5342 36.9341 38.549ZM20.5783 39.2599C20.591 39.3262 20.508 39.3307 19.2853 39.3307C17.9989 39.3307 17.8815 39.3198 17.8815 39.2007C17.8815 39.1248 20.5637 39.1836 20.5783 39.2599ZM23.9287 39.2599C23.9414 39.3262 23.8541 39.3307 22.5467 39.3307C21.1751 39.3307 21.1511 39.3292 21.1511 39.2493C21.1511 39.1305 23.9059 39.1411 23.9287 39.2599ZM27.1253 39.2499C27.1253 39.329 27.0984 39.3307 25.8134 39.3307C24.5284 39.3307 24.5015 39.329 24.5015 39.2499C24.5015 39.1706 24.5284 39.1689 25.8134 39.1689C27.0984 39.1689 27.1253 39.1706 27.1253 39.2499ZM29.8011 39.2499C29.7806 39.3286 29.746 39.3307 28.4728 39.3307C27.1926 39.3307 27.1657 39.329 27.1657 39.2499C27.1657 39.1706 27.1926 39.1689 28.4939 39.1689C29.8023 39.1689 29.8219 39.1701 29.8011 39.2499ZM33.1515 39.2499C33.1319 39.3244 30.3546 39.388 30.3546 39.3137C30.3546 39.1701 30.366 39.1689 31.7881 39.1689C33.1527 39.1689 33.1723 39.1701 33.1515 39.2499ZM36.4094 39.2013C36.4094 39.3197 36.2907 39.3307 35.0086 39.3307C34.2915 39.3307 33.7048 39.3231 33.7048 39.3137C33.7048 39.1705 33.7193 39.1689 35.0816 39.1689C35.8118 39.1689 36.4094 39.1835 36.4094 39.2013ZM18.2449 39.7983C18.2449 39.9751 18.2634 39.9776 19.5783 39.9776C20.3105 39.9776 20.8282 39.9622 20.8282 39.9404C20.8282 39.7743 20.8375 39.7755 19.5121 39.7755C18.8151 39.7755 18.2449 39.7858 18.2449 39.7983ZM21.3126 39.8121C21.3126 39.9796 21.2958 39.9776 22.7325 39.9776H24.1035L24.0906 39.8867L24.0776 39.7956L22.6951 39.785C21.8608 39.7786 21.3126 39.7893 21.3126 39.8121ZM24.6299 39.8664L24.6428 39.9574L27.1555 39.9678L29.6684 39.9783V39.8769V39.7755H27.1426H24.6171L24.6299 39.8664ZM30.2176 39.8394C30.2041 39.8746 30.1931 39.9203 30.1931 39.941C30.1931 39.9638 30.7412 39.9744 31.5756 39.968L32.9581 39.9574L32.971 39.8664L32.9839 39.7755H31.6129C30.4002 39.7755 30.2393 39.7829 30.2176 39.8394ZM33.503 39.8126C33.503 39.8331 33.492 39.8785 33.4785 39.9136C33.4565 39.9711 33.5812 39.9776 34.7083 39.9776C36.0278 39.9776 36.0461 39.9752 36.0461 39.7983C36.0461 39.7858 35.4738 39.7755 34.7745 39.7755C34.0293 39.7755 33.503 39.7909 33.503 39.8126ZM31.9692 40.1495C31.9692 40.205 32.0042 40.2574 32.0573 40.2814C32.3251 40.4026 32.1884 40.4224 31.0845 40.4224C30.0182 40.4224 29.9913 40.4244 29.9913 40.5033C29.9913 40.5822 30.0182 40.5842 31.1215 40.5842H32.2517V40.8672V41.1503H31.2224H30.1931V40.9326C30.1931 40.6617 30.3143 40.6824 28.8105 40.6966C27.5254 40.7087 27.5193 40.7099 27.7308 40.9076C27.9539 41.1166 27.9089 41.1503 27.407 41.1503C26.997 41.1503 26.9499 41.1422 26.8057 41.0466C26.3963 40.7752 26.1545 40.7307 24.996 40.7144C23.8202 40.6979 23.7965 40.7038 24.0575 40.9481C24.2703 41.1472 24.2568 41.1503 23.1492 41.1503H22.12V40.9514C22.12 40.6966 22.2185 40.7128 20.8081 40.7359C19.5181 40.757 19.4411 40.7701 19.648 40.9323C19.8594 41.0981 19.8233 41.1503 19.4975 41.1503C19.1856 41.1503 19.1569 41.1001 19.3677 40.9245C19.5477 40.7744 19.4587 40.7458 18.81 40.7458C18.1578 40.7458 18.0694 40.7749 18.259 40.9264C18.3183 40.9737 18.3848 41.0753 18.4068 41.1519C18.4648 41.3547 18.4589 43.7307 18.3999 43.904C18.1299 44.6963 16.8885 44.6226 16.7095 43.8037C16.6798 43.6672 16.6688 43.164 16.6775 42.3292L16.6908 41.0616L16.8018 40.9731C17.013 40.8044 16.9612 40.7863 16.2669 40.7863C15.5625 40.7863 15.5248 40.8011 15.7488 40.9883L15.8767 41.0952L15.9077 41.6788C15.9248 41.9996 15.94 42.6159 15.9415 43.048C15.9448 44.0896 15.98 44.2242 16.3449 44.591C16.9407 45.1899 18.0894 45.2466 18.7011 44.7073L18.8829 44.5468H19.3473C19.8359 44.5468 19.9591 44.6279 19.6707 44.7597C19.6165 44.7844 19.5791 44.8319 19.586 44.8675C19.5968 44.9234 19.7501 44.9323 20.8576 44.9417L22.117 44.9523L22.1438 44.7496L22.1707 44.5468H23.1948C23.7581 44.5468 24.219 44.5569 24.219 44.5694C24.219 44.5817 24.1619 44.644 24.0924 44.7077C23.8296 44.9481 23.8941 44.9641 24.9965 44.9329C26.0681 44.9027 26.3248 44.8618 26.6703 44.6665C26.8868 44.544 27.8519 44.477 27.8519 44.5844C27.8519 44.6304 27.7498 44.736 27.6839 44.758C27.6566 44.767 27.6469 44.8039 27.6616 44.8424C27.6855 44.9045 27.8017 44.9108 28.9405 44.9108H30.1931L30.1936 44.8198C30.194 44.7698 30.2051 44.6879 30.2185 44.6379L30.2429 44.5468L31.2372 44.548L32.2316 44.5492L32.1004 44.6688C31.8561 44.8914 32.0033 44.9508 32.7967 44.9504C33.3753 44.9502 33.4973 44.8814 33.2657 44.6863C33.0947 44.542 33.059 44.3293 33.059 43.4519V42.6759L33.2463 42.7015C33.3493 42.7157 33.6329 42.7272 33.8766 42.7272H34.3196L34.4491 42.8687C34.6387 43.0762 34.714 43.0589 34.714 42.8081V42.6059H34.9562H35.1984V42.8485V43.0912H34.1691C33.1666 43.0912 33.1397 43.0933 33.1397 43.172C33.1397 43.2508 33.1666 43.253 34.1691 43.253H35.1984V43.4955V43.7381H34.1849C33.2774 43.7381 33.174 43.7449 33.196 43.8021C33.2094 43.8372 33.2205 43.8736 33.2205 43.8829C33.2205 43.8923 33.6655 43.8999 34.2094 43.8999H35.1984V44.1425V44.3852H34.2454C33.3932 44.3852 33.2951 44.3918 33.3171 44.4491C33.3305 44.4843 33.3415 44.5207 33.3415 44.53C33.3415 44.5392 33.7503 44.5468 34.2498 44.5468C35.1857 44.5468 35.2397 44.5574 35.0525 44.705C34.8374 44.8745 34.9342 44.9108 35.6008 44.9108C36.2788 44.9108 36.3191 44.8902 36.0966 44.6576C35.9702 44.5256 35.9363 44.0212 35.9286 42.1518L35.925 41.273L36.0302 41.2466C36.4021 41.1532 36.9499 41.2984 37.0915 41.5279C37.4326 42.0806 37.0473 42.6059 36.3012 42.6059C35.9715 42.6059 36.0078 42.6826 37.124 44.3476C37.5434 44.9729 37.4898 44.9558 38.8212 44.8914C39.5395 44.8566 39.6003 44.8378 39.4569 44.6941C39.3663 44.6034 39.3856 44.4811 39.5505 44.102L39.6999 43.7584L40.4505 43.7474L41.201 43.7364L41.3054 43.9697C41.4832 44.3672 41.5237 44.5699 41.4428 44.6594C41.2495 44.8733 41.2991 44.8855 42.2523 44.8566C42.7351 44.842 43.2801 44.8301 43.4632 44.8299C43.7956 44.8299 43.9452 44.7401 43.7139 44.6794C43.517 44.6279 43.4945 44.4903 43.4806 43.2542L43.4676 42.103L43.5521 42.1796C43.5986 42.2217 44.2039 42.872 44.8971 43.6247C45.8412 44.6498 46.1779 44.9907 46.2384 44.9824C46.318 44.9715 46.3188 44.9467 46.3035 43.189C46.2854 41.1221 46.2954 40.9812 46.4705 40.8174C46.6566 40.6431 46.5893 40.6209 45.9123 40.6336C45.4088 40.643 45.31 40.6548 45.31 40.7055C45.31 40.7388 45.3511 40.772 45.4013 40.7792C45.5964 40.8069 45.6198 40.9461 45.6418 42.2181L45.662 43.3945L45.5604 43.2933C45.5045 43.2377 44.8927 42.5735 44.201 41.8175C43.5036 41.0552 42.9129 40.4427 42.8753 40.4427C42.8125 40.4427 42.8073 40.5959 42.8073 42.4513C42.8073 44.4413 42.8065 44.4609 42.7209 44.5742C42.4989 44.8678 42.4293 44.7561 41.4109 42.4756C40.6178 40.6995 40.5306 40.5235 40.4442 40.5235C40.3573 40.5235 40.2729 40.6995 39.459 42.5796C38.4772 44.8476 38.4685 44.8626 38.2561 44.636C38.1477 44.5204 37.1808 43.1501 37.149 43.067C37.1384 43.0391 37.1895 42.9989 37.2686 42.9728C38.1624 42.6772 38.2155 41.2469 37.3486 40.8191L37.0775 40.6853L36.0166 40.6727C34.8377 40.6588 34.8027 40.6669 35.0347 40.8991C35.2809 41.1458 35.266 41.1503 34.194 41.1503C33.2639 41.1503 33.2292 41.1531 33.2088 41.2311C33.1881 41.3103 33.2076 41.3121 34.1931 41.3121H35.1984V41.5546V41.7972H34.9562C34.8217 41.7972 34.714 41.7793 34.714 41.7568C34.714 41.7345 34.6776 41.7164 34.6333 41.7164C34.5889 41.7164 34.5526 41.7345 34.5526 41.7568C34.5526 41.7822 34.2902 41.7972 33.8462 41.7972C33.1666 41.7972 33.1397 41.8002 33.1397 41.8782C33.1397 41.9551 33.1679 41.9591 33.7352 41.963C34.0961 41.9655 34.2907 41.9798 34.2297 41.9995C34.1741 42.0173 33.8881 42.0336 33.5939 42.0358L33.059 42.0398V41.3727V40.7055L33.6544 40.7058C34.3604 40.706 34.5275 40.7419 34.6154 40.912C34.7153 41.1055 34.8123 41.053 34.8271 40.7973L34.8393 40.5868L35.2909 40.5754C35.6835 40.5655 35.7441 40.5547 35.7559 40.4931C35.7681 40.4291 35.7256 40.4224 35.3046 40.4224H34.8397L34.8274 40.2506L34.8149 40.0787L33.392 40.0681L31.9692 40.0575V40.1495ZM0.0400264 40.2968C0.0400264 40.3421 0.0760664 40.3985 0.120321 40.4222C0.323046 40.5308 0.325564 40.561 0.313506 42.6674L0.302376 44.6288L0.145761 44.7726C-0.0776336 44.9775 -0.0467611 44.9862 1.00966 45.0167C2.02262 45.046 2.36394 45.0157 2.70089 44.8668C3.63369 44.4544 3.7536 43.0985 2.90733 42.5324L2.67784 42.3789L2.85777 42.2222C3.4523 41.7042 3.27766 40.7019 2.53301 40.3573L2.2802 40.2404L1.16018 40.2275C0.0561914 40.2148 0.0400264 40.2157 0.0400264 40.2968ZM18.5349 40.4926C18.5476 40.5586 18.64 40.5648 19.7723 40.5746C20.923 40.5847 20.995 40.5811 20.9822 40.514C20.9695 40.448 20.8771 40.4419 19.7449 40.4319C18.5941 40.4219 18.5221 40.4254 18.5349 40.4926ZM21.4742 40.5033C21.4742 40.5826 21.5011 40.5842 22.8869 40.5842C24.2728 40.5842 24.2997 40.5826 24.2997 40.5033C24.2997 40.424 24.2728 40.4224 22.8869 40.4224C21.5011 40.4224 21.4742 40.424 21.4742 40.5033ZM24.711 40.4931C24.7237 40.5595 24.8757 40.5647 27.1233 40.5744C29.5397 40.5848 29.5843 40.5827 29.587 40.4528C29.5873 40.4361 28.4872 40.4224 27.1425 40.4224C24.8355 40.4224 24.6981 40.4264 24.711 40.4931ZM47.9899 40.6398C46.1274 41.2984 46.1678 44.3545 48.0466 44.9157C48.4914 45.0485 49.2835 45.0318 49.7404 44.88L49.952 44.8096L49.9981 44.5468C50.0813 44.0726 50.0377 43.9225 49.8557 44.0562C48.4651 45.0781 46.7933 43.5869 47.5393 41.9899C47.9169 41.1816 48.9797 40.879 49.7061 41.3727C49.9862 41.5632 50.0125 41.5351 50.0125 41.0457V40.6175L49.8612 40.6422C49.7777 40.6559 49.583 40.6395 49.4273 40.6061C48.9794 40.5096 48.314 40.5251 47.9899 40.6398ZM7.56576 40.6285C7.55066 40.6529 7.55172 41.524 7.56815 42.5644C7.59942 44.5455 7.59226 44.6598 7.42756 44.8091C7.22749 44.9904 7.19423 44.9315 6.06043 42.3872C5.3387 40.7675 5.2229 40.5518 5.12697 40.648C5.10404 40.671 4.68905 41.6077 4.2049 42.7295C3.44912 44.481 3.30933 44.7767 3.21618 44.822C3.07626 44.8901 3.07746 44.9762 3.21883 45.0043C3.66205 45.0926 4.40974 44.941 4.19297 44.8068C4.12368 44.7638 4.17376 44.5181 4.31686 44.1987L4.44565 43.911L4.71516 43.8856C4.86342 43.8715 5.19785 43.8599 5.45835 43.8597L5.93204 43.8594L6.02876 44.0515C6.08189 44.1571 6.15821 44.3481 6.1981 44.4758L6.27084 44.7081L6.17862 44.8064C6.01379 44.982 6.06586 44.9903 7.34806 44.9904C8.50187 44.9904 8.55713 44.9869 8.55713 44.9149C8.55713 44.8733 8.52228 44.8302 8.47988 44.819C8.2855 44.7682 8.25914 44.6077 8.24284 43.3742L8.2276 42.2218L8.36593 42.3633C8.44198 42.4412 9.0544 43.1017 9.72657 43.8311C10.5197 44.6916 10.9719 45.1529 11.0145 45.1448C11.0736 45.1333 11.0819 44.9328 11.1002 43.0969L11.1203 41.0617L11.2314 40.9731C11.4415 40.8052 11.3897 40.7863 10.7166 40.7863C10.0705 40.7863 9.93923 40.8253 10.194 40.9418C10.3968 41.0343 10.4162 41.1682 10.4044 42.3927L10.3937 43.5135L9.04857 42.0488C7.77153 40.6582 7.63069 40.5233 7.56576 40.6285ZM50.8703 40.6139C50.2733 40.6273 50.1813 40.6604 50.3695 40.7942C50.5554 40.9264 50.5575 40.9488 50.5575 42.8018V44.5545L50.4406 44.6478C50.179 44.8569 50.2502 44.8703 51.6212 44.8703H52.8691L52.8943 44.7794C52.9082 44.7293 52.9313 44.52 52.9456 44.3143C52.9744 43.897 52.9497 43.861 52.7713 44.0616C52.6276 44.2231 52.4599 44.2633 51.9276 44.2636C51.3291 44.2638 51.3594 44.3003 51.3256 43.5411L51.2978 42.9197L51.8157 42.9368C52.3481 42.9543 52.4708 42.9868 52.5981 43.1443C52.7524 43.3351 52.7978 43.2173 52.7978 42.6262C52.7978 41.9959 52.7616 41.9274 52.5495 42.1548C52.4044 42.3103 52.3708 42.318 51.7774 42.332L51.302 42.3431L51.3133 41.777L51.3244 41.2109L51.9005 41.1996L52.4765 41.1885L52.6232 41.3311C52.8616 41.5631 52.8829 41.5377 52.8698 41.039L52.8584 40.6044L52.1519 40.6028C51.7634 40.6018 51.1868 40.6069 50.8703 40.6139ZM12.8671 40.7279C11.5507 41.0475 10.9249 42.6793 11.6144 43.9939C11.9881 44.7064 12.6316 45.0726 13.5097 45.0726C13.8378 45.0726 13.8577 45.0781 14.1794 45.261C15.2982 45.8969 15.4496 45.9226 15.8532 45.5437C16.0464 45.3623 16.0301 45.2744 15.8051 45.2843C15.5375 45.2959 14.6377 44.8486 14.7559 44.7628C16.2856 43.651 15.8584 41.042 14.0917 40.7063C13.7906 40.6491 13.1445 40.6605 12.8671 40.7279ZM1.95505 40.8715C2.26881 40.9587 2.46133 41.2967 2.3768 41.6115C2.28431 41.9555 1.97863 42.1252 1.4326 42.1355L1.14998 42.141L1.13898 41.4838L1.12785 40.8268L1.46188 40.8269C1.64553 40.8271 1.86747 40.8471 1.95505 40.8715ZM14.1183 41.3912C15.001 41.7778 15.2213 43.2688 14.5119 44.0553C13.8713 44.7656 12.5896 44.5008 12.2226 43.5824C12.0869 43.2429 12.0896 42.4883 12.2278 42.141C12.5199 41.4063 13.3768 41.0665 14.1183 41.3912ZM29.9508 41.4338C30.0848 41.5952 30.1931 41.5949 30.1931 41.4333V41.3121H31.2426H32.2921V41.5546V41.7972H31.0609C29.8566 41.7972 29.8297 41.799 29.8297 41.8782C29.8297 41.9573 29.8566 41.959 31.0609 41.959H32.2921V42.2016V42.4442H31.182H30.0719V42.2623C30.0719 42.0442 30.0139 42.0273 29.8695 42.2033C29.741 42.3598 29.5661 42.4015 29.0326 42.4028L28.6188 42.4038V42.1813V41.959H29.0224C29.3992 41.959 29.4261 41.9535 29.4261 41.8782C29.4261 41.8026 29.3992 41.7972 29.0224 41.7972H28.6188V41.556V41.3147L29.0528 41.2997C29.7294 41.2765 29.8332 41.2919 29.9508 41.4338ZM19.8191 41.5546V41.7972H19.4962H19.1733V41.5546V41.3121H19.4962H19.8191V41.5546ZM21.8751 41.4636C22.0238 41.642 22.12 41.6382 22.12 41.4536V41.3121H23.1695H24.219V41.5546V41.7972H22.9474C21.7028 41.7972 21.676 41.7989 21.676 41.8782C21.676 41.9573 21.7028 41.959 22.9474 41.959H24.219V42.2016V42.4442H23.1291H22.0393V42.3014C22.0393 42.099 21.9416 42.0754 21.8012 42.2438C21.6761 42.3941 21.4914 42.4343 20.8988 42.4408L20.586 42.4442V42.328C20.586 42.264 20.5747 42.1548 20.5608 42.0854L20.5357 41.959H20.8598C21.1641 41.959 21.1827 41.9541 21.1629 41.8782C21.1442 41.8065 21.1078 41.7972 20.8437 41.7972H20.5457V41.5816C20.5457 41.2952 20.5229 41.3045 21.1854 41.3192L21.7657 41.3322L21.8751 41.4636ZM26.1363 41.4415C26.2473 41.4996 26.3915 41.6034 26.4567 41.6722L26.5753 41.7972H25.7604H24.9455V41.5782C24.9455 41.3082 24.9386 41.3115 25.4905 41.3251C25.8782 41.3346 25.9601 41.3494 26.1363 41.4415ZM27.8922 41.5546V41.7972H27.6713C27.4686 41.7972 27.4453 41.7876 27.3901 41.6808C27.3572 41.6167 27.2823 41.5076 27.2241 41.4382L27.1181 41.3121H27.5052H27.8922V41.5546ZM40.9572 43.1586C40.9485 43.1674 40.7145 43.1695 40.4373 43.1631L39.9334 43.1518L40.1985 42.4932L40.4635 41.8346L40.7183 42.4886C40.8585 42.8483 40.966 43.1497 40.9572 43.1586ZM19.8191 42.2016V42.4442H19.4962H19.1733V42.2016V41.959H19.4962H19.8191V42.2016ZM26.7575 42.0702C26.7825 42.1313 26.8197 42.2405 26.8403 42.3128L26.8775 42.4442H25.9114H24.9455V42.2016V41.959H25.8286H26.7119L26.7575 42.0702ZM27.8922 42.2016V42.4442H27.7561C27.6302 42.4442 27.618 42.4328 27.5947 42.2925C27.5807 42.2092 27.5582 42.0999 27.5444 42.0499C27.5212 41.9651 27.5322 41.959 27.7059 41.959H27.8922V42.2016ZM35.1984 42.2016V42.4442H34.9562H34.714V42.2016V41.959H34.9562H35.1984V42.2016ZM5.46444 43.2851C5.32267 43.2916 5.0904 43.2916 4.94809 43.2851L4.68945 43.2731L4.91046 42.7272C5.0321 42.427 5.15029 42.1359 5.17334 42.0803C5.2111 41.989 5.23959 42.0417 5.46855 42.6262L5.72202 43.2731L5.46444 43.2851ZM19.8191 42.8485V43.0912H19.4962H19.1733V42.8485V42.6059H19.4962H19.8191V42.8485ZM24.219 42.8485V43.0912H23.1291H22.0393V42.8485V42.6059H23.1291H24.219V42.8485ZM26.8831 42.8485V43.0912H25.9144H24.9455V42.8485V42.6059H25.9144H26.8831V42.8485ZM27.8922 42.8485V43.0912H27.7711H27.65V42.8485V42.6059H27.7711H27.8922V42.8485ZM32.2921 42.8485V43.0912H31.182H30.0719V42.8485V42.6059H31.182H32.2921V42.8485ZM1.82798 42.809C2.92071 42.9673 2.98683 44.1904 1.91344 44.3891C1.22338 44.5169 1.12984 44.413 1.12984 43.5186C1.12984 42.6875 1.11235 42.7053 1.82798 42.809ZM21.6255 43.0726C21.6532 43.0815 21.676 43.1255 21.676 43.1708C21.676 43.2309 21.7023 43.253 21.7744 43.253C21.8286 43.253 21.8852 43.2727 21.9001 43.2969C21.9196 43.3285 21.9395 43.3285 21.9712 43.2969C22.0006 43.2673 22.3773 43.253 23.117 43.253H24.219V43.4955V43.7381H22.9071C21.6222 43.7381 21.5953 43.7398 21.5953 43.8191C21.5953 43.8983 21.6222 43.8999 22.9273 43.8999H24.2593V44.1425V44.3852H23.23H22.2007V44.2234C22.2007 44.0545 22.0777 43.9838 22.0247 44.1221C21.9607 44.2891 21.758 44.3444 21.2097 44.3445C20.6136 44.3447 20.586 44.3329 20.586 44.0756V43.9037L20.8379 43.8917C21.2231 43.8733 21.235 43.7381 20.8514 43.7381H20.586V43.4955V43.253H20.8686C21.1242 43.253 21.1511 43.2453 21.1511 43.172C21.1511 43.0991 21.1221 43.0905 20.8586 43.0848C20.5823 43.0788 20.5771 43.0771 20.7677 43.0541C20.9681 43.03 21.5287 43.0421 21.6255 43.0726ZM29.7263 43.0498C29.7904 43.0742 29.8297 43.1204 29.8297 43.1711C29.8297 43.2287 29.8566 43.2532 29.9206 43.254C29.9706 43.2547 30.5246 43.2542 31.1517 43.253L32.2921 43.2506V43.4944V43.7381H31.0811C30.4151 43.7381 29.8701 43.7458 29.8701 43.7551C29.8701 43.8974 29.8919 43.8999 31.1076 43.8999H32.2961L32.284 44.1324L32.2718 44.3648L31.2728 44.3757L30.2737 44.3865V44.2038C30.2737 44.0159 30.1546 43.9332 30.0978 44.0816C30.0339 44.2486 29.8311 44.3039 29.2828 44.3041C28.6936 44.3042 28.6592 44.2905 28.6592 44.0536V43.8999H29.0427C29.3992 43.8999 29.4261 43.8942 29.4261 43.8191C29.4261 43.7438 29.3992 43.7381 29.0427 43.7381H28.6592V43.4955V43.253H29.0224C29.3588 43.253 29.3857 43.2469 29.3857 43.172C29.3857 43.0971 29.3588 43.0912 29.0224 43.0912C28.8072 43.0912 28.6592 43.0747 28.6592 43.0507C28.6592 42.9979 29.5875 42.9969 29.7263 43.0498ZM19.8191 43.4955V43.7381H19.4962H19.1733V43.4955V43.253H19.4962H19.8191V43.4955ZM26.8427 43.3063C26.8427 43.3358 26.8138 43.4449 26.7784 43.549L26.714 43.7381H25.8543C24.8919 43.7381 24.9455 43.7563 24.9455 43.4316V43.253H25.8941C26.6536 43.253 26.8427 43.2636 26.8427 43.3063ZM27.8922 43.4955V43.7381H27.7059C27.5322 43.7381 27.5212 43.732 27.5444 43.6472C27.5582 43.5971 27.5807 43.4879 27.5947 43.4045C27.618 43.2643 27.6302 43.253 27.7561 43.253H27.8922V43.4955ZM19.8191 44.1425V44.3852H19.4111C19.0385 44.3852 19.0057 44.3789 19.0318 44.3143C19.0583 44.2488 19.1191 44.0699 19.1554 43.9505C19.166 43.9154 19.2707 43.8999 19.4949 43.8999H19.8191V44.1425ZM26.4214 44.0438C25.9724 44.4409 25.0218 44.459 24.9936 44.0707L24.9813 43.8999L25.7808 43.9016L26.5803 43.9032L26.4214 44.0438ZM27.8922 44.1425V44.3852H27.4804H27.0686L27.2133 44.2334C27.2928 44.1501 27.3789 44.0409 27.4045 43.9908C27.4442 43.9133 27.4836 43.8999 27.6716 43.8999H27.8922V44.1425ZM18.2853 45.1939C18.2425 45.2739 18.2545 45.2747 19.5106 45.2747C20.8107 45.2747 20.8282 45.2727 20.8282 45.1299C20.8282 45.0562 18.3252 45.1191 18.2853 45.1939ZM21.3395 45.1399C21.2125 45.2673 21.305 45.2758 22.6946 45.2651C23.9738 45.2552 24.0776 45.2492 24.0902 45.1837C24.1041 45.1109 21.4112 45.068 21.3395 45.1399ZM24.6875 45.1769C24.674 45.2121 24.663 45.2484 24.663 45.2577C24.663 45.267 25.782 45.2747 27.1498 45.2747C29.4008 45.2747 29.6343 45.2686 29.612 45.2107C29.5987 45.1756 29.5875 45.1392 29.5875 45.1299C29.5875 45.07 24.7105 45.1169 24.6875 45.1769ZM30.2006 45.1831C30.2133 45.2494 30.3132 45.2552 31.5994 45.2651C32.9039 45.2751 32.9836 45.2716 32.9708 45.2045C32.9581 45.1383 32.858 45.1324 31.572 45.1225C30.2675 45.1125 30.1878 45.116 30.2006 45.1831ZM33.4785 45.1769C33.492 45.2121 33.503 45.2484 33.503 45.2577C33.503 45.267 34.0681 45.2747 34.7587 45.2747C35.8871 45.2747 36.0119 45.2682 35.9898 45.2107C35.9764 45.1756 35.9653 45.1392 35.9653 45.1299C35.9653 45.1206 35.4003 45.1129 34.7097 45.1129C33.5813 45.1129 33.4565 45.1194 33.4785 45.1769ZM17.9312 45.8003C17.8813 45.8806 17.891 45.8813 19.2288 45.8813C20.5427 45.8813 20.5771 45.8792 20.5978 45.8003C20.6186 45.7207 20.599 45.7195 19.3002 45.7195C18.0254 45.7195 17.98 45.7221 17.9312 45.8003ZM21.1393 45.8008C21.1183 45.8814 21.1324 45.8822 22.5167 45.8716C23.8116 45.8618 23.9161 45.8558 23.9287 45.7902C23.9515 45.6714 21.1703 45.682 21.1393 45.8008ZM24.5664 45.7835C24.5529 45.8186 24.5419 45.855 24.5419 45.8643C24.5419 45.9119 27.1196 45.8786 27.1389 45.8307C27.1552 45.7902 27.1599 45.7902 27.1625 45.8307C27.1649 45.87 27.4535 45.8813 28.4617 45.8813C29.6269 45.8813 29.7553 45.8748 29.7331 45.8173C29.7198 45.7821 29.7086 45.7456 29.7086 45.7363C29.7086 45.6766 24.5894 45.7235 24.5664 45.7835ZM30.3623 45.7902C30.3748 45.8558 30.4794 45.8618 31.7743 45.8716C33.1585 45.8822 33.1726 45.8814 33.1516 45.8008C33.1205 45.682 30.3393 45.6714 30.3623 45.7902ZM33.7125 45.7902C33.7251 45.8557 33.8261 45.8618 35.0493 45.8717C36.3645 45.8822 36.3722 45.8818 36.329 45.8008C36.2655 45.6822 33.6897 45.6717 33.7125 45.7902ZM17.4174 46.4474C17.3444 46.5281 17.3469 46.5282 18.7994 46.5282C20.2957 46.5282 20.3035 46.5274 20.3035 46.3834C20.3035 46.3101 17.4848 46.3726 17.4174 46.4474ZM20.9359 46.3933C20.8105 46.519 20.9047 46.5282 22.3171 46.5282C23.6911 46.5282 23.7257 46.5262 23.7463 46.4474C23.7676 46.3656 21.0164 46.3128 20.9359 46.3933ZM24.4049 46.4304C24.3914 46.4656 24.3804 46.5019 24.3804 46.5112C24.3804 46.5206 24.9708 46.5282 25.6923 46.5282C26.9773 46.5282 27.0042 46.5265 27.0042 46.4474C27.0042 46.3351 24.4479 46.3184 24.4049 46.4304ZM27.2539 46.4366C27.2667 46.5028 27.3638 46.5087 28.5922 46.5186C29.839 46.5287 29.9159 46.5251 29.9029 46.458C29.8903 46.3919 29.7932 46.3859 28.5648 46.376C27.3179 46.366 27.2411 46.3695 27.2539 46.4366ZM30.5639 46.4366C30.5766 46.5028 30.6775 46.5087 31.9829 46.5186C33.3065 46.5286 33.3872 46.5251 33.3744 46.458C33.3617 46.3918 33.2608 46.3859 31.9554 46.376C30.6318 46.366 30.5511 46.3695 30.5639 46.4366ZM34.0034 46.4304C34.0167 46.4656 34.0277 46.5019 34.0277 46.5112C34.0277 46.5206 34.6727 46.5282 35.4611 46.5282C36.8843 46.5282 36.8941 46.5277 36.844 46.4474C36.7739 46.3349 33.9603 46.3182 34.0034 46.4304ZM16.6202 47.0441C16.4193 47.1688 16.4941 47.1751 18.1697 47.1751C19.912 47.1751 19.9317 47.1733 19.9389 47.0032C19.9419 46.9317 16.7377 46.9711 16.6202 47.0441ZM20.6682 47.0512C20.6452 47.0942 20.6264 47.1397 20.6264 47.1523C20.6264 47.1649 21.2693 47.1751 22.055 47.1751C23.5528 47.1751 23.5328 47.1774 23.5328 47.0101C23.5328 46.9247 20.7143 46.9651 20.6682 47.0512ZM24.219 47.0101C24.219 47.0306 24.2079 47.076 24.1945 47.1111C24.1724 47.1688 24.304 47.1751 25.5016 47.1751H26.8333L26.8526 47.0741L26.8719 46.973H25.5455C24.7668 46.973 24.219 46.9882 24.219 47.0101ZM27.4079 47.0741V47.1751H28.7644C29.9849 47.1751 30.1185 47.1688 30.0965 47.1111C30.0829 47.076 30.0719 47.0306 30.0719 47.0101C30.0719 46.9882 29.5219 46.973 28.7399 46.973H27.4079V47.0741ZM30.7582 47.0101C30.7582 47.1774 30.7382 47.1751 32.2358 47.1751C33.0217 47.1751 33.6646 47.1649 33.6646 47.1523C33.6646 46.9735 33.6602 46.973 32.1696 46.973C31.3393 46.973 30.7582 46.9882 30.7582 47.0101ZM34.352 47.0032C34.3593 47.173 34.3805 47.1751 36.101 47.1751C37.7665 47.1751 37.8366 47.169 37.6168 47.0437C37.486 46.9691 34.3489 46.9302 34.352 47.0032ZM20.3439 47.7009C20.301 47.781 20.3132 47.7817 21.7711 47.7817C23.2836 47.7817 23.2906 47.781 23.2906 47.6369C23.2906 47.563 20.3838 47.6261 20.3439 47.7009ZM24.0013 47.6839C23.9878 47.719 23.9768 47.7557 23.9768 47.7654C23.9768 47.8311 26.6609 47.7569 26.6736 47.6906C26.6935 47.5872 24.0409 47.5805 24.0013 47.6839ZM27.5693 47.7009C27.5693 47.7801 27.5962 47.7817 28.9461 47.7817C30.1848 47.7817 30.3204 47.7753 30.2983 47.7177C30.2849 47.6825 30.2737 47.6462 30.2737 47.6369C30.2737 47.6276 29.6653 47.6199 28.9216 47.6199C27.5962 47.6199 27.5693 47.6215 27.5693 47.7009ZM31.0163 47.6839C31.0297 47.719 31.0408 47.7554 31.0408 47.7647C31.0408 47.7741 31.6967 47.7817 32.4983 47.7817C33.8107 47.7817 33.9533 47.7753 33.9311 47.7177C33.9178 47.6825 33.9068 47.6462 33.9068 47.6369C33.9068 47.6276 33.2509 47.6199 32.4493 47.6199C31.1367 47.6199 30.9941 47.6263 31.0163 47.6839ZM19.9806 48.3478C19.9377 48.428 19.9499 48.4286 21.431 48.4286C22.8832 48.4286 22.9256 48.4264 22.9676 48.3478C23.0105 48.2676 22.9983 48.267 21.5173 48.267C20.0651 48.267 20.0226 48.2691 19.9806 48.3478ZM23.7615 48.2939C23.6344 48.4211 23.7274 48.4298 25.0963 48.4191C26.3564 48.4092 26.4592 48.4031 26.4718 48.3377C26.4857 48.265 23.8332 48.2221 23.7615 48.2939ZM27.7786 48.3372C27.7914 48.4034 27.8914 48.4092 29.1774 48.4191C30.4819 48.4291 30.5617 48.4256 30.5488 48.3584C30.5361 48.2922 30.4362 48.2863 29.15 48.2765C27.8456 48.2664 27.7658 48.27 27.7786 48.3372ZM31.3233 48.3478C31.3653 48.4264 31.4078 48.4286 32.8183 48.4286C34.243 48.4286 34.2699 48.4272 34.2699 48.3478C34.2699 48.2684 34.243 48.267 32.7751 48.267C31.2925 48.267 31.2805 48.2676 31.3233 48.3478ZM19.585 48.9625C19.5583 48.9891 19.5366 49.0255 19.5366 49.0433C19.5366 49.0611 20.2248 49.0757 21.0662 49.0757C22.6408 49.0757 22.6447 49.0753 22.6447 48.9307C22.6447 48.8852 19.6309 48.9163 19.585 48.9625ZM23.4765 48.9779C23.463 49.013 23.452 49.0494 23.452 49.0587C23.452 49.133 26.2294 49.0694 26.2489 48.9947C26.2783 48.8823 23.5196 48.8654 23.4765 48.9779ZM28.0015 48.9942C28.0325 49.1131 30.8541 49.1237 30.8313 49.0048C30.8186 48.9394 30.7131 48.9333 29.399 48.9234C27.9946 48.9129 27.9804 48.9136 28.0015 48.9942ZM31.6462 48.9463C31.6462 49.066 31.7633 49.0757 33.23 49.0757C34.7043 49.0757 34.7165 49.0749 34.6737 48.9947C34.6284 48.9099 31.6462 48.8621 31.6462 48.9463ZM19.1005 49.5689C19.0739 49.5956 19.0522 49.6319 19.0522 49.6499C19.0522 49.6676 19.7677 49.6821 20.6423 49.6821C22.2807 49.6821 22.2815 49.6821 22.2815 49.5373C22.2815 49.4916 19.1467 49.5228 19.1005 49.5689ZM23.1695 49.6013C23.1266 49.6814 23.1388 49.6821 24.5564 49.6821C26.0263 49.6821 26.0355 49.6812 26.0355 49.5373C26.0355 49.4635 23.2094 49.5266 23.1695 49.6013ZM28.2438 49.6013C28.2644 49.6803 28.2988 49.6821 29.7149 49.6821C31.1522 49.6821 31.1643 49.6814 31.1215 49.6013C31.0795 49.5227 31.0369 49.5205 29.6505 49.5205C28.2425 49.5205 28.223 49.5215 28.2438 49.6013ZM32.0095 49.5527C32.0095 49.673 32.1261 49.6821 33.6538 49.6821C35.1887 49.6821 35.2009 49.6814 35.1581 49.6013C35.1126 49.5165 32.0095 49.4686 32.0095 49.5527ZM22.8545 50.216C22.7073 50.3634 22.763 50.3695 24.2593 50.3695C25.1149 50.3695 25.7124 50.3543 25.7124 50.3324C25.7124 50.312 25.7236 50.2665 25.7369 50.2313C25.7691 50.1475 22.938 50.1323 22.8545 50.216ZM28.4977 50.1898C28.4977 50.3694 28.4993 50.3695 30.0156 50.3695H31.4499L31.4371 50.2786L31.4242 50.1875L29.9609 50.1769C29.1562 50.1711 28.4977 50.1769 28.4977 50.1898ZM22.4674 50.8783C22.4539 50.9134 22.4429 50.9498 22.4429 50.9591C22.4429 50.9685 23.113 50.9761 23.932 50.9761C25.4643 50.9761 25.4704 50.9756 25.4704 50.8313C25.4704 50.7717 22.4903 50.8184 22.4674 50.8783ZM28.7961 50.8783C28.8096 50.9134 28.8206 50.9498 28.8206 50.9591C28.8206 50.9685 29.4946 50.9761 30.3185 50.9761C31.6678 50.9761 31.8139 50.9697 31.7918 50.9121C31.7783 50.8769 31.7673 50.8406 31.7673 50.8313C31.7673 50.822 31.0933 50.8143 30.2695 50.8143C28.9203 50.8143 28.7741 50.8207 28.7961 50.8783ZM22.0638 51.5253C22.0503 51.5605 22.0393 51.5969 22.0393 51.6062C22.0393 51.6155 22.7275 51.623 23.5688 51.623C25.1435 51.623 25.1473 51.6227 25.1473 51.4782C25.1473 51.4186 22.0867 51.4653 22.0638 51.5253ZM29.1108 51.5316C29.1235 51.5979 29.231 51.6035 30.671 51.6135C32.1293 51.6234 32.2167 51.62 32.2037 51.5528C32.191 51.4864 32.0836 51.4807 30.6436 51.4709C29.1853 51.461 29.0978 51.4644 29.1108 51.5316ZM21.6624 52.1352C21.5342 52.2638 21.6234 52.271 23.1992 52.2604C24.6514 52.2506 24.7637 52.2447 24.7765 52.179C24.7904 52.1063 21.7343 52.0633 21.6624 52.1352ZM29.4338 52.179C29.4464 52.2447 29.56 52.2506 31.0358 52.2604C32.4751 52.2699 32.6216 52.2649 32.5993 52.2065C32.5857 52.1711 32.5746 52.1344 32.5746 52.1251C32.5746 52.1158 31.8649 52.1083 30.9975 52.1083C29.517 52.1083 29.421 52.1127 29.4338 52.179Z" fill="#043CA4"/>
<path fill-rule="evenodd" clip-rule="evenodd" d="M43.3536 14.5968C43.3536 14.6037 43.4126 14.6629 43.4848 14.7282L43.616 14.847L43.4974 14.7156C43.3869 14.5931 43.3536 14.5656 43.3536 14.5968ZM15.8022 14.9177L15.6426 15.0896L15.8142 14.9297C15.9737 14.7811 16.0043 14.7458 15.9737 14.7458C15.9671 14.7458 15.89 14.8232 15.8022 14.9177Z" fill="#7494CC"/>
</g>
<defs>
<clipPath id="clip0">
<rect width="53" height="52" fill="white" transform="translate(0 0.27002)"/>
</clipPath>
</defs>
</svg>
