<svg width="24" height="24" viewBox="0 0 24 24" fill="none" xmlns="http://www.w3.org/2000/svg">
<path d="M20.0975 15.3803L17.943 17.5347L17.1144 16.7061C16.8398 16.4315 16.3946 16.4315 16.12 16.7061C15.8454 16.9807 15.8454 17.4258 16.12 17.7004L17.4458 19.0263C17.5831 19.1636 17.7631 19.2322 17.943 19.2322C18.1229 19.2322 18.3029 19.1636 18.4401 19.0263L21.0918 16.3746C21.3664 16.1001 21.3664 15.6549 21.0918 15.3803C20.8174 15.1057 20.3722 15.1057 20.0975 15.3803Z" fill="#1943EF"/>
<path d="M10.2521 15.1598C10.1434 15.1214 10.0328 15.0815 9.9221 15.0403V13.0575C10.1255 13.1276 10.2308 13.2296 10.2447 13.2438C10.4578 13.4845 10.8256 13.5087 11.0684 13.2972C11.3124 13.0845 11.3378 12.7144 11.1252 12.4705C10.925 12.2407 10.5099 11.9525 9.9221 11.8543V11.5312C9.9221 11.2076 9.65979 10.9453 9.33616 10.9453C9.01254 10.9453 8.75023 11.2076 8.75023 11.5312V11.9192C8.70916 11.9299 8.66777 11.9414 8.62591 11.954C7.91754 12.1674 7.38851 12.7723 7.24521 13.5326C7.11382 14.2298 7.3399 14.9041 7.83509 15.2925C8.07213 15.4785 8.36149 15.6489 8.75023 15.8264V18.4005C8.46668 18.3628 8.25462 18.27 7.92237 18.0527C7.65152 17.8755 7.28843 17.9515 7.11129 18.2223C6.93415 18.4931 7.01004 18.8563 7.28088 19.0334C7.85543 19.4092 8.25935 19.5388 8.75023 19.5793V19.9688C8.75023 20.2924 9.01254 20.5547 9.33616 20.5547C9.65979 20.5547 9.9221 20.2924 9.9221 19.9688V19.5246C10.3071 19.4303 10.6573 19.2438 10.9538 18.9714C11.3503 18.6071 11.6179 18.1135 11.7074 17.5815C11.8913 16.4879 11.32 15.5372 10.2521 15.1598ZM8.55832 14.3705C8.41094 14.2549 8.34752 14.0112 8.39683 13.7496C8.43405 13.5522 8.54552 13.323 8.75023 13.1799V14.5034C8.6808 14.46 8.61598 14.4157 8.55832 14.3705ZM10.5517 17.3873C10.4947 17.7266 10.2814 18.0845 9.9221 18.2784V16.2877C10.6091 16.563 10.5925 17.1449 10.5517 17.3873Z" fill="#1943EF"/>
<path d="M23.2969 12.2812C22.4084 12.2812 21.6096 11.7876 21.2122 10.9929L21.1133 10.795C20.9942 10.5567 20.7507 10.4062 20.4844 10.4062H16.7344C16.468 10.4062 16.2246 10.5567 16.1055 10.7949L16.0065 10.9928C15.9684 11.069 15.9266 11.1424 15.8814 11.2129C14.9215 9.91842 13.8559 8.76652 12.8907 7.77586V5.47833C13.8237 4.16105 14.2969 2.7135 14.2969 1.17188V0.703125C14.2969 0.314812 13.9821 0 13.5938 0H13.125C11.8228 0 10.1243 0.843375 9.375 1.25372C8.6257 0.843375 6.92719 0 5.625 0H5.15625C4.76794 0 4.45312 0.314812 4.45312 0.703125V1.17188C4.45312 2.71345 4.92628 4.16105 5.85938 5.47837V7.77614C2.92809 10.7895 0 14.4188 0 18.6094L4.6875e-05 18.6598C0.00660938 21.6044 2.44181 24 5.42864 24H13.3214C14.4334 24 15.516 23.6598 16.4247 23.0335C17.0279 23.4405 17.6936 23.7563 18.4073 23.9703C18.4732 23.9901 18.5413 24 18.6094 24C18.6775 24 18.7455 23.9901 18.8115 23.9703C20.3224 23.517 21.6189 22.6084 22.5606 21.3428C23.5023 20.0771 24 18.5743 24 16.9967V12.9844C24 12.5961 23.6852 12.2812 23.2969 12.2812ZM7.26562 5.95312H11.4844V7.35938H7.26562V5.95312ZM9.0143 2.66606C9.2362 2.79867 9.51333 2.79867 9.73542 2.6662C10.2803 2.34127 11.8282 1.53572 12.8857 1.42013C12.8412 2.53912 12.4928 3.56723 11.8262 4.54688H6.92386C6.25716 3.56719 5.90887 2.53908 5.8643 1.42013C6.9218 1.53572 8.4697 2.34127 9.0143 2.66606ZM5.42864 22.5938C3.21553 22.5938 1.41112 20.8276 1.4063 18.6573L1.40625 18.6094C1.40625 14.9221 4.12805 11.5736 6.85852 8.76562H11.8916C12.8358 9.735 13.8765 10.8608 14.7977 12.1124C14.525 12.2223 14.2288 12.2812 13.9219 12.2812C13.5336 12.2812 13.2188 12.5961 13.2188 12.9844V16.9967C13.2188 18.5743 13.7165 20.0771 14.6582 21.3428C14.8537 21.6055 15.0647 21.8527 15.2895 22.0837C14.6909 22.4153 14.014 22.5938 13.3214 22.5938H5.42864ZM22.5938 16.9967C22.5938 19.54 21.0014 21.7492 18.6094 22.5589C16.2174 21.7492 14.625 19.54 14.625 16.9967V13.622C15.6891 13.4211 16.6142 12.7688 17.1621 11.8125H20.0566C20.6045 12.7688 21.5296 13.4211 22.5938 13.622V16.9967Z" fill="#A8A8D1"/>
</svg>
