<svg width="21" height="22" viewBox="0 0 21 22" fill="none" xmlns="http://www.w3.org/2000/svg">
<path fill-rule="evenodd" clip-rule="evenodd" d="M5.98777 2.99732C7.79566 2.05952 9.86661 1.77204 11.8581 2.18186C13.8497 2.59169 15.644 3.67466 16.9432 5.2532C18.2426 6.83188 18.9684 8.8113 18.9992 10.8638C19.03 12.9164 18.3639 14.9171 17.1125 16.5348C15.8611 18.1523 14.1 19.2894 12.1215 19.7598C10.1432 20.23 8.06459 20.0057 6.2295 19.1235C4.39427 18.2411 2.91165 16.7531 2.02863 14.9042C1.79062 14.4058 1.19366 14.1948 0.695301 14.4328C0.196937 14.6708 -0.0141168 15.2678 0.223901 15.7661C1.30235 18.0242 3.11489 19.8452 5.3629 20.926C7.61105 22.0068 10.1589 22.282 12.5841 21.7055C15.0092 21.129 17.1646 19.7359 18.6943 17.7585C20.224 15.7813 21.0366 13.3382 20.999 10.8338C20.9614 8.32942 20.0758 5.91209 18.4875 3.98223C16.899 2.05222 14.7026 0.725293 12.2612 0.222905C9.81978 -0.2795 7.28141 0.0732044 5.06684 1.22197C2.85241 2.37066 1.09546 4.24585 0.0853247 6.53561C-0.137589 7.04091 0.0913309 7.63124 0.59663 7.85416C1.10193 8.07707 1.69226 7.84815 1.91518 7.34285C2.74235 5.46783 4.17973 3.93521 5.98777 2.99732Z" fill="#A8A8D1"/>
<path fill-rule="evenodd" clip-rule="evenodd" d="M7.75736 5.69672L12.5303 10.4697C12.8232 10.7626 12.8232 11.2375 12.5303 11.5304L7.75736 16.3033C7.46447 16.5962 6.98959 16.5962 6.6967 16.3033C6.40381 16.0104 6.40381 15.5356 6.6967 15.2427L10.1893 11.75L0.75 11.75C0.335787 11.75 3.62117e-08 11.4142 0 11C-3.62117e-08 10.5858 0.335787 10.25 0.75 10.25L10.1893 10.25L6.6967 6.75738C6.40381 6.46449 6.40381 5.98961 6.6967 5.69672C6.98959 5.40383 7.46447 5.40383 7.75736 5.69672Z" fill="#1943EF"/>
</svg>
