<svg width="51" height="51" viewBox="0 0 51 51" fill="none" xmlns="http://www.w3.org/2000/svg">
<path d="M25.5016 44.1776C35.8169 44.1776 44.179 35.8154 44.179 25.5002C44.179 15.1849 35.8169 6.82275 25.5016 6.82275C15.1864 6.82275 6.82422 15.1849 6.82422 25.5002C6.82422 35.8154 15.1864 44.1776 25.5016 44.1776Z" fill="white"/>
<path d="M49.0524 29.2244C50.0099 28.1032 51 26.9438 51 25.5C51 24.0562 50.01 22.8969 49.0524 21.7756C48.3937 21.0042 47.7715 20.2755 47.586 19.5816C47.3879 18.8406 47.5734 17.8236 47.7529 16.8399C48.0123 15.4177 48.2807 13.947 47.5864 12.7469C46.8808 11.5275 45.4598 11.0232 44.0857 10.5355C43.1542 10.2049 42.1911 9.86315 41.664 9.33597C41.1369 8.80879 40.7951 7.84577 40.4645 6.91434C39.9768 5.54019 39.4726 4.11923 38.2531 3.41373C37.053 2.71929 35.5823 2.98757 34.1601 3.24707C33.1763 3.42659 32.1592 3.61198 31.4184 3.41403C30.7244 3.22854 29.9958 2.60632 29.2243 1.94755C28.1031 0.990011 26.9437 0 25.5 0C24.0562 0 22.8969 0.99011 21.7756 1.94755C21.0042 2.60632 20.2755 3.22844 19.5816 3.41403C18.8406 3.61198 17.8235 3.42649 16.8399 3.24707C15.4177 2.98757 13.947 2.71919 12.7469 3.41363C11.5275 4.11913 11.0232 5.5401 10.5355 6.91424C10.2049 7.84557 9.86315 8.80869 9.33597 9.33587C8.80879 9.86305 7.84567 10.2048 6.91434 10.5354C5.54019 11.0231 4.11923 11.5274 3.41373 12.7468C2.71929 13.9469 2.98767 15.4177 3.24707 16.8398C3.42649 17.8235 3.61208 18.8405 3.41403 19.5815C3.22854 20.2755 2.60632 21.0041 1.94755 21.7756C0.99011 22.8969 0 24.0562 0 25.5C0 26.9437 0.99011 28.1031 1.94755 29.2243C2.60632 29.9958 3.22844 30.7244 3.41403 31.4184C3.61208 32.1594 3.42649 33.1764 3.24707 34.1601C2.98767 35.5823 2.71929 37.053 3.41363 38.2531C4.11913 39.4725 5.5401 39.9768 6.91424 40.4645C7.84557 40.7951 8.80869 41.1369 9.33587 41.664C9.86305 42.1912 10.2048 43.1542 10.5354 44.0857C11.0231 45.4598 11.5274 46.8808 12.7468 47.5863C13.9469 48.2807 15.4177 48.0124 16.8398 47.7529C17.8235 47.5735 18.8403 47.3879 19.5815 47.586C20.2755 47.7715 21.0041 48.3937 21.7755 49.0525C22.8968 50.0099 24.0562 51 25.4999 51C26.9436 51 28.103 50.01 29.2242 49.0525C29.9957 48.3938 30.7243 47.7716 31.4183 47.586C32.1594 47.388 33.1764 47.5735 34.16 47.7529C35.5823 48.0124 37.0531 48.2806 38.2531 47.5863C39.22 47.0268 39.7358 45.9804 40.0772 45.1314C40.2311 44.7485 40.0455 44.3134 39.6627 44.1595C39.2794 44.0056 38.8446 44.1912 38.6907 44.5741C38.3166 45.5047 37.9508 46.0349 37.5049 46.2929C36.7805 46.712 35.638 46.5036 34.4282 46.283C33.2825 46.0739 32.0975 45.8577 31.0326 46.1424C30.0114 46.4153 29.118 47.1782 28.254 47.9161C27.2967 48.7336 26.3924 49.5057 25.4999 49.5057C24.6074 49.5057 23.7031 48.7336 22.7458 47.9161C21.8818 47.1782 20.9884 46.4153 19.9673 46.1424C18.9022 45.8578 17.7175 46.0739 16.5717 46.283C15.362 46.5036 14.2196 46.7121 13.495 46.2929C12.7516 45.8628 12.3591 44.7569 11.9436 43.586C11.5576 42.4981 11.1584 41.3733 10.3924 40.6075C9.62656 39.8416 8.50176 39.4424 7.41392 39.0563C6.2431 38.6408 5.13714 38.2483 4.70698 37.5049C4.28789 36.7804 4.49629 35.6379 4.71705 34.4283C4.92605 33.2825 5.14222 32.0976 4.85761 31.0327C4.58465 30.0116 3.82177 29.1182 3.0839 28.2541C2.26643 27.2967 1.49428 26.3925 1.49428 25.5C1.49428 24.6075 2.26643 23.7033 3.0839 22.7459C3.82177 21.8818 4.58465 20.9884 4.85761 19.9673C5.14222 18.9024 4.92615 17.7175 4.71705 16.5717C4.49639 15.362 4.28789 14.2195 4.70708 13.495C5.13724 12.7516 6.24311 12.3591 7.41402 11.9436C8.50186 11.5576 9.62665 11.1584 10.3925 10.3924C11.1584 9.62656 11.5576 8.50176 11.9437 7.41392C12.3592 6.2431 12.7517 5.13714 13.4951 4.70698C14.2196 4.28789 15.3621 4.49639 16.5717 4.71705C17.7175 4.92615 18.9024 5.14222 19.9673 4.85761C20.9884 4.58465 21.8818 3.82177 22.7458 3.0839C23.7032 2.26643 24.6075 1.49428 25.5 1.49428C26.3925 1.49428 27.2966 2.26643 28.254 3.0839C29.1181 3.82177 30.0115 4.58465 31.0327 4.85761C32.0978 5.14212 33.2825 4.92615 34.4283 4.71705C35.6381 4.49639 36.7805 4.28799 37.505 4.70708C38.2485 5.13724 38.6409 6.24321 39.0565 7.41412C39.4425 8.50186 39.8417 9.62665 40.6075 10.3925C41.3733 11.1584 42.4981 11.5576 43.586 11.9437C44.7569 12.3592 45.8628 12.7517 46.2929 13.4951C46.712 14.2196 46.5036 15.3621 46.2829 16.5718C46.0739 17.7176 45.8577 18.9025 46.1423 19.9674C46.4152 20.9885 47.1781 21.8819 47.9161 22.7459C48.7336 23.7032 49.5057 24.6075 49.5057 25.5C49.5057 26.3925 48.7336 27.2967 47.9161 28.2541C47.1783 29.1181 46.4153 30.0115 46.1423 31.0327C45.8578 32.0976 46.0738 33.2824 46.2829 34.4282C46.5035 35.6379 46.712 36.7804 46.2929 37.505C45.8628 38.2484 44.7568 38.6409 43.5859 39.0564C42.4981 39.4424 41.3732 39.8416 40.6074 40.6077C40.4299 40.7853 40.2613 40.9937 40.1065 41.2274C39.8787 41.5714 39.9727 42.035 40.3168 42.2629C40.6607 42.4909 41.1244 42.3967 41.3522 42.0527C41.452 41.9021 41.557 41.7713 41.664 41.6642C42.1913 41.1371 43.1544 40.7953 44.0859 40.4647C45.4599 39.9771 46.8809 39.4728 47.5865 38.2534C48.2809 37.0532 48.0125 35.5825 47.7531 34.1603C47.5736 33.1766 47.3881 32.1596 47.5862 31.4186C47.7714 30.7244 48.3937 29.9958 49.0524 29.2244Z" fill="#BFC9EF"/>
<path d="M11.7741 12.8099C11.4604 12.542 10.9888 12.5792 10.7207 12.8929C7.7244 16.4021 6.07422 20.8793 6.07422 25.4998C6.07422 36.2107 14.7881 44.9244 25.4989 44.9244C36.2097 44.9244 44.9234 36.2106 44.9234 25.4998C44.9234 14.7891 36.2096 6.0752 25.4989 6.0752C21.0847 6.0752 16.7633 7.59617 13.3308 10.3579C13.0094 10.6165 12.9585 11.0868 13.2171 11.4084C13.4757 11.73 13.946 11.7809 14.2676 11.5221C17.4814 8.93634 21.3651 7.56958 25.4989 7.56958C35.3856 7.56958 43.4291 15.6131 43.4291 25.4999C43.4291 35.3868 35.3856 43.4302 25.4989 43.4302C15.612 43.4302 7.5685 35.3867 7.5685 25.4999C7.5685 21.2349 9.09157 17.1022 11.8571 13.8633C12.1251 13.5495 12.0879 13.0779 11.7741 12.8099Z" fill="#BFC9EF"/>
<path d="M25.5 23.55C24.1215 23.55 23 22.4846 23 21.175C23 19.8654 24.1215 18.8 25.5 18.8C26.8785 18.8 28 19.8654 28 21.175C28 21.6996 28.4477 22.125 29 22.125C29.5523 22.125 30 21.6996 30 21.175C30 19.1443 28.5014 17.441 26.5 17.0077V15.95C26.5 15.4254 26.0523 15 25.5 15C24.9477 15 24.5 15.4254 24.5 15.95V17.0077C22.4986 17.441 21 19.1443 21 21.175C21 23.5322 23.0187 25.45 25.5 25.45C26.8785 25.45 28 26.5154 28 27.825C28 29.1346 26.8785 30.2 25.5 30.2C24.1215 30.2 23 29.1346 23 27.825C23 27.3004 22.5523 26.875 22 26.875C21.4477 26.875 21 27.3004 21 27.825C21 29.8557 22.4986 31.559 24.5 31.9923V33.05C24.5 33.5746 24.9477 34 25.5 34C26.0523 34 26.5 33.5746 26.5 33.05V31.9923C28.5014 31.559 30 29.8557 30 27.825C30 25.4678 27.9813 23.55 25.5 23.55Z" fill="#1943EF"/>
<path d="M16 25.85C15.081 25.85 14.3333 25.121 14.3333 24.225C14.3333 23.329 15.081 22.6 16 22.6C16.919 22.6 17.6667 23.329 17.6667 24.225C17.6667 24.584 17.9651 24.875 18.3333 24.875C18.7015 24.875 19 24.584 19 24.225C19 22.8356 18.0009 21.6702 16.6667 21.3737V20.65C16.6667 20.291 16.3682 20 16 20C15.6318 20 15.3333 20.291 15.3333 20.65V21.3737C13.9991 21.6702 13 22.8356 13 24.225C13 25.8379 14.3458 27.15 16 27.15C16.919 27.15 17.6667 27.879 17.6667 28.775C17.6667 29.671 16.919 30.4 16 30.4C15.081 30.4 14.3333 29.671 14.3333 28.775C14.3333 28.416 14.0349 28.125 13.6667 28.125C13.2985 28.125 13 28.416 13 28.775C13 30.1644 13.9991 31.3298 15.3333 31.6263V32.35C15.3333 32.709 15.6318 33 16 33C16.3682 33 16.6667 32.709 16.6667 32.35V31.6263C18.0009 31.3298 19 30.1644 19 28.775C19 27.1621 17.6542 25.85 16 25.85Z" fill="#1943EF"/>
<path d="M35 25.85C34.081 25.85 33.3333 25.121 33.3333 24.225C33.3333 23.329 34.081 22.6 35 22.6C35.919 22.6 36.6667 23.329 36.6667 24.225C36.6667 24.584 36.9651 24.875 37.3333 24.875C37.7015 24.875 38 24.584 38 24.225C38 22.8356 37.0009 21.6702 35.6667 21.3737V20.65C35.6667 20.291 35.3682 20 35 20C34.6318 20 34.3333 20.291 34.3333 20.65V21.3737C32.9991 21.6702 32 22.8356 32 24.225C32 25.8379 33.3458 27.15 35 27.15C35.919 27.15 36.6667 27.879 36.6667 28.775C36.6667 29.671 35.919 30.4 35 30.4C34.081 30.4 33.3333 29.671 33.3333 28.775C33.3333 28.416 33.0349 28.125 32.6667 28.125C32.2985 28.125 32 28.416 32 28.775C32 30.1644 32.9991 31.3298 34.3333 31.6263V32.35C34.3333 32.709 34.6318 33 35 33C35.3682 33 35.6667 32.709 35.6667 32.35V31.6263C37.0009 31.3298 38 30.1644 38 28.775C38 27.1621 36.6542 25.85 35 25.85Z" fill="#1943EF"/>
</svg>
