<svg width="50" height="50" viewBox="0 0 50 50" fill="none" xmlns="http://www.w3.org/2000/svg">
<path d="M46.0938 35.2891V7.8125C46.0938 7.38281 45.7422 7.03125 45.3125 7.03125H37.9688C39.0312 6.29688 39.625 5.30469 39.625 4.26562C39.625 2.75 38.3516 1.5625 36.7188 1.5625C33.8594 1.5625 32.1328 3.96094 31.25 5.73438C30.3672 3.96094 28.6406 1.5625 25.7812 1.5625C24.1484 1.5625 22.875 2.75 22.875 4.26562C22.875 5.30469 23.4688 6.29688 24.5312 7.03125H17.1875C16.7578 7.03125 16.4062 7.38281 16.4062 7.8125V34.8281L13.7422 37.5H9.375V36.7188C9.375 36.2891 9.02344 35.9375 8.59375 35.9375H2.34375C1.91406 35.9375 1.5625 36.2891 1.5625 36.7188V47.6562C1.5625 48.0859 1.91406 48.4375 2.34375 48.4375H8.59375C9.02344 48.4375 9.375 48.0859 9.375 47.6562H35.1562C35.2891 47.6562 35.4219 47.625 35.5391 47.5547L46.7812 41.2344C47.8047 40.6562 48.4375 39.5703 48.4375 38.4062C48.4375 36.9219 47.4453 35.6719 46.0938 35.2891ZM7.8125 46.875H3.125V37.5H7.8125V46.875ZM36.7188 3.125C37.4844 3.125 38.0625 3.61719 38.0625 4.26562C38.0625 4.86719 37.5938 5.47656 36.7656 5.95312C36.0312 6.38281 34.6875 6.875 32.3828 7C33 5.5625 34.3906 3.125 36.7188 3.125ZM24.4375 4.26562C24.4375 3.61719 25.0156 3.125 25.7812 3.125C28.0938 3.125 29.4922 5.5625 30.1172 7C27.8125 6.875 26.4687 6.38281 25.7344 5.95312C24.9062 5.47656 24.4375 4.86719 24.4375 4.26562ZM17.9688 8.59375H44.5312V35.2031C44.25 35.25 43.9688 35.3359 43.7109 35.4531L34.2031 39.8438H30.6563C31.0313 39.2812 31.25 38.6172 31.25 37.8906C31.25 35.9531 29.6719 34.375 27.7344 34.375H17.9688V8.59375ZM46.0156 39.8672L34.9531 46.0938H9.375V39.0625H14.0625C14.2734 39.0625 14.4687 38.9766 14.6172 38.8359L17.5078 35.9375H27.7344C28.8125 35.9375 29.6875 36.8125 29.6875 37.8906C29.6875 38.9688 28.8125 39.8438 27.7344 39.8438H21.0938V41.4062H34.375C34.4844 41.4062 34.6016 41.3828 34.7031 41.3359L44.3672 36.875C44.5859 36.7734 44.8281 36.7188 45.0703 36.7188H45.1875C46.1172 36.7188 46.875 37.4766 46.875 38.4062C46.875 39.0078 46.5469 39.5703 46.0156 39.8672Z" fill="#BFC9EF"/>
<path d="M43.5238 15.8516L38.8363 11.1641C38.6879 11.0234 38.4926 10.9375 38.2816 10.9375H24.2191C24.0082 10.9375 23.8129 11.0234 23.6644 11.1641L18.9769 15.8516C18.6879 16.1484 18.6722 16.6172 18.9457 16.9219L30.6254 30.1562C30.766 30.3437 31.0004 30.4688 31.2504 30.4688C31.5004 30.4688 31.7347 30.3437 31.8754 30.1562L43.555 16.9219C43.8285 16.6172 43.8129 16.1484 43.5238 15.8516ZM37.016 12.5L35.0785 16.375L32.6566 12.5H37.016ZM33.7425 17.1875H28.7582L31.2504 13.1953L33.7425 17.1875ZM29.8441 12.5L27.4222 16.375L25.4847 12.5H29.8441ZM24.0082 13.0313L25.9301 16.8906L21.1176 15.9297L24.0082 13.0313ZM21.6488 17.625L26.7426 18.6484L29.2894 26.2891L21.6488 17.625ZM31.2504 27.2188L28.4301 18.75H34.0707L31.2504 27.2188ZM33.2113 26.2891L35.7582 18.6484L40.8519 17.625L33.2113 26.2891ZM36.5707 16.8906L38.4926 13.0313L41.391 15.9297L36.5707 16.8906Z" fill="#1943EF"/>
<path d="M39.0625 26.5625H37.5C37.5 28.7188 35.75 30.4688 33.5938 30.4688V32.0312C35.75 32.0312 37.5 33.7812 37.5 35.9375H39.0625C39.0625 33.7812 40.8125 32.0312 42.9688 32.0312V30.4688C40.8125 30.4688 39.0625 28.7188 39.0625 26.5625ZM38.2812 33.125C37.8203 32.3594 37.1719 31.7109 36.4062 31.25C37.1719 30.7891 37.8203 30.1406 38.2812 29.375C38.7422 30.1406 39.3906 30.7891 40.1563 31.25C39.3906 31.7109 38.7422 32.3594 38.2812 33.125Z" fill="#1943EF"/>
</svg>
