<svg width="24" height="24" viewBox="0 0 24 24" fill="none" xmlns="http://www.w3.org/2000/svg">
<g clip-path="url(#clip0)">
<path d="M23.7068 12.2933L15.2123 3.79885C15.2123 3.79885 15.2103 3.79685 15.2088 3.79535L11.7068 0.293363C11.3168 -0.0971365 10.6828 -0.0971365 10.2928 0.293363C9.90235 0.683861 9.90235 1.31686 10.2928 1.70736L10.7303 2.14486L1.81787 16.4043L1.70687 16.2933C1.31687 15.9028 0.682873 15.9028 0.292874 16.2933C-0.0976247 16.6838 -0.0976247 17.3168 0.292874 17.7073L6.29286 23.7073C6.48786 23.9028 6.74386 24.0003 6.99986 24.0003C7.25586 24.0003 7.51186 23.9028 7.70686 23.7073C8.09735 23.3168 8.09735 22.6838 7.70686 22.2933L7.59586 22.1823L8.80635 21.4258C9.35335 22.6463 10.5778 23.5003 11.9998 23.5003C13.9298 23.5003 15.4998 21.9303 15.4998 20.0003C15.4998 19.1533 15.1958 18.3698 14.6793 17.7548L21.8553 13.2698L22.2928 13.7073C22.4878 13.9028 22.7438 14.0003 22.9998 14.0003C23.2558 14.0003 23.5118 13.9028 23.7068 13.7073C24.0973 13.3168 24.0973 12.6838 23.7068 12.2933ZM11.9998 21.5003C11.2903 21.5003 10.6948 21.0053 10.5393 20.3423L12.9468 18.8378C13.2888 19.1183 13.4998 19.5453 13.4998 20.0003C13.4998 20.8273 12.8268 21.5003 11.9998 21.5003ZM8.97985 18.9573C8.97735 18.9588 8.97585 18.9608 8.97335 18.9623L6.14436 20.7303L3.26937 17.8553L12.1818 3.59585L13.2133 4.62735L8.66785 11.4453C8.36135 11.9048 8.48585 12.5258 8.94535 12.8318C9.11535 12.9463 9.30835 13.0003 9.49885 13.0003C9.82185 13.0003 10.1393 12.8438 10.3318 12.5548L14.6553 6.06985L20.4038 11.8183L8.97985 18.9573Z" fill="#A8A8D1"/>
<path d="M18.5545 0.168066C18.0955 -0.138433 17.4746 -0.0139331 17.1681 0.445566L16.1681 1.94556C15.8616 2.40506 15.9861 3.02556 16.4456 3.33206C16.6156 3.44606 16.8086 3.50006 16.9991 3.50006C17.3221 3.50006 17.6396 3.34356 17.832 3.05456L18.832 1.55456C19.1385 1.09506 19.014 0.474066 18.5545 0.168066Z" fill="#1943EF"/>
<path d="M23.8317 5.4458C23.5252 4.9858 22.9042 4.8613 22.4452 5.1683L20.9452 6.16829C20.4857 6.47479 20.3617 7.09529 20.6677 7.55479C20.8602 7.84428 21.1772 8.00028 21.5007 8.00028C21.6912 8.00028 21.8842 7.94628 22.0542 7.83228L23.5542 6.83229C24.0137 6.52579 24.1377 5.90529 23.8317 5.4458Z" fill="#1943EF"/>
<path d="M23.2062 0.793197C22.8162 0.402698 22.1822 0.402698 21.7922 0.793197L19.2923 3.29319C18.9018 3.68369 18.9018 4.31669 19.2923 4.70719C19.4873 4.90269 19.7433 5.00019 19.9993 5.00019C20.2553 5.00019 20.5112 4.90269 20.7062 4.70719L23.2062 2.20719C23.5967 1.81669 23.5967 1.1837 23.2062 0.793197Z" fill="#1943EF"/>
</g>
<defs>
<clipPath id="clip0">
<rect width="24" height="24" fill="white"/>
</clipPath>
</defs>
</svg>
