<svg width="50" height="50" viewBox="0 0 50 50" fill="none" xmlns="http://www.w3.org/2000/svg">
<g clip-path="url(#clip0)">
<path d="M14.812 21.6928L14.8102 21.7246C14.687 23.8823 15.8957 25.9037 17.8902 26.8727L17.9107 26.8827C18.6138 27.2191 19.1902 27.7736 19.5538 28.4632L19.562 28.4782C20.567 30.3918 22.6456 31.5518 24.8615 31.4354L24.8952 31.4336C25.6988 31.3886 26.4965 31.5959 27.1765 32.0268C29.0529 33.2004 31.4347 33.2004 33.311 32.0268C33.991 31.5959 34.7887 31.3886 35.5924 31.4336L35.626 31.4354C37.8383 31.5527 39.9196 30.3918 40.9269 28.475L40.9319 28.4646C41.2969 27.7732 41.8746 27.2177 42.58 26.8809L42.5964 26.8727C44.5909 25.9032 45.8 23.8823 45.6764 21.7241L45.6746 21.6941C45.6337 20.9341 45.8446 20.1819 46.2755 19.5542C47.5159 17.7451 47.5159 15.3596 46.2759 13.5501C45.8455 12.9228 45.6337 12.171 45.6746 11.411L45.6764 11.3792C45.8 9.22104 44.5909 7.20014 42.5946 6.23015L42.5764 6.22106C41.8746 5.8856 41.2996 5.33379 40.9355 4.64607L40.9251 4.62561C39.9196 2.71199 37.8383 1.55245 35.626 1.66836L35.5919 1.67018C34.7887 1.71518 33.991 1.50791 33.3115 1.077H33.3106C31.4342 -0.0966299 29.0524 -0.0966299 27.176 1.077C26.4961 1.50745 25.6983 1.71472 24.8947 1.66972L24.8611 1.6679C22.6483 1.55063 20.5675 2.71153 19.5625 4.6247L19.5547 4.63879C19.1906 5.3297 18.6138 5.8847 17.9097 6.22151L17.8907 6.2306C15.8961 7.19969 14.687 9.22104 14.8107 11.3792L14.8125 11.4092C14.8534 12.1692 14.6425 12.9215 14.2116 13.5487C12.9711 15.3583 12.9711 17.7442 14.2116 19.5532C14.642 20.1805 14.8534 20.9328 14.812 21.6928ZM15.7438 14.606C16.4088 13.6378 16.7348 12.4769 16.6711 11.3042L16.6693 11.2724C16.6038 9.8424 17.4066 8.51423 18.7025 7.9065L18.7184 7.89877C19.7815 7.38969 20.652 6.55151 21.2011 5.50879L21.2102 5.49152C21.8779 4.21971 23.2765 3.4488 24.762 3.52789L24.7947 3.52926C25.9833 3.59607 27.1629 3.28971 28.1683 2.65244C29.4379 1.85836 31.0488 1.85836 32.3183 2.65244C33.3237 3.2888 34.5033 3.59562 35.6914 3.52971L35.7242 3.52789C37.2169 3.44971 38.6087 4.21971 39.2746 5.48788L39.2869 5.51106C39.836 6.55242 40.7055 7.38923 41.7673 7.89786L41.7828 7.90559C43.0991 8.54559 43.8982 9.86694 43.8178 11.2728L43.8159 11.306C43.7523 12.4787 44.0787 13.6392 44.7437 14.6074C45.5473 15.7796 45.5468 17.3251 44.7428 18.4969C44.0782 19.4655 43.7523 20.6264 43.8159 21.7991L43.8178 21.8305C43.8982 23.2364 43.0991 24.5582 41.7823 25.1987L41.7687 25.205C40.7046 25.715 39.8332 26.5541 39.2837 27.5986L39.2769 27.6123C38.6087 28.8841 37.2123 29.6555 35.7246 29.5759L35.6924 29.5741C34.5037 29.5077 33.3237 29.8145 32.3178 30.4514C31.0488 31.245 29.4379 31.245 28.1688 30.4514C27.2542 29.8718 26.1933 29.5645 25.1106 29.5655C25.0056 29.5655 24.9002 29.5682 24.7947 29.5741L24.762 29.5755C23.2961 29.6686 21.9093 28.9014 21.2088 27.61L21.1993 27.5923C20.6511 26.5514 19.782 25.715 18.7206 25.2064L18.7034 25.1978C17.3866 24.5578 16.5875 23.236 16.6684 21.8305L16.6702 21.7973C16.7334 20.6246 16.407 19.4637 15.7425 18.496C14.9393 17.3237 14.9398 15.7783 15.7438 14.6069V14.606Z" fill="#BFC9EF"/>
<path d="M24.2351 26.1757C24.671 26.4479 25.2451 26.3147 25.5174 25.8788L36.545 8.21257C36.725 7.9303 36.74 7.57303 36.5836 7.27712C36.4273 6.98076 36.1236 6.79167 35.7891 6.78122C35.4546 6.77076 35.14 6.94076 34.9655 7.22667L23.9383 24.8929C23.666 25.3293 23.7987 25.9034 24.2351 26.1757Z" fill="#1943EF"/>
<path d="M25.2242 16.5975C27.491 16.5975 29.3355 14.4944 29.3355 11.9094C29.3355 9.32439 27.491 7.22168 25.2242 7.22168C22.9574 7.22168 21.1133 9.32439 21.1133 11.9094C21.1133 14.4944 22.9574 16.5975 25.2242 16.5975ZM25.2242 9.08349C26.4646 9.08349 27.4737 10.3512 27.4737 11.9094C27.4737 13.4675 26.4646 14.7357 25.2242 14.7357C23.9842 14.7357 22.9751 13.4671 22.9751 11.9094C22.9751 10.3517 23.9842 9.08349 25.2242 9.08349Z" fill="#1943EF"/>
<path d="M31.1484 21.195C31.1484 23.78 32.9925 25.8827 35.2593 25.8827C37.5261 25.8827 39.3706 23.7795 39.3706 21.195C39.3706 18.6109 37.5266 16.5073 35.2598 16.5073C32.9925 16.5073 31.1484 18.6096 31.1484 21.195ZM37.5088 21.195C37.5088 22.7532 36.4998 24.0209 35.2593 24.0209C34.0193 24.0209 33.0102 22.7532 33.0102 21.195C33.0102 19.6368 34.0193 18.3691 35.2593 18.3691C36.4998 18.3691 37.5088 19.6359 37.5088 21.195Z" fill="#1943EF"/>
<path d="M49.8791 36.6529C48.6464 34.4652 45.9128 33.6321 43.6696 34.7602L36.3774 38.2057C35.3706 36.3334 33.4392 35.1416 31.3138 35.0816L24.582 34.8961C23.5161 34.8657 22.4702 34.5952 21.5225 34.1061L20.8375 33.7512C17.3302 31.923 13.1498 31.9275 9.6462 33.763L9.68893 32.2112C9.70302 31.6971 9.29803 31.2689 8.78394 31.2548L1.40217 31.0516C0.888078 31.0375 0.460354 31.4425 0.446263 31.9566L0.000356817 48.156C-0.0137341 48.6701 0.391263 49.0983 0.905351 49.1124L8.28712 49.3156H8.31303C8.81712 49.3151 9.22939 48.9138 9.24348 48.4101L9.26439 47.6351L11.1821 46.6083C11.9348 46.2033 12.8153 46.107 13.6375 46.3397L25.0888 49.5538C25.1088 49.5597 25.1288 49.5642 25.1493 49.5688C25.977 49.7419 26.8206 49.8288 27.6665 49.8283C29.4574 49.8292 31.2274 49.4433 32.8551 48.696C32.8951 48.6779 32.9338 48.657 32.9706 48.6333L49.5741 37.8929C49.9882 37.6257 50.1219 37.0816 49.8791 36.6529ZM1.88716 47.2765L2.28171 32.9389L7.80258 33.0907L7.40758 47.4288L1.88716 47.2765ZM32.0161 47.0324C29.9938 47.9451 27.7352 48.197 25.5616 47.7524L14.1407 44.5474C12.8557 44.1838 11.4794 44.3347 10.3035 44.967L9.32348 45.4915L9.58621 35.9584C12.6912 33.893 16.6739 33.6807 19.9811 35.4039L20.6661 35.7589C21.8634 36.377 23.1843 36.7184 24.5311 36.757L31.2629 36.9425C33.1538 36.9966 34.7597 38.3429 35.1433 40.1957L25.1161 39.9197C24.602 39.9057 24.1743 40.3107 24.1602 40.8247C24.1461 41.3388 24.5511 41.767 25.0652 41.7811L36.131 42.0856H36.1574C36.661 42.0852 37.0733 41.6838 37.0874 41.1802C37.0988 40.7756 37.0683 40.3707 36.9974 39.9725L44.4755 36.4384L44.4973 36.428C45.5582 35.8907 46.8414 36.0702 47.7137 36.8779L32.0161 47.0324Z" fill="#BFC9EF"/>
</g>
<defs>
<clipPath id="clip0">
<rect width="50" height="50" fill="white"/>
</clipPath>
</defs>
</svg>
