<svg width="24" height="24" viewBox="0 0 24 24" fill="none" xmlns="http://www.w3.org/2000/svg">
<g clip-path="url(#clip0)">
<path d="M22.0321 1.9672C19.4149 -0.649875 15.1566 -0.649875 12.5394 1.9672C6.12685 8.37952 7.87815 6.6285 1.96778 12.5389C-0.655348 15.162 -0.656379 19.4082 1.9674 22.0319C4.58495 24.6495 8.84373 24.6489 11.4608 22.0319C17.3878 16.1051 17.5823 15.9105 22.0325 11.4602C24.656 8.83673 24.6559 4.59098 22.0321 1.9672ZM15.7253 15.7779C15.6829 15.8221 14.9691 16.5353 10.4665 21.0377C8.39748 23.1068 5.03078 23.1068 2.96162 21.0376C0.888012 18.9641 0.887824 15.6073 2.962 13.5331L5.42336 11.0718C5.30781 11.9854 5.38525 12.9016 5.62215 13.7406L4.24571 15.1171C3.62645 15.7363 3.28543 16.5596 3.28543 17.4353C3.28543 20.334 6.8155 21.8203 8.88221 19.7536C9.11664 19.5192 14.0197 14.6162 14.2456 14.3903C16.0947 12.5245 15.0954 9.31744 12.4944 8.85689C13.8299 7.52142 13.6758 7.6755 14.1051 7.24622C17.2907 8.68186 18.3886 12.9181 15.7253 15.7779ZM6.19942 15.1518C6.79145 16.2295 7.70893 17.1742 8.84739 17.7999L7.88795 18.7594C7.15787 19.4894 5.96996 19.4894 5.23989 18.7594C4.50812 18.0276 4.50803 16.8432 5.23993 16.1113L6.19942 15.1518ZM10.6089 13.3905C9.8822 12.6637 9.8792 11.4794 10.5998 10.7515C11.3297 10.0284 12.5144 10.0312 13.2412 10.758C13.9677 11.4845 13.9705 12.6691 13.25 13.3972C12.5201 14.1201 11.3356 14.1172 10.6089 13.3905ZM15.1524 6.19884L15.9617 5.3895C16.6917 4.65952 17.8797 4.65947 18.6098 5.3895C19.3415 6.12122 19.3417 7.30556 18.6098 8.03756L17.8005 8.84686C17.2082 7.76925 16.2909 6.82434 15.1524 6.19884ZM18.5773 12.927C18.6886 12.0385 18.6226 11.1241 18.3782 10.2576L19.6041 9.03173C20.8852 7.75064 20.8857 5.67684 19.604 4.39523C18.3258 3.11695 16.2459 3.117 14.9675 4.39523L9.60475 9.75802C7.75473 11.6233 8.75457 14.8311 11.3557 15.2917L9.89462 16.7528C6.78789 15.351 5.55761 11.1766 8.26206 8.23495C8.30847 8.18527 8.31976 8.17523 13.5337 2.96142C15.6025 0.892734 18.9688 0.8925 21.0379 2.96142C23.1118 5.03531 23.1126 8.3917 21.0383 10.466L18.5773 12.927Z" fill="#A8A8D1"/>
<path d="M0.834458 8.87368L2.20696 8.74636C2.59358 8.71051 2.87793 8.36804 2.84207 7.98142C2.80621 7.59479 2.46379 7.31022 2.07707 7.34636L0.704567 7.47367C0.317942 7.50953 0.0335982 7.85199 0.0694576 8.23862C0.105411 8.6258 0.448629 8.90972 0.834458 8.87368Z" fill="#1943EF"/>
<path d="M8.04378 2.84303C8.40275 2.84303 8.70917 2.56943 8.74302 2.20493L8.87033 0.832472C8.90619 0.445847 8.62184 0.103331 8.23522 0.0675187C7.8485 0.0315656 7.50612 0.316003 7.47021 0.702581L7.3429 2.07503C7.30479 2.48622 7.62795 2.84303 8.04378 2.84303Z" fill="#1943EF"/>
<path d="M3.46913 4.33986C3.74373 4.61445 4.18881 4.61441 4.46336 4.33986C4.7379 4.06531 4.7379 3.62019 4.46336 3.34564L3.58295 2.46519C3.3084 2.19064 2.86327 2.19064 2.58872 2.46519C2.31418 2.73973 2.31418 3.18486 2.58872 3.45941L3.46913 4.33986Z" fill="#1943EF"/>
<path d="M23.1629 15.1261L21.7905 15.2535C21.4038 15.2893 21.1195 15.6318 21.1554 16.0184C21.1892 16.3829 21.4956 16.6565 21.8546 16.6565C21.8763 16.6565 21.8983 16.6555 21.9203 16.6535L23.2928 16.5261C23.6794 16.4903 23.9638 16.1478 23.9278 15.7612C23.892 15.3745 23.549 15.09 23.1629 15.1261Z" fill="#1943EF"/>
<path d="M16.0164 21.1593C15.6293 21.1233 15.2873 21.4078 15.2515 21.7944L15.1242 23.1668C15.086 23.5779 15.409 23.9349 15.825 23.9349C16.184 23.9349 16.4904 23.6613 16.5242 23.2968L16.6515 21.9243C16.6874 21.5377 16.4031 21.1952 16.0164 21.1593Z" fill="#1943EF"/>
<path d="M20.5244 19.6605C20.2498 19.386 19.8047 19.386 19.5302 19.6605C19.2556 19.935 19.2556 20.3802 19.5302 20.6547L20.4106 21.5351C20.5479 21.6724 20.7278 21.7411 20.9077 21.7411C21.5283 21.7411 21.8491 20.9851 21.4048 20.5409L20.5244 19.6605Z" fill="#1943EF"/>
</g>
<defs>
<clipPath id="clip0">
<rect width="24" height="24" fill="white"/>
</clipPath>
</defs>
</svg>
