<svg width="126" height="46" viewBox="0 0 126 46" fill="none" xmlns="http://www.w3.org/2000/svg">
<path d="M30.8279 35.0748V29.8632H32.3189C32.7809 29.8632 33.1379 29.9678 33.3899 30.1981C33.6629 30.4283 33.7889 30.7004 33.7889 31.0562C33.7889 31.3492 33.7049 31.6004 33.5579 31.8306C33.3899 32.0399 33.1799 32.2074 32.8859 32.2911V32.312C33.2429 32.3539 33.5159 32.4795 33.7259 32.7097C33.9359 32.9399 34.0409 33.233 34.0409 33.5888C34.0409 34.0283 33.8729 34.4051 33.5579 34.6771C33.2429 34.9492 32.8229 35.0957 32.3399 35.0957H30.8279V35.0748ZM31.4579 30.4074V32.0818H32.0879C32.4239 32.0818 32.6969 31.9981 32.8859 31.8306C33.0749 31.6632 33.1799 31.433 33.1799 31.1399C33.1799 30.6376 32.8439 30.3864 32.1719 30.3864H31.4579V30.4074ZM31.4579 32.626V34.5097H32.2979C32.6549 34.5097 32.9279 34.426 33.1379 34.2585C33.3269 34.0911 33.4319 33.8609 33.4319 33.5678C33.4319 32.9609 33.0119 32.6469 32.1719 32.6469H31.4579V32.626ZM38.0729 31.3492H37.4639V33.5051C37.4639 33.8609 37.3799 34.133 37.1909 34.3423C37.0019 34.5516 36.7709 34.6562 36.4769 34.6562C35.8679 34.6562 35.5739 34.2585 35.5739 33.4841V31.3492H34.9859V33.5678C34.9859 34.6353 35.4269 35.1585 36.3299 35.1585C36.8549 35.1585 37.2329 34.9283 37.4849 34.4888H37.5059V35.0748H38.1149V31.3492H38.0729ZM42.3779 32.7934C42.3779 32.2911 42.2729 31.9144 42.0629 31.6423C41.8529 31.3702 41.5379 31.2446 41.1179 31.2446C40.5719 31.2446 40.1729 31.4748 39.8999 31.9562H39.8789V31.3283H39.2699V35.0539H39.8579V32.919C39.8579 32.5841 39.9629 32.2911 40.1519 32.0609C40.3409 31.8306 40.5929 31.726 40.8869 31.726C41.4749 31.726 41.7479 32.1237 41.7479 32.919V35.0539H42.3569V32.7934H42.3779ZM46.7039 35.0748H46.0949V34.4469H46.0739C45.8009 34.9283 45.3599 35.1585 44.7929 35.1585C44.3309 35.1585 43.9529 34.9911 43.6589 34.6562C43.3859 34.3213 43.2389 33.8609 43.2389 33.2958C43.2389 32.6888 43.3859 32.1865 43.7009 31.8097C44.0159 31.433 44.4359 31.2446 44.9399 31.2446C45.4439 31.2446 45.8219 31.4539 46.0529 31.8516H46.0739V29.5492H46.6829V35.0748H46.7039ZM46.0949 33.3795V32.8353C46.0949 32.5423 45.9899 32.2702 45.8009 32.0818C45.5909 31.8725 45.3389 31.7678 45.0449 31.7678C44.6879 31.7678 44.3939 31.8934 44.1839 32.1655C43.9739 32.4376 43.8689 32.7934 43.8689 33.2748C43.8689 33.7144 43.9739 34.0492 44.1629 34.3004C44.3729 34.5516 44.6249 34.6771 44.9819 34.6771C45.3179 34.6771 45.5909 34.5516 45.8009 34.3213C45.9899 34.0492 46.0949 33.7562 46.0949 33.3795ZM50.9249 33.3585H48.2789C48.2789 33.7771 48.4049 34.0911 48.6149 34.3213C48.8249 34.5516 49.1189 34.6562 49.4969 34.6562C49.9169 34.6562 50.2949 34.5097 50.6519 34.2376V34.8027C50.3159 35.033 49.8959 35.1585 49.3499 35.1585C48.8249 35.1585 48.4049 34.9911 48.1109 34.6562C47.8169 34.3213 47.6489 33.8399 47.6489 33.233C47.6489 32.6469 47.8169 32.1865 48.1529 31.8097C48.4889 31.4539 48.8879 31.2655 49.3919 31.2655C49.8749 31.2655 50.2529 31.433 50.5259 31.7469C50.7989 32.0609 50.9249 32.5004 50.9249 33.0655V33.3585ZM50.2949 32.8562C50.2949 32.5213 50.2109 32.2492 50.0429 32.0609C49.8749 31.8725 49.6439 31.7678 49.3499 31.7678C49.0769 31.7678 48.8249 31.8725 48.6359 32.0609C48.4469 32.2702 48.3209 32.5213 48.2789 32.8562H50.2949ZM51.5969 34.9283C51.8699 35.0748 52.2059 35.1585 52.6049 35.1585C52.7939 35.1585 52.9829 35.1376 53.1719 35.0957C53.3399 35.0539 53.5079 34.9911 53.6339 34.8864C53.7599 34.8027 53.8859 34.6772 53.9699 34.5516C54.0539 34.426 54.0959 34.2585 54.0959 34.0702C54.0959 33.9237 54.0749 33.7981 54.0119 33.6725C53.9699 33.5678 53.8859 33.4632 53.8019 33.3795C53.7179 33.2958 53.5919 33.212 53.4659 33.1492C53.3399 33.0865 53.1929 33.0237 53.0249 32.9609C52.8989 32.919 52.7939 32.8771 52.6889 32.8353C52.5839 32.7934 52.4999 32.7516 52.4369 32.6888C52.3739 32.6469 52.3109 32.5841 52.2899 32.5213C52.2479 32.4585 52.2269 32.3748 52.2269 32.2702C52.2269 32.1864 52.2479 32.1237 52.2899 32.0609C52.3319 31.9981 52.3739 31.9353 52.4369 31.8934C52.4999 31.8516 52.5839 31.8097 52.6679 31.7888C52.7519 31.7678 52.8569 31.7469 52.9619 31.7469C53.3189 31.7469 53.6339 31.8306 53.9069 32.019V31.412C53.6549 31.3074 53.3609 31.2446 53.0459 31.2446C52.8569 31.2446 52.6889 31.2655 52.5209 31.3074C52.3529 31.3492 52.2059 31.412 52.0589 31.5167C51.9329 31.6004 51.8279 31.726 51.7439 31.8516C51.6599 31.9771 51.6179 32.1446 51.6179 32.312C51.6179 32.4585 51.6389 32.5841 51.6809 32.6888C51.7229 32.7934 51.7859 32.8981 51.8699 32.9818C51.9539 33.0655 52.0589 33.1492 52.1849 33.212C52.3109 33.2748 52.4579 33.3376 52.6259 33.4004C52.7519 33.4423 52.8569 33.4841 52.9619 33.526C53.0669 33.5678 53.1509 33.6097 53.2349 33.6725C53.3189 33.7353 53.3819 33.7771 53.4239 33.8609C53.4659 33.9237 53.4869 34.0074 53.4869 34.112C53.4869 34.4678 53.2139 34.6353 52.6889 34.6353C52.2899 34.6353 51.9329 34.5097 51.6179 34.2795V34.9283H51.5969ZM57.6659 35.0748H57.0569V34.4888H57.0359C56.7839 34.9283 56.3849 35.1585 55.8809 35.1585C55.5029 35.1585 55.2089 35.0539 54.9989 34.8655C54.7889 34.6772 54.6839 34.4051 54.6839 34.0911C54.6839 33.4004 55.1039 32.9818 55.9229 32.8772L57.0359 32.7306C57.0359 32.1027 56.7839 31.7888 56.2589 31.7888C55.8179 31.7888 55.3979 31.9353 55.0409 32.2492V31.6423C55.4189 31.412 55.8389 31.2865 56.3219 31.2865C57.2039 31.2865 57.6449 31.7469 57.6449 32.6678V35.0748H57.6659ZM57.0779 33.1911L56.1749 33.3167C55.9019 33.3585 55.6919 33.4213 55.5449 33.526C55.3979 33.6306 55.3349 33.7981 55.3349 34.0492C55.3349 34.2376 55.3979 34.3841 55.5239 34.4888C55.6499 34.6144 55.8179 34.6562 56.0489 34.6562C56.3429 34.6562 56.5949 34.5516 56.7839 34.3423C56.9729 34.133 57.0779 33.8818 57.0779 33.5469V33.1911ZM61.9079 32.7934C61.9079 32.2911 61.8029 31.9144 61.5929 31.6423C61.3829 31.3702 61.0679 31.2446 60.6479 31.2446C60.1229 31.2446 59.7029 31.4748 59.4299 31.9562H59.4089V31.3283H58.7999V35.0539H59.4089V32.919C59.4089 32.5841 59.5139 32.2911 59.7029 32.0609C59.8919 31.8306 60.1439 31.726 60.4379 31.726C61.0259 31.726 61.2989 32.1237 61.2989 32.919V35.0539H61.9079V32.7934ZM62.8109 34.9283C63.0839 35.0748 63.4199 35.1585 63.8189 35.1585C64.0079 35.1585 64.1969 35.1376 64.3859 35.0957C64.5539 35.0539 64.7219 34.9911 64.8479 34.8864C64.9949 34.8027 65.0999 34.6772 65.1839 34.5516C65.2679 34.426 65.3099 34.2585 65.3099 34.0702C65.3099 33.9237 65.2889 33.7981 65.2259 33.6725C65.1629 33.5469 65.0999 33.4632 65.0159 33.3795C64.9319 33.2958 64.8059 33.212 64.6799 33.1492C64.5539 33.0865 64.4069 33.0237 64.2389 32.9609C64.1129 32.919 64.0079 32.8771 63.9029 32.8353C63.7979 32.7934 63.7139 32.7516 63.6509 32.6888C63.5879 32.6469 63.5249 32.5841 63.5039 32.5213C63.4619 32.4585 63.4409 32.3748 63.4409 32.2702C63.4409 32.1864 63.4619 32.1237 63.5039 32.0609C63.5459 31.9981 63.5879 31.9353 63.6509 31.8934C63.7139 31.8516 63.7979 31.8097 63.8819 31.7888C63.9659 31.7678 64.0709 31.7469 64.1759 31.7469C64.5329 31.7469 64.8479 31.8306 65.1209 32.019V31.412C64.8689 31.3074 64.5749 31.2446 64.2599 31.2446C64.0709 31.2446 63.9029 31.2655 63.7349 31.3074C63.5669 31.3492 63.3989 31.412 63.2729 31.5167C63.1469 31.6004 63.0419 31.726 62.9579 31.8516C62.8739 31.9771 62.8319 32.1446 62.8319 32.312C62.8319 32.4585 62.8529 32.5841 62.8949 32.6888C62.9369 32.7934 62.9999 32.8981 63.0839 32.9818C63.1679 33.0655 63.2729 33.1492 63.3989 33.212C63.5249 33.2748 63.6719 33.3376 63.8399 33.4004C63.9659 33.4423 64.0709 33.4841 64.1759 33.526C64.2809 33.5678 64.3649 33.6097 64.4489 33.6725C64.5329 33.7353 64.5959 33.7771 64.6379 33.8609C64.6799 33.9237 64.7009 34.0074 64.7009 34.112C64.7009 34.4678 64.4279 34.6353 63.9029 34.6353C63.5039 34.6353 63.1469 34.5097 62.8319 34.2795V34.9283H62.8109ZM67.9349 34.5306C67.8299 34.6144 67.7039 34.6562 67.5359 34.6562C67.3469 34.6562 67.1999 34.5934 67.1159 34.4888C67.0319 34.3841 66.9899 34.1958 66.9899 33.9446V31.8516H67.9349V31.3492H66.9899V30.2399L66.3809 30.4283V31.3492H65.7299V31.8516H66.3809V34.0492C66.3809 34.7818 66.7169 35.1376 67.3679 35.1376C67.5989 35.1376 67.7879 35.0958 67.9349 35.012V34.5306ZM71.4209 35.0748H70.8329V34.4888H70.8119C70.5599 34.9283 70.1609 35.1585 69.6569 35.1585C69.2789 35.1585 68.9849 35.0539 68.7749 34.8655C68.5649 34.6772 68.4599 34.4051 68.4599 34.0911C68.4599 33.4004 68.8799 32.9818 69.6989 32.8772L70.8119 32.7306C70.8119 32.1027 70.5599 31.7888 70.0349 31.7888C69.5939 31.7888 69.1739 31.9353 68.8169 32.2492V31.6423C69.1949 31.412 69.6149 31.2865 70.0769 31.2865C70.9589 31.2865 71.3999 31.7469 71.3999 32.6678V35.0748H71.4209ZM70.8119 33.1911L69.9089 33.3167C69.6359 33.3585 69.4259 33.4213 69.2789 33.526C69.1319 33.6306 69.0689 33.7981 69.0689 34.0492C69.0689 34.2376 69.1319 34.3841 69.2579 34.4888C69.3839 34.6144 69.5729 34.6562 69.7829 34.6562C70.0769 34.6562 70.3289 34.5516 70.5179 34.3423C70.7069 34.133 70.8119 33.8818 70.8119 33.5469V33.1911ZM73.1429 29.5492H72.5339V35.0748H73.1429V29.5492ZM76.0829 34.5306C75.9779 34.6144 75.8519 34.6562 75.6839 34.6562C75.4949 34.6562 75.3479 34.5934 75.2639 34.4888C75.1799 34.3841 75.1379 34.1958 75.1379 33.9446V31.8516H76.0829V31.3492H75.1379V30.2399L74.5289 30.4283V31.3492H73.8779V31.8516H74.5289V34.0492C74.5289 34.7818 74.8649 35.1376 75.5159 35.1376C75.7469 35.1376 75.9359 35.0958 76.0829 35.012V34.5306ZM80.7869 29.5283C80.6819 29.4865 80.5349 29.4655 80.3459 29.4655C80.0099 29.4655 79.7159 29.5702 79.5059 29.8004C79.2749 30.0306 79.1699 30.3446 79.1699 30.7213V31.3283H78.5399V31.8306H79.1699V35.0539H79.7579V31.8306H80.6399V31.3283H79.7579V30.7632C79.7579 30.2399 79.9679 29.9678 80.3879 29.9678C80.5349 29.9678 80.6609 30.0097 80.7869 30.0725V29.5283ZM84.2939 35.0748H83.6849V34.4888H83.6639C83.4119 34.9492 83.0339 35.1585 82.5089 35.1585C81.6269 35.1585 81.1649 34.6353 81.1649 33.5678V31.3492H81.7529V33.4632C81.7529 34.2585 82.0469 34.6353 82.6559 34.6353C82.9499 34.6353 83.1809 34.5306 83.3699 34.3213C83.5589 34.112 83.6429 33.819 83.6429 33.4841V31.3283H84.2519V35.0748H84.2939ZM82.0889 30.6376C81.9839 30.6376 81.8999 30.5958 81.8369 30.533C81.7739 30.4702 81.7319 30.3864 81.7319 30.2818C81.7319 30.1771 81.7739 30.0934 81.8369 30.0306C81.8999 29.9678 81.9839 29.926 82.0889 29.926C82.1939 29.926 82.2779 29.9678 82.3409 30.0306C82.4039 30.0934 82.4459 30.1771 82.4459 30.2818C82.4459 30.3864 82.4039 30.4702 82.3409 30.533C82.2569 30.5958 82.1729 30.6376 82.0889 30.6376ZM83.4749 30.6376C83.3699 30.6376 83.2859 30.5958 83.2229 30.533C83.1599 30.4702 83.1179 30.3864 83.1179 30.2818C83.1179 30.1771 83.1599 30.0934 83.2229 30.0306C83.2859 29.9678 83.3699 29.926 83.4749 29.926C83.5799 29.926 83.6639 29.9678 83.7269 30.0306C83.7899 30.0934 83.8319 30.1771 83.8319 30.2818C83.8319 30.3864 83.7899 30.4702 83.7269 30.533C83.6639 30.5958 83.5799 30.6376 83.4749 30.6376ZM87.4649 31.3283C87.3809 31.2864 87.2549 31.2865 87.1079 31.2865C86.8979 31.2865 86.6879 31.3702 86.5199 31.5167C86.3519 31.6632 86.2049 31.8725 86.1209 32.1237H86.0999V31.3492H85.5119V35.0748H86.0999V33.1702C86.0999 32.7516 86.1839 32.4376 86.3519 32.1864C86.5199 31.9562 86.7299 31.8306 86.9819 31.8306C87.1709 31.8306 87.3389 31.8725 87.4439 31.9562V31.3283H87.4649ZM33.4949 38.8004H30.8279V44.012H31.4369V41.7097H33.3269V41.1655H31.4369V39.3655H33.4739V38.8004H33.4949ZM34.7129 39.3446C34.6079 39.3446 34.5239 39.3027 34.4399 39.2399C34.3559 39.1772 34.3349 39.0725 34.3349 38.9678C34.3349 38.8632 34.3769 38.7585 34.4399 38.6958C34.5239 38.612 34.6079 38.5911 34.7129 38.5911C34.8179 38.5911 34.9229 38.633 34.9859 38.6958C35.0699 38.7795 35.0909 38.8632 35.0909 38.9678C35.0909 39.0725 35.0489 39.1562 34.9859 39.2399C34.9229 39.3027 34.8179 39.3446 34.7129 39.3446ZM35.0069 44.012H34.3979V40.2865H35.0069V44.012ZM39.3329 41.7306C39.3329 41.2283 39.2279 40.8516 39.0179 40.5795C38.8079 40.3074 38.4929 40.1818 38.0729 40.1818C37.5269 40.1818 37.1279 40.412 36.8549 40.8934H36.8339V40.2655H36.2459V43.9911H36.8339V41.8562C36.8339 41.5213 36.9389 41.2283 37.1279 40.9981C37.3169 40.7678 37.5689 40.6632 37.8629 40.6632C38.4509 40.6632 38.7239 41.0609 38.7239 41.8562V43.9911H39.3329V41.7306ZM43.1339 44.012H42.5249V43.426H42.5039C42.2519 43.8655 41.8529 44.0958 41.3489 44.0958C40.9709 44.0958 40.6769 43.9911 40.4669 43.8027C40.2569 43.6144 40.1519 43.3423 40.1519 43.0283C40.1519 42.3376 40.5719 41.919 41.3909 41.8144L42.5039 41.6679C42.5039 41.0399 42.2519 40.726 41.7269 40.726C41.2859 40.726 40.8659 40.8725 40.5089 41.1865V40.5795C40.8869 40.3492 41.3069 40.2237 41.7899 40.2237C42.6719 40.2237 43.1129 40.6841 43.1129 41.6051V44.012H43.1339ZM42.5249 42.1283L41.6219 42.2539C41.3489 42.2958 41.1389 42.3585 40.9919 42.4632C40.8449 42.5678 40.7819 42.7353 40.7819 42.9865C40.7819 43.1748 40.8449 43.3213 40.9709 43.426C41.0969 43.5516 41.2649 43.5934 41.4959 43.5934C41.7899 43.5934 42.0419 43.4888 42.2309 43.2795C42.4199 43.0702 42.5249 42.819 42.5249 42.4841V42.1283ZM47.3549 41.7306C47.3549 41.2283 47.2499 40.8516 47.0189 40.5795C46.8089 40.3074 46.4939 40.1818 46.0739 40.1818C45.5489 40.1818 45.1289 40.412 44.8559 40.8934H44.8349V40.2655H44.2259V43.9911H44.8349V41.8562C44.8349 41.5213 44.9399 41.2283 45.1289 40.9981C45.3179 40.7678 45.5699 40.6632 45.8639 40.6632C46.4519 40.6632 46.7249 41.0609 46.7249 41.8562V43.9911H47.3339V41.7306H47.3549ZM51.0929 40.2865H48.2159V40.7888H50.2109L48.0059 43.8237V44.012H51.0719V43.5097H48.8879L51.0929 40.4539V40.2865ZM55.0619 44.012H54.4529V43.3841H54.4319C54.1589 43.8655 53.7179 44.0958 53.1509 44.0958C52.6889 44.0958 52.3109 43.9283 52.0169 43.5934C51.7439 43.2585 51.5969 42.7981 51.5969 42.233C51.5969 41.626 51.7439 41.1237 52.0589 40.7469C52.3739 40.3702 52.7939 40.1818 53.2979 40.1818C53.8019 40.1818 54.1799 40.3911 54.4109 40.7888H54.4319V38.4865H55.0409V44.012H55.0619ZM54.4529 42.3167V41.7725C54.4529 41.4795 54.3479 41.2074 54.1589 40.9981C53.9699 40.7888 53.6969 40.6841 53.4029 40.6841C53.0459 40.6841 52.7519 40.8097 52.5419 41.0818C52.3319 41.3539 52.2269 41.7097 52.2269 42.1911C52.2269 42.6306 52.3319 42.9655 52.5209 43.2167C52.7309 43.4678 52.9829 43.5934 53.3399 43.5934C53.6759 43.5934 53.9489 43.4678 54.1589 43.2376C54.3479 42.9865 54.4529 42.6934 54.4529 42.3167ZM56.5739 39.3446C56.4689 39.3446 56.3849 39.3027 56.3009 39.2399C56.2169 39.1772 56.1959 39.0725 56.1959 38.9678C56.1959 38.8632 56.2379 38.7585 56.3009 38.6958C56.3849 38.612 56.4689 38.5911 56.5739 38.5911C56.6789 38.5911 56.7839 38.633 56.8469 38.6958C56.9309 38.7795 56.9519 38.8632 56.9519 38.9678C56.9519 39.0725 56.9099 39.1562 56.8469 39.2399C56.7839 39.3027 56.6789 39.3446 56.5739 39.3446ZM56.8679 44.012H56.2799V40.2865H56.8679V44.012ZM61.0889 42.2958H58.4429C58.4429 42.7144 58.5689 43.0283 58.7789 43.2585C58.9889 43.4888 59.2829 43.5934 59.6609 43.5934C60.0809 43.5934 60.4589 43.4469 60.8159 43.1748V43.7399C60.4799 43.9702 60.0599 44.0958 59.5139 44.0958C58.9889 44.0958 58.5689 43.9283 58.2749 43.5934C57.9809 43.2585 57.8129 42.7771 57.8129 42.1702C57.8129 41.5841 57.9809 41.1237 58.3169 40.7469C58.6529 40.3911 59.0519 40.2027 59.5349 40.2027C60.0179 40.2027 60.3959 40.3702 60.6689 40.6841C60.9419 40.9981 61.0679 41.4376 61.0679 42.0027V42.2958H61.0889ZM60.4799 41.7934C60.4799 41.4585 60.3959 41.1865 60.2279 40.9981C60.0599 40.8097 59.8289 40.7051 59.5349 40.7051C59.2619 40.7051 59.0099 40.8097 58.8209 40.9981C58.6319 41.2074 58.5059 41.4585 58.4639 41.7934H60.4799ZM65.0999 41.7306C65.0999 41.2283 64.9949 40.8516 64.7639 40.5795C64.5539 40.3074 64.2389 40.1818 63.8189 40.1818C63.2939 40.1818 62.8739 40.412 62.6009 40.8934H62.5799V40.2655H61.9709V43.9911H62.5799V41.8562C62.5799 41.5213 62.6849 41.2283 62.8739 40.9981C63.0629 40.7678 63.3149 40.6632 63.6089 40.6632C64.1969 40.6632 64.4699 41.0609 64.4699 41.8562V43.9911H65.0789V41.7306H65.0999ZM66.0029 43.8655C66.2759 44.012 66.6119 44.0958 67.0109 44.0958C67.1999 44.0958 67.3889 44.0748 67.5779 44.033C67.7459 43.9911 67.9139 43.9283 68.0399 43.8237C68.1659 43.7399 68.2919 43.6144 68.3759 43.4888C68.4599 43.3632 68.5019 43.1958 68.5019 43.0074C68.5019 42.8609 68.4809 42.7353 68.4179 42.6097C68.3759 42.5051 68.2919 42.4004 68.2079 42.3167C68.1239 42.233 67.9979 42.1492 67.8719 42.0865C67.7459 42.0237 67.5989 41.9609 67.4309 41.8981C67.3049 41.8562 67.1999 41.8144 67.0949 41.7725C66.9899 41.7306 66.9059 41.6888 66.8429 41.626C66.7799 41.5841 66.7169 41.5213 66.6959 41.4585C66.6539 41.3958 66.6329 41.312 66.6329 41.2074C66.6329 41.1237 66.6539 41.0609 66.6959 40.9981C66.7379 40.9353 66.7799 40.8725 66.8429 40.8306C66.9059 40.7888 66.9899 40.7469 67.0739 40.726C67.1579 40.7051 67.2629 40.6841 67.3679 40.6841C67.7249 40.6841 68.0399 40.7678 68.3129 40.9562V40.3702C68.0609 40.2655 67.7669 40.2027 67.4519 40.2027C67.2629 40.2027 67.0949 40.2237 66.9269 40.2655C66.7589 40.3074 66.6119 40.3702 66.4649 40.4748C66.3389 40.5585 66.2339 40.6841 66.1499 40.8097C66.0659 40.9353 66.0239 41.1027 66.0239 41.2702C66.0239 41.4167 66.0449 41.5423 66.0869 41.6469C66.1289 41.7516 66.1919 41.8562 66.2759 41.9399C66.3599 42.0237 66.4649 42.1074 66.5909 42.1702C66.7169 42.233 66.8639 42.2958 67.0319 42.3585C67.1579 42.4004 67.2629 42.4423 67.3679 42.4841C67.4729 42.526 67.5569 42.5678 67.6409 42.6306C67.7249 42.6934 67.7879 42.7353 67.8299 42.819C67.8719 42.8818 67.8929 42.9655 67.8929 43.0702C67.8929 43.426 67.6199 43.5934 67.0949 43.5934C66.6959 43.5934 66.3389 43.4678 66.0239 43.2376V43.8655H66.0029ZM71.1269 43.4678C71.0219 43.5516 70.8959 43.5934 70.7279 43.5934C70.5389 43.5934 70.3919 43.5306 70.3079 43.426C70.2239 43.3213 70.1819 43.133 70.1819 42.8818V40.7888H71.1269V40.2865H70.1819V39.1771L69.5939 39.3655V40.2865H68.9429V40.7888H69.5939V42.9865C69.5939 43.719 69.9299 44.0748 70.5809 44.0748C70.8119 44.0748 71.0009 44.033 71.1479 43.9492V43.4678H71.1269ZM72.5339 38.4865H71.9459V44.012H72.5339V38.4865ZM76.7549 42.2958H74.1089C74.1089 42.7144 74.2349 43.0283 74.4449 43.2585C74.6549 43.4888 74.9489 43.5934 75.3269 43.5934C75.7469 43.5934 76.1249 43.4469 76.4819 43.1748V43.7399C76.1459 43.9702 75.7259 44.0958 75.1799 44.0958C74.6549 44.0958 74.2349 43.9283 73.9409 43.5934C73.6469 43.2585 73.4789 42.7771 73.4789 42.1702C73.4789 41.5841 73.6469 41.1237 73.9829 40.7469C74.3189 40.3911 74.7179 40.2027 75.2009 40.2027C75.6839 40.2027 76.0619 40.3702 76.3349 40.6841C76.6079 40.9981 76.7339 41.4376 76.7339 42.0027V42.2958H76.7549ZM76.1249 41.7934C76.1249 41.4585 76.0409 41.1865 75.8729 40.9981C75.7049 40.8097 75.4739 40.7051 75.1799 40.7051C74.9069 40.7051 74.6549 40.8097 74.4659 40.9981C74.2769 41.2074 74.1509 41.4585 74.1089 41.7934H76.1249ZM77.9519 39.3446C77.8469 39.3446 77.7629 39.3027 77.6789 39.2399C77.5949 39.1772 77.5739 39.0725 77.5739 38.9678C77.5739 38.8632 77.6159 38.7585 77.6789 38.6958C77.7629 38.612 77.8469 38.5911 77.9519 38.5911C78.0569 38.5911 78.1619 38.633 78.2249 38.6958C78.3089 38.7795 78.3299 38.8632 78.3299 38.9678C78.3299 39.0725 78.2879 39.1562 78.2249 39.2399C78.1619 39.3027 78.0779 39.3446 77.9519 39.3446ZM78.2459 44.012H77.6369V40.2865H78.2459V44.012ZM79.2329 43.8655C79.5059 44.012 79.8419 44.0958 80.2409 44.0958C80.4299 44.0958 80.6189 44.0748 80.8079 44.033C80.9759 43.9911 81.1439 43.9283 81.2699 43.8237C81.3959 43.7399 81.5219 43.6144 81.6059 43.4888C81.6899 43.3632 81.7319 43.1958 81.7319 43.0074C81.7319 42.8609 81.7109 42.7353 81.6479 42.6097C81.6059 42.5051 81.5219 42.4004 81.4379 42.3167C81.3539 42.233 81.2279 42.1492 81.1019 42.0865C80.9759 42.0237 80.8289 41.9609 80.6609 41.8981C80.5349 41.8562 80.4299 41.8144 80.3249 41.7725C80.2199 41.7306 80.1359 41.6888 80.0729 41.626C80.0099 41.5841 79.9469 41.5213 79.9259 41.4585C79.8839 41.3958 79.8629 41.312 79.8629 41.2074C79.8629 41.1237 79.8839 41.0609 79.9259 40.9981C79.9679 40.9353 80.0099 40.8725 80.0729 40.8306C80.1359 40.7888 80.2199 40.7469 80.3039 40.726C80.3879 40.7051 80.4929 40.6841 80.5979 40.6841C80.9549 40.6841 81.2699 40.7678 81.5429 40.9562V40.3702C81.2909 40.2655 80.9969 40.2027 80.6819 40.2027C80.4929 40.2027 80.3249 40.2237 80.1569 40.2655C79.9889 40.3074 79.8419 40.3702 79.6949 40.4748C79.5689 40.5585 79.4639 40.6841 79.3799 40.8097C79.2959 40.9353 79.2539 41.1027 79.2539 41.2702C79.2539 41.4167 79.2749 41.5423 79.3169 41.6469C79.3589 41.7516 79.4219 41.8562 79.5059 41.9399C79.5899 42.0237 79.6949 42.1074 79.8209 42.1702C79.9469 42.233 80.0939 42.2958 80.2619 42.3585C80.3879 42.4004 80.4929 42.4423 80.5979 42.4841C80.7029 42.526 80.7869 42.5678 80.8709 42.6306C80.9549 42.6934 81.0179 42.7353 81.0599 42.819C81.1019 42.8818 81.1229 42.9655 81.1229 43.0702C81.1229 43.426 80.8499 43.5934 80.3249 43.5934C79.9259 43.5934 79.5689 43.4678 79.2539 43.2376V43.8655H79.2329ZM84.3779 43.4678C84.2729 43.5516 84.1469 43.5934 83.9789 43.5934C83.7899 43.5934 83.6429 43.5306 83.5589 43.426C83.4749 43.3213 83.4329 43.133 83.4329 42.8818V40.7888H84.3779V40.2865H83.4329V39.1771L82.8239 39.3655V40.2865H82.1729V40.7888H82.8239V42.9865C82.8239 43.719 83.1599 44.0748 83.8109 44.0748C84.0419 44.0748 84.2309 44.033 84.3779 43.9492V43.4678ZM88.1999 40.2865H87.5909V42.4423C87.5909 42.7981 87.5069 43.0702 87.3179 43.2795C87.1289 43.4888 86.8979 43.5934 86.6039 43.5934C85.9949 43.5934 85.7009 43.1958 85.7009 42.4213V40.2865H85.1129V42.5051C85.1129 43.5725 85.5539 44.0958 86.4569 44.0958C86.9819 44.0958 87.3599 43.8655 87.6119 43.426H87.6329V44.012H88.2419V40.2865H88.1999ZM92.5049 41.7306C92.5049 41.2283 92.3999 40.8516 92.1689 40.5795C91.9589 40.3074 91.6439 40.1818 91.2239 40.1818C90.6779 40.1818 90.2789 40.412 90.0059 40.8934H89.9849V40.2655H89.3759V43.9911H89.9849V41.8562C89.9849 41.5213 90.0899 41.2283 90.2789 40.9981C90.4679 40.7678 90.7199 40.6632 91.0139 40.6632C91.6019 40.6632 91.8749 41.0609 91.8749 41.8562V43.9911H92.4839V41.7306H92.5049ZM96.8309 43.719C96.8309 45.0795 96.1799 45.7702 94.8569 45.7702C94.3949 45.7702 93.9959 45.6865 93.6389 45.4981V44.912C94.0589 45.1423 94.4579 45.2678 94.8359 45.2678C95.7599 45.2678 96.2219 44.7864 96.2219 43.8027V43.4051H96.2009C95.9069 43.8865 95.4869 44.1167 94.9199 44.1167C94.4579 44.1167 94.0799 43.9492 93.8069 43.6144C93.5339 43.2795 93.3869 42.8399 93.3869 42.2748C93.3869 41.6469 93.5339 41.1446 93.8489 40.7678C94.1639 40.3911 94.5629 40.2027 95.1089 40.2027C95.6129 40.2027 95.9909 40.412 96.2219 40.8097H96.2429V40.2865H96.8519V43.719H96.8309ZM96.2219 42.3167V41.7725C96.2219 41.4795 96.1169 41.2283 95.9279 41.019C95.7179 40.8097 95.4869 40.7051 95.1719 40.7051C94.7939 40.7051 94.5209 40.8306 94.3109 41.1027C94.1009 41.3748 93.9959 41.7516 93.9959 42.233C93.9959 42.6516 94.1009 42.9865 94.2899 43.2376C94.4999 43.4888 94.7519 43.6144 95.0879 43.6144C95.4239 43.6144 95.6969 43.4888 95.9069 43.2585C96.1169 43.0074 96.2219 42.6934 96.2219 42.3167ZM97.8179 43.8655C98.0909 44.012 98.4269 44.0958 98.8259 44.0958C99.0149 44.0958 99.2039 44.0748 99.3929 44.033C99.5609 43.9911 99.7289 43.9283 99.8549 43.8237C99.9809 43.7399 100.107 43.6144 100.191 43.4888C100.275 43.3632 100.317 43.1958 100.317 43.0074C100.317 42.8609 100.296 42.7353 100.233 42.6097C100.191 42.5051 100.107 42.4004 100.023 42.3167C99.9389 42.233 99.8129 42.1492 99.6869 42.0865C99.5609 42.0237 99.4139 41.9609 99.2459 41.8981C99.1199 41.8562 99.0149 41.8144 98.9099 41.7725C98.8049 41.7306 98.7209 41.6888 98.6579 41.626C98.5949 41.5841 98.5319 41.5213 98.5109 41.4585C98.4689 41.3958 98.4479 41.312 98.4479 41.2074C98.4479 41.1237 98.4689 41.0609 98.5109 40.9981C98.5529 40.9353 98.5949 40.8725 98.6579 40.8306C98.7209 40.7888 98.8049 40.7469 98.8889 40.726C98.9729 40.7051 99.0779 40.6841 99.1829 40.6841C99.5399 40.6841 99.8549 40.7678 100.128 40.9562V40.3702C99.8759 40.2655 99.5819 40.2027 99.2669 40.2027C99.0779 40.2027 98.9099 40.2237 98.7419 40.2655C98.5739 40.3074 98.4269 40.3702 98.2799 40.4748C98.1539 40.5585 98.0489 40.6841 97.9649 40.8097C97.8809 40.9353 97.8389 41.1027 97.8389 41.2702C97.8389 41.4167 97.8599 41.5423 97.9019 41.6469C97.9439 41.7516 98.0069 41.8562 98.0909 41.9399C98.1749 42.0237 98.2799 42.1074 98.4059 42.1702C98.5319 42.233 98.6789 42.2958 98.8469 42.3585C98.9729 42.4004 99.0779 42.4423 99.1829 42.4841C99.2879 42.526 99.3719 42.5678 99.4559 42.6306C99.5399 42.6934 99.6029 42.7353 99.6449 42.819C99.6869 42.8818 99.7079 42.9655 99.7079 43.0702C99.7079 43.426 99.4349 43.5934 98.9099 43.5934C98.5109 43.5934 98.1539 43.4678 97.8389 43.2376V43.8655H97.8179ZM103.887 44.012H103.278V43.426H103.257C103.005 43.8655 102.606 44.0958 102.102 44.0958C101.724 44.0958 101.43 43.9911 101.22 43.8027C101.01 43.6144 100.905 43.3423 100.905 43.0283C100.905 42.3376 101.325 41.919 102.144 41.8144L103.257 41.6679C103.257 41.0399 103.005 40.726 102.48 40.726C102.039 40.726 101.619 40.8725 101.262 41.1865V40.5795C101.64 40.3492 102.06 40.2237 102.543 40.2237C103.425 40.2237 103.866 40.6841 103.866 41.6051V44.012H103.887ZM103.299 42.1283L102.396 42.2539C102.123 42.2958 101.913 42.3585 101.766 42.4632C101.619 42.5678 101.556 42.7353 101.556 42.9865C101.556 43.1748 101.619 43.3213 101.745 43.426C101.871 43.5516 102.039 43.5934 102.27 43.5934C102.564 43.5934 102.816 43.4888 103.005 43.2795C103.194 43.0702 103.299 42.819 103.299 42.4841V42.1283ZM108.045 40.2865H107.436V42.4423C107.436 42.7981 107.352 43.0702 107.163 43.2795C106.974 43.4888 106.743 43.5934 106.449 43.5934C105.84 43.5934 105.546 43.1958 105.546 42.4213V40.2865H104.958V42.5051C104.958 43.5725 105.399 44.0958 106.302 44.0958C106.827 44.0958 107.205 43.8655 107.457 43.426H107.478V44.012H108.087V40.2865H108.045ZM111.09 38.4865C110.985 38.4446 110.838 38.4237 110.649 38.4237C110.313 38.4237 110.019 38.5283 109.809 38.7585C109.578 38.9888 109.473 39.3027 109.473 39.6795V40.2865H108.843V40.7888H109.473V44.012H110.061V40.7888H110.943V40.2865H110.061V39.7213C110.061 39.1981 110.271 38.926 110.691 38.926C110.838 38.926 110.964 38.9678 111.09 39.0306V38.4865ZM111.363 43.8655C111.636 44.012 111.972 44.0958 112.371 44.0958C112.56 44.0958 112.749 44.0748 112.938 44.033C113.106 43.9911 113.274 43.9283 113.4 43.8237C113.526 43.7399 113.652 43.6144 113.736 43.4888C113.82 43.3632 113.862 43.1958 113.862 43.0074C113.862 42.8609 113.841 42.7353 113.778 42.6097C113.736 42.5051 113.652 42.4004 113.568 42.3167C113.484 42.233 113.358 42.1492 113.232 42.0865C113.106 42.0237 112.959 41.9609 112.791 41.8981C112.665 41.8562 112.56 41.8144 112.455 41.7725C112.35 41.7306 112.266 41.6888 112.203 41.626C112.14 41.5841 112.077 41.5213 112.056 41.4585C112.014 41.3958 111.993 41.312 111.993 41.2074C111.993 41.1237 112.014 41.0609 112.056 40.9981C112.098 40.9353 112.14 40.8725 112.203 40.8306C112.266 40.7888 112.35 40.7469 112.434 40.726C112.518 40.7051 112.623 40.6841 112.728 40.6841C113.085 40.6841 113.4 40.7678 113.673 40.9562V40.3702C113.421 40.2655 113.127 40.2027 112.812 40.2027C112.623 40.2027 112.455 40.2237 112.287 40.2655C112.119 40.3074 111.972 40.3702 111.825 40.4748C111.699 40.5585 111.594 40.6841 111.51 40.8097C111.426 40.9353 111.384 41.1027 111.384 41.2702C111.384 41.4167 111.405 41.5423 111.447 41.6469C111.489 41.7516 111.552 41.8562 111.636 41.9399C111.72 42.0237 111.825 42.1074 111.951 42.1702C112.077 42.233 112.224 42.2958 112.392 42.3585C112.518 42.4004 112.623 42.4423 112.728 42.4841C112.833 42.526 112.917 42.5678 113.001 42.6306C113.085 42.6934 113.148 42.7353 113.19 42.819C113.232 42.8818 113.253 42.9655 113.253 43.0702C113.253 43.426 112.98 43.5934 112.455 43.5934C112.056 43.5934 111.699 43.4678 111.384 43.2376V43.8655H111.363ZM115.08 39.3446C114.975 39.3446 114.891 39.3027 114.807 39.2399C114.723 39.1772 114.702 39.0725 114.702 38.9678C114.702 38.8632 114.744 38.7585 114.807 38.6958C114.891 38.612 114.975 38.5911 115.08 38.5911C115.185 38.5911 115.29 38.633 115.353 38.6958C115.437 38.7795 115.458 38.8632 115.458 38.9678C115.458 39.0725 115.416 39.1562 115.353 39.2399C115.269 39.3027 115.185 39.3446 115.08 39.3446ZM115.353 44.012H114.765V40.2865H115.353V44.012ZM119.133 43.2795C118.839 43.4888 118.545 43.6144 118.209 43.6144C117.831 43.6144 117.516 43.4888 117.285 43.2376C117.054 42.9865 116.949 42.6516 116.949 42.212C116.949 41.7725 117.075 41.4167 117.306 41.1446C117.558 40.8725 117.873 40.726 118.251 40.726C118.566 40.726 118.86 40.8306 119.133 41.019V40.3702C118.881 40.2446 118.587 40.1818 118.272 40.1818C117.684 40.1818 117.201 40.3702 116.865 40.7469C116.508 41.1237 116.34 41.6051 116.34 42.233C116.34 42.7771 116.508 43.2376 116.823 43.5725C117.159 43.9283 117.579 44.0958 118.104 44.0958C118.503 44.0958 118.839 44.012 119.133 43.8446V43.2795ZM123.123 41.7097C123.123 40.7051 122.703 40.1818 121.863 40.1818C121.338 40.1818 120.918 40.412 120.645 40.8934H120.624V38.4865H120.036V44.012H120.624V41.8981C120.624 41.5423 120.729 41.2492 120.918 41.0399C121.128 40.8097 121.359 40.7051 121.653 40.7051C122.241 40.7051 122.514 41.1027 122.514 41.8772V44.033H123.123V41.7097ZM126 43.4678C125.895 43.5516 125.769 43.5934 125.601 43.5934C125.412 43.5934 125.265 43.5306 125.181 43.426C125.097 43.3213 125.055 43.133 125.055 42.8818V40.7888H126V40.2865H125.055V39.1771L124.446 39.3655V40.2865H123.795V40.7888H124.446V42.9865C124.446 43.719 124.782 44.0748 125.433 44.0748C125.664 44.0748 125.853 44.033 126 43.9492V43.4678ZM29.2949 19.6283V19.0004C29.8199 18.8748 30.1769 18.7074 30.3659 18.5399C30.5549 18.3725 30.6599 18.1423 30.7229 17.8283C30.7859 17.5144 30.8069 17.0539 30.8069 16.426V5.39575C30.8069 4.8097 30.7859 4.3911 30.7439 4.11901C30.7019 3.84692 30.6389 3.63761 30.5339 3.4911C30.4289 3.34459 30.3029 3.21901 30.1349 3.13529C29.9669 3.05157 29.6939 2.94691 29.2949 2.84226V2.21436H36.2879C37.6529 2.21436 38.7239 2.36087 39.5639 2.65389C40.3829 2.94691 40.9919 3.36552 41.3909 3.93063C41.7899 4.49575 41.9999 5.22831 41.9999 6.10738C41.9999 6.83994 41.8529 7.48877 41.5799 8.03296C41.2859 8.57715 40.9289 9.03761 40.4669 9.39343C40.0049 9.74924 39.4169 10.0841 38.6819 10.3981V10.5027C39.8369 10.8585 40.7189 11.3818 41.3069 12.1144C41.8949 12.8469 42.2099 13.7051 42.2099 14.7097C42.2099 15.8609 41.9579 16.8027 41.4329 17.5353C40.9079 18.2678 40.1939 18.7911 39.2699 19.126C38.3459 19.4609 37.2119 19.6074 35.8889 19.6074H29.2949V19.6283ZM35.4269 10.0423C36.7289 10.0423 37.7159 9.72831 38.4089 9.1004C39.1019 8.4725 39.4379 7.5725 39.4379 6.37947C39.4379 5.79343 39.3329 5.31203 39.1439 4.91436C38.9549 4.51668 38.6819 4.22366 38.3459 3.99343C38.0099 3.76319 37.6109 3.59575 37.1489 3.51203C36.6869 3.40738 36.1829 3.36552 35.6579 3.36552C35.3429 3.36552 34.9019 3.36552 34.3769 3.38645C33.8519 3.40738 33.4529 3.42831 33.1799 3.42831V10.0213H35.4269V10.0423ZM33.1799 18.4353C33.8099 18.4981 34.5029 18.519 35.2589 18.519C36.3719 18.519 37.2329 18.3725 37.8629 18.1004C38.4719 17.8283 38.9339 17.4097 39.2069 16.8655C39.4799 16.3213 39.6269 15.6306 39.6269 14.8144C39.6269 13.9981 39.4799 13.3074 39.1649 12.7841C38.8709 12.2399 38.3879 11.8423 37.7579 11.5911C37.1279 11.319 36.2669 11.1934 35.1539 11.1934H33.1799V18.4353ZM51.7439 17.8074L51.5549 17.7655C50.8199 18.519 50.1269 19.0632 49.4549 19.3771C48.8039 19.6911 48.1109 19.8585 47.3759 19.8585C46.7249 19.8585 46.1579 19.733 45.6539 19.4818C45.1499 19.2306 44.7719 18.8748 44.5199 18.4144C44.2469 17.9539 44.1209 17.4306 44.1209 16.8446C44.1209 15.6097 44.7299 14.6469 45.9689 13.9771C47.2079 13.3074 49.0559 12.9097 51.5129 12.8051V11.9678C51.5129 11.0888 51.4289 10.3771 51.2609 9.87482C51.0929 9.3725 50.8199 8.99575 50.4629 8.74459C50.1059 8.51436 49.6019 8.38877 48.9929 8.38877C48.3209 8.38877 47.7959 8.55622 47.3969 8.91203C46.9979 9.26784 46.6829 9.7911 46.4729 10.4818H44.7929V8.82831C45.6119 8.40971 46.2839 8.09575 46.8299 7.88645C47.3759 7.69808 47.9219 7.53064 48.4679 7.40505C49.0139 7.3004 49.5599 7.23761 50.1269 7.23761C50.9669 7.23761 51.6389 7.36319 52.1639 7.63529C52.6679 7.90738 53.0669 8.30505 53.3189 8.87017C53.5709 9.41436 53.6969 10.2516 53.6969 11.3609V15.7981C53.6969 16.426 53.6969 16.8655 53.7179 17.1376C53.7179 17.3888 53.7599 17.6399 53.8019 17.8492C53.8439 18.0795 53.9069 18.2469 53.9909 18.3725C54.0749 18.4981 54.2009 18.6237 54.3689 18.7074C54.5369 18.7911 54.8099 18.8958 55.1879 19.0004V19.6283H51.6809L51.7439 17.8074ZM51.5129 13.8306C49.7909 13.8516 48.4889 14.0818 47.6279 14.5213C46.7669 14.9609 46.3469 15.6306 46.3469 16.5306C46.3469 17.012 46.4519 17.3888 46.6409 17.6818C46.8299 17.9539 47.0819 18.1632 47.3759 18.2678C47.6699 18.3725 48.0269 18.4353 48.4469 18.4353C49.0349 18.4353 49.5599 18.2888 50.0219 18.0167C50.5049 17.7446 50.8619 17.3888 51.1349 16.9492C51.4079 16.5097 51.5339 16.0911 51.5339 15.6725V13.8306H51.5129ZM56.6579 2.23529V2.86319C57.0569 2.96785 57.3299 3.0725 57.4979 3.15622C57.6659 3.23994 57.7919 3.36552 57.8969 3.51203C58.0019 3.65854 58.0649 3.86784 58.1069 4.13994C58.1489 4.41203 58.1699 4.83064 58.1699 5.41668V16.4469C58.1699 17.0748 58.1489 17.5353 58.0859 17.8492C58.0229 18.1632 57.9179 18.3934 57.7289 18.5609C57.5399 18.7283 57.2039 18.8748 56.6579 19.0213V19.6492H62.3279V19.0213C61.9919 18.9376 61.6979 18.8539 61.4669 18.7702C61.2359 18.6865 61.0469 18.5399 60.9209 18.3725C60.7949 18.2051 60.6899 17.9539 60.6269 17.6399C60.5639 17.326 60.5429 16.9283 60.5429 16.426V11.4237H63.1679C63.5669 11.4237 63.8609 11.4865 64.0499 11.612C64.2389 11.7376 64.4279 11.9469 64.5749 12.2399C64.7219 12.533 64.8479 12.9725 64.9949 13.5376H66.1919V8.15854H64.9949C64.8689 8.76552 64.7429 9.20505 64.5959 9.49808C64.4489 9.7911 64.2809 10.0004 64.0709 10.126C63.8609 10.2516 63.5669 10.3144 63.1889 10.3144H60.5639V3.38645H64.3019C64.7219 3.38645 65.0579 3.42831 65.3099 3.4911C65.5619 3.57482 65.7929 3.7004 65.9819 3.88877C66.1709 4.07715 66.3599 4.34924 66.5279 4.70506C66.6959 5.06087 66.8849 5.52133 67.0739 6.10738H68.3339V2.25622H56.6579V2.23529ZM69.6779 19.0213C70.0139 18.9167 70.2449 18.833 70.3919 18.7492C70.5389 18.6655 70.6439 18.5609 70.7489 18.4353C70.8539 18.3097 70.9169 18.1004 70.9799 17.8074C71.0429 17.5353 71.0639 17.0958 71.0639 16.4888V10.9423C71.0639 10.3981 71.0639 9.95854 71.0429 9.62366C71.0219 9.28878 70.9589 9.01668 70.8539 8.82831C70.7489 8.63994 70.6019 8.4725 70.3919 8.38877C70.1819 8.28412 69.8879 8.2004 69.5099 8.13761V7.46785L72.4919 7.36319H73.2689V16.4678C73.2689 17.2004 73.3109 17.7027 73.3739 17.9958C73.4369 18.2888 73.5629 18.4981 73.7729 18.6446C73.9619 18.7911 74.2769 18.9167 74.7179 19.0423V19.6702H69.6989V19.0213H69.6779ZM73.3529 4.93529H71.0009V2.46552H73.3529V4.93529ZM88.8929 19.0213C88.4939 18.9167 88.2209 18.812 88.0529 18.7074C87.8849 18.6027 87.7589 18.4981 87.6749 18.3516C87.5909 18.2051 87.5279 17.9958 87.4859 17.7446C87.4439 17.4725 87.4439 17.0539 87.4439 16.4678V11.6539C87.4439 10.9423 87.4019 10.3771 87.3179 9.91668C87.2339 9.45622 87.0869 9.05854 86.9189 8.74459C86.7299 8.4097 86.5199 8.13761 86.2259 7.92831C85.9529 7.69808 85.6379 7.55157 85.2599 7.44691C84.9029 7.34226 84.4829 7.27947 84.0209 7.27947C83.5799 7.27947 83.1599 7.36319 82.7609 7.50971C82.3619 7.65622 81.9629 7.86552 81.5849 8.13761C81.2069 8.40971 80.6819 8.87017 80.0519 9.49808L79.8629 9.45622L80.0099 7.38412H79.2329L76.2509 7.48877V8.15854C76.6289 8.22133 76.9229 8.30505 77.1329 8.40971C77.3429 8.51436 77.4899 8.66087 77.5949 8.84924C77.6999 9.05854 77.7629 9.3097 77.7839 9.64459C77.8049 9.97947 77.8049 10.419 77.8049 10.9632V16.5097C77.8049 17.0958 77.7839 17.5353 77.7209 17.8283C77.6579 18.1004 77.5949 18.3097 77.4899 18.4562C77.3849 18.5818 77.2799 18.7074 77.1329 18.7702C76.9859 18.8539 76.7549 18.9376 76.4189 19.0423V19.6702H81.4379V19.0423C80.9969 18.9376 80.6819 18.812 80.4929 18.6446C80.3039 18.4981 80.1779 18.2888 80.0939 17.9958C80.0309 17.7027 79.9889 17.2004 79.9889 16.4678V11.6958C79.9889 11.2981 80.0729 10.9213 80.2409 10.6074C80.4089 10.2934 80.6609 9.97947 81.0179 9.64459C81.3749 9.33064 81.7109 9.1004 82.0049 8.95389C82.2989 8.82831 82.6139 8.76552 82.9499 8.76552C83.2859 8.76552 83.5589 8.80738 83.7479 8.87017C83.9579 8.93296 84.1259 9.03761 84.2939 9.16319C84.4619 9.28877 84.5879 9.43529 84.7139 9.60273C84.8189 9.77017 84.9239 10.0213 85.0079 10.3353C85.0919 10.6492 85.1549 11.0469 85.1759 11.5283C85.2179 12.0097 85.2179 12.5539 85.2179 13.1399V16.5097C85.2179 17.0958 85.1969 17.5144 85.1339 17.8074C85.0709 18.1004 85.0079 18.3097 84.9029 18.4353C84.7979 18.5609 84.6929 18.6864 84.5459 18.7492C84.3989 18.833 84.1679 18.9167 83.8319 19.0213V19.6492H88.8719V19.0213H88.8929Z" fill="white"/>
<path d="M8.715 5.79354C7.014 4.09819 5.691 3.72145 4.137 3.72145C2.331 3.72145 0.882 4.76796 0 5.64703V4.30749C1.533 3.09354 2.94 2.7168 4.137 2.7168C6.279 2.7168 7.812 3.44935 9.45 5.10284C10.458 6.21214 11.928 6.86098 13.398 6.86098C14.259 6.86098 14.994 6.67261 15.645 6.35866C16.233 6.46331 17.157 6.40052 17.577 6.33772C16.38 7.27959 15.12 7.86563 13.398 7.86563C13.188 7.86563 10.71 7.94935 8.715 5.79354ZM8.715 10.2098C10.71 12.3447 13.188 12.2819 13.398 12.2819C15.12 12.2819 16.38 11.6959 17.577 10.754C17.178 10.8377 16.254 10.8796 15.645 10.7749C14.973 11.0889 14.259 11.2773 13.398 11.2773C11.928 11.2773 10.458 10.6284 9.45 9.51912C7.812 7.86563 6.279 7.13307 4.137 7.13307C2.94 7.13307 1.512 7.50982 0 8.72377V10.0633C0.903 9.18424 2.331 8.13773 4.137 8.13773C5.691 8.13773 7.035 8.5354 8.715 10.2098ZM8.715 14.6261C10.71 16.761 13.188 16.6982 13.398 16.6982C15.12 16.6982 16.38 16.1121 17.577 15.1703C17.178 15.254 16.254 15.2959 15.645 15.1912C14.973 15.5052 14.259 15.6935 13.398 15.6935C11.928 15.6935 10.458 15.0447 9.45 13.9354C7.812 12.2819 6.279 11.5494 4.137 11.5494C2.94 11.5494 1.512 11.9261 0 13.1401V14.4796C0.903 13.6005 2.331 12.554 4.137 12.554C5.691 12.554 7.035 12.9517 8.715 14.6261ZM15.666 19.6075C14.994 19.9214 14.28 20.1098 13.419 20.1098C11.949 20.1098 10.479 19.461 9.471 18.3517C7.833 16.6982 6.3 15.9656 4.158 15.9656C2.961 15.9656 1.533 16.3424 0.0210013 17.5563V18.8959C0.924001 18.0168 2.352 16.9703 4.158 16.9703C5.712 16.9703 7.056 17.368 8.736 19.0424C10.731 21.1773 13.209 21.1145 13.419 21.1145C15.141 21.1145 16.401 20.5284 17.598 19.5866C17.178 19.6494 16.254 19.7121 15.666 19.6075Z" fill="#C51725"/>
<path d="M3.1294 6.73513C3.9904 6.04444 5.5654 5.14444 7.2664 5.1863C7.6444 5.43746 8.3794 6.12816 8.5684 6.33746C6.6784 5.98164 5.7964 6.40025 5.0824 6.69327C4.3474 6.60955 3.7804 6.60955 3.1294 6.73513ZM16.4644 4.91421C14.8054 4.91421 13.3984 4.13979 12.5164 3.177C12.5164 3.177 12.4954 3.17699 12.4954 3.15606C10.8154 1.46072 9.2614 0.77002 7.1824 0.77002C5.7544 0.77002 4.3894 1.29327 3.1084 2.31886C3.7384 2.19327 4.4944 2.2142 5.0614 2.277C5.7544 1.94211 6.4684 1.7956 7.1824 1.7956C8.9884 1.7956 10.2904 2.38165 11.7604 3.86769C13.7344 6.00258 16.2544 5.93979 16.4224 5.93979C18.2704 5.93979 19.5514 5.24909 20.4964 4.51653V3.19792C19.5724 4.05606 18.3544 4.91421 16.4644 4.91421ZM16.4434 9.33048C18.5014 9.33048 19.8034 8.26304 20.5174 7.6142V8.91188C19.5514 9.66537 18.3334 10.3351 16.4224 10.3351C15.3304 10.3351 13.3774 10.0421 11.5924 8.07467C12.1804 8.24211 12.7894 8.32583 13.3984 8.32583C13.4614 8.38862 14.6794 9.33048 16.4434 9.33048ZM3.1294 11.1514C3.9904 10.4607 5.5654 9.56071 7.2664 9.60258C7.6444 9.85374 8.3794 10.5444 8.5684 10.7537C6.6784 10.3979 5.7964 10.8165 5.0824 11.1096C4.3474 11.0258 3.7804 11.0258 3.1294 11.1514ZM3.1294 15.5677C3.9904 14.877 5.5654 13.977 7.2664 14.0189C7.6444 14.27 8.3794 14.9607 8.5684 15.17C6.6784 14.8142 5.7964 15.2328 5.0824 15.5258C4.3474 15.4421 3.7804 15.4421 3.1294 15.5677ZM16.4434 13.7468C18.5014 13.7468 19.8034 12.6793 20.5174 12.0305V13.3491C19.5514 14.1026 18.3334 14.7723 16.4224 14.7723C15.3304 14.7723 13.3774 14.4793 11.5924 12.5119C12.1804 12.6793 12.7894 12.763 13.3984 12.763C13.4614 12.8049 14.6794 13.7468 16.4434 13.7468ZM16.4434 18.163C18.5014 18.163 19.8034 17.0956 20.5174 16.4468V17.7444C19.5514 18.4979 18.3334 19.1677 16.4224 19.1677C15.3304 19.1677 13.3774 18.8747 11.5924 16.9072C12.1804 17.0747 12.7894 17.1584 13.3984 17.1584C13.4614 17.2212 14.6794 18.163 16.4434 18.163Z" fill="#FEC600"/>
</svg>
