<svg width="168" height="39" viewBox="0 0 168 39" fill="none" xmlns="http://www.w3.org/2000/svg">
<path d="M0 0.942009L167.469 0.27002L167.134 38.27L0 37.2615V0.942009Z" fill="#036D86"/>
<path d="M166.797 1.27881L167.133 37.2618L119.298 37.7681L110.984 1.41859L166.797 1.27881Z" fill="#FDB827"/>
<path d="M143.612 5.45353C147.724 5.84285 151.674 6.8058 154.53 10.1254C155.694 11.4807 156.415 12.922 156.929 14.5808C157.683 17.0202 157.823 19.3841 157.303 21.9903C156.833 24.3479 156.262 26.2541 155.057 28.2867C154.7 28.8841 154.308 29.3946 153.883 29.9578C152.884 31.278 151.494 32.1229 150.034 32.8601C148.772 33.499 147.552 34.0415 146.106 34.1865C142.811 34.522 140.836 34.4495 137.715 33.909C136.221 33.6512 134.726 33.0869 133.476 32.1333C130.988 30.2322 128.924 28.0547 127.81 25.2456C126.7 22.4417 126.319 19.4462 126.768 16.4145C127.077 14.324 127.939 12.4395 129.085 10.6627C129.558 9.92967 130.057 9.50307 130.649 8.91185C131.478 8.08144 132.487 7.67762 133.495 7.14645C134.44 6.64945 135.415 6.31915 136.485 6.11724C138.191 5.79522 139.736 5.49806 141.416 5.467C142.118 5.45457 142.905 5.38623 143.612 5.45353Z" fill="black"/>
<path d="M130.976 9.39746C130.368 10.0187 129.803 10.6027 129.34 11.343C128.036 13.4263 127.266 15.6297 127.156 18.0163C127.071 19.8314 127.407 21.6351 128.05 23.328C128.652 24.9091 129.526 26.3111 130.667 27.624C131.818 28.9483 133.115 30.0148 134.573 30.9073C136.144 31.7823 138.277 32.6686 140.336 32.6634C140.993 32.6634 141.781 32.7504 142.454 32.6479C143.284 32.5216 143.852 32.6116 144.661 32.5402C146.874 32.3445 148.502 31.803 150.291 30.722C151.748 29.8388 152.993 28.7526 154.109 27.4542C155.571 25.753 156.285 23.736 156.85 21.5554C157.131 20.4806 157.227 19.4462 157.147 18.3901C157.096 17.7254 157.15 17.0586 156.973 16.4135C156.772 15.6742 156.733 14.9225 156.368 14.2463C155.936 13.4449 155.67 12.6259 155.246 11.8328C153.69 8.93567 150.815 7.37218 147.694 6.62875C145.586 6.12449 143.536 5.79834 141.394 6.01474C139.162 6.24046 136.957 6.39474 134.837 7.15163C133.424 7.65692 132.066 8.28439 130.976 9.39746Z" fill="#006C85"/>
<path d="M130.976 9.39746C130.368 10.0187 129.803 10.6027 129.34 11.343C128.036 13.4263 127.266 15.6297 127.156 18.0163C127.071 19.8314 127.407 21.6351 128.05 23.328C128.652 24.9091 129.526 26.3111 130.667 27.624C131.818 28.9483 133.115 30.0148 134.573 30.9073C136.144 31.7823 138.277 32.6686 140.336 32.6634C140.993 32.6634 141.781 32.7504 142.454 32.6479C143.284 32.5216 143.852 32.6116 144.661 32.5402C146.874 32.3445 148.502 31.803 150.291 30.722C151.748 29.8388 152.993 28.7526 154.109 27.4542C155.571 25.753 156.285 23.736 156.85 21.5554C157.131 20.4806 157.227 19.4462 157.147 18.3901C157.096 17.7254 157.15 17.0586 156.973 16.4135C156.772 15.6742 156.733 14.9225 156.368 14.2463C155.936 13.4449 155.67 12.6259 155.246 11.8328C153.69 8.93567 150.815 7.37218 147.694 6.62875C145.586 6.12449 143.536 5.79834 141.394 6.01474C139.162 6.24046 136.957 6.39474 134.837 7.15163C133.424 7.65692 132.066 8.28439 130.976 9.39746V9.39746Z" stroke="black" stroke-width="0.0813089"/>
<path d="M152.562 27.1629C152.274 27.3617 152.037 27.457 151.73 27.6102C151.61 27.6724 151.11 27.8898 150.953 27.7096C151.078 27.1464 152.975 25.1656 154.294 25.2308C154.001 26.1731 153.371 26.6028 152.562 27.1629ZM146.274 8.12152C146.829 8.29961 147.435 8.41351 147.777 8.87531C147.901 9.04201 147.51 8.97263 147.41 8.98299C146.292 9.09999 145.161 8.85667 144.116 8.3928C143.894 8.29547 143.306 7.97656 143.605 7.86577C144.44 7.56032 145.4 7.84195 146.274 8.12152ZM148.96 11.439C149.88 11.7382 151.198 12.5894 151.341 13.0232C150.839 13.2676 148.707 12.5303 147.805 11.5011C147.773 11.4649 147.76 11.3562 147.843 11.3406C148.234 11.2671 148.632 11.3324 148.96 11.439ZM150.077 9.93351C150.43 10.2483 150.622 10.6138 150.921 10.9959C151.149 11.2868 151.298 11.5933 151.44 11.935C151.522 12.1317 151.634 12.5438 151.501 12.5107C150.761 12.3191 150.304 11.7745 149.822 11.2257C149.307 10.6397 148.875 9.71814 148.831 9.14659C148.823 9.0565 148.94 9.06479 148.996 9.08446C149.44 9.25634 149.727 9.61977 150.077 9.93351ZM152.361 10.5185C152.513 11.3251 152.603 12.0934 152.458 12.871C152.425 13.045 152.277 13.4871 152.137 13.1847C151.568 11.9598 151.395 10.6272 151.591 9.22631C151.614 9.0534 151.718 8.73449 151.828 8.89498C152.115 9.31743 152.269 10.0236 152.361 10.5185ZM155.003 19.038C154.796 19.6054 154.502 20.002 154.161 20.5248C154.04 20.7091 153.764 20.969 153.738 20.9028C153.439 20.1055 154.188 18.2707 154.428 17.8617C154.639 17.5035 154.976 17.052 155.351 16.906C155.44 17.6826 155.236 18.4043 155.003 19.038ZM153.982 17.5729C153.87 18.483 153.584 19.7566 153.3 20.1272C152.926 19.5402 152.932 18.8319 152.949 18.5058C153.017 17.2633 153.247 16.4826 153.759 16.0611C153.954 16.3573 153.988 16.5426 154.008 16.8139C154.03 17.0914 154.018 17.2767 153.982 17.5729ZM150.792 25.6626C150.734 26.1782 150.53 26.6908 150.357 27.1691C150.334 27.2344 150.33 27.2603 150.227 27.4228C150.166 27.517 150.068 27.2768 150.051 27.194C149.777 25.8956 149.77 24.2151 150.554 23.3992C150.909 24.1737 150.879 24.9005 150.792 25.6626ZM135.201 26.5655C135.179 27.1391 135.127 27.6775 134.887 28.2056C134.549 27.7925 133.924 25.1635 134.563 24.1581C134.594 24.1105 134.744 24.2741 134.766 24.3259C135.088 25.0279 135.231 25.7434 135.201 26.5655ZM132.889 26.1265C132.665 25.6005 132.46 25.1967 132.45 24.4905C132.51 24.4864 132.685 24.5868 132.723 24.6085C133.524 25.0797 134.03 26.1555 134.346 27.6351C134.372 27.7593 134.41 28.0254 134.355 28.0016C133.628 27.6786 133.204 26.873 132.889 26.1265ZM130.171 19.1819C130.101 18.5182 130.083 17.8006 130.278 17.167C130.638 17.5356 130.721 17.7064 130.826 18.0005C131.25 19.1829 131.184 20.677 131.033 21.6255C131.027 21.6545 130.916 21.5603 130.89 21.5085C130.529 20.7754 130.258 19.9988 130.171 19.1819ZM129.145 20.5414C128.903 19.8984 128.621 19.2647 128.65 18.5689C129.966 19.3113 130.345 20.881 130.723 22.2913C130.733 22.3275 130.674 22.3803 130.62 22.3513C129.902 21.9475 129.427 21.2838 129.145 20.5414ZM132.132 14.2968C131.986 14.4045 131.645 14.6405 131.666 14.5153C131.853 13.2655 132.716 12.227 133.822 11.6099C133.909 11.5591 134.136 11.527 134.13 11.557C133.856 12.6929 133.097 13.573 132.132 14.2968ZM132.423 11.4566C132.344 12.2891 131.983 12.9362 131.595 13.631C131.507 13.7873 131.266 14.1684 131.193 14.0224C130.911 13.4695 131.07 12.9166 131.204 12.3595C131.339 11.8045 131.558 11.2837 131.898 10.8064C132.057 10.5838 132.133 10.3725 132.456 10.2141C132.555 10.5599 132.462 11.0373 132.423 11.4566ZM137.078 7.93618C137.313 7.91961 137.781 7.92582 137.821 8.0801C137.856 8.20332 137.473 8.39901 137.331 8.5098C136.452 9.19007 134.915 9.76059 133.944 9.5856C134.157 9.04408 134.541 8.83699 134.951 8.61749C135.611 8.26441 136.305 7.99002 137.078 7.93618ZM132.231 20.4534C132.053 20.9929 131.901 21.5675 131.494 21.9858C131.456 22.0252 131.416 21.8543 131.414 21.8264C131.311 20.7354 131.436 19.6349 131.781 18.5948C131.871 18.3266 132.017 18.0626 132.2 17.8327C132.448 18.336 132.512 18.8433 132.458 19.3258C132.403 19.8332 132.398 19.9471 132.231 20.4534ZM132.456 26.6111C133.216 27.0915 133.739 27.9312 134.227 28.5224C134.262 28.5639 134.214 28.6032 134.183 28.596C132.786 28.2367 131.361 27.37 130.816 25.9929C131.428 25.997 131.933 26.2818 132.456 26.6111ZM151.97 19.769C151.463 18.8319 150.934 17.8814 151.032 16.7663C151.038 16.7197 151.086 16.6907 151.135 16.7062C152.165 17.0303 153.018 19.8849 152.879 20.6636C152.542 20.5694 152.157 20.1138 151.97 19.769ZM152.444 25.294C152.053 25.9898 151.491 26.6131 150.891 27.1505C150.848 27.1899 150.783 27.1391 150.786 27.1049C150.888 26.1337 151.541 24.1737 152.836 23.6456C152.912 24.0898 152.763 24.7214 152.444 25.294ZM130.12 13.9209C129.989 13.5502 129.815 12.9207 129.827 12.58C129.844 12.0541 129.814 11.6989 130.134 11.1294C130.931 12.257 130.889 14.3123 130.771 15.0485C130.32 14.6695 130.258 14.3123 130.12 13.9209Z" fill="#CCE2E7"/>
<path d="M147.552 30.0859C147.22 30.2505 146.85 30.411 146.543 30.5311C146.083 30.7072 144.979 30.9619 144.998 30.9049C144.975 30.9805 144.818 30.5488 145.245 30.4038C145.627 30.2723 145.998 30.2744 146.996 29.9037C147.298 29.7919 147.588 29.622 147.871 29.4605C148.316 29.2048 148.732 28.9822 149.097 28.7927C149.097 28.7927 149.245 28.773 149.232 28.8434C149.16 29.2524 148.748 29.4326 148.44 29.5951C148.155 29.7463 147.885 29.9213 147.552 30.0859ZM143.706 31.3999C143.638 31.3564 143.626 31.2673 143.619 31.2352C143.497 30.7113 143.573 30.0517 143.96 29.7173C144.124 29.5723 144.418 29.8343 144.395 30.0466C144.34 30.5104 144.448 30.9795 144.206 31.3729C144.138 31.4858 143.949 31.5635 143.706 31.3999ZM142.217 31.6277C141.968 31.1162 142.417 30.5664 142.598 30.0704C142.608 30.0455 142.719 30.0228 142.731 30.0248C143.597 30.1998 142.988 31.2094 142.737 31.7136C142.687 31.8151 142.318 31.8368 142.217 31.6277ZM141.041 31.8047C140.969 31.7353 140.97 31.6535 140.989 31.5956C141.169 31.0613 141.192 30.4773 141.542 30.0238C141.69 29.8291 142.068 30.0103 142.082 30.2174C142.126 30.8211 141.926 31.5086 141.506 31.9279C141.424 32.0108 141.187 31.9435 141.041 31.8047ZM139.842 31.5749C139.531 31.0354 140.086 30.4214 140.479 30.0186C140.606 29.8882 140.786 30.0331 140.887 30.175C140.966 30.2847 140.908 30.4286 140.863 30.5322C140.671 30.9588 140.63 31.4744 140.233 31.7333C140.13 31.7995 139.903 31.6815 139.842 31.5749ZM138.565 31.286C138.558 31.2156 138.529 31.1348 138.557 31.081C138.794 30.6316 138.947 30.1242 139.403 29.9182C139.581 29.8364 139.786 30.0611 139.806 30.2185C139.875 30.7403 139.483 31.1866 139.17 31.5935C138.983 31.8327 138.777 31.5593 138.593 31.4765C138.561 31.462 138.571 31.3543 138.565 31.286ZM137.154 30.235C136.459 29.884 135.862 29.5009 135.289 28.9863C135.182 28.8921 135.179 28.7419 135.259 28.6353C135.281 28.6084 135.37 28.598 135.397 28.6229C136.258 29.4295 137.344 29.6707 138.299 30.3272C138.387 30.3893 138.568 30.5632 138.485 30.6192C138.088 30.8863 137.57 30.4473 137.154 30.235ZM152.227 13.8432C152.244 13.8464 152.254 13.8588 152.265 13.8691C152.526 14.1497 152.683 14.5028 152.799 14.8549C152.941 15.2856 153.102 15.7288 153.093 16.1315C153.09 16.2744 152.7 16.3127 152.673 16.1533C152.514 15.2245 152.352 14.6602 152.133 13.8857C152.163 13.8878 152.199 13.8401 152.227 13.8432ZM153.001 22.7044C152.942 22.8224 152.658 23.1765 152.658 23.1765C152.515 23.2998 152.381 23.0192 152.395 22.9715C152.602 22.342 153.084 21.7135 153.34 21.0519C153.351 21.0291 153.559 20.9721 153.553 21.0798C153.501 21.5085 153.289 22.1287 153.001 22.7044ZM131.715 24.5702C131.5 24.1954 131.352 23.8579 131.309 23.5565C131.278 23.3225 131.162 22.9519 131.192 22.5874C131.2 22.5584 131.384 22.4393 131.427 22.5822C131.711 23.5628 131.986 24.154 132.1 24.3704C132.069 24.7007 131.742 24.621 131.715 24.5702ZM131.479 15.4513C131.467 15.5869 131.371 16.3749 131.353 16.5643C131.334 16.7807 131.369 17.1504 131.267 17.4041C131.209 17.4196 130.907 17.4548 130.874 17.2808C130.819 17.0096 130.907 16.641 130.937 16.4101C130.991 15.9762 131.211 15.2752 131.27 15.2038C131.379 15.1002 131.479 15.4513 131.479 15.4513ZM129.717 15.8934C129.95 15.8934 130.138 15.7039 130.138 15.472C130.138 15.24 129.949 15.0505 129.717 15.0505C129.483 15.0505 129.296 15.2411 129.296 15.472C129.296 15.7039 129.484 15.8934 129.717 15.8934ZM132.565 22.9436C132.798 22.9436 132.986 22.7551 132.986 22.5232C132.986 22.4115 132.941 22.3045 132.862 22.2255C132.783 22.1465 132.676 22.102 132.565 22.1018C132.333 22.1018 132.144 22.2913 132.144 22.5232C132.144 22.7551 132.333 22.9436 132.565 22.9436ZM134.735 29.9958C134.967 29.9958 135.156 29.8064 135.156 29.5734C135.156 29.3414 134.966 29.153 134.735 29.153C134.502 29.153 134.314 29.3425 134.314 29.5734C134.314 29.8064 134.502 29.9958 134.735 29.9958ZM154.398 22.1297C154.63 22.1297 154.817 21.9413 154.817 21.7093C154.817 21.4753 154.629 21.289 154.398 21.289C154.342 21.2887 154.287 21.2994 154.236 21.3204C154.185 21.3414 154.138 21.3723 154.099 21.4114C154.06 21.4504 154.029 21.4969 154.007 21.548C153.986 21.5991 153.975 21.654 153.975 21.7093C153.975 21.9423 154.165 22.1297 154.398 22.1297ZM151.414 14.4003C151.525 14.4003 151.632 14.3562 151.71 14.2775C151.789 14.1989 151.834 14.0923 151.834 13.981C151.834 13.9257 151.823 13.871 151.802 13.8199C151.781 13.7688 151.75 13.7224 151.711 13.6833C151.672 13.6443 151.625 13.6132 151.574 13.5921C151.523 13.5709 151.468 13.5601 151.413 13.5601C151.358 13.5601 151.303 13.5709 151.252 13.5921C151.201 13.6132 151.154 13.6443 151.115 13.6833C151.076 13.7224 151.045 13.7688 151.024 13.8199C151.003 13.871 150.992 13.9257 150.992 13.981C150.992 14.2129 151.182 14.4003 151.414 14.4003ZM150.397 29.2483C150.63 29.2483 150.818 29.0598 150.818 28.8289C150.818 28.5949 150.629 28.4075 150.397 28.4075C150.341 28.4074 150.287 28.4182 150.235 28.4393C150.184 28.4604 150.138 28.4915 150.098 28.5306C150.059 28.5698 150.028 28.6163 150.007 28.6675C149.986 28.7187 149.975 28.7735 149.975 28.8289C149.975 29.0608 150.163 29.2483 150.397 29.2483Z" fill="#99C4CE"/>
<path d="M140.534 25.209L140.533 24.8042C140.533 24.7213 140.467 24.6551 140.383 24.6551H139.359C139.276 24.6551 139.209 24.7203 139.209 24.8042V25.2297C139.204 25.6491 138.946 26.0343 138.628 26.1958C138.314 26.0208 138.197 25.5807 138.197 25.178V24.157C138.197 24.0732 138.131 24.0059 138.047 24.0059H136.929C136.846 24.0059 136.777 24.0721 136.777 24.157V25.7412C136.797 26.7249 137.277 27.9208 138.561 27.9053C139.089 27.899 139.517 27.5967 139.72 27.0904L139.807 27.1038C140.012 27.6091 140.661 27.8504 141.426 27.8504C143.143 27.8493 143.174 25.7102 143.182 24.9688V24.2513C143.182 24.1684 143.114 24.1001 143.031 24.1001H141.914C141.83 24.1001 141.764 24.1674 141.764 24.2513V24.9698C141.761 25.4161 141.438 25.9877 141.044 26.1896C140.703 26.0363 140.534 25.6615 140.534 25.209Z" fill="black"/>
<path d="M140.534 25.209L140.533 24.8042C140.533 24.7213 140.467 24.6551 140.383 24.6551H139.359C139.276 24.6551 139.209 24.7203 139.209 24.8042V25.2297C139.204 25.6491 138.946 26.0343 138.628 26.1958C138.314 26.0208 138.197 25.5807 138.197 25.178V24.157C138.197 24.0732 138.131 24.0059 138.047 24.0059H136.929C136.846 24.0059 136.777 24.0721 136.777 24.157V25.7412C136.797 26.7249 137.277 27.9208 138.561 27.9053C139.089 27.899 139.517 27.5967 139.72 27.0904L139.807 27.1038C140.012 27.6091 140.661 27.8504 141.426 27.8504C143.143 27.8493 143.174 25.7102 143.182 24.9688V24.2513C143.182 24.1684 143.114 24.1001 143.031 24.1001H141.914C141.83 24.1001 141.764 24.1674 141.764 24.2513V24.9698C141.761 25.4161 141.438 25.9877 141.044 26.1896C140.703 26.0363 140.534 25.6615 140.534 25.209" stroke="black" stroke-width="0.0813089"/>
<path d="M142.225 17.3783C142.309 17.3783 142.377 17.312 142.377 17.2281V13.0989C142.377 13.016 142.31 12.9487 142.225 12.9487H141.332C141.248 12.9487 141.181 13.015 141.181 13.0989V17.2281C141.181 17.311 141.247 17.3783 141.332 17.3783H142.225Z" fill="black"/>
<path d="M142.225 17.3783C142.309 17.3783 142.377 17.312 142.377 17.2281V13.0989C142.377 13.016 142.31 12.9487 142.225 12.9487H141.332C141.248 12.9487 141.181 13.015 141.181 13.0989V17.2281C141.181 17.311 141.247 17.3783 141.332 17.3783H142.225Z" stroke="black" stroke-width="0.0813089"/>
<path d="M143.512 20.5932C143.512 20.5104 143.446 20.4421 143.361 20.4421L142.516 20.4462C142.434 20.4462 142.366 20.5125 142.366 20.5974L142.364 22.7334C142.364 22.8163 142.296 22.8846 142.212 22.8846H141.121C141.037 22.8846 140.951 22.8318 140.951 22.7479L140.95 19.068C140.95 18.9873 141.013 18.9189 141.096 18.9189L145.009 18.92C145.092 18.92 145.159 18.9738 145.159 19.0567L144.648 22.6444C144.648 22.7283 144.581 22.7956 144.497 22.7956H143.334C143.251 22.7956 143.184 22.7283 143.184 22.6444L143.512 20.5932Z" fill="black"/>
<path d="M143.512 20.5932C143.512 20.5104 143.446 20.4421 143.361 20.4421L142.516 20.4462C142.434 20.4462 142.366 20.5125 142.366 20.5974L142.364 22.7334C142.364 22.8163 142.296 22.8846 142.212 22.8846H141.121C141.037 22.8846 140.951 22.8318 140.951 22.7479L140.95 19.068C140.95 18.9873 141.013 18.9189 141.096 18.9189L145.009 18.92C145.092 18.92 145.159 18.9738 145.159 19.0567L144.648 22.6444C144.648 22.7283 144.581 22.7956 144.497 22.7956H143.334C143.251 22.7956 143.184 22.7283 143.184 22.6444L143.512 20.5932Z" stroke="black" stroke-width="0.0813089"/>
<path d="M134.704 14.6253L134.703 13.6116C134.703 13.5287 134.629 13.4604 134.546 13.4604H133.598C133.515 13.4604 133.448 13.5277 133.448 13.6116V18.1447C133.461 18.2285 133.531 18.2958 133.613 18.2958H134.484C134.565 18.2958 134.714 18.2223 134.714 18.1395L134.717 16.8141C134.726 16.7044 134.856 16.8203 134.916 16.8773L136.217 17.9811C136.377 18.1146 136.479 17.9355 136.479 17.9355L137.145 17.1413C137.21 17.0637 137.261 16.9498 137.138 16.8649L135.66 15.7104C135.616 15.671 135.571 15.613 135.63 15.5199L136.731 14.2722C136.801 14.2183 136.796 14.1231 136.736 14.0682L135.908 13.4407C135.846 13.3848 135.751 13.389 135.696 13.45L134.704 14.6253Z" fill="black"/>
<path d="M134.704 14.6253L134.703 13.6116C134.703 13.5287 134.629 13.4604 134.546 13.4604H133.598C133.515 13.4604 133.448 13.5277 133.448 13.6116V18.1447C133.461 18.2285 133.531 18.2958 133.613 18.2958H134.484C134.565 18.2958 134.714 18.2223 134.714 18.1395L134.717 16.8141C134.726 16.7044 134.856 16.8203 134.916 16.8773L136.217 17.9811C136.377 18.1146 136.479 17.9355 136.479 17.9355L137.145 17.1413C137.21 17.0637 137.261 16.9498 137.138 16.8649L135.66 15.7104C135.616 15.671 135.571 15.613 135.63 15.5199L136.731 14.2722C136.801 14.2183 136.796 14.1231 136.736 14.0682L135.908 13.4407C135.846 13.3848 135.751 13.389 135.696 13.45L134.704 14.6253Z" stroke="black" stroke-width="0.0813089"/>
<path d="M135.051 20.1686L135.05 19.155C135.05 19.0721 134.976 19.0038 134.892 19.0038H133.945C133.905 19.0041 133.867 19.0201 133.839 19.0484C133.811 19.0768 133.795 19.115 133.795 19.155V23.4333C133.807 23.5162 133.878 23.5835 133.961 23.5835L134.83 23.5824C134.912 23.5824 135.06 23.5099 135.06 23.4261L135.062 22.3586C135.072 22.2478 135.203 22.3637 135.263 22.4196L136.564 23.5244C136.725 23.658 136.826 23.4799 136.826 23.4799L137.49 22.6837C137.556 22.6071 137.607 22.4942 137.484 22.4083L136.007 21.2538C135.962 21.2144 135.918 21.1575 135.978 21.0632L137.077 19.8166C137.148 19.7617 137.143 19.6654 137.082 19.6105L136.255 18.9831C136.24 18.9697 136.223 18.9594 136.205 18.9527C136.186 18.946 136.166 18.9431 136.146 18.944C136.126 18.945 136.107 18.9498 136.089 18.9583C136.071 18.9668 136.055 18.9787 136.042 18.9934L135.051 20.1686Z" fill="black"/>
<path d="M135.051 20.1686L135.05 19.155C135.05 19.0721 134.976 19.0038 134.892 19.0038H133.945C133.905 19.0041 133.867 19.0201 133.839 19.0484C133.811 19.0768 133.795 19.115 133.795 19.155V23.4333C133.807 23.5162 133.878 23.5835 133.961 23.5835L134.83 23.5824C134.912 23.5824 135.06 23.5099 135.06 23.4261L135.062 22.3586C135.072 22.2478 135.203 22.3637 135.263 22.4196L136.564 23.5244C136.725 23.658 136.826 23.4799 136.826 23.4799L137.49 22.6837C137.556 22.6071 137.607 22.4942 137.484 22.4083L136.007 21.2538C135.962 21.2144 135.918 21.1575 135.978 21.0632L137.077 19.8166C137.148 19.7617 137.143 19.6654 137.082 19.6105L136.255 18.9831C136.24 18.9697 136.223 18.9594 136.205 18.9527C136.186 18.946 136.166 18.9431 136.146 18.944C136.126 18.945 136.107 18.9498 136.089 18.9583C136.071 18.9668 136.055 18.9787 136.042 18.9934L135.051 20.1686Z" stroke="black" stroke-width="0.0813089"/>
<path d="M149.939 22.9984C150.022 22.9984 150.09 22.9311 150.09 22.8473V18.718C150.09 18.6352 150.023 18.5679 149.939 18.5679H149.044C148.963 18.5679 148.894 18.6341 148.894 18.718V22.8473C148.894 22.9301 148.962 22.9984 149.044 22.9984H149.939Z" fill="black"/>
<path d="M149.939 22.9984C150.022 22.9984 150.09 22.9311 150.09 22.8473V18.718C150.09 18.6352 150.023 18.5679 149.939 18.5679H149.044C148.963 18.5679 148.894 18.6341 148.894 18.718V22.8473C148.894 22.9301 148.962 22.9984 149.044 22.9984H149.939Z" stroke="black" stroke-width="0.0813089"/>
<path d="M146.46 18.4717C147.474 18.4738 148.58 19.1074 148.577 20.4069C148.574 21.5531 147.869 22.3442 146.916 22.3452V23.1746C146.916 23.2574 146.851 23.3247 146.766 23.3247H145.725C145.643 23.3247 145.574 23.2584 145.574 23.1746V18.6218C145.574 18.539 145.642 18.4717 145.725 18.4717H146.46ZM146.744 19.6779C146.653 19.6779 146.579 19.7515 146.579 19.8426V20.5653C146.997 20.4897 147.188 20.3085 147.188 19.9327C147.188 19.8954 147.185 19.856 147.179 19.8198C147.059 19.7452 146.896 19.6779 146.744 19.6779Z" fill="black"/>
<path d="M146.46 18.4717C147.474 18.4738 148.58 19.1074 148.577 20.4069C148.574 21.5531 147.869 22.3442 146.916 22.3452V23.1746C146.916 23.2574 146.851 23.3247 146.766 23.3247H145.725C145.643 23.3247 145.574 23.2584 145.574 23.1746V18.6218C145.574 18.539 145.642 18.4717 145.725 18.4717H146.46ZM146.744 19.6779C146.653 19.6779 146.579 19.7515 146.579 19.8426V20.5653C146.997 20.4897 147.188 20.3085 147.188 19.9327C147.188 19.8954 147.185 19.856 147.179 19.8198C147.059 19.7452 146.896 19.6779 146.744 19.6779V19.6779Z" stroke="black" stroke-width="0.0813089"/>
<path d="M145.952 24.1055C145.869 24.1055 145.794 24.1717 145.794 24.2556V25.9268C145.794 26.0106 145.761 25.9982 145.658 25.8947L143.863 24.1697C143.757 24.0858 143.642 24.1655 143.642 24.2473V28.3693C143.642 28.4522 143.708 28.5195 143.793 28.5195L144.727 28.5236C144.81 28.5236 144.893 28.4408 144.893 28.3579V27.4074C144.889 27.3153 144.898 27.3008 144.95 27.308L146.903 28.7462C146.968 28.798 147.066 28.8239 147.06 28.6303V24.3405C147.081 24.1262 146.997 24.1055 146.915 24.1055H145.952Z" fill="black"/>
<path d="M145.952 24.1055C145.869 24.1055 145.794 24.1717 145.794 24.2556V25.9268C145.794 26.0106 145.761 25.9982 145.658 25.8947L143.863 24.1697C143.757 24.0858 143.642 24.1655 143.642 24.2473V28.3693C143.642 28.4522 143.708 28.5195 143.793 28.5195L144.727 28.5236C144.81 28.5236 144.893 28.4408 144.893 28.3579V27.4074C144.889 27.3153 144.898 27.3008 144.95 27.308L146.903 28.7462C146.968 28.798 147.066 28.8239 147.06 28.6303V24.3405C147.081 24.1262 146.997 24.1055 146.915 24.1055H145.952Z" stroke="black" stroke-width="0.0813089"/>
<path d="M138.283 19.7432C138.284 19.6645 138.285 19.6086 138.227 19.5496L136.95 18.276C136.936 18.2619 136.925 18.2453 136.917 18.2269C136.91 18.2086 136.906 18.189 136.906 18.1691C136.906 18.1493 136.91 18.1297 136.918 18.1115C136.926 18.0932 136.937 18.0766 136.951 18.0627L137.329 17.7003C137.387 17.6403 137.481 17.6403 137.541 17.7003L138.61 18.7709C138.652 18.8144 138.711 18.8672 138.794 18.7917L139.89 17.7272C139.918 17.6992 139.956 17.6834 139.996 17.6834C140.035 17.6834 140.074 17.6992 140.102 17.7272L140.771 18.3878C140.83 18.4469 140.831 18.54 140.773 18.6011L139.772 19.6604C139.711 19.7204 139.685 19.7763 139.685 19.855V22.4954C139.685 22.5782 139.618 22.6455 139.534 22.6455H138.429C138.346 22.6455 138.285 22.5792 138.285 22.4954L138.283 19.7432Z" fill="black"/>
<path d="M138.283 19.7432C138.284 19.6645 138.285 19.6086 138.227 19.5496L136.95 18.276C136.936 18.2619 136.925 18.2453 136.917 18.2269C136.91 18.2086 136.906 18.189 136.906 18.1691C136.906 18.1493 136.91 18.1297 136.918 18.1115C136.926 18.0932 136.937 18.0766 136.951 18.0627L137.329 17.7003C137.387 17.6403 137.481 17.6403 137.541 17.7003L138.61 18.7709C138.652 18.8144 138.711 18.8672 138.794 18.7917L139.89 17.7272C139.918 17.6992 139.956 17.6834 139.996 17.6834C140.035 17.6834 140.074 17.6992 140.102 17.7272L140.771 18.3878C140.83 18.4469 140.831 18.54 140.773 18.6011L139.772 19.6604C139.711 19.7204 139.685 19.7763 139.685 19.855V22.4954C139.685 22.5782 139.618 22.6455 139.534 22.6455H138.429C138.346 22.6455 138.285 22.5792 138.285 22.4954L138.283 19.7432" stroke="black" stroke-width="0.0813089"/>
<path d="M145.138 13.2397C145.055 13.2397 144.98 13.306 144.98 13.3899V15.0611C144.98 15.146 144.949 15.1315 144.844 15.0279L143.05 13.3039C142.943 13.2201 142.829 13.2988 142.829 13.3826V17.5036C142.829 17.5864 142.894 17.6548 142.979 17.6548L143.913 17.6579C143.998 17.6579 144.079 17.574 144.079 17.4912V16.5407C144.076 16.4485 144.083 16.4351 144.137 16.4444L146.09 17.8795C146.156 17.9323 146.252 17.9571 146.245 17.7635V13.4748C146.267 13.2594 146.184 13.2397 146.101 13.2397H145.138Z" fill="black"/>
<path d="M145.138 13.2397C145.055 13.2397 144.98 13.306 144.98 13.3899V15.0611C144.98 15.146 144.949 15.1315 144.844 15.0279L143.05 13.3039C142.943 13.2201 142.829 13.2988 142.829 13.3826V17.5036C142.829 17.5864 142.894 17.6548 142.979 17.6548L143.913 17.6579C143.998 17.6579 144.079 17.574 144.079 17.4912V16.5407C144.076 16.4485 144.083 16.4351 144.137 16.4444L146.09 17.8795C146.156 17.9323 146.252 17.9571 146.245 17.7635V13.4748C146.267 13.2594 146.184 13.2397 146.101 13.2397H145.138Z" stroke="black" stroke-width="0.0813089"/>
<path d="M141.827 16.7912C141.91 16.7912 141.977 16.7239 141.977 16.64V13.0989C141.977 13.016 141.911 12.9487 141.827 12.9487H141.332C141.248 12.9487 141.181 13.015 141.181 13.0989V16.64C141.181 16.7228 141.247 16.7912 141.332 16.7912H141.827ZM143.637 19.8219C143.637 19.739 143.569 19.6707 143.486 19.6707L141.917 19.6738C141.834 19.6738 141.767 19.7411 141.767 19.825L141.765 21.9227C141.765 22.0056 141.696 22.0729 141.614 22.0729H141.12C141.036 22.0729 140.949 22.0201 140.949 21.9362V19.0681C140.949 18.9873 141.012 18.919 141.095 18.919L144.351 18.92C144.435 18.92 144.501 18.9739 144.501 19.0567L144.095 21.8948C144.095 21.9776 144.029 22.0449 143.944 22.0449H143.45C143.368 22.0449 143.299 21.9786 143.299 21.8948L143.637 19.8219ZM134.248 15.7009C134.255 15.5911 134.385 15.7081 134.445 15.764L136.297 17.1163C136.361 17.1712 136.453 17.166 136.51 17.1049L136.775 16.785C136.802 16.7553 136.815 16.7164 136.813 16.6767C136.811 16.637 136.794 16.5996 136.765 16.5727L135.249 15.3892C135.204 15.3488 135.159 15.2919 135.218 15.1987L136.313 13.9583C136.383 13.9044 136.378 13.8092 136.318 13.7533L135.907 13.4395C135.845 13.3836 135.75 13.3877 135.695 13.4488L134.401 14.9875C134.359 15.0434 134.243 15.1656 134.238 15.0403L134.237 13.6114C134.237 13.5286 134.164 13.4602 134.081 13.4602H133.598C133.515 13.4602 133.448 13.5275 133.448 13.6114V17.4145C133.448 17.4973 133.517 17.5657 133.599 17.5657H134.098C134.182 17.5657 134.25 17.4984 134.25 17.4145L134.248 15.7009ZM134.595 21.2456C134.603 21.1348 134.732 21.2518 134.792 21.3067L136.644 22.66C136.707 22.7159 136.8 22.7107 136.856 22.6486L137.122 22.3276C137.179 22.2665 137.173 22.1712 137.111 22.1153L135.596 20.9329C135.55 20.8935 135.507 20.8355 135.565 20.7424L136.66 19.503C136.728 19.447 136.725 19.3528 136.664 19.2969L136.254 18.9821C136.24 18.9688 136.222 18.9585 136.204 18.9518C136.185 18.9451 136.165 18.9421 136.145 18.9431C136.126 18.944 136.106 18.9489 136.088 18.9574C136.07 18.9659 136.054 18.9778 136.041 18.9925L134.748 20.5311C134.706 20.587 134.59 20.7092 134.584 20.5839L134.583 19.1551C134.583 19.0722 134.511 19.0039 134.428 19.0039H133.945C133.905 19.0042 133.867 19.0202 133.839 19.0485C133.811 19.0768 133.795 19.1151 133.795 19.1551L133.796 22.7034C133.796 22.7852 133.862 22.8525 133.947 22.8525H134.445C134.53 22.8525 134.597 22.7863 134.597 22.7034V21.2456H134.595ZM149.539 22.4104C149.623 22.4104 149.69 22.3442 149.69 22.2592V18.7181C149.69 18.6353 149.624 18.568 149.539 18.568H149.043C148.962 18.568 148.893 18.6342 148.893 18.7181V22.2592C148.893 22.3431 148.961 22.4104 149.043 22.4104H149.539ZM146.459 18.4717C147.514 18.4717 148.063 19.0453 148.063 19.9554C148.063 20.8656 147.468 21.404 146.41 21.404V22.2696C146.41 22.3524 146.344 22.4197 146.26 22.4197H145.725C145.642 22.4197 145.574 22.3535 145.574 22.2696V18.6218C145.574 18.539 145.641 18.4717 145.725 18.4717H146.459ZM147.187 19.9327C147.187 19.5226 146.845 19.1913 146.425 19.1913C146.333 19.1913 146.261 19.2648 146.261 19.3559V20.5104C146.261 20.6015 146.333 20.5881 146.425 20.5881C146.95 20.5311 147.187 20.352 147.187 19.9327ZM143.642 27.6445C143.642 27.7273 143.754 27.7915 143.837 27.7915H144.319C144.401 27.7915 144.431 27.7232 144.431 27.6403L144.433 26.199C144.433 26.1162 144.448 26.1007 144.529 26.1007L146.399 27.6341C146.481 27.7056 146.563 27.719 146.564 27.5792V24.2555C146.564 24.1727 146.498 24.1044 146.415 24.1044H145.953C145.87 24.1044 145.796 24.1706 145.796 24.2545V25.9257C145.796 26.0095 145.763 25.9971 145.659 25.8936L143.865 24.1686C143.758 24.0847 143.643 24.1644 143.643 24.2462V27.6445H143.642ZM139.357 26.3512C139.153 26.8576 138.656 27.2262 138.109 27.2262C137.446 27.2262 136.764 26.5977 136.778 25.4836V24.1561C136.778 24.0723 136.846 24.005 136.929 24.005H137.416C137.499 24.005 137.566 24.0712 137.566 24.1561V25.1771C137.566 25.6937 137.758 26.2694 138.309 26.2746C138.754 26.2788 139.204 25.7849 139.209 25.2299V24.8043C139.209 24.7215 139.276 24.6552 139.359 24.6552H139.721C139.805 24.6552 139.872 24.7204 139.872 24.8043V25.2092C139.873 25.8045 140.164 26.2612 140.759 26.2622C141.273 26.2632 141.763 25.5188 141.768 24.9689V24.2504C141.768 24.1675 141.833 24.0992 141.918 24.0992H142.346C142.429 24.0992 142.497 24.1665 142.497 24.2504V24.9669C142.482 26.257 141.907 27.2355 140.641 27.2407C140.095 27.2417 139.649 26.8721 139.446 26.3657L139.357 26.3512Z" fill="white"/>
<path d="M137.053 14.8962C137.051 13.9602 137.816 13.1712 138.775 13.1743C139.896 13.1785 140.906 14.2998 140.891 15.3135C140.873 16.6388 139.997 17.3409 139.047 17.3357C137.829 17.3295 137.056 16.5508 137.053 14.8962ZM139.192 14.392C138.651 14.392 138.187 14.7161 137.979 15.1789C138.105 15.4968 138.413 15.7194 138.773 15.7194C139.243 15.7194 139.625 15.3373 139.625 14.8672C139.625 14.7067 139.58 14.5576 139.504 14.4293C139.402 14.4037 139.297 14.3912 139.192 14.392Z" fill="black"/>
<path d="M137.053 14.8967C137.053 13.9462 137.823 13.1748 138.775 13.1748C139.726 13.1748 140.498 13.9462 140.498 14.8967C140.498 15.8483 139.726 16.6186 138.775 16.6186C137.823 16.6186 137.053 15.8483 137.053 14.8967ZM138.772 15.7199C139.242 15.7199 139.624 15.3378 139.624 14.8677C139.624 14.3976 139.242 14.0156 138.772 14.0156C138.302 14.0156 137.921 14.3976 137.921 14.8677C137.921 15.3378 138.302 15.7199 138.772 15.7199Z" fill="white"/>
<path d="M146.604 14.8962C146.602 13.9602 147.368 13.1712 148.326 13.1743C149.447 13.1785 150.454 14.2998 150.442 15.3135C150.423 16.6388 149.547 17.3409 148.596 17.3357C147.38 17.3295 146.607 16.5508 146.604 14.8962ZM148.74 14.392C148.2 14.392 147.735 14.7161 147.528 15.1789C147.653 15.4968 147.961 15.7194 148.323 15.7194C148.792 15.7194 149.174 15.3373 149.174 14.8672C149.174 14.7067 149.13 14.5576 149.053 14.4293C148.951 14.4036 148.845 14.391 148.74 14.392Z" fill="black"/>
<path d="M146.605 14.8967C146.605 13.9462 147.375 13.1748 148.327 13.1748C149.277 13.1748 150.048 13.9462 150.048 14.8967C150.048 15.8483 149.277 16.6186 148.327 16.6186C147.375 16.6186 146.605 15.8483 146.605 14.8967ZM148.324 15.7199C148.793 15.7199 149.175 15.3378 149.175 14.8677C149.175 14.3976 148.793 14.0156 148.324 14.0156C148.098 14.0156 147.881 14.1053 147.721 14.2652C147.561 14.425 147.471 14.6417 147.471 14.8677C147.471 15.0937 147.561 15.3105 147.721 15.4703C147.881 15.6301 148.098 15.7199 148.324 15.7199ZM138.795 18.792L139.89 17.7276C139.918 17.6995 139.956 17.6837 139.996 17.6837C140.036 17.6837 140.074 17.6995 140.102 17.7276L140.468 18.0879C140.527 18.1469 140.528 18.2411 140.468 18.3012L139.225 19.6586C139.165 19.7176 139.138 19.7746 139.14 19.8533V21.9635C139.14 22.0453 139.073 22.1136 138.983 22.1136H138.426C138.349 22.1136 138.286 22.0463 138.286 21.9635L138.284 19.7435C138.285 19.6648 138.286 19.6089 138.228 19.5499L136.952 18.2763C136.938 18.2623 136.927 18.2456 136.919 18.2272C136.912 18.2089 136.908 18.1893 136.908 18.1695C136.908 18.1496 136.912 18.13 136.92 18.1118C136.927 18.0935 136.938 18.077 136.953 18.063L137.331 17.7006C137.388 17.6406 137.483 17.6406 137.543 17.7006L138.611 18.7713C138.653 18.8147 138.712 18.8676 138.795 18.792ZM142.829 16.7791C142.829 16.8619 142.939 16.9251 143.023 16.9251H143.505C143.588 16.9251 143.617 16.8578 143.617 16.7739L143.618 15.3337C143.618 15.2508 143.632 15.2363 143.716 15.2363L145.584 16.7688C145.667 16.8392 145.748 16.8526 145.751 16.7139V13.3891C145.751 13.3063 145.684 13.238 145.599 13.238H145.139C145.056 13.238 144.98 13.3042 144.98 13.3881V15.0593C144.98 15.1442 144.949 15.1297 144.845 15.0261L143.05 13.3022C142.944 13.2183 142.83 13.297 142.83 13.3808V16.7791H142.829ZM18.8989 15.9425H15.3712V7.32156C15.3712 6.88357 14.8804 6.88357 14.6941 6.88357H14.3896V6.55017H18.4744C20.1331 6.55017 21.592 7.16107 21.592 8.93889C21.592 10.0271 20.9159 10.637 20.1062 10.8886C21.6179 11.1423 22.2423 12.1756 22.2423 13.4223C22.2413 14.7766 21.5651 15.9425 18.8989 15.9425ZM18.2093 7.21491H16.9368V10.637H18.0105C18.9258 10.637 19.9333 10.2394 19.9333 8.97927C19.9333 7.75747 19.4032 7.21491 18.2093 7.21491ZM18.17 11.3794H16.9368V14.6161C16.9368 15.0945 17.2805 15.2415 17.6802 15.2415H18.6204C19.7625 15.2415 20.597 14.817 20.597 13.4502C20.597 11.8567 19.5492 11.3794 18.17 11.3794ZM27.6772 15.4662C27.2786 15.8638 26.7495 16.0626 26.0071 16.0626C24.8785 16.0626 23.3005 15.0417 23.3005 12.919C23.3005 10.8762 24.8785 9.77447 26.7754 9.77447C27.612 9.77447 28.4465 9.96085 28.9643 10.2922V14.3252C28.9643 14.9889 29.1496 15.2808 29.747 15.0686L30.0121 15.4134C29.2438 16.2086 28.05 16.2086 27.6772 15.4662ZM27.5333 10.637C27.3863 10.5438 27.1077 10.4786 26.8292 10.4786C25.4355 10.4786 24.7853 11.3794 24.7853 12.9315C24.7853 14.2713 25.5153 15.2933 26.3643 15.2933C26.9338 15.2933 27.2258 15.1204 27.5323 14.7766V10.637H27.5333ZM35.2896 14.7362V12.216C35.2896 10.1596 33.605 10.5976 32.6887 10.9942V15.9414H31.2567V10.6763C31.2567 10.2777 30.8715 10.2238 30.5257 10.2238V9.88009H32.61L32.6887 10.2653C34.5856 9.49594 36.7216 9.33752 36.7216 11.9499V14.1657C36.7216 15.0137 36.8811 15.2798 37.5313 15.0676L37.8099 15.4258C37.1192 16.1827 35.2896 16.6052 35.2896 14.7362ZM43.6362 15.9425C42.4682 14.8418 41.0352 13.1044 40.5185 12.7202V15.9425H39.099V7.34744C39.099 6.90946 38.6092 6.89496 38.2634 6.89496V6.55017H40.5185V11.8163L42.2694 10.6639C42.4672 10.5314 42.6525 10.3968 42.6525 10.3315C42.6525 10.2394 42.4413 10.2125 42.1628 10.2125V9.88112H45.0806V10.2125C44.6426 10.2125 44.2978 10.2787 43.8733 10.5842L41.6316 12.0969C42.256 12.654 44.1249 14.7362 45.3063 15.9425H43.6362ZM51.9185 16.0626C50.0879 16.0626 48.8671 14.6689 48.8671 12.9315C48.8671 11.1826 50.0889 9.77447 51.9185 9.77447C53.7502 9.77447 54.9575 11.1816 54.9575 12.9315C54.9565 14.6689 53.7492 16.0626 51.9185 16.0626ZM51.8916 10.4775C51.0032 10.4775 50.2857 11.4467 50.353 12.9304C50.4462 14.4432 51.1088 15.2922 51.9848 15.2922C52.8722 15.2922 53.6032 14.35 53.5224 12.8517C53.4706 11.3535 52.7676 10.4775 51.8916 10.4775ZM60.1926 8.39529H59.8871C59.8613 7.74504 59.6221 7.08134 58.8527 7.08134C58.1104 7.08134 57.8059 7.47998 57.8059 8.39529V9.88112H59.4233V10.5573H57.8059V15.9425L56.5324 16.3142H56.3729V10.5573H55.6699V9.88009H56.3729V8.78047C56.3729 7.12172 57.7666 6.43213 58.9987 6.43213C59.8488 6.43213 60.5115 6.76243 60.8304 7.17453L60.1926 8.39529ZM69.7868 16.0626C67.3204 16.0626 65.1057 14.4028 65.1057 11.2738C65.1057 7.61251 67.745 6.43213 70.027 6.43213C70.8088 6.43213 71.7645 6.56466 72.2946 6.76243H72.6529V8.72662H72.2946C72.1227 7.82374 71.4311 7.21387 70.0136 7.21387C68.0224 7.21387 66.7623 8.81878 66.7623 11.1008C66.7623 13.8447 68.3134 15.2394 70.2258 15.2394C71.1132 15.2394 72.1082 14.8936 72.7585 14.4567L73.0629 14.9195C72.3091 15.5055 71.2074 16.0626 69.7868 16.0626ZM77.0472 16.3929C76.2913 17.9056 75.4288 19.3387 74.4214 19.8429L73.5713 18.648C74.6067 18.238 75.2963 17.5619 76.0656 15.811L73.8105 10.8627C73.4916 10.1731 73.2938 10.2394 73.0411 10.2259H72.8537V9.88009H74.9505C75.6007 10.9155 75.9983 12.5339 76.9675 14.2858L79.1688 9.88009H80.3098L77.0472 16.3929ZM84.35 16.0626C83.5942 16.0626 83.1572 15.783 82.945 15.664V19.3646L81.659 19.7891H81.513V10.6898C81.513 10.2383 81.0346 10.2249 80.783 10.2249V9.88009H82.8787L82.9574 10.2653C83.3964 9.97431 83.9131 9.77344 84.5105 9.77344C85.8359 9.77344 87.242 10.6763 87.242 12.9304C87.242 14.4846 86.2873 16.0626 84.35 16.0626ZM84.2579 10.4775C83.7143 10.4775 83.3156 10.6898 82.9843 11.1143V14.8812C83.1572 15.0406 83.502 15.2922 84.1781 15.2922C85.0934 15.2922 85.7696 14.2175 85.7696 12.7586C85.7696 11.2862 85.0272 10.4775 84.2579 10.4775ZM92.0132 11.7376H91.7077C91.6301 10.3046 90.6878 10.4237 90.0231 11.0491V15.9425H88.5652V10.6908C88.5652 10.2528 88.0744 10.2394 87.8094 10.2394V9.88009H89.932L90.0241 10.2787C90.8338 9.7227 92.1882 9.48248 92.7711 10.3191L92.0132 11.7376ZM98.5436 15.4517C98.146 15.8369 97.6272 16.0626 96.8051 16.0626C94.8823 16.0626 94.1513 15.0676 94.1513 13.1707V10.6639C94.1513 10.2249 93.646 10.2114 93.382 10.2114V9.88009H95.5833V13.2235C95.5833 14.7631 96.0876 15.2933 96.9107 15.2933C97.6656 15.2933 98.3821 15.1856 98.3821 13.8602V9.88009H99.8151V14.1512C99.8151 14.9878 99.9632 15.2798 100.599 15.0676L100.877 15.4258C100.187 16.1423 98.9143 16.2883 98.5436 15.4517ZM103.749 16.0626C102.726 16.0626 101.957 15.5708 101.544 15.081L101.93 14.4577C102.394 14.9485 102.979 15.2933 103.669 15.2933C104.383 15.2933 104.848 14.9878 104.848 14.4577C104.848 12.8787 101.852 13.5403 101.852 11.3939C101.852 10.491 102.555 9.77447 104.21 9.77447C104.675 9.77447 105.22 9.84074 105.657 9.98673H105.987V11.4726H105.657C105.472 10.5976 104.875 10.4247 104.397 10.4247C103.628 10.4247 103.322 10.7436 103.322 11.2075C103.322 12.4293 106.32 12.0969 106.32 14.1522C106.321 15.2933 105.42 16.0626 103.749 16.0626ZM22.8242 29.7654L21.8685 29.4485C21.2576 29.7146 20.5825 29.8865 19.7593 29.8865C17.293 29.8865 15.0772 28.2288 15.0772 25.0977C15.0772 21.4364 17.7175 20.255 19.9985 20.255C20.7813 20.255 21.737 20.3886 22.2671 20.5864H22.6254V22.5495H22.2671C22.0942 21.6466 21.4046 21.0378 19.9851 21.0378C17.995 21.0378 16.7359 22.6417 16.7359 24.9248C16.7359 27.6697 18.287 29.0623 20.1973 29.0623C20.6074 29.0623 21.0464 28.9971 21.4574 28.8635V26.0917C21.4574 25.6402 20.9666 25.6402 20.7813 25.6402H20.4759V25.3213H23.0375V29.7643H22.8242V29.7654ZM28.1307 25.5626H27.8253C27.7456 24.1285 26.8044 24.2476 26.1407 24.8709V29.7664H24.6817V24.5147C24.6817 24.0757 24.192 24.0623 23.9259 24.0623V23.704H26.0495L26.1417 24.1016C26.9493 23.5446 28.3047 23.3064 28.8866 24.142L28.1307 25.5626ZM32.3511 29.8865C30.5195 29.8865 29.3008 28.4939 29.3008 26.7564C29.3008 25.0055 30.5205 23.5984 32.3511 23.5984C34.1817 23.5984 35.389 25.0045 35.389 26.7564C35.389 28.4939 34.1817 29.8865 32.3511 29.8865ZM32.3252 24.3004C31.4368 24.3004 30.7203 25.2696 30.7856 26.7554C30.8787 28.2671 31.5425 29.1172 32.4174 29.1172C33.3068 29.1172 34.0357 28.175 33.9571 26.6767C33.9032 25.1774 33.1991 24.3004 32.3252 24.3004ZM41.0766 29.2756C40.678 29.6598 40.1623 29.8865 39.3392 29.8865C37.4164 29.8865 36.6864 28.8915 36.6864 26.9946V24.4858C36.6864 24.0488 36.1811 24.0364 35.9161 24.0364V23.704H38.1184V27.0474C38.1184 28.5871 38.6216 29.1182 39.4448 29.1182C40.2007 29.1182 40.9172 29.0105 40.9172 27.6842V23.704H42.3502V27.9762C42.3502 28.8117 42.4962 29.1027 43.133 28.8915L43.4115 29.2508C42.7219 29.9652 41.4483 30.1112 41.0766 29.2756ZM47.343 29.8865C46.5882 29.8865 46.1502 29.607 45.939 29.4879V33.1885L44.6519 33.613H44.5049V24.5137C44.5049 24.0612 44.0276 24.0488 43.7749 24.0488V23.704H45.8706L45.9504 24.0882C46.3883 23.7972 46.906 23.5974 47.5035 23.5974C48.8288 23.5974 50.2349 24.4992 50.2349 26.7554C50.2349 28.3075 49.2803 29.8865 47.343 29.8865ZM47.2498 24.3004C46.7062 24.3004 46.3096 24.5137 45.9783 24.9372V28.7051C46.1492 28.8635 46.4939 29.1172 47.1701 29.1172C48.0854 29.1172 48.7615 28.0414 48.7615 26.5825C48.7626 25.1091 48.0202 24.3004 47.2498 24.3004Z" fill="white"/>
</svg>
