<svg width="71" height="26" viewBox="0 0 71 26" fill="none" xmlns="http://www.w3.org/2000/svg">
<path d="M31.8677 12.6198V5.28902H34.4824C35.3882 5.28902 36.0752 5.46021 36.5435 5.80258C37.0117 6.14159 37.2458 6.64005 37.2458 7.29794C37.2458 7.65709 37.1519 7.97429 36.9639 8.24953C36.7759 8.52142 36.5144 8.72113 36.1794 8.84868C36.5623 8.94267 36.863 9.13231 37.0818 9.41762C37.304 9.70293 37.415 10.052 37.415 10.4649C37.415 11.1698 37.186 11.7035 36.728 12.066C36.27 12.4285 35.6172 12.6131 34.7695 12.6198H31.8677ZM33.4058 9.42769V11.4064H34.7234C35.0857 11.4064 35.3677 11.3225 35.5693 11.1547C35.7744 10.9835 35.877 10.7485 35.877 10.4498C35.877 9.77846 35.5232 9.43776 34.8157 9.42769H33.4058ZM33.4058 8.3603H34.5439C35.3198 8.34687 35.7078 8.0431 35.7078 7.44899C35.7078 7.11668 35.6086 6.87837 35.4104 6.73403C35.2156 6.58634 34.9062 6.5125 34.4824 6.5125H33.4058V8.3603Z" fill="#1943EF"/>
<path d="M41.4576 12.6198C41.3892 12.4889 41.3397 12.3261 41.3089 12.1314C40.95 12.5241 40.4835 12.7205 39.9092 12.7205C39.3658 12.7205 38.9146 12.5661 38.5557 12.2573C38.2003 11.9485 38.0225 11.5591 38.0225 11.0892C38.0225 10.5119 38.2396 10.0688 38.6736 9.76C39.1111 9.45119 39.7418 9.29511 40.5655 9.29175H41.2474V8.97959C41.2474 8.72785 41.1807 8.52645 41.0474 8.3754C40.9175 8.22436 40.7108 8.14883 40.4271 8.14883C40.1776 8.14883 39.981 8.20757 39.8375 8.32505C39.6973 8.44254 39.6273 8.60365 39.6273 8.8084H38.1456C38.1456 8.49288 38.2447 8.20086 38.4429 7.93233C38.6412 7.66381 38.9215 7.45402 39.2838 7.30297C39.6461 7.14857 40.0528 7.07137 40.504 7.07137C41.1876 7.07137 41.7293 7.24088 42.1292 7.57989C42.5325 7.91555 42.7342 8.38883 42.7342 8.99973V11.3611C42.7376 11.878 42.8111 12.269 42.9547 12.5342V12.6198H41.4576ZM40.2322 11.6078C40.451 11.6078 40.6527 11.5608 40.8372 11.4668C41.0218 11.3695 41.1585 11.2403 41.2474 11.0791V10.1426H40.6937C39.952 10.1426 39.5572 10.3944 39.5093 10.8979L39.5042 10.9835C39.5042 11.1647 39.5692 11.3141 39.699 11.4316C39.8289 11.5491 40.0067 11.6078 40.2322 11.6078Z" fill="#1943EF"/>
<path d="M45.0028 7.17207L45.049 7.80143C45.4454 7.31472 45.9769 7.07137 46.6434 7.07137C47.2313 7.07137 47.6688 7.24088 47.9559 7.57989C48.243 7.91891 48.39 8.42575 48.3969 9.10043V12.6198H46.9152V9.13567C46.9152 8.82686 46.8468 8.60365 46.7101 8.46603C46.5734 8.32505 46.3461 8.25457 46.0282 8.25457C45.6112 8.25457 45.2985 8.42911 45.09 8.77819V12.6198H43.6083V7.17207H45.0028Z" fill="#1943EF"/>
<path d="M51.3063 10.4347L50.7731 10.9583V12.6198H49.2915V4.88623H50.7731V9.17092L51.0603 8.8084L52.4804 7.17207H54.2595L52.2548 9.4428L54.4338 12.6198H52.7316L51.3063 10.4347Z" fill="#1943EF"/>
<path d="M37.4868 16.8239H35.2002V22.9312H33.6621V16.8239H31.4062V15.6005H37.4868V16.8239Z" fill="#1943EF"/>
<path d="M41.1551 18.848C40.9534 18.8211 40.7757 18.8077 40.6219 18.8077C40.0613 18.8077 39.6939 18.994 39.5196 19.3666V22.9312H38.0379V17.4835H39.4376L39.4786 18.133C39.7759 17.6329 40.1878 17.3828 40.7142 17.3828C40.8782 17.3828 41.032 17.4046 41.1756 17.4483L41.1551 18.848Z" fill="#1943EF"/>
<path d="M44.7003 22.9312C44.632 22.8003 44.5824 22.6375 44.5516 22.4429C44.1928 22.8356 43.7262 23.0319 43.152 23.0319C42.6085 23.0319 42.1574 22.8775 41.7985 22.5687C41.443 22.2599 41.2653 21.8706 41.2653 21.4006C41.2653 20.8233 41.4823 20.3802 41.9164 20.0714C42.3539 19.7626 42.9845 19.6065 43.8082 19.6032H44.4901V19.291C44.4901 19.0393 44.4235 18.8379 44.2902 18.6868C44.1603 18.5358 43.9535 18.4603 43.6698 18.4603C43.4203 18.4603 43.2238 18.519 43.0802 18.6365C42.9401 18.754 42.87 18.9151 42.87 19.1198H41.3883C41.3883 18.8043 41.4874 18.5123 41.6857 18.2438C41.8839 17.9752 42.1642 17.7655 42.5265 17.6144C42.8888 17.46 43.2955 17.3828 43.7467 17.3828C44.4303 17.3828 44.9721 17.5523 45.372 17.8913C45.7753 18.227 45.9769 18.7003 45.9769 19.3112V21.6725C45.9804 22.1894 46.0538 22.5805 46.1974 22.8457V22.9312H44.7003ZM43.475 21.9192C43.6937 21.9192 43.8954 21.8722 44.08 21.7783C44.2645 21.6809 44.4013 21.5517 44.4901 21.3906V20.4541H43.9364C43.1947 20.4541 42.7999 20.7058 42.7521 21.2093L42.747 21.2949C42.747 21.4762 42.8119 21.6255 42.9418 21.743C43.0717 21.8605 43.2494 21.9192 43.475 21.9192Z" fill="#1943EF"/>
<path d="M48.2456 17.4835L48.2917 18.1129C48.6882 17.6262 49.2197 17.3828 49.8862 17.3828C50.4741 17.3828 50.9116 17.5523 51.1987 17.8913C51.4858 18.2303 51.6328 18.7372 51.6396 19.4119V22.9312H50.1579V19.4471C50.1579 19.1383 50.0895 18.9151 49.9528 18.7775C49.8161 18.6365 49.5888 18.566 49.2709 18.566C48.854 18.566 48.5412 18.7405 48.3327 19.0896V22.9312H46.851V17.4835H48.2456Z" fill="#1943EF"/>
<path d="M55.5386 21.4258C55.5386 21.2479 55.448 21.1086 55.2669 21.0079C55.0891 20.9039 54.802 20.8116 54.4055 20.731C53.0862 20.4591 52.4265 19.9086 52.4265 19.0796C52.4265 18.5962 52.6299 18.1934 53.0366 17.8712C53.4468 17.5456 53.9817 17.3828 54.6414 17.3828C55.3455 17.3828 55.9077 17.5456 56.3281 17.8712C56.752 18.1968 56.9639 18.6197 56.9639 19.14H55.4822C55.4822 18.9319 55.4138 18.7607 55.2771 18.6264C55.1404 18.4888 54.9268 18.42 54.6362 18.42C54.3867 18.42 54.1936 18.4754 54.0569 18.5861C53.9202 18.6969 53.8518 18.8379 53.8518 19.0091C53.8518 19.1702 53.9287 19.3011 54.0825 19.4018C54.2398 19.4991 54.5029 19.5847 54.8721 19.6586C55.2412 19.7291 55.5523 19.8096 55.8052 19.9002C56.5879 20.1822 56.9793 20.6706 56.9793 21.3654C56.9793 21.8622 56.7622 22.265 56.3281 22.5738C55.8941 22.8792 55.3335 23.0319 54.6465 23.0319C54.1817 23.0319 53.7681 22.9514 53.4058 22.7903C53.0469 22.6258 52.7649 22.4026 52.5598 22.1206C52.3548 21.8353 52.2522 21.5282 52.2522 21.1992H53.657C53.6707 21.4577 53.7681 21.6557 53.9492 21.7934C54.1304 21.931 54.3731 21.9998 54.6773 21.9998C54.961 21.9998 55.1746 21.9478 55.3181 21.8437C55.4651 21.7363 55.5386 21.597 55.5386 21.4258Z" fill="#1943EF"/>
<path d="M58.1097 22.9312V18.5509H57.2843V17.4835H58.1097V17.0203C58.1097 16.4094 58.2874 15.9361 58.6429 15.6005C59.0018 15.2614 59.5025 15.0919 60.1451 15.0919C60.3502 15.0919 60.6014 15.1255 60.8988 15.1926L60.8834 16.3204C60.7603 16.2902 60.6099 16.2751 60.4322 16.2751C59.8751 16.2751 59.5965 16.5319 59.5965 17.0455V17.4835H60.6988V18.5509H59.5965V22.9312H58.1097Z" fill="#1943EF"/>
<path d="M63.6647 23.0319C62.8512 23.0319 62.1881 22.7869 61.6754 22.2969C61.1662 21.8068 60.9115 21.1539 60.9115 20.3383V20.1973C60.9115 19.6502 61.0192 19.1618 61.2345 18.7322C61.4498 18.2992 61.754 17.9669 62.1471 17.7352C62.5436 17.5003 62.9948 17.3828 63.5006 17.3828C64.2594 17.3828 64.8559 17.6178 65.2899 18.0877C65.7274 18.5576 65.9462 19.2239 65.9462 20.0865V20.6807H62.4137C62.4616 21.0365 62.6051 21.3218 62.8444 21.5366C63.0871 21.7514 63.393 21.8588 63.7621 21.8588C64.3329 21.8588 64.7789 21.6557 65.1002 21.2496L65.8283 22.0501C65.6061 22.3589 65.3053 22.6006 64.9259 22.7752C64.5465 22.9464 64.1261 23.0319 63.6647 23.0319ZM63.4955 18.561C63.2016 18.561 62.9623 18.6583 62.7777 18.853C62.5966 19.0477 62.4804 19.3263 62.4291 19.6888H64.4901V19.573C64.4833 19.2507 64.3944 19.0024 64.2235 18.8278C64.0526 18.6499 63.81 18.561 63.4955 18.561Z" fill="#1943EF"/>
<path d="M69.676 18.848C69.4743 18.8211 69.2966 18.8077 69.1428 18.8077C68.5822 18.8077 68.2148 18.994 68.0405 19.3666V22.9312H66.5588V17.4835H67.9585L67.9995 18.133C68.2968 17.6329 68.7087 17.3828 69.2351 17.3828C69.3991 17.3828 69.5529 17.4046 69.6965 17.4483L69.676 18.848Z" fill="#1943EF"/>
<path d="M2.03483 5.49295C2.03483 5.02446 2.32527 4.60317 2.76821 4.42918L13.2682 0.304602C13.5464 0.195341 13.8566 0.195341 14.1348 0.304602L24.6348 4.42918C25.0777 4.60317 25.3682 5.02446 25.3682 5.49295V7.00869C25.3682 7.64145 24.8458 8.15441 24.2015 8.15441H3.2015C2.55717 8.15441 2.03483 7.64145 2.03483 7.00869V5.49295Z" fill="#1943EF"/>
<path d="M3.2015 9.7555C3.2015 9.43912 3.46266 9.18264 3.78483 9.18264H8.4515C8.77366 9.18264 9.03483 9.43912 9.03483 9.7555C9.03483 10.0719 8.77366 10.3284 8.4515 10.3284C8.12933 10.3284 7.86816 10.5848 7.86816 10.9012V18.9212C7.86816 19.2376 8.12933 19.4941 8.4515 19.4941C8.77366 19.4941 9.03483 19.7506 9.03483 20.0669C9.03483 20.3833 8.77366 20.6398 8.4515 20.6398H3.78483C3.46266 20.6398 3.2015 20.3833 3.2015 20.0669C3.2015 19.7506 3.46266 19.4941 3.78483 19.4941C4.107 19.4941 4.36816 19.2376 4.36816 18.9212V10.9012C4.36816 10.5848 4.107 10.3284 3.78483 10.3284C3.46266 10.3284 3.2015 10.0719 3.2015 9.7555Z" fill="#1943EF"/>
<path d="M11.3682 9.7555C11.3682 9.43912 11.6293 9.18264 11.9515 9.18264H16.6182C16.9403 9.18264 17.2015 9.43912 17.2015 9.7555C17.2015 10.0719 16.9403 10.3284 16.6182 10.3284C16.296 10.3284 16.0348 10.5848 16.0348 10.9012V18.9212C16.0348 19.2376 16.296 19.4941 16.6182 19.4941C16.9403 19.4941 17.2015 19.7506 17.2015 20.0669C17.2015 20.3833 16.9403 20.6398 16.6182 20.6398H11.9515C11.6293 20.6398 11.3682 20.3833 11.3682 20.0669C11.3682 19.7506 11.6293 19.4941 11.9515 19.4941C12.2737 19.4941 12.5348 19.2376 12.5348 18.9212V10.9012C12.5348 10.5848 12.2737 10.3284 11.9515 10.3284C11.6293 10.3284 11.3682 10.0719 11.3682 9.7555Z" fill="#1943EF"/>
<path d="M19.5348 9.7555C19.5348 9.43912 19.796 9.18264 20.1182 9.18264H24.7848C25.107 9.18264 25.3682 9.43912 25.3682 9.7555C25.3682 10.0719 25.107 10.3284 24.7848 10.3284C24.4627 10.3284 24.2015 10.5848 24.2015 10.9012V18.9212C24.2015 19.2376 24.4627 19.4941 24.7848 19.4941C25.107 19.4941 25.3682 19.7506 25.3682 20.0669C25.3682 20.3833 25.107 20.6398 24.7848 20.6398H20.1182C19.796 20.6398 19.5348 20.3833 19.5348 20.0669C19.5348 19.7506 19.796 19.4941 20.1182 19.4941C20.4403 19.4941 20.7015 19.2376 20.7015 18.9212V10.9012C20.7015 10.5848 20.4403 10.3284 20.1182 10.3284C19.796 10.3284 19.5348 10.0719 19.5348 9.7555Z" fill="#1943EF"/>
<path d="M26.5348 21.7855H2.03483V22.9312H26.5348V21.7855Z" fill="#1943EF"/>
<path d="M27.7015 24.0769H0.868164V25.2227H27.7015V24.0769Z" fill="#1943EF"/>
</svg>
