<svg width="70" height="26" viewBox="0 0 70 26" fill="none" xmlns="http://www.w3.org/2000/svg">
<path d="M0.0035035 16.2296C0.0150035 16.6131 0.0236278 16.9458 0.0322528 17.2215C0.0480653 17.7653 0.0523777 18.077 0.0523777 18.077C0.0523777 18.077 0.108441 17.7698 0.203316 17.2349C0.250753 16.9697 0.309691 16.6506 0.377254 16.282C0.430441 15.9149 0.613004 15.5254 0.739504 15.0954C0.874629 14.6654 1.03132 14.2069 1.29007 13.7664C1.52582 13.3184 1.74 12.8344 2.08788 12.4164C2.24457 12.2022 2.40557 11.9804 2.56513 11.7602C2.73332 11.5459 2.94894 11.3616 3.13438 11.1608C3.49884 10.7466 3.94351 10.4114 4.38404 10.0794L4.38644 10.0776C4.80763 9.72846 5.32081 9.49323 5.765 9.20705C6.271 8.99579 6.71663 8.73209 7.214 8.57927C7.68838 8.39947 8.15556 8.24814 8.61269 8.14026C9.05688 8.00542 9.50394 7.94548 9.8935 7.85858C10.1436 7.82113 10.3736 7.78966 10.595 7.76119C10.5691 7.83012 10.5418 7.89604 10.5188 7.96646C10.2917 8.61522 10.1149 9.29695 9.99125 10.0146C9.93519 10.3787 9.88919 10.7473 9.85325 11.1234C9.8245 11.5054 9.81875 11.901 9.84463 12.3175C10.2198 12.1677 10.5605 11.9984 10.8839 11.8141C11.1959 11.6238 11.5021 11.426 11.7939 11.2223C12.3732 10.8072 12.895 10.3562 13.3665 9.8738C14.321 8.91189 15.1102 7.83761 15.7729 6.68242L15.8577 6.53558C16.2645 5.8179 16.2171 4.87846 15.6694 4.20573C14.9478 3.31724 14.1528 2.48868 13.2184 1.77099C12.7556 1.4084 12.2611 1.07428 11.7191 0.774621C11.1743 0.477958 10.6151 0.194779 9.94669 0C9.95819 0.723679 10.0789 1.36046 10.2213 1.98375C10.3564 2.58906 10.5389 3.15692 10.7517 3.7023C10.2428 3.85812 9.62469 4.07687 8.92894 4.35855C8.479 4.56832 7.98594 4.7571 7.48856 5.03728C6.984 5.289 6.47225 5.59465 5.95332 5.93626C5.42575 6.24641 4.93413 6.68691 4.41807 7.06748C3.948 7.53345 3.43194 7.93649 3.01363 8.46539C2.58094 8.97182 2.15832 9.47825 1.832 10.0536C1.66669 10.3338 1.4755 10.593 1.3375 10.8792C1.20525 11.1698 1.07875 11.459 0.955128 11.7407C0.673378 12.2876 0.54544 12.8749 0.398815 13.4098C0.224878 13.9402 0.163066 14.4601 0.115629 14.9395C0.0768161 15.4175 -0.0194965 15.84 0.0035035 16.2296Z" fill="black"/>
<path d="M10.2083 21.6145C10.6511 21.3927 11.1384 21.186 11.6286 20.8908C12.1231 20.6256 12.6291 20.3035 13.1308 19.9454C13.6483 19.6187 14.1284 19.1633 14.6358 18.7662C15.0915 18.2882 15.5961 17.8657 16 17.3263C16.4183 16.8064 16.8237 16.2895 17.1342 15.7037C17.2923 15.4175 17.472 15.1523 17.6043 14.8616C17.725 14.5665 17.8458 14.2743 17.9608 13.9881C18.2253 13.4338 18.3374 12.8419 18.4696 12.304C18.6249 11.7706 18.6766 11.2477 18.7083 10.7683C18.7384 10.2903 18.8175 9.86331 18.7859 9.47525C18.7623 9.10648 18.7454 8.78238 18.7313 8.51238L18.7298 8.48337C18.7025 7.94099 18.6795 7.63234 18.6795 7.63234C18.6795 7.63234 18.6378 7.93949 18.5501 8.47738C18.5084 8.74258 18.461 9.06471 18.4049 9.43479C18.3618 9.80338 18.1908 10.1974 18.0758 10.6319C17.9564 11.0664 17.8141 11.5279 17.5669 11.9774C17.3455 12.4329 17.1457 12.9213 16.8093 13.3514C16.6598 13.5716 16.506 13.7963 16.3536 14.0241C16.1883 14.2413 15.9813 14.4331 15.7959 14.6399C15.4451 15.0639 15.0096 15.416 14.5769 15.7606C14.1701 16.1232 13.6612 16.3719 13.2242 16.6731C12.7268 16.8993 12.2884 17.178 11.7953 17.3443C11.3281 17.5406 10.8638 17.7054 10.4096 17.8268C9.97113 17.9766 9.52838 18.05 9.14025 18.1474C8.89157 18.1939 8.66013 18.2328 8.44163 18.2673C8.46175 18.1969 8.48906 18.1309 8.51206 18.0605C8.71906 17.4028 8.87719 16.7165 8.98069 15.9958C9.02525 15.6303 9.05831 15.2602 9.08419 14.8826C9.10288 14.5005 9.09713 14.1035 9.06119 13.69C8.69031 13.8488 8.35394 14.0301 8.03625 14.2249C7.72719 14.4241 7.4325 14.6309 7.14357 14.8437C6.58007 15.2767 6.07119 15.7426 5.61407 16.2416C4.68832 17.2319 3.93075 18.3302 3.30113 19.5064L3.21919 19.6532C2.8325 20.3844 2.90725 21.3208 3.47507 21.9771C4.22257 22.8416 5.04194 23.6462 5.99357 24.3339C6.46507 24.683 6.96963 25.0006 7.52307 25.2823C8.07363 25.561 8.64 25.8277 9.31707 26C9.28113 25.2793 9.14025 24.647 8.98644 24.0282C8.83263 23.4274 8.63569 22.8641 8.40569 22.3262C8.91169 22.1539 9.51975 21.9171 10.2083 21.6145Z" fill="black"/>
<path d="M38.0871 12.4219H42.3378L43.0767 14.8926H45.69L41.6305 2.88818H38.8562L34.7535 14.8941H37.2864L38.0871 12.4219ZM40.2045 5.59861H40.2376L41.6636 10.3452H38.7282L40.2045 5.59861ZM34.0549 11.3371C34.0549 10.1489 33.6869 8.97877 32.2753 8.4289C32.7554 8.17868 33.6869 7.69473 33.6869 5.97019C33.6869 4.73259 32.9653 2.89118 30.1406 2.89118H24.543V14.8986H29.4204C31.7793 14.8986 32.4047 14.4805 33.0616 13.8078C33.6697 13.192 34.0549 12.2855 34.0549 11.3371ZM26.8545 4.96782H29.6145C30.7041 4.96782 31.3783 5.26748 31.3783 6.25337C31.3783 7.20928 30.6265 7.59284 29.6763 7.59284H26.8545V4.96782ZM29.8042 12.8234H26.8545V9.61256H29.9178C30.786 9.61256 31.65 10.0186 31.65 11.0674C31.6485 12.2855 30.9743 12.8234 29.8042 12.8234ZM64.2108 7.8071L69.1831 14.8926H66.0867L62.526 9.62604L61.4034 10.8307V14.8926H58.997V2.88818H61.4034V7.76964L65.8007 2.88818H68.9114L64.2108 7.8071ZM34.755 21.56C34.755 20.4123 34.4905 20.2235 34.006 20.0018C34.5897 19.7965 34.9188 19.2167 34.9188 18.5349C34.9188 18.0045 34.6328 16.7984 33.063 16.7984H30.0788V22.9474H31.2892V20.5427H32.5613C33.4742 20.5427 33.5245 20.8693 33.5245 21.7053C33.5245 22.3376 33.5719 22.6583 33.6538 22.9459H35.018V22.7856C34.755 22.6822 34.755 22.4575 34.755 21.56ZM32.7295 19.5088H31.2877V17.8607H32.823C33.5446 17.8607 33.6855 18.3372 33.6855 18.6653C33.684 19.2706 33.3735 19.5088 32.7295 19.5088ZM24.5444 16.7984H29.3428V17.8907H27.556V22.9504H26.3269V17.8907H24.5444V16.7984ZM37.4934 16.7984L35.3903 22.9474H36.6898L37.0995 21.6784H39.2759L39.6554 22.9474H40.9952L38.918 16.7984H37.4934ZM37.4302 20.6176L38.1877 18.1873H38.1992L38.9352 20.6176H37.4302ZM53.2168 16.7984H57.4143V17.8907H54.4502V19.2781H57.0463V20.3659H54.4502V22.9519H53.2168V16.7984ZM45.391 16.7984H46.5425V22.9474H45.3077L42.9013 18.5619H42.8826V22.9474H41.734V16.7984H43.0307L45.3752 21.079H45.3896L45.391 16.7984ZM68.4025 21.56C68.4025 20.4123 68.1352 20.2235 67.6536 20.0018C68.2344 19.7965 68.5693 19.2167 68.5693 18.5349C68.5693 18.0045 68.2803 16.7984 66.7106 16.7984H63.7292V22.9474H64.9396V20.5427H66.2118C67.1217 20.5427 67.1749 20.8693 67.1749 21.7053C67.1749 22.3376 67.2224 22.6583 67.3057 22.9459H68.6656V22.7856C68.4025 22.6822 68.4025 22.4575 68.4025 21.56ZM66.3814 19.5088H64.9382V17.8607H66.4705C67.195 17.8607 67.3359 18.3372 67.3359 18.6653C67.3359 19.2706 67.024 19.5088 66.3814 19.5088ZM52.2752 21.0985C52.2752 22.9429 50.4654 23.1107 49.9508 23.1107C47.7974 23.1107 47.4308 21.8207 47.4308 21.0551H48.6096C48.6182 21.3982 48.7835 22.0484 49.8617 22.0484C50.441 22.0484 51.0922 21.8986 51.0922 21.2558C51.0922 20.7734 50.6465 20.6475 50.0241 20.4902L49.393 20.3344C48.4385 20.1066 47.52 19.8804 47.52 18.5259C47.52 17.8412 47.8722 16.6351 49.7869 16.6351C51.5953 16.6351 52.0783 17.8667 52.0869 18.6203H50.9082C50.8751 18.3461 50.7759 17.6974 49.6978 17.6974C49.232 17.6974 48.67 17.8757 48.67 18.4315C48.67 18.911 49.0495 19.0144 49.2967 19.0758L50.7313 19.4444C51.5349 19.6482 52.2752 19.9943 52.2752 21.0985ZM59.4498 21.8597H62.7201V22.9504H58.2423V16.8014H62.5821V17.8922H59.4498V19.1837H62.3248V20.2715H59.4498V21.8597ZM49.3672 14.8986H47.1218V2.89268H49.6561L54.2302 11.2517H54.2604V2.89268H56.5058V14.9001H54.1023L49.4002 6.34027H49.37L49.3672 14.8986Z" fill="black"/>
</svg>
