<svg width="101" height="19" viewBox="0 0 101 19" fill="none" xmlns="http://www.w3.org/2000/svg">
<g opacity="0.8" clip-path="url(#clip0)">
<path d="M100.481 5.95356C99.9418 4.92025 98.7789 4.13654 97.5158 4.13654C96.4048 4.13654 95.4277 4.61742 95.4277 5.86425C95.4277 6.91415 96.6578 7.6263 97.9382 8.49931C99.3357 9.42499 100.785 10.5636 100.785 12.5409C100.785 15.1228 98.41 16.7068 95.6638 16.7068C94.535 16.7068 93.3564 16.4755 92.0256 15.9414L92.2439 12.5049C92.8846 13.8765 94.0811 14.9619 95.8485 14.9619C97.2135 14.9619 98.2237 14.2681 98.2237 13.0567C98.2237 12.024 97.3977 11.3834 96.388 10.7428C94.2648 9.39007 92.9182 8.30296 92.9182 6.34512C92.9182 3.40665 95.2424 2.42773 97.6512 2.42773C99.0486 2.42773 99.9256 2.69507 100.818 2.69507L100.481 5.95356ZM88.7069 9.03286C88.4025 9.56754 88.0168 10.2963 87.7795 10.8315C87.578 11.846 87.4768 13.1998 87.4768 14.6945C87.4768 15.318 87.578 16.1543 87.8473 16.4394H84.327C84.9494 15.8166 85.2029 11.9896 85.1699 10.7783C84.6981 9.05174 84.0568 7.3956 83.0802 5.38338C82.4584 4.11994 81.7331 2.92577 81.2781 2.69507C82.0694 2.62465 83.0802 2.57085 83.5693 2.57085C84.4446 2.57085 84.6813 2.69507 85.2208 3.9419C86.0614 5.95412 86.6849 7.46601 87.0559 8.58862C87.9491 7.11051 88.572 6.0961 89.3807 4.70729C89.5827 4.36897 89.7512 3.9419 89.7512 3.53202C89.7512 3.21086 89.7002 2.85536 89.5659 2.69507H93.0531C92.3793 2.85536 89.3465 7.89422 88.7069 9.03286ZM76.4601 5.91863L74.372 10.7067H77.7741L76.4601 5.91863ZM80.5539 16.5637C79.4414 16.5637 79.3579 16.5287 78.4647 13.2886L78.1452 12.0956C77.6068 12.3623 76.6453 12.4871 75.113 12.4871H73.5633L73.2936 13.0922C72.9063 14.0013 72.3842 15.0678 72.3842 15.8172C72.3842 15.9952 72.401 16.1904 72.4687 16.44H63.2709C63.7935 15.8172 63.962 13.8055 64.2144 10.1549L64.2648 9.28301C64.3997 7.19981 64.502 5.59747 64.4842 4.47658C64.4674 3.5509 64.3829 2.96299 64.1473 2.69622H67.7021C67.1962 3.1061 67.0104 5.31296 66.7753 8.96359L66.7076 9.83544C66.6231 11.1888 66.4552 12.577 66.4552 13.9303C66.4552 14.5526 66.6908 14.6951 67.298 14.6951C69.4533 14.6951 69.9933 14.6419 70.9694 13.9475C71.5755 12.7722 72.2672 11.2941 72.9399 9.76332L73.851 7.71617C74.7095 5.79325 75.5512 3.83428 75.5512 3.46103C75.5512 3.19312 75.484 2.94466 75.3838 2.69507H78.2134C78.2134 2.69507 79.3585 7.18206 79.6114 8.14266L80.1666 10.3152C81.1264 13.9652 81.7336 15.745 82.5423 16.4394C81.8674 16.5287 80.9076 16.5637 80.5539 16.5637ZM57.6285 16.7068C54.2762 16.7068 52.3387 13.7872 52.3387 10.5115C52.3387 5.95412 54.6797 2.42773 59.144 2.42773C60.542 2.42773 61.1996 2.69507 62.3273 2.69507L61.9909 6.20258C61.3507 4.97406 60.3059 4.13712 58.9084 4.13712C56.1292 4.13712 55.0004 7.30686 55.0004 10.0307C55.0004 12.9857 56.5674 14.6052 58.6554 14.6052C59.7842 14.6052 60.7776 14.2847 62.4459 13.0567C61.7721 15.3363 60.2051 16.7068 57.6285 16.7068ZM46.0057 4.36897C45.6856 4.36897 45.2972 4.36895 44.995 4.40445C44.8937 4.9918 44.8092 6.0068 44.6911 7.64405L44.6234 8.60637C44.7929 8.64244 45.0112 8.66076 45.2138 8.66076C46.8301 8.66076 47.9426 7.62687 47.9426 6.06117C47.9426 4.99181 47.2352 4.36897 46.0057 4.36897ZM50.7045 17.0274C49.7447 17.0274 49.5086 16.8665 49.189 16.4034L45.5501 11.0622C45.2636 10.6529 45.0448 10.3146 44.5903 10.3146H44.5059L44.4392 11.3473C44.3542 12.7539 44.3038 13.8765 44.3038 14.7129C44.3206 15.6386 44.4219 16.2076 44.658 16.4394H41.1373C41.6421 15.9586 41.8268 14.3562 42.1139 10.1543L42.1648 9.28245C42.2997 7.21757 42.401 5.61465 42.3837 4.49376C42.3663 3.51426 42.2661 2.9086 42.0126 2.69507C44.0173 2.69507 46.8133 2.69507 46.8133 2.69507C48.3797 2.69507 50.5361 2.98073 50.5361 5.66846C50.5361 7.87532 49.1375 9.08666 47.4032 9.65569C47.5716 9.81655 47.8744 10.2259 48.0602 10.4755L50.7045 14.1788C52.3555 16.4755 52.4898 16.582 53.0802 16.9025C52.3387 16.9913 51.3453 17.0274 50.7045 17.0274ZM34.2989 5.91863L32.1919 10.7067H35.6114L34.2989 5.91863ZM38.3911 16.5637C37.2802 16.5637 37.1957 16.5287 36.3031 13.2886L35.9829 12.0956C35.4429 12.3623 34.4831 12.4871 32.9502 12.4871H31.4006L31.1314 13.0922C30.8616 13.734 30.2046 15.0518 30.2214 15.8172C30.2214 15.9952 30.2382 16.1732 30.3059 16.44H27.1898C28.0824 15.4966 29.2112 13.3069 30.7777 9.76388L31.6876 7.71675C32.5126 5.86539 33.389 3.76444 33.389 3.46161C33.389 3.1937 33.3223 2.94524 33.2205 2.69564H36.0512C36.0512 2.69564 36.7911 5.66903 37.4487 8.14323L38.0044 10.3158C38.9647 13.9658 39.5709 15.7456 40.3795 16.44C39.6554 16.5287 38.7454 16.5637 38.3911 16.5637ZM22.3544 4.35122C22.1015 4.35122 21.7651 4.35121 21.445 4.38727C21.3101 5.34845 21.2256 6.27414 21.159 7.28855C21.159 7.28855 21.1081 8.16042 21.1081 8.12492H21.445C23.096 8.12492 24.6126 7.51982 24.6126 5.91863C24.6126 4.99181 23.8879 4.35122 22.3544 4.35122ZM21.9341 9.79881H21.0079L20.873 11.8282C20.8058 12.719 20.7717 13.466 20.7549 14.3562C20.7549 14.4816 21.1254 14.7484 22.0007 14.7484C23.8201 14.7484 25.0167 13.7872 25.0167 12.202C25.0167 10.4394 23.6517 9.79881 21.9341 9.79881ZM22.1361 16.4394H17.5879C18.161 15.9047 18.3126 13.8221 18.565 10.1543L18.6154 9.30019C18.7508 7.21698 18.8516 5.61465 18.8348 4.49376C18.818 3.53201 18.7167 2.9086 18.4637 2.69507H23.5509C24.7637 2.69507 27.1898 2.76662 27.1898 5.43661C27.1898 7.21698 25.6228 8.3207 24.1912 8.71341C26.2126 8.92694 27.7287 9.95911 27.7287 12.1665C27.7282 14.552 25.606 16.4394 22.1361 16.4394Z" fill="#00AEEF"/>
<path d="M7.35059 0.771173C6.89993 0.771173 6.80677 0.854189 6.66052 1.0265C6.60311 1.02249 6.54298 1.02135 6.48015 1.02135C6.13349 1.02135 5.68825 1.07515 5.30856 1.34364C4.94186 1.59953 4.76745 2.05235 4.96298 2.3838C4.96298 2.3838 5.09406 2.18059 5.52522 2.18059C5.58588 2.18059 5.65305 2.18745 5.72455 2.19374C6.32036 2.26817 6.76127 2.59963 6.70765 3.47493C6.65998 4.34966 6.34961 5.32515 5.07998 5.3366C5.07998 5.3366 4.9164 5.3366 4.74199 5.31943C4.15105 5.2513 3.96526 4.85916 3.96526 4.85916C3.96526 4.85916 4.47604 4.7126 4.48037 4.02736C4.47604 3.56137 4.09201 3.13489 3.53789 2.96258C3.35644 2.90648 3.15711 2.879 2.94966 2.879C2.29643 2.879 1.56303 3.16809 1.0685 3.85047C-0.0527186 5.41502 -0.143716 7.69573 0.129818 9.81672C0.404978 11.9423 1.68057 13.911 1.71794 13.9648C1.74503 14.0026 1.7694 14.0232 1.79702 14.0232C1.81111 14.0232 1.82573 14.0163 1.8409 14.0032C2.39176 13.4381 2.91716 12.6659 3.14195 12.1495C3.38244 12.3522 3.25678 12.7832 3.12461 13.2435C2.99895 13.7141 2.69346 14.3386 2.58296 14.5401C2.47626 14.7371 2.33326 14.9661 2.52555 15.0857C2.54505 15.0983 2.56996 15.1052 2.59975 15.1052C2.84675 15.1052 3.42794 14.6501 4.0763 13.7364C4.80211 12.7083 5.17043 11.7957 5.17043 11.7957C5.22352 11.8083 5.31235 11.9034 5.29772 12.1621C5.28797 12.4249 5.03231 13.4027 4.53454 14.3129C4.03134 15.2225 3.5666 15.7916 3.4729 15.921C3.41494 15.9959 3.46423 16.0429 3.5016 16.0732C3.53844 16.0996 4.42837 16.9777 5.7213 17.7196C7.25309 18.5823 7.93232 18.7375 7.93232 18.7375C7.93232 18.7375 8.60993 18.5863 10.1417 17.7242C11.4341 16.9811 12.3278 16.099 12.3609 16.0692C12.3982 16.0423 12.4459 15.9999 12.3896 15.9175C12.3013 15.7938 11.8349 15.222 11.3328 14.3123C10.8367 13.4084 10.5713 12.4243 10.5675 12.165C10.5572 11.9034 10.6406 11.8169 10.6915 11.7952C10.6915 11.7952 11.0636 12.7134 11.7894 13.7358C12.441 14.6506 13.0168 15.1046 13.2649 15.1046C13.2963 15.1046 13.3212 15.0977 13.3418 15.0851C13.5281 14.9655 13.3895 14.7331 13.2801 14.5384C13.1782 14.3381 12.8684 13.7175 12.7368 13.2429C12.6106 12.7775 12.4795 12.347 12.7243 12.149C12.9496 12.6653 13.4713 13.4416 14.0237 13.9986C14.0384 14.0146 14.0552 14.0226 14.0714 14.0226C14.0958 14.0226 14.1218 14.0026 14.1445 13.9677C14.1852 13.9104 15.4629 11.9452 15.7359 9.81615C16.01 7.69058 15.9195 5.41502 14.7972 3.8499C14.3059 3.1658 13.5671 2.87498 12.9096 2.87498C12.7043 2.87498 12.5082 2.90304 12.3289 2.95742C11.7705 3.13489 11.3881 3.56539 11.3913 4.0268C11.3913 4.71204 11.9048 4.85858 11.9048 4.85858C11.9048 4.85858 11.7331 5.241 11.121 5.31885C11.0067 5.33374 10.8957 5.3406 10.7895 5.3406C10.3291 5.3406 9.94131 5.18604 9.58382 4.6525C9.23716 4.139 9.24854 3.08166 9.2285 2.72902C9.21279 2.37123 9.14021 1.56863 8.78434 1.24118C8.42956 0.905138 7.99732 0.792346 7.45838 0.77002C7.41883 0.771164 7.38363 0.771173 7.35059 0.771173Z" fill="#00AFE9"/>
</g>
<defs>
<clipPath id="clip0">
<rect width="101" height="18" fill="white" transform="translate(0 0.77002)"/>
</clipPath>
</defs>
</svg>
