<svg width="44" height="30" viewBox="0 0 44 30" fill="none" xmlns="http://www.w3.org/2000/svg">
<g opacity="0.8" clip-path="url(#clip0)">
<path d="M13.512 23.4819L13.4344 23.5581C12.1827 24.8515 10.734 25.5369 9.24123 25.5369C6.12526 25.5369 3.86339 23.1661 3.86339 19.895C3.86339 16.6297 6.12526 14.2555 9.24123 14.2555C10.734 14.2555 12.1827 14.9438 13.4344 16.2406L13.512 16.3191L15.516 13.8616L15.4624 13.7949C13.7959 11.7975 11.7963 10.8252 9.33796 10.8252C6.87116 10.8252 4.61618 11.6672 2.99103 13.1856C1.22525 14.83 0.292969 17.149 0.292969 19.895C0.292969 22.6396 1.22525 24.9643 2.99103 26.6091C4.61618 28.1346 6.87116 28.9719 9.33796 28.9719C11.7963 28.9719 13.7959 28.0001 15.4624 26.0019L15.516 25.9399L13.512 23.4819Z" fill="#003B70"/>
<path d="M17.541 28.6378H21.0812V11.1104H17.541V28.6378Z" fill="#003B70"/>
<path d="M34.9485 24.8264C34.0041 25.4096 33.1251 25.7029 32.3357 25.7029C31.192 25.7029 30.6751 25.0906 30.6751 23.7269V14.4267H34.2805V11.1261H30.6751V5.67236L27.2053 7.55572V11.1261H24.2119V14.4267H27.2053V24.3201C27.2053 27.0156 28.7795 28.857 31.1296 28.9048C32.7252 28.9365 33.6872 28.4545 34.2714 28.102L34.3056 28.0762L35.1579 24.6967L34.9485 24.8264L34.9485 24.8264Z" fill="#003B70"/>
<path d="M37.8799 28.6378H41.4224V11.1104H37.8799V28.6378Z" fill="#003B70"/>
<path fill-rule="evenodd" clip-rule="evenodd" d="M43.5429 8.00042C40.3022 3.34495 34.9205 0.567383 29.4449 0.567383C23.9716 0.567383 18.5887 3.34495 15.3535 8.00042L15.1875 8.23996H19.2679L19.3131 8.19027C22.0904 5.28308 25.7158 3.74564 29.4449 3.74564C33.1745 3.74564 36.7992 5.28308 39.5818 8.19027L39.6269 8.23996H43.7061L43.5429 8.00042Z" fill="#D9261C"/>
</g>
<defs>
<clipPath id="clip0">
<rect width="44" height="29" fill="white" transform="translate(0 0.27002)"/>
</clipPath>
</defs>
</svg>
