<svg width="56" height="57" viewBox="0 0 56 57" fill="none" xmlns="http://www.w3.org/2000/svg">
<g clip-path="url(#clip0)">
<path fill-rule="evenodd" clip-rule="evenodd" d="M56 18.097V56.27H0V26.2023C0.747678 29.2262 2.88306 31.6123 6.46428 31.6123C8.72458 31.6123 10.2227 30.2278 11.6194 28.3745L12.3712 28.3736H17.098V27.7685C15.3683 27.7685 15.0971 27.4142 15.0971 25.3302V19.9521L23.7249 30.2505H24.2459V20.4317C24.2459 18.3663 24.4921 17.9998 26.201 17.9934L26.5953 17.9938C28.2292 18.0088 28.469 18.3913 28.469 20.4317V26.8505C28.469 28.9346 28.2192 29.2884 26.4894 29.2884V29.8935H31.4075V29.2884C29.6777 29.2884 29.407 28.9346 29.407 26.8505V20.8483L33.596 30.2509H34.0543L38.1393 20.8269V26.8501C38.1393 28.9341 37.8681 29.288 36.1388 29.288V29.893H42.6408V29.288C40.8902 29.288 40.6404 28.9341 40.6404 26.8501V20.4317C40.6404 18.3995 40.8784 18.012 42.5132 17.9943C44.0912 18.0147 44.3774 18.504 44.9543 19.8271L49.4976 30.2514H49.935L54.4574 19.8271C54.9194 18.7683 55.2959 18.2859 56 18.097ZM40.3147 51.3993V51.4002V51.4015C40.3142 51.6504 40.2152 51.8589 40.058 52.0052C39.9004 52.1519 39.6846 52.2355 39.4511 52.2355H39.4502C39.2931 52.2355 39.1509 52.1983 39.0346 52.151C38.9333 52.1101 38.8511 52.0615 38.7957 52.0266C38.7816 52.0438 38.7666 52.0652 38.7521 52.0906C38.7325 52.1247 38.7144 52.1665 38.7057 52.2128L38.7017 52.236H38.678H38.5722H38.544V52.2082V51.1944V51.1667H38.5722H38.6898H38.7153L38.7176 51.1917C38.7503 51.5396 38.917 51.7781 39.1654 51.8853C39.214 51.9062 39.2658 51.9216 39.3203 51.9325C39.3753 51.9439 39.433 51.9498 39.492 51.9498H39.4966H39.4984C39.6179 51.9498 39.7246 51.9162 39.8009 51.853C39.8763 51.7913 39.9222 51.7004 39.9227 51.5837V51.5828C39.9227 51.4874 39.884 51.4029 39.8082 51.3229C39.7296 51.2398 39.611 51.1617 39.4552 51.0836L39.0546 50.8782C38.8933 50.7933 38.7553 50.6788 38.6653 50.5344C38.6476 50.5062 38.6322 50.4767 38.6181 50.4472C38.5754 50.3536 38.5513 50.2491 38.5513 50.1356V50.1347V50.1338C38.5513 49.9393 38.6331 49.7645 38.7689 49.6386C38.9047 49.5133 39.0955 49.4351 39.3144 49.4338H39.3153C39.4979 49.4338 39.6497 49.4815 39.7682 49.541C39.7914 49.5532 39.8132 49.565 39.8336 49.5778C39.8459 49.5855 39.8582 49.5932 39.87 49.6009C39.8959 49.5696 39.9267 49.5233 39.9358 49.4533L39.9386 49.4279H39.9635H40.0812H40.1098V49.4565V50.4513V50.4799H40.0812H39.9635H39.9381L39.9358 50.4535C39.9113 50.2078 39.8254 49.9303 39.6297 49.7931C39.592 49.7667 39.5502 49.7458 39.5043 49.7313C39.458 49.7168 39.4071 49.7081 39.3512 49.7081H39.3453H39.3439C39.2358 49.7081 39.1364 49.7367 39.0641 49.7908C38.9942 49.8439 38.9497 49.9212 38.9497 50.0206V50.0216C38.9497 50.116 38.9851 50.1892 39.0623 50.2605C39.1432 50.3359 39.2699 50.4099 39.4471 50.5026L39.8418 50.7088C39.9858 50.7824 40.0925 50.8732 40.1675 50.9705C40.1825 50.99 40.1956 51.0091 40.2079 51.0295C40.2824 51.1503 40.3147 51.2798 40.3147 51.3993ZM37.0296 51.8603H37.1C37.3626 51.8603 37.5111 51.8371 37.6015 51.7799C37.6878 51.7254 37.7228 51.6368 37.7564 51.5046L37.7855 51.3865L37.7909 51.3656H37.8127H37.9304H37.9603L37.9585 51.3952L37.9113 52.1079L37.9095 52.1342H37.8831H35.6801H35.6514V52.106V51.9879V51.9598H35.6801C35.8677 51.9598 35.9771 51.9375 36.0375 51.8489C36.1007 51.7554 36.1175 51.5873 36.1175 51.2993V50.3568C36.1175 50.0674 36.1007 49.9012 36.0375 49.8099C35.9776 49.7231 35.8677 49.7018 35.6801 49.7018H35.6514V49.6732V49.5555V49.5273H35.6801H36.9819H37.7414H37.7677L37.7696 49.5537L37.8168 50.2605L37.8186 50.2905H37.7886H37.6651H37.6433L37.6378 50.2691L37.6088 50.151C37.5779 50.0225 37.5447 49.9334 37.4589 49.878C37.3698 49.8203 37.2208 49.7953 36.9587 49.7953H36.5922V50.6171H36.599C36.887 50.6171 37.0414 50.6012 37.1204 50.538C37.1963 50.479 37.2068 50.3681 37.2068 50.1801V50.151H37.2349H37.3526H37.3807V50.1801V51.3279V51.3561H37.3526H37.2349H37.2068V51.3279C37.2068 51.1426 37.1963 51.0318 37.1204 50.9718C37.041 50.9091 36.8865 50.8905 36.599 50.8905H36.5922V51.2039H36.5917C36.5917 51.4924 36.609 51.6595 36.6717 51.7513C36.7321 51.839 36.842 51.8603 37.0296 51.8603ZM34.4591 50.9873C34.4168 50.9995 34.3723 51.0113 34.326 51.0186L34.6598 51.4233C34.7761 51.5591 34.9015 51.6845 35.0319 51.7799C35.1609 51.8744 35.2949 51.9407 35.4316 51.9602L35.4557 51.9639V51.9884V52.1065V52.1347H35.4275H34.6735H34.6594L34.6507 52.1228L33.8581 51.0395H33.7355V51.3002C33.7355 51.5882 33.7523 51.7563 33.8159 51.8499C33.8758 51.9384 33.9857 51.9607 34.1729 51.9607H34.2015V51.9888V52.107V52.1351H34.1729H32.8238H32.7956V52.107V51.9888V51.9607H32.8238C33.0114 51.9607 33.1213 51.9384 33.1817 51.8499C33.2449 51.7563 33.2612 51.5882 33.2612 51.3002V50.3577C33.2612 50.0683 33.2449 49.9021 33.1817 49.8108C33.1213 49.724 33.0114 49.7027 32.8238 49.7027H32.7956V49.6741V49.5564V49.5283H32.8238H34.0434H34.0452C34.3546 49.5283 34.5953 49.6091 34.7598 49.7422C34.9265 49.8785 35.0141 50.0688 35.0141 50.2859C35.0141 50.5553 34.8688 50.7888 34.6171 50.9219C34.5685 50.9473 34.5158 50.9691 34.4591 50.9873ZM34.4977 50.2873V50.2855V50.2846C34.4977 50.1506 34.4613 50.0284 34.3868 49.9393C34.3123 49.8517 34.1992 49.7963 34.0439 49.7963H34.043H33.7355V50.7647H34.043H34.0443C34.1997 50.7647 34.3123 50.7111 34.3868 50.6257C34.4618 50.5389 34.4977 50.419 34.4977 50.2873ZM31.8376 50.8296V50.8283V50.8265C31.8376 50.578 31.774 50.2977 31.6264 50.0792C31.4797 49.8635 31.2489 49.7086 30.9128 49.7086H30.9119H30.9105C30.5749 49.7086 30.3441 49.8639 30.1974 50.0792C30.0493 50.2973 29.9857 50.5798 29.9857 50.8269V50.8278V50.8301C29.9857 51.0808 30.0493 51.3611 30.1974 51.5782C30.3436 51.7944 30.5749 51.9475 30.9105 51.9484H30.9119H30.9128C31.2489 51.9475 31.4792 51.794 31.626 51.5791C31.7745 51.3615 31.8376 51.0799 31.8376 50.8296ZM32.3768 50.8283L32.3773 50.8296H32.3768C32.3768 51.2171 32.2115 51.5682 31.9462 51.8231C31.6805 52.0779 31.3144 52.2355 30.9128 52.2355H30.9124H30.911C30.5094 52.2355 30.1442 52.0774 29.8785 51.824C29.6128 51.5696 29.4474 51.2171 29.447 50.8301V50.8287V50.8278C29.447 50.4467 29.6123 50.097 29.8781 49.8421C30.1433 49.5878 30.5099 49.4279 30.9115 49.4279H30.9119H30.9128C31.3144 49.4288 31.68 49.5873 31.9453 49.8421C32.2115 50.0961 32.3768 50.4463 32.3768 50.8283ZM27.1058 51.3002V50.3577C27.1058 50.0683 27.089 49.9021 27.0263 49.8108C26.9659 49.724 26.856 49.7027 26.6689 49.7027H26.6402V49.6741V49.5564V49.5283H26.6689H28.0175H28.0457V49.5564V49.6741V49.7027H28.0175C27.8299 49.7027 27.7204 49.724 27.66 49.8108C27.5973 49.9021 27.5801 50.0683 27.5801 50.3577V51.2053C27.5801 51.4937 27.5973 51.6609 27.66 51.7526C27.7204 51.839 27.8299 51.8603 28.0175 51.8603H28.2237C28.489 51.8603 28.638 51.8362 28.727 51.7799C28.8129 51.7263 28.846 51.6368 28.8796 51.5046L28.9092 51.3865L28.9142 51.3656H28.9364H29.06H29.0895L29.0877 51.3952L29.0468 52.1079L29.0454 52.1342H29.0186H26.6689H26.6402V52.106V51.9879V51.9598H26.6689C26.856 51.9598 26.9655 51.9375 27.0259 51.8489C27.089 51.7563 27.1058 51.5882 27.1058 51.3002ZM24.4599 51.0181H25.1517L24.8056 50.2164L24.4599 51.0181ZM25.2703 51.292H24.3413L24.2305 51.5473C24.1601 51.7118 24.1247 51.8172 24.1583 51.8748C24.1919 51.9339 24.3014 51.9552 24.5226 51.9552H24.5507V51.9834V52.107V52.1351H24.5226H23.4201H23.392V52.107V51.9834V51.9552H23.4201C23.5923 51.9552 23.68 51.9389 23.7558 51.8712C23.8339 51.8026 23.8948 51.6759 23.9902 51.4597L24.856 49.4451L24.8633 49.4274H24.8819H24.9645H24.9832L24.9904 49.4451L25.8562 51.4597C25.9516 51.6763 26.0166 51.8026 26.0938 51.8721C26.1683 51.9384 26.2587 51.9552 26.4077 51.9552H26.4027V51.9834V52.107V52.1351H26.4077H25.0881H25.0599V52.107V51.9834V51.9552H25.0881C25.2898 51.9552 25.3993 51.933 25.4379 51.8739C25.4765 51.8153 25.4501 51.7113 25.3806 51.5473L25.2703 51.292ZM24.2941 48.573V48.6965V48.7243H24.2659C23.8067 48.7243 23.769 48.811 23.6032 49.1912L23.5909 49.2198L22.3059 52.2191L22.2986 52.235H22.28H22.2032H22.1846L22.1773 52.2191L20.8759 49.2198L20.8637 49.1912C20.6979 48.811 20.6602 48.7243 20.2 48.7243H20.1714V48.6965V48.573V48.5444H20.2H21.8321H21.8607V48.573V48.6965V48.7243H21.8321C21.5955 48.7243 21.4515 48.7529 21.386 48.8178V48.8187C21.3247 48.8801 21.3334 48.9814 21.3988 49.1322L22.374 51.3647L23.3379 49.1322C23.4038 48.985 23.4124 48.8823 23.3502 48.8206C23.2848 48.7538 23.1412 48.7238 22.9046 48.7238H22.876V48.6961V48.5725V48.5439H22.9046H24.2659H24.2941V48.573ZM17.8743 51.8603H17.9452C18.2077 51.8603 18.3558 51.8371 18.4462 51.7799C18.533 51.7254 18.5675 51.6368 18.6011 51.5046L18.6306 51.3865L18.6361 51.3656H18.6579H18.776H18.8055L18.8037 51.3952L18.7569 52.1079L18.7551 52.1342H18.7287H16.5257H16.4975V52.106V51.9879V51.9598H16.5257C16.7133 51.9598 16.8228 51.9375 16.8832 51.8489C16.9468 51.7554 16.9631 51.5873 16.9631 51.2993V50.3568C16.9631 50.0674 16.9468 49.9012 16.8832 49.8099C16.8232 49.7231 16.7133 49.7018 16.5257 49.7018H16.4975V49.6732V49.5555V49.5273H16.5257H17.8275H18.587H18.6134L18.6152 49.5537L18.6624 50.2605L18.6642 50.2905H18.6343H18.5107H18.4885L18.4835 50.2691L18.4544 50.151C18.4235 50.0225 18.3903 49.9334 18.3045 49.878C18.2155 49.8203 18.0665 49.7953 17.8044 49.7953H17.4378V50.6171H17.4451C17.7326 50.6171 17.8875 50.6012 17.9665 50.538C18.0424 50.479 18.0524 50.3681 18.0524 50.1801V50.151H18.081H18.1986H18.2273V50.1801V51.3279V51.3561H18.1986H18.081H18.0524V51.3279C18.0524 51.1426 18.0424 51.0318 17.9661 50.9718C17.887 50.9091 17.7321 50.8905 17.4446 50.8905H17.4373V51.2039C17.4373 51.4924 17.4542 51.6595 17.5173 51.7513C17.5772 51.839 17.6872 51.8603 17.8743 51.8603ZM14.4875 52.1347H13.2388H13.2106V52.1065V51.9884V51.9602H13.2388C13.4264 51.9602 13.5359 51.938 13.5963 51.8494C13.6594 51.7558 13.6758 51.5878 13.6758 51.2998V50.3572C13.6758 50.0679 13.6594 49.9016 13.5963 49.8103C13.5363 49.7236 13.4264 49.7022 13.2388 49.7022H13.2106V49.6736V49.556V49.5278H13.2388H14.4875H14.4889C14.9967 49.5278 15.3619 49.675 15.6013 49.9107C15.8407 50.1478 15.9524 50.4731 15.9529 50.8274V50.8283V50.8305C15.9529 51.1871 15.8407 51.5133 15.6018 51.7504C15.3628 51.9866 14.9967 52.1347 14.4889 52.1347H14.4875ZM15.2388 51.5196C15.3706 51.3189 15.4078 51.0595 15.4078 50.8283V50.8251C15.4078 50.5984 15.3696 50.3404 15.2384 50.1392C15.1076 49.9398 14.8832 49.7972 14.507 49.7963H14.5052H14.1505V51.4406C14.1505 51.6255 14.16 51.734 14.2023 51.7917C14.2427 51.8462 14.3204 51.8598 14.458 51.8598H14.5052C14.8827 51.8603 15.108 51.7186 15.2388 51.5196ZM45.6066 45.4419V45.4406V45.4388C45.6066 45.1903 45.543 44.91 45.3953 44.6916C45.2486 44.4758 45.0179 44.3209 44.6822 44.32H44.6813H44.6799C44.3447 44.3209 44.1135 44.4762 43.9672 44.6906C43.8191 44.9096 43.7555 45.1917 43.7555 45.4392V45.4401V45.4424C43.7555 45.6931 43.8191 45.9734 43.9672 46.1905C44.1135 46.4058 44.3447 46.5598 44.6804 46.5598H44.6817H44.6826C45.0183 46.5598 45.2491 46.4063 45.3958 46.1905C45.543 45.9739 45.6066 45.6927 45.6066 45.4419ZM46.1462 45.4397V45.4406V45.4419C46.1457 45.8294 45.9804 46.1805 45.7151 46.4354C45.4494 46.6902 45.0828 46.8478 44.6813 46.8478H44.6808H44.6794C44.2784 46.8478 43.9127 46.6897 43.647 46.4354C43.3817 46.1805 43.2159 45.8285 43.2159 45.441V45.4401C43.2159 45.0581 43.3812 44.7093 43.6465 44.4544C43.9122 44.1992 44.2788 44.0402 44.6804 44.0402H44.6813H44.6822C45.0833 44.0402 45.4494 44.1996 45.7147 44.4535C45.9799 44.7074 46.1457 45.059 46.1462 45.4397ZM41.1409 46.747H39.8922H39.8636V46.7188V46.6007V46.5725H39.8922C40.0798 46.5725 40.1893 46.5494 40.2497 46.4608C40.3128 46.3681 40.3297 46.2005 40.3297 45.9112V44.9691C40.3297 44.6806 40.3128 44.5144 40.2502 44.4231C40.1897 44.3354 40.0798 44.3141 39.8922 44.3141H39.8636V44.2859V44.1683V44.1401H39.8922H41.1409H41.1423C41.6501 44.1401 42.0153 44.2873 42.2538 44.523C42.4941 44.7592 42.6054 45.0854 42.6058 45.4397V45.4406V45.4419C42.6054 45.7994 42.4936 46.1256 42.2543 46.3627C42.0153 46.5989 41.6497 46.747 41.1414 46.747H41.1409ZM41.8918 46.1324C42.024 45.9321 42.0608 45.6713 42.0608 45.441V45.4383C42.0603 45.2103 42.0231 44.9523 41.8913 44.7511C41.761 44.5521 41.5361 44.409 41.1605 44.409H41.1582H40.8034V46.0533C40.8034 46.2382 40.813 46.3468 40.8557 46.4045C40.8956 46.4581 40.9733 46.4726 41.1114 46.4726H41.1586C41.5361 46.4731 41.7614 46.3309 41.8918 46.1324ZM37.6614 45.6305H38.3533L38.0076 44.8278L37.6614 45.6305ZM38.4714 45.9048H37.5424L37.4321 46.1587C37.3621 46.3245 37.3262 46.4299 37.3598 46.4876C37.3934 46.5457 37.5029 46.5671 37.7241 46.5671H37.7523V46.5957V46.7193V46.7474H37.7241H36.6112H36.5826V46.7193V46.5957V46.5671H36.6112C36.7834 46.5671 36.882 46.5516 36.9578 46.484C37.036 46.4145 37.0968 46.2886 37.1922 46.072L38.058 44.0579L38.0653 44.0402H38.0839H38.1666H38.1852L38.1925 44.0579L39.0587 46.072C39.1541 46.2891 39.219 46.4145 39.2958 46.484C39.3703 46.5512 39.4611 46.568 39.6097 46.568H39.6378V46.5962V46.7197V46.7479H39.6097H38.2901H38.262V46.7197V46.5962V46.5675H38.2901C38.4918 46.5675 38.6013 46.5462 38.6399 46.4871C38.6785 46.4286 38.6517 46.3245 38.5826 46.1592H38.5822L38.4714 45.9048ZM36.2388 45.6936V46.7193V46.7474H36.2102H36.0984H36.0762L36.0712 46.7252C36.0548 46.6507 36.0294 46.5589 36.0017 46.4994C35.9985 46.4903 35.9939 46.4831 35.9903 46.4762C35.9181 46.5589 35.8259 46.6334 35.7241 46.6938C35.7028 46.7075 35.6801 46.7206 35.6569 46.732C35.5161 46.8037 35.3616 46.8483 35.2158 46.8483H35.2154H35.214C34.8388 46.8483 34.499 46.6902 34.2533 46.4358C34.008 46.181 33.8558 45.829 33.8558 45.4424V45.441V45.4401C33.8558 45.059 34.008 44.7093 34.2533 44.4553C34.4986 44.2001 34.8393 44.0402 35.2149 44.0402H35.2154C35.4243 44.0402 35.6523 44.1278 35.8309 44.2623C35.8658 44.2891 35.899 44.3173 35.9294 44.3463C35.9508 44.3668 35.9708 44.3881 35.9898 44.4104C36.0017 44.3872 36.0144 44.3559 36.0257 44.3227C36.0439 44.2682 36.0603 44.2087 36.0716 44.1624L36.0771 44.141H36.0989H36.2106H36.2392V44.1692V45.1876V45.2166H36.2106H36.093H36.0698L36.0653 45.1935C35.9889 44.8201 35.8186 44.5421 35.5738 44.409C35.5265 44.3822 35.4766 44.3622 35.4239 44.3477C35.3589 44.3295 35.2899 44.32 35.2167 44.32H35.2149H35.2131C34.8969 44.3209 34.6912 44.4781 34.5649 44.6934C34.4368 44.9146 34.3891 45.1962 34.3887 45.4397V45.4406V45.4429C34.3891 45.6886 34.4368 45.9693 34.5644 46.1883C34.6907 46.4049 34.896 46.5607 35.2131 46.5607H35.2149C35.5288 46.5607 35.7736 46.3872 35.9267 46.092C35.9562 46.0347 35.9835 45.972 36.0062 45.9048C36.0294 45.8371 36.0489 45.7658 36.0643 45.6909L36.0648 45.6886L36.0693 45.6654H36.0925H36.2102H36.2383L36.2388 45.6936ZM32.5985 45.5991C32.5558 45.6123 32.5113 45.6232 32.4649 45.6314L32.7988 46.0347C32.9151 46.1719 33.0405 46.2973 33.1708 46.3927C33.2998 46.4871 33.4343 46.553 33.5706 46.573L33.5946 46.5766V46.6012V46.7193V46.7474H33.5665H32.8124H32.7984L32.7897 46.7356L31.9975 45.6514H31.8749V45.9121C31.8749 46.2014 31.8917 46.369 31.9548 46.4617C32.0148 46.5503 32.1247 46.5734 32.3123 46.5734L32.3405 46.5725V46.6012V46.7193V46.7474H32.3123H30.9632H30.9351V46.7193V46.6012V46.573H30.9632C31.1508 46.573 31.2603 46.5498 31.3207 46.4613C31.3839 46.3686 31.4007 46.201 31.4007 45.9116V44.9691C31.4007 44.6806 31.3839 44.5144 31.3207 44.4231C31.2608 44.3354 31.1508 44.3141 30.9632 44.3141H30.9351V44.2859V44.1683V44.1401H30.9632H32.1829H32.1847C32.4936 44.1401 32.7348 44.2201 32.8987 44.3541C33.0655 44.4903 33.1531 44.6807 33.1531 44.8969V44.8978C33.1531 45.1662 33.0078 45.4006 32.7561 45.5328C32.7071 45.5596 32.6544 45.5819 32.5985 45.5991ZM32.6367 44.9V44.8982V44.8964C32.6367 44.7624 32.5999 44.6402 32.5254 44.5512C32.4513 44.4635 32.3378 44.409 32.1824 44.409H32.1815H31.874V45.3774H32.1815H32.1824C32.3378 45.3774 32.4509 45.3229 32.5249 45.2375C32.6003 45.1517 32.6367 45.0304 32.6367 44.9ZM29.5133 46.4731H29.5842C29.8463 46.4731 29.9948 46.449 30.0852 46.3927C30.1719 46.3382 30.2065 46.2487 30.2401 46.1174L30.2696 45.9993L30.2751 45.9784H30.2969H30.4145H30.4445L30.4427 46.0079L30.3959 46.7206L30.3941 46.747H30.3677H28.1647H28.1365V46.7188V46.6007V46.5725H28.1647C28.3523 46.5725 28.4622 46.5494 28.5222 46.4608C28.5857 46.3681 28.6021 46.2005 28.6021 45.9112V44.9691C28.6021 44.6806 28.5857 44.5144 28.5226 44.4231C28.4626 44.3354 28.3527 44.3141 28.1651 44.3141H28.137V44.2859V44.1683V44.1401H28.1651H29.467H30.2269H30.2533L30.2546 44.1665L30.3019 44.8732L30.3032 44.9032H30.2732H30.1501H30.1279L30.1224 44.8819L30.0929 44.7642V44.7629C30.0625 44.6352 30.0293 44.5453 29.9435 44.4899C29.854 44.4331 29.7054 44.4081 29.4429 44.4081H29.0763V45.2289H29.0836C29.3716 45.2289 29.526 45.2126 29.6051 45.1508C29.6809 45.0908 29.6909 44.9809 29.6909 44.7919V44.7647H29.7195H29.8372H29.8658V44.7928V45.9416V45.9698H29.8372H29.7195H29.6909V45.9416C29.6909 45.7554 29.6805 45.6454 29.6051 45.5846C29.5256 45.5214 29.3711 45.5042 29.0836 45.5042H29.0763V45.8176C29.0763 46.106 29.0931 46.2723 29.1558 46.3636C29.2162 46.4517 29.3262 46.4731 29.5133 46.4731ZM25.3175 46.831L24.0638 43.9448V45.9057C24.0638 46.1942 24.0815 46.3613 24.1569 46.454C24.2305 46.5444 24.3659 46.5666 24.6012 46.5666H24.6293V46.5953V46.7188V46.747H24.6012H23.258H23.2298V46.7188V46.5953V46.5666H23.258C23.4933 46.5666 23.6273 46.5444 23.699 46.454C23.7726 46.3622 23.7894 46.1942 23.7894 45.9057V43.992C23.7894 43.7031 23.7726 43.5378 23.699 43.4469C23.6273 43.3584 23.4933 43.337 23.258 43.337H23.2298V43.3084V43.1853V43.1567H23.258H24.2596H24.2782L24.2859 43.173L25.5087 45.9829L26.7256 43.174L26.7334 43.1567H26.752H27.6768H27.705V43.1848V43.3079V43.3366H27.6768C27.4383 43.3366 27.303 43.3579 27.2307 43.4465C27.1558 43.5373 27.1394 43.7027 27.1394 43.9916V45.9053C27.1394 46.1937 27.1563 46.3609 27.2307 46.4535C27.3034 46.5439 27.4388 46.5671 27.6768 46.5671H27.705V46.5953V46.7188V46.747H27.6768H26.0865H26.0584V46.7188V46.5953V46.5666H26.0865C26.3223 46.5666 26.4558 46.5444 26.5276 46.454C26.6012 46.3622 26.6175 46.1942 26.6175 45.9057V44.121L25.4465 46.831L25.4388 46.8478H25.4206H25.3443H25.3257L25.3175 46.831ZM19.7608 45.9121V44.9691C19.7608 44.6806 19.744 44.5144 19.6808 44.4231C19.6204 44.3354 19.5105 44.3141 19.3233 44.3141H19.2952V44.2859V44.1683V44.1401H19.3233H20.672H20.7001V44.1683V44.2859V44.3141H20.672C20.4844 44.3141 20.3745 44.3354 20.3145 44.4231C20.2514 44.5144 20.235 44.6806 20.235 44.9691V45.8176C20.235 46.106 20.2518 46.2723 20.3145 46.3636C20.3745 46.4513 20.4844 46.4726 20.672 46.4726H20.8782C21.1435 46.4726 21.2925 46.4485 21.3815 46.3922C21.4674 46.3377 21.5001 46.2482 21.5341 46.1169L21.5632 45.9988L21.5687 45.9779H21.5905H21.714H21.7435L21.7422 46.0075L21.7008 46.7193L21.6995 46.7465H21.6731H19.3229H19.2947V46.7183V46.6003V46.5716L19.3229 46.5725C19.51 46.5725 19.62 46.5494 19.6799 46.4608C19.744 46.3686 19.7608 46.201 19.7608 45.9121ZM17.8743 46.4731H17.9452C18.2077 46.4731 18.3558 46.449 18.4462 46.3927C18.533 46.3382 18.5675 46.2487 18.6011 46.1174L18.6306 45.9993L18.6361 45.9784H18.6579H18.776H18.8055L18.8037 46.0079L18.7569 46.7206L18.7551 46.747H18.7287H16.5257H16.4975V46.7188V46.6007V46.5725H16.5257C16.7133 46.5725 16.8228 46.5494 16.8832 46.4608C16.9468 46.3681 16.9631 46.2005 16.9631 45.9112V44.9691C16.9631 44.6806 16.9468 44.5144 16.8832 44.4231C16.8232 44.3354 16.7133 44.3141 16.5257 44.3141H16.4975V44.2859V44.1683V44.1401H16.5257H17.8275H18.587H18.6134L18.6152 44.1665L18.6624 44.8732L18.6642 44.9032H18.6343H18.5107H18.4885L18.4835 44.8819L18.4539 44.7647V44.7633C18.423 44.6357 18.3899 44.5462 18.304 44.4903C18.215 44.4335 18.066 44.4086 17.8039 44.4086H17.4373V45.2294H17.4446C17.7321 45.2294 17.887 45.213 17.9661 45.1512C18.0419 45.0913 18.0519 44.9814 18.0519 44.7924V44.7647H18.0805H18.1982H18.2268V44.7928V45.9416V45.9698H18.1982H18.0805H18.0519V45.9416C18.0519 45.7554 18.0415 45.6454 17.9656 45.5846C17.8866 45.5214 17.7317 45.5042 17.4442 45.5042H17.4369V45.8176C17.4369 46.106 17.4537 46.2723 17.5168 46.3636C17.5772 46.4517 17.6872 46.4731 17.8743 46.4731ZM14.4875 46.747H13.2388H13.2106V46.7188V46.6007V46.5725H13.2388C13.4264 46.5725 13.5359 46.5494 13.5963 46.4608C13.6594 46.3681 13.6758 46.2005 13.6758 45.9112V44.9691C13.6758 44.6806 13.6594 44.5144 13.5963 44.4231C13.5363 44.3354 13.4264 44.3141 13.2388 44.3141H13.2106V44.2859V44.1683V44.1401H13.2388H14.4875H14.4889C14.9967 44.1401 15.3619 44.2873 15.6013 44.523C15.8407 44.7592 15.9524 45.0854 15.9529 45.4397V45.4406V45.4419C15.9529 45.7994 15.8407 46.1256 15.6018 46.3627C15.3628 46.5989 14.9967 46.747 14.4889 46.747H14.4875ZM15.2388 46.1324C15.3706 45.9321 15.4078 45.6713 15.4078 45.441V45.4383C15.4078 45.2103 15.3696 44.9523 15.2384 44.7511C15.1076 44.5521 14.8832 44.409 14.507 44.409H14.5052H14.1505V46.0533C14.1505 46.2382 14.16 46.3468 14.2023 46.4045C14.2427 46.4581 14.3204 46.4726 14.458 46.4726H14.5052C14.8827 46.4731 15.108 46.3309 15.2388 46.1324ZM35.7586 40.5244V39.5819C35.7586 39.2934 35.7418 39.1263 35.6791 39.0345C35.6187 38.9477 35.5088 38.9268 35.3217 38.9268H35.293V38.8987V38.781V38.7524H35.3217H36.6703H36.6985V38.781V38.8987V38.9268H36.6703C36.4827 38.9268 36.3728 38.9477 36.3128 39.0345C36.2497 39.1263 36.2329 39.2934 36.2329 39.5819V40.4295C36.2329 40.7188 36.2497 40.8851 36.3128 40.9764C36.3728 41.0631 36.4832 41.0845 36.6703 41.0845H36.8765V41.0854C37.1418 41.0854 37.2908 41.0613 37.3798 41.0041C37.4657 40.9505 37.4988 40.861 37.5324 40.7297L37.5615 40.6121L37.567 40.5898H37.5892H37.7128H37.7423L37.7409 40.6193L37.7001 41.332L37.6982 41.3593H37.6714H35.3217H35.293V41.3311V41.2121V41.1839H35.3217C35.5088 41.1839 35.6187 41.1617 35.6791 41.0731C35.7418 40.9814 35.7586 40.8124 35.7586 40.5244ZM33.0904 40.2423H33.7822L33.4361 39.4406L33.0904 40.2423ZM33.9008 40.5176H32.9719L32.8615 40.7715C32.7915 40.9364 32.7561 41.0427 32.7893 41.1004C32.8229 41.1585 32.9324 41.1799 33.154 41.1799H33.1822V41.208V41.3325V41.3606H33.154H32.0402H32.0121V41.3325V41.208V41.1799H32.0402C32.2128 41.1799 32.3114 41.1635 32.3873 41.0967C32.4654 41.0272 32.5263 40.9014 32.6217 40.6838L33.4874 38.6693L33.4952 38.6529H33.5138H33.596H33.6146L33.6219 38.6693L34.4877 40.6838C34.5831 40.9014 34.6485 41.0272 34.7252 41.0967C34.7997 41.163 34.8901 41.1799 35.0391 41.1799H35.0673V41.208V41.3325V41.3606H35.0391H33.7191H33.6909L33.6914 41.3325V41.208V41.1799H33.7191C33.9208 41.1799 34.0303 41.1585 34.0693 41.0985C34.1075 41.04 34.0811 40.9368 34.0121 40.7715L33.9008 40.5176ZM29.3616 40.5244V39.5819C29.3616 39.2934 29.3448 39.1263 29.2821 39.0345C29.2217 38.9477 29.1122 38.9268 28.9246 38.9268H28.896V38.8987V38.781V38.7524H28.9246H29.6491H29.6618L29.6705 38.7624L31.1876 40.5644V39.5819C31.1876 39.2934 31.1708 39.1263 31.1077 39.0345C31.0477 38.9477 30.9378 38.9268 30.7502 38.9268H30.7216V38.8987V38.781V38.7524H30.7502H31.8985H31.9267V38.781V38.8987V38.9268H31.8985C31.7109 38.9268 31.601 38.9477 31.541 39.0345C31.4779 39.1263 31.4615 39.2934 31.4615 39.5819V41.4265V41.4551H31.4329H31.3207H31.3075L31.2989 41.4447L29.6346 39.4479V40.5244C29.6346 40.8124 29.6518 40.9814 29.7145 41.074C29.7749 41.1626 29.8844 41.1848 30.072 41.1848H30.1002V41.213V41.332V41.3602H30.072H28.9237H28.8951V41.332V41.213V41.1848H28.9237C29.1113 41.1848 29.2208 41.1626 29.2812 41.074C29.3452 40.9814 29.3616 40.8124 29.3616 40.5244ZM27.8067 40.0533V40.0524V40.0515C27.8067 39.8035 27.7431 39.5228 27.595 39.3043C27.4488 39.0876 27.2176 38.9323 26.8823 38.9323H26.881H26.8796C26.5439 38.9323 26.3132 39.0881 26.1669 39.3034C26.0184 39.5223 25.9548 39.8035 25.9548 40.0511V40.052V40.0543C25.9548 40.305 26.0184 40.5853 26.166 40.8033C26.3127 41.0186 26.5435 41.1726 26.8796 41.1726H26.881H26.8823C27.218 41.1726 27.4488 41.0181 27.595 40.8033C27.7431 40.5857 27.8063 40.3055 27.8067 40.0533ZM28.3455 40.0524V40.0547C28.3455 40.4413 28.1801 40.7933 27.9148 41.0481C27.6491 41.302 27.283 41.4597 26.881 41.4597V41.4606H26.8805H26.8792V41.4597C26.4781 41.4597 26.112 41.3025 25.8467 41.0481C25.5809 40.7933 25.4156 40.4413 25.4152 40.0538V40.0529V40.052C25.4156 39.6709 25.5805 39.3207 25.8462 39.0672C26.1115 38.8119 26.4781 38.6529 26.8796 38.6529H26.8801H26.881C27.2825 38.6529 27.6482 38.8124 27.9139 39.0663C28.1806 39.3202 28.3455 39.6704 28.3455 40.0524ZM24.8592 41.213V41.332V41.3602H24.8305H23.4819H23.4533V41.332V41.213V41.1848H23.4819C23.6695 41.1848 23.7794 41.1626 23.8398 41.074C23.9025 40.9814 23.9193 40.8124 23.9193 40.5244V39.5819C23.9193 39.2934 23.9025 39.1263 23.8398 39.0345C23.7799 38.9477 23.6695 38.9268 23.4819 38.9268H23.4533V38.8987V38.781V38.7524H23.4819H24.8305H24.8592V38.781V38.8987V38.9268H24.8305C24.6429 38.9268 24.5335 38.9477 24.4731 39.0345C24.4099 39.1263 24.3931 39.2934 24.3931 39.5819V40.5244C24.3931 40.8124 24.4099 40.9814 24.4731 41.074C24.5335 41.1626 24.6434 41.1848 24.8305 41.1848H24.8592V41.213ZM22.856 40.3064V41.332V41.3602H22.8283H22.7161H22.6938L22.6888 41.3379C22.672 41.2634 22.647 41.1717 22.6193 41.1113C22.6157 41.1031 22.612 41.0958 22.608 41.0876C22.5353 41.1708 22.4435 41.2462 22.3413 41.3061C22.32 41.3189 22.2973 41.3329 22.2741 41.3438C22.1333 41.4151 21.9788 41.4597 21.833 41.4597V41.4606H21.8321H21.8312V41.4597C21.4555 41.4597 21.1158 41.3016 20.8705 41.0472C20.6252 40.7924 20.473 40.4413 20.473 40.0533V40.0524V40.0515C20.473 39.6704 20.6252 39.3211 20.87 39.0668C21.1158 38.8115 21.456 38.6525 21.8317 38.6525H21.8321C22.0415 38.6525 22.2691 38.7392 22.4481 38.8746C22.483 38.9005 22.5157 38.9287 22.5466 38.9586C22.5675 38.9791 22.5875 39.0004 22.6066 39.0218C22.6189 38.9982 22.6311 38.9673 22.6425 38.9341C22.6606 38.8805 22.6765 38.821 22.6884 38.7747L22.6938 38.7524H22.7156H22.8283H22.8564V38.781V39.7994V39.828H22.8283H22.7106H22.6874L22.6829 39.8058C22.6066 39.4324 22.4367 39.1544 22.1914 39.0213C22.1442 38.9945 22.0938 38.9745 22.0411 38.96C21.9761 38.9418 21.9071 38.9318 21.8339 38.9318H21.8321H21.8307C21.5141 38.9332 21.3084 39.0904 21.1825 39.3057C21.0545 39.526 21.0063 39.8076 21.0063 40.0511V40.052V40.0552C21.0063 40.3 21.054 40.5812 21.1821 40.8006C21.3079 41.0172 21.5132 41.173 21.8307 41.173H21.8321C22.1469 41.173 22.3913 40.9991 22.5444 40.7043C22.5739 40.6461 22.6011 40.5834 22.6238 40.5171C22.647 40.4485 22.6665 40.3772 22.6815 40.3027L22.682 40.3L22.6865 40.2777H22.7097H22.8283H22.8564V40.3064H22.856ZM18.3058 40.2423H18.9977L18.6515 39.4406L18.3058 40.2423ZM19.1167 40.5176H18.1877L18.0774 40.7715C18.0074 40.9364 17.972 41.0427 18.0051 41.1004C18.0392 41.1585 18.1487 41.1799 18.3699 41.1799H18.3985V41.208V41.3325V41.3606H18.3704H17.257H17.2275L17.2279 41.3325V41.208V41.1799H17.2556C17.4283 41.1799 17.5264 41.1635 17.6022 41.0967C17.6804 41.0272 17.7412 40.9014 17.8366 40.6838L18.7024 38.6693L18.7097 38.6529H18.7287H18.811H18.83L18.8373 38.6693L19.7031 40.6838C19.7985 40.9014 19.8639 41.0272 19.9402 41.0967C20.0147 41.163 20.1055 41.1799 20.2541 41.1799H20.2822V41.208V41.3325V41.3606H20.2541H18.9345H18.9059V41.3325V41.208V41.1799H18.9345C19.1362 41.1799 19.2457 41.1585 19.2847 41.0985C19.3229 41.04 19.2965 40.9368 19.2275 40.7715L19.1167 40.5176ZM14.0442 37.7785L16.2559 40.5208V38.6034C16.2559 38.3154 16.2395 38.1501 16.1659 38.0593C16.0937 37.9707 15.9602 37.9484 15.7244 37.9484H15.6962V37.9203V37.7967V37.7695H15.7244H17.0676H17.0958V37.7972V37.9207V37.9489H17.0676C16.8318 37.9489 16.6969 37.9711 16.6229 38.0597C16.5479 38.1506 16.5298 38.3159 16.5298 38.6039V41.432V41.4606H16.5012H16.3658H16.3526L16.3435 41.4506L13.9965 38.548V40.5185C13.9965 40.806 14.0146 40.9741 14.0896 41.0668C14.1632 41.1562 14.2985 41.1794 14.5343 41.1794H14.5625V41.2076V41.332V41.3602H14.5343H13.1911H13.1625V41.332V41.2076V41.1794H13.1911C13.4264 41.1794 13.5604 41.1562 13.6322 41.0668C13.7058 40.9741 13.7226 40.806 13.7226 40.5185V38.6039C13.7226 38.3159 13.7062 38.1506 13.6326 38.0597C13.5604 37.9711 13.4264 37.9489 13.1911 37.9489H13.163V37.9207V37.7967V37.7695H13.1911H14.0215H14.0346L14.0442 37.7785ZM34.9751 35.1372V34.1946C34.9751 33.9048 34.9583 33.739 34.8951 33.6473C34.8352 33.5605 34.7252 33.5396 34.5376 33.5396H34.509V33.511V33.3933V33.3652H34.5376H35.2622H35.2749L35.2831 33.3747L36.8007 35.1776V34.1946C36.8007 33.9048 36.7839 33.739 36.7207 33.6473C36.6603 33.5605 36.5504 33.5396 36.3632 33.5396H36.3351V33.511V33.3933V33.3652H36.3632H37.512H37.5402V33.3933V33.511V33.5396H37.512C37.3239 33.5396 37.2149 33.5605 37.1541 33.6473C37.0914 33.739 37.0746 33.9048 37.0746 34.1946V36.0388V36.0665H37.0464H36.9342H36.9206L36.9124 36.057L35.2476 34.0597V35.1372C35.2476 35.4256 35.2644 35.5932 35.3276 35.6868C35.3875 35.7744 35.4974 35.7976 35.6851 35.7976H35.7132V35.8258V35.9439V35.9716H35.6851H34.5367H34.5081V35.9434V35.8253V35.7972H34.5367C34.7243 35.7972 34.8338 35.774 34.8942 35.6863C34.9583 35.5932 34.9751 35.4256 34.9751 35.1372ZM33.4202 34.6661V34.6652V34.6634C33.4202 34.4149 33.3562 34.1347 33.2085 33.9162C33.0623 33.7004 32.8311 33.5451 32.4954 33.5451H32.494H32.4931C32.1574 33.5451 31.9267 33.7009 31.78 33.9162C31.6319 34.1342 31.5678 34.4163 31.5678 34.6638V34.6648V34.6666C31.5683 34.9178 31.6319 35.198 31.7795 35.4151C31.9258 35.6314 32.157 35.7844 32.4927 35.7854H32.4936H32.4949C32.8306 35.7844 33.0614 35.6309 33.2081 35.4161C33.3566 35.1985 33.4198 34.9169 33.4202 34.6661ZM33.9594 34.6652V34.6661C33.9589 35.054 33.7941 35.4052 33.5283 35.66C33.263 35.9148 32.8969 36.0724 32.4949 36.0724H32.4945H32.4936C32.092 36.0724 31.7264 35.9144 31.4611 35.6609C31.1954 35.4061 31.0296 35.054 31.0296 34.6666V34.6657V34.6648C31.0296 34.2836 31.1949 33.9334 31.4611 33.6791C31.7259 33.4247 32.0925 33.2648 32.4945 33.2648H32.4949H32.4963C32.8978 33.2657 33.2635 33.4251 33.5288 33.6791C33.7941 33.9321 33.9589 34.2832 33.9594 34.6652ZM33.1527 32.4263V32.4272C33.1527 32.5003 33.1018 32.5594 33.0536 32.5957C33.045 32.603 33.0355 32.6084 33.0264 32.6139C33.0182 32.6202 33.01 32.6248 33.0028 32.6275L33.0019 32.6284L33.0005 32.6298L32.1938 32.9768L32.1729 32.9859L32.1602 32.9677L32.1306 32.9259L32.1165 32.9064L32.1347 32.8896L32.6825 32.3772L32.683 32.3763L32.6866 32.3736C32.7893 32.2827 32.8515 32.2278 32.9605 32.2278H32.9614V32.2287C33.0268 32.2287 33.075 32.2573 33.1068 32.2968C33.1368 32.3354 33.1522 32.3854 33.1527 32.4263ZM30.4727 35.8253V35.9434V35.9711H30.444H29.0954H29.0672V35.9434V35.8253V35.7972H29.0954C29.283 35.7972 29.3929 35.774 29.4529 35.6863C29.5165 35.5928 29.5328 35.4251 29.5328 35.1367V34.1946C29.5328 33.9048 29.516 33.739 29.4529 33.6473C29.3929 33.5605 29.283 33.5396 29.0954 33.5396H29.0672V33.511V33.3933V33.3652H29.0954H30.444H30.4727V33.3933V33.511V33.5396H30.444C30.2569 33.5396 30.147 33.5605 30.0866 33.6473C30.0239 33.739 30.0066 33.9048 30.0066 34.1946H30.0071V35.1372H30.0066C30.0066 35.4256 30.0239 35.5932 30.0866 35.6868C30.147 35.7744 30.2569 35.7976 30.444 35.7976H30.4727V35.8253ZM28.5876 35.2362V35.238C28.5876 35.4869 28.4881 35.6959 28.3309 35.8421C28.1733 35.9888 27.9575 36.0724 27.7241 36.0724H27.7236C27.5664 36.0724 27.4243 36.0352 27.3084 35.9879C27.2067 35.9471 27.1245 35.898 27.0695 35.8626C27.0554 35.8807 27.0404 35.9021 27.0259 35.9271C27.0059 35.9607 26.9882 36.0034 26.98 36.0497L26.9755 36.0729H26.9523H26.8465H26.8178V36.0447V35.0304V35.0018H26.8465H26.9641H26.9895L26.9923 35.0281C27.0245 35.3761 27.1917 35.6146 27.4402 35.7213C27.4883 35.7427 27.5401 35.7576 27.5946 35.7685C27.6496 35.7794 27.7072 35.7858 27.7667 35.7858H27.7713H27.7731C27.8926 35.7849 27.9989 35.7517 28.0752 35.6891C28.1506 35.6273 28.1965 35.5364 28.1969 35.4197V35.4188C28.1969 35.3234 28.1583 35.2384 28.0824 35.159C28.0039 35.0754 27.8853 34.9977 27.7295 34.9196H27.729L27.3284 34.7134C27.1667 34.6289 27.0291 34.5144 26.9387 34.3709C26.921 34.3422 26.9051 34.3127 26.8914 34.2823C26.8487 34.1892 26.8251 34.0851 26.8247 33.9716V33.9702V33.9684C26.8247 33.7754 26.906 33.6005 27.0422 33.4747C27.1781 33.3484 27.3688 33.2712 27.5882 33.2702H27.5887C27.7713 33.2702 27.923 33.3175 28.0411 33.3765C28.0643 33.3893 28.0861 33.4011 28.1065 33.4138C28.1192 33.4215 28.1311 33.4292 28.1429 33.437C28.1688 33.4052 28.1996 33.3597 28.2087 33.2889L28.2114 33.2639H28.2364H28.3545H28.3832V33.292V34.2877V34.3164H28.3545H28.2364H28.211L28.2087 34.29C28.1842 34.0443 28.0983 33.7667 27.9026 33.6295C27.8649 33.6027 27.8235 33.5823 27.7772 33.5678C27.7304 33.5532 27.6795 33.5442 27.6237 33.5442H27.6178H27.6159C27.5078 33.5442 27.4084 33.5728 27.3366 33.6273C27.2662 33.6804 27.2221 33.7572 27.2221 33.8571V33.8585C27.2221 33.953 27.2575 34.0261 27.3348 34.0974C27.4156 34.1728 27.5424 34.2459 27.7195 34.3395L28.1142 34.5457C28.2582 34.6193 28.365 34.7097 28.4399 34.8074C28.4545 34.8265 28.4676 34.846 28.4804 34.8664C28.5549 34.9873 28.5871 35.1167 28.5876 35.2362ZM26.2314 35.8253V35.9434V35.9711H26.2033H24.8542H24.826V35.9434V35.8253V35.7972H24.8542C25.0418 35.7972 25.1517 35.774 25.2117 35.6863C25.2748 35.5928 25.2911 35.4251 25.2911 35.1367V34.1946C25.2911 33.9048 25.2743 33.739 25.2117 33.6473C25.1517 33.5605 25.0418 33.5396 24.8542 33.5396H24.826V33.511V33.3933V33.3652H24.8542H26.2033H26.2314V33.3933V33.511V33.5396H26.2033C26.0157 33.5396 25.9057 33.5605 25.8458 33.6473C25.7826 33.739 25.7658 33.9048 25.7658 34.1946H25.7663V35.1372H25.7658C25.7658 35.4256 25.7831 35.5932 25.8462 35.6868C25.9062 35.7744 26.0166 35.7976 26.2037 35.7976H26.2319V35.8253H26.2314ZM22.4372 36.0561L21.5723 34.092V35.1372C21.5723 35.4256 21.5886 35.5932 21.6522 35.6868C21.7122 35.7744 21.8221 35.7976 22.0097 35.7976H22.0379V35.8258V35.9439V35.9716H22.0097H20.8614H20.8328V35.9434V35.8253V35.7972H20.8614C21.0485 35.7972 21.1585 35.774 21.2184 35.6863C21.282 35.5928 21.2984 35.4251 21.2984 35.1367V34.1946C21.2984 33.9048 21.282 33.739 21.2184 33.6473C21.1585 33.5605 21.0485 33.5396 20.8614 33.5396H20.8328V33.511V33.3933V33.3652H20.8614H21.7444H21.7626L21.7703 33.3811L22.622 35.2916L23.4683 33.3811L23.4755 33.3652H23.4942H24.3191H24.3472V33.3933V33.511V33.5396H24.3191C24.1315 33.5396 24.0202 33.5605 23.9584 33.6473C23.8939 33.739 23.8757 33.9062 23.8757 34.1946V35.1372C23.8757 35.4256 23.8944 35.5932 23.9584 35.6854C24.0202 35.7745 24.1315 35.7976 24.3191 35.7976H24.3472V35.8258V35.9439V35.9716H24.3191H22.97H22.9418V35.9434V35.8253V35.7972H22.97C23.1576 35.7972 23.2671 35.774 23.3275 35.6863C23.3906 35.5928 23.4074 35.4251 23.4074 35.1367H23.407V34.1678L22.5721 36.0556L22.5643 36.0715H22.5462H22.4635H22.4453L22.4372 36.0561ZM19.8312 34.6661V34.6652V34.6634C19.8312 34.4149 19.7671 34.1347 19.6195 33.9162C19.4728 33.7004 19.242 33.5451 18.9059 33.5451H18.905H18.9036C18.5679 33.5451 18.3372 33.7009 18.1905 33.9162C18.0424 34.1342 17.9788 34.4163 17.9788 34.6638V34.6648V34.6666C17.9793 34.9178 18.0424 35.198 18.1905 35.4151C18.3367 35.6314 18.5675 35.7844 18.9036 35.7854H18.9045H18.9054C19.2411 35.7844 19.4723 35.6309 19.6186 35.4161C19.7671 35.1985 19.8312 34.9169 19.8312 34.6661ZM20.3704 34.6652V34.6661C20.3704 35.054 20.205 35.4052 19.9393 35.66C19.674 35.9148 19.3074 36.0724 18.9054 36.0724H18.905H18.9036C18.5021 36.0724 18.1364 35.9144 17.8711 35.6609C17.6054 35.4061 17.4401 35.054 17.4396 34.6666V34.6657V34.6648C17.4396 34.2836 17.605 33.9334 17.8707 33.6791C18.136 33.4247 18.5021 33.2648 18.9041 33.2648H18.9045H18.9054C19.307 33.2657 19.6731 33.4251 19.9379 33.6791C20.2046 33.9321 20.3699 34.2832 20.3704 34.6652ZM16.6361 34.583V35.8789V35.9071H16.6079H16.4898H16.4671L16.4625 35.8848C16.4426 35.7881 16.3903 35.6913 16.3358 35.6259C16.3254 35.6127 16.3145 35.6009 16.3049 35.5918L16.2927 35.5809C16.1696 35.7054 16.0333 35.8108 15.8875 35.8907C15.8584 35.9075 15.8275 35.923 15.7966 35.9366C15.6086 36.0252 15.4055 36.0733 15.1957 36.0733H15.1948H15.1939C14.6892 36.0733 14.23 35.8594 13.8975 35.5151C13.565 35.1717 13.3587 34.6984 13.3587 34.1787H13.3583V34.1774V34.1764H13.3587C13.3587 33.6577 13.565 33.1839 13.897 32.8405C14.23 32.4971 14.6892 32.2827 15.1943 32.2823H15.1948C15.4973 32.2823 15.7839 32.379 16.0351 32.5535C16.0833 32.5871 16.131 32.6252 16.1773 32.6643C16.2163 32.6984 16.255 32.7352 16.2922 32.7733C16.3394 32.7306 16.3903 32.6643 16.4262 32.5853C16.4339 32.568 16.4412 32.5494 16.4471 32.5303C16.4535 32.5112 16.4585 32.4917 16.463 32.4726L16.4635 32.4708L16.4675 32.4472H16.4907H16.6088H16.637V32.4758V33.7717V33.7999H16.6088H16.4907H16.468L16.4635 33.7776C16.3522 33.2625 16.1091 32.8851 15.7621 32.6993C15.6953 32.6634 15.624 32.6343 15.5486 32.6134C15.446 32.5848 15.3365 32.5689 15.2207 32.5689H15.2188H15.2175C14.7582 32.5689 14.4453 32.7906 14.2472 33.1004C14.0469 33.4129 13.9629 33.8172 13.9629 34.1769V34.1778V34.1801C13.9629 34.5398 14.0474 34.9423 14.2472 35.2525C14.4453 35.561 14.7582 35.7808 15.2179 35.7817H15.2193C15.6781 35.7817 16.0365 35.5442 16.2618 35.1344C16.3058 35.0554 16.3449 34.9686 16.3781 34.8764C16.4121 34.7838 16.4403 34.6852 16.4635 34.5812L16.4639 34.5784L16.4685 34.5562H16.4912H16.6093H16.6374V34.583H16.6361ZM0 0.27002C18.4539 0.27002 36.1252 0.27002 56 0.27002V17.3893H51.9777V17.9938C53.7075 17.9938 54.02 18.4526 53.5408 19.5778L50.6023 26.3513L47.6847 19.5778C47.2055 18.4735 47.4135 17.9938 49.2477 17.9938V17.3893C45.691 17.3893 42.1343 17.3893 38.5776 17.3893L34.6807 26.4136L30.6584 17.3893C27.5419 17.3893 24.4254 17.3893 21.3088 17.3893V17.9938C23.0386 17.9938 23.3098 18.3486 23.3098 20.4322V25.6836L16.349 17.3893H12.1809V17.9938C13.9106 17.9938 14.1609 18.3486 14.1609 20.4322V25.3311C14.1609 27.4147 13.9106 27.7695 12.1809 27.7695V27.7699L11.6054 27.7695C9.96919 29.8798 8.22219 30.6366 6.99892 30.6084C3.43723 30.528 2.51104 26.2255 2.51104 23.6418C2.51104 21.0577 3.32367 18.0356 6.17902 18.0356C7.80474 18.0356 9.19789 18.9418 9.99054 20.652H11.0975V17.3652H10.601C10.4761 17.8866 10.3299 18.8301 10.0591 19.039C9.16973 17.7109 7.55491 17.0359 6.09589 17.0359C3.25099 17.0359 0.828079 18.9804 0.00136272 21.6391V0.27002H0Z" fill="#AD2144"/>
</g>
<defs>
<clipPath id="clip0">
<rect width="56" height="56" fill="white" transform="translate(0 0.27002)"/>
</clipPath>
</defs>
</svg>
