<svg width="109" height="26" viewBox="0 0 109 26" fill="none" xmlns="http://www.w3.org/2000/svg">
<g clip-path="url(#clip0)">
<path opacity="0.8" d="M48.2321 15.5444H41.085V17.2328H41.3193C41.3779 16.9916 41.788 16.5092 42.3152 16.5092C42.3152 16.5092 43.8384 16.5092 43.8969 16.5092C43.8969 16.5695 43.8969 25.1317 43.8969 25.1317H45.4787C45.4787 25.1317 45.4787 16.5695 45.4787 16.5092C45.5373 16.5092 47.119 16.5092 47.119 16.5092C47.6462 16.5092 47.9977 16.8107 48.0563 17.1122V17.1725H48.2907L48.2321 15.5444Z" fill="#003662"/>
<path opacity="0.8" d="M1.65888 15.0015C0.604384 16.0869 0.0185547 17.6546 0.0185547 19.1621C0.0185547 20.9107 0.72155 22.4784 1.89321 23.5638C3.06487 24.6491 4.64661 25.2521 6.28693 25.2521C7.16567 25.2521 8.86457 25.0712 10.5635 24.0462L10.6221 23.9859L10.7978 21.574L10.5049 21.5137L10.4463 21.6343C9.21607 24.2271 7.34142 24.2271 6.57984 24.2271C3.35778 24.2271 1.89321 21.4534 1.89321 18.9209C1.89321 16.4487 3.35778 13.9162 6.57984 13.9162C7.57575 13.9162 9.39182 14.278 10.3291 16.509L10.3877 16.6296L10.6806 16.509L10.5635 14.0368L10.5049 13.9765C8.98174 13.3132 7.7515 13.0117 6.52126 13.0117C4.52944 13.072 2.83053 13.7353 1.65888 15.0015Z" fill="#003662"/>
<path opacity="0.8" d="M12.3799 15.5444L12.3213 15.7856C12.4385 15.8459 12.6142 16.2077 12.6142 16.6298V25.0714H14.1374C14.1374 25.0714 14.1374 20.7903 14.1374 20.73C14.1959 20.73 14.7818 20.73 14.7818 20.73C15.3676 20.7903 15.6019 21.1521 15.9534 21.6948L16.012 21.7551L16.1878 22.1169C16.5393 22.6595 16.9493 23.4434 17.418 24.167C17.7695 24.7097 18.1796 24.9508 18.7068 25.0714C19.0583 25.1317 19.8199 25.1317 20.1128 25.0111L20.4643 24.9508L20.5815 24.8905L20.1128 24.7699C19.9371 24.7097 19.6442 24.5891 19.2341 24.1067C18.9997 23.8052 18.5897 23.1419 18.0038 22.1772L17.418 21.2124C17.2423 20.9712 17.0079 20.6094 16.5393 20.3079C17.418 20.0064 18.2382 19.2226 18.2382 18.0166C18.2382 17.6548 18.1796 16.9916 17.5938 16.4489C17.0079 15.9062 16.1292 15.6047 14.8989 15.6047L12.3799 15.5444ZM15.0161 16.4489C16.5978 16.5092 16.6564 17.896 16.6564 18.0769C16.6564 19.4638 15.6605 19.9462 14.8404 19.9462C14.8404 19.9462 14.3131 19.9462 14.1959 19.9462C14.1959 19.8859 14.1959 16.5695 14.1959 16.5092C14.3717 16.4489 14.6646 16.3886 15.0161 16.4489Z" fill="#003662"/>
<path opacity="0.8" d="M28.1377 15.5442V15.7854C28.2549 15.8457 28.372 16.2075 28.372 16.5089V25.0712H31.0083C32.7657 25.0712 34.1717 24.5285 35.1676 23.4432C35.9878 22.5387 36.4564 21.393 36.4564 20.1268C36.4564 19.4032 36.2221 18.2576 35.5191 17.3531C34.5818 16.1472 33.1758 15.4839 31.2426 15.4839L28.1377 15.5442ZM29.9538 16.5089C30.0123 16.5089 30.7739 16.5089 30.7739 16.5089C31.0083 16.5089 31.5355 16.5089 31.9456 16.5692C34.5232 16.9913 34.8161 19.2223 34.8161 20.1871C34.8161 20.971 34.699 22.0563 34.0546 22.9608C33.4101 23.8049 32.4142 24.227 31.0668 24.227C30.7739 24.227 30.3638 24.227 29.9538 24.227C29.9538 24.1064 29.9538 16.5692 29.9538 16.5089Z" fill="#003662"/>
<path opacity="0.8" d="M39.6794 15.5444H37.8633V15.7856C38.039 15.8459 38.1562 16.2077 38.1562 16.5695V25.0714H39.6794V15.5444Z" fill="#003662"/>
<path opacity="0.8" d="M70.7282 15.5444H68.9121V15.7856C69.0879 15.8459 69.205 16.2077 69.205 16.5695V25.0714H70.7282V15.5444Z" fill="#003662"/>
<path opacity="0.8" d="M26.1455 15.5444H20.9902L21.0488 15.7856C21.166 15.8459 21.3417 16.2077 21.3417 16.6298V25.0714H26.497L26.8485 23.3831L26.6142 23.3228L26.5556 23.4434C26.1455 24.1067 25.6769 24.2273 24.2123 24.2273C23.685 24.2273 23.1578 24.167 22.8063 24.167C22.8063 24.1067 22.8063 20.3682 22.8063 20.3079C22.8649 20.3079 25.4425 20.3079 25.4425 20.3079V19.4035C25.4425 19.4035 22.9235 19.4035 22.8063 19.4035C22.8063 19.3432 22.8063 16.5092 22.8063 16.4489C22.8649 16.4489 24.9153 16.4489 24.9153 16.4489C25.384 16.4489 25.9112 16.9313 25.9698 17.2328V17.2931H26.2041L26.1455 15.5444Z" fill="#003662"/>
<path opacity="0.8" d="M92.2276 15.5444H87.0723V15.7856C87.1894 15.8459 87.3652 16.1474 87.3652 16.6298V25.0714H92.5205L92.872 23.3831L92.6377 23.3228L92.5791 23.4434C92.169 24.1067 91.7003 24.2273 90.2358 24.2273C89.7085 24.2273 89.1813 24.167 88.8298 24.167C88.8298 24.1067 88.8298 20.3682 88.8298 20.3079C88.8883 20.3079 91.466 20.3079 91.466 20.3079V19.4035C91.466 19.4035 88.9469 19.4035 88.8298 19.4035C88.8298 19.3432 88.8298 16.5092 88.8298 16.4489C88.8883 16.4489 90.9387 16.4489 90.9387 16.4489C91.5246 16.4489 91.9347 16.9313 91.9347 17.2328V17.2931H92.169L92.2276 15.5444Z" fill="#003662"/>
<path opacity="0.8" d="M52.7439 13.7953C52.2166 14.2174 51.5722 14.941 51.5136 16.2072C51.5136 16.2072 51.5136 16.2072 51.5136 16.2675C51.5136 17.775 52.451 18.6191 53.9741 19.403C54.0327 19.4633 54.1499 19.5236 54.5599 19.7045C55.8488 20.3678 56.7275 20.8501 56.7275 22.1767C56.7275 22.6591 56.5518 23.3223 56.0831 23.8047C55.673 24.2268 55.1458 24.4077 54.5014 24.4077C52.5681 24.4077 51.8651 22.6591 51.6894 21.8752L51.6308 21.7546L51.2793 21.8149L51.3965 24.2871L51.5722 24.2268C52.2166 24.5886 53.2125 25.1916 54.7357 25.2519C55.7902 25.2519 56.8447 24.8298 57.6063 24.0459C58.2507 23.3826 58.6022 22.5385 58.6022 21.634C58.6022 19.6442 57.1962 18.8603 55.7316 18.0765L55.4387 17.8956C53.9155 17.1117 53.2125 16.6293 53.2125 15.6646C53.2125 15.0013 53.7398 13.9159 55.0286 13.9159C56.5518 13.9159 57.3719 15.1219 57.5477 15.8454L57.6063 15.966L57.9578 15.9057L57.8406 13.735L57.782 13.6747C56.9033 13.0718 55.7902 12.9512 55.3215 12.9512C54.267 13.0115 53.3883 13.313 52.7439 13.7953Z" fill="#003662"/>
<path opacity="0.8" d="M73.248 17.9561C73.248 19.2826 74.0096 19.9459 75.2398 20.6092L75.7085 20.8504C76.7044 21.3327 77.3488 21.6945 77.3488 22.6593C77.3488 22.8402 77.2902 23.3829 76.8802 23.8652C76.5872 24.1667 76.1772 24.3476 75.6499 24.2873C74.1853 24.2873 73.6581 23.0814 73.4238 22.4181L73.3652 22.2975L73.0723 22.3578L73.1309 24.3476L73.1894 24.4079C73.6581 24.7094 74.4783 25.1918 75.7085 25.1918C76.5287 25.1918 77.4074 24.83 77.9932 24.227C78.5205 23.6843 78.7548 23.0211 78.7548 22.2975C78.7548 20.6092 77.6417 20.0062 76.4701 19.4032L76.2358 19.2826C74.9469 18.6194 74.5368 18.3179 74.5368 17.5943C74.5368 17.0516 74.8883 16.3281 75.9428 16.3281C77.1731 16.3281 77.7003 17.2928 77.8175 17.7752L77.8761 17.8958L78.169 17.8355L78.0518 16.0869L77.9932 16.0266C77.2902 15.5442 76.4115 15.4839 76.06 15.4839C74.7126 15.4839 73.248 16.3281 73.248 17.9561Z" fill="#003662"/>
<path opacity="0.8" d="M80.1601 17.9561C80.1601 19.2826 80.9217 19.9459 82.1519 20.6092L82.6206 20.8504C83.6165 21.3327 84.2609 21.6945 84.2609 22.6593C84.2609 22.8402 84.2023 23.3829 83.7923 23.8652C83.4993 24.1667 83.0893 24.3476 82.562 24.2873C81.0974 24.2873 80.5702 23.0814 80.3359 22.4181L80.2773 22.2975L79.9844 22.3578L80.043 24.3476L80.1015 24.4079C80.5702 24.7094 81.3904 25.1918 82.6206 25.1918C83.4408 25.1918 84.3195 24.83 84.9053 24.227C85.4326 23.6843 85.6669 23.0211 85.6669 22.2975C85.6669 20.6092 84.5538 20.0062 83.3822 19.4032L83.1478 19.2826C81.859 18.6194 81.4489 18.3179 81.4489 17.5943C81.4489 17.2928 81.5661 16.931 81.8004 16.6898C82.0348 16.4486 82.3863 16.3281 82.7964 16.3281C84.0266 16.3281 84.5538 17.2928 84.671 17.7752L84.7296 17.8958L85.0225 17.8355L84.9053 16.0869L84.8468 16.0266C84.1438 15.5442 83.265 15.4839 82.9135 15.4839C81.6833 15.4839 80.1601 16.3281 80.1601 17.9561Z" fill="#003662"/>
<path opacity="0.8" d="M66.9206 15.5444H65.6903V15.7856C65.7489 15.8459 65.9247 15.9665 65.9247 16.5695V21.9963C65.9247 23.0213 65.5732 24.2876 63.7571 24.2876C62.0582 24.2876 61.7067 23.2625 61.7067 21.6948V15.5444H59.7734V15.7856C59.8906 15.8459 60.1249 16.0871 60.1249 16.6298V21.6948C60.1249 24.8302 62.1168 25.192 63.6399 25.192C64.4015 25.192 66.8034 24.9508 66.8034 21.9963L66.9206 15.5444Z" fill="#003662"/>
<path d="M105.527 12.8309C106.64 13.1927 107.753 13.6751 108.983 14.3987C105.995 9.33369 100.723 3.84661 95.5088 0.289062C96.8562 1.6759 99.0238 4.69078 99.6096 7.88655C101.719 9.45428 103.71 11.1426 105.527 12.8309Z" fill="#003662"/>
<path opacity="0.8" d="M105.527 12.8307C102.949 11.9866 100.782 11.9263 99.1999 12.1072C99.7857 10.7203 99.8443 9.27317 99.61 7.88633C95.6849 4.99205 91.2912 2.45955 87.1318 0.590332C90.1781 2.70074 93.576 8.91138 94.9819 15.5441C98.0282 14.6396 102.656 13.9764 108.69 16.0868C107.694 15.0014 106.64 13.9161 105.527 12.8307Z" fill="#003662"/>
</g>
<defs>
<clipPath id="clip0">
<rect width="109" height="25" fill="white" transform="translate(0 0.27002)"/>
</clipPath>
</defs>
</svg>
