<svg width="109" height="17" viewBox="0 0 109 17" fill="none" xmlns="http://www.w3.org/2000/svg">
<g opacity="0.8">
<path fill-rule="evenodd" clip-rule="evenodd" d="M84.2415 7.94993H88.8639V6.20634H84.2415V4.15503H92.1516V2.41144H81.8779V12.0519H92.2546V10.1034H84.2415V7.94993ZM102.425 6.41191L107.767 0.77002H104.275L100.577 4.97481L96.6723 0.77002H92.7681L98.7271 6.71902L92.8711 12.9745H96.3634L100.474 8.25704L104.993 12.9745H109L102.425 6.41191Z" fill="#A0B3AA"/>
<path fill-rule="evenodd" clip-rule="evenodd" d="M18.2868 14.6159H16.7456C16.3344 14.6159 16.232 14.7187 16.232 15.1286V16.2567C16.232 16.6679 16.335 16.7694 16.7456 16.7694H18.2868C18.698 16.7694 18.8003 16.6679 18.8003 16.2567V15.5397H17.465V15.9496H18.2868V16.3595H16.7456V15.0271H18.2868V15.2314H18.8003V15.1286C18.8003 14.7187 18.6973 14.6159 18.2868 14.6159ZM20.3409 14.6159H19.8274V16.7694H21.9851V16.3595H20.3409V14.6159ZM24.6557 14.6159H23.1151C22.7039 14.6159 22.6015 14.7187 22.6015 15.1286V16.2567C22.6015 16.6679 22.7045 16.7694 23.1151 16.7694H24.6557C25.0669 16.7694 25.2722 16.6679 25.2722 16.2567V15.1286C25.2722 14.7187 25.0669 14.6159 24.6557 14.6159ZM23.1151 15.0271H24.7586V16.3595H23.1151V15.0271ZM28.2516 15.6413C28.4569 15.6413 28.5599 15.5397 28.5599 15.3342V15.0271C28.5599 14.7187 28.4569 14.6159 28.1487 14.6159H26.2998V16.77H27.9434C28.3546 16.77 28.6628 16.6685 28.6628 16.3601V16.053C28.6628 15.8468 28.4569 15.7441 28.2516 15.6413ZM26.7104 15.0271H27.9434C28.0463 15.0271 28.1487 15.0271 28.1487 15.1286V15.3342C28.1487 15.4369 28.0463 15.5397 27.9434 15.5397H26.7104V15.0271ZM28.1487 16.2567C28.1487 16.3595 28.0463 16.3595 27.9434 16.3595H26.7104V15.8468H27.9434C28.0463 15.8468 28.1487 15.8468 28.1487 16.0524V16.2567ZM30.4093 14.6159L29.1763 16.77H29.6899L29.8958 16.3601H31.334L31.54 16.77H32.1564L30.9235 14.6159H30.4093ZM30.2034 15.9496L30.6146 15.0271L31.1281 15.9496H30.2034ZM33.2852 14.6159H32.7717V16.7694H34.9294V16.3595H33.2852V14.6159ZM37.2924 16.7694H37.8059V15.9496H38.7306V15.5397H37.8059V15.0271H39.4494V14.6159H37.2924V16.7694ZM40.0659 16.7694H40.5794V14.6159H40.0659V16.7694ZM43.7642 15.7441V16.1539C43.6613 16.0524 43.6613 15.9496 43.5583 15.9496L42.0177 14.6159H41.7095V16.77H42.1207V15.6419V15.3348C42.1207 15.3348 42.2236 15.4376 42.3266 15.4376L43.8672 16.77H44.1754V14.6159H43.7642V15.7441ZM46.1272 14.6159L44.8942 16.77H45.4084L45.6137 16.3601H46.949L47.2572 16.77H47.7707L46.5378 14.6159H46.1272ZM45.8189 15.9496L46.3325 15.0271L46.7431 15.9496H45.8189ZM50.5443 15.7441C50.5443 15.8468 50.5443 15.9496 50.6473 16.1539C50.5443 16.0524 50.4413 15.9496 50.339 15.9496L48.7978 14.6159H48.4896V16.77H48.9008V15.6419V15.3348C49.0037 15.3348 49.0037 15.4376 49.106 15.4376L50.6473 16.77H51.0578V14.6159H50.5443V15.7441ZM53.832 14.6159H52.599C52.1878 14.6159 52.0855 14.7187 52.0855 15.1286V16.2567C52.0855 16.6679 52.1885 16.7694 52.599 16.7694H53.832C54.2432 16.7694 54.3455 16.6679 54.3455 16.2567V15.9496H53.935V16.3595H52.4967V15.0271H53.935V15.3342H54.3455V15.1286C54.3455 14.7187 54.2432 14.6159 53.832 14.6159ZM72.6329 14.6159H71.4C70.9894 14.6159 70.8864 14.7187 70.8864 15.1286V16.2567C70.8864 16.6679 70.9894 16.7694 71.4 16.7694H72.6329C73.0435 16.7694 73.1452 16.6679 73.1452 16.2567V15.9496H72.7346V16.3595H71.297V15.0271H72.7346V15.3342H73.1452V15.1286C73.1452 14.7187 73.0435 14.6159 72.6329 14.6159ZM55.4756 16.7694H55.8874V14.6159H55.4756V16.7694ZM57.9421 14.6159L56.7091 16.77H57.2227L57.4286 16.3601H58.7633L59.0721 16.77H59.5857L58.3527 14.6159H57.9421ZM57.6333 15.9496L58.1468 15.0271L58.5586 15.9496H57.6333ZM60.8174 14.6159H60.3039V16.7694H62.4616V16.3595H60.8174V14.6159ZM65.2357 15.8468H66.2628V15.5397H65.2357V15.0271H66.9822V14.6159H64.7216V16.7694H66.9822V16.3595H65.2357V15.8468ZM70.167 14.6159H69.5505L68.9334 15.3342L68.2152 14.6159H67.5987L68.6258 15.6413L67.5987 16.7694H68.2152L68.9334 15.9496L69.6535 16.7694H70.3729L69.2423 15.6413L70.167 14.6159ZM76.2283 15.4369H74.6877V14.6159H74.1741V16.7694H74.6877V15.8468H76.2283V16.7694H76.7418V14.6159H76.2283V15.4369ZM78.5906 14.6159L77.4619 16.77H77.8724L78.1801 16.3601H79.516L79.8236 16.77H80.3371L79.1042 14.6159H78.5906ZM78.386 15.9496L78.8995 15.0271L79.3101 15.9496H78.386ZM83.1113 15.7441V16.1539C83.1113 16.0524 83.0083 15.9496 82.9054 15.9496L81.3648 14.6159H81.0572V16.77H81.4678V15.6419V15.3348C81.5707 15.3348 81.5707 15.4376 81.6737 15.4376L83.2143 16.77H83.5219V14.6159H83.1113V15.7441ZM86.6049 14.6159H85.0631C84.6525 14.6159 84.5496 14.7187 84.5496 15.1286V16.2567C84.5496 16.6679 84.6525 16.7694 85.0631 16.7694H86.6049C87.0155 16.7694 87.1185 16.6679 87.1185 16.2567V15.5397H85.7825V15.9496H86.6049V16.3595H85.0631V15.0271H86.6049V15.2314H87.1185V15.1286C87.1185 14.7187 87.0155 14.6159 86.6049 14.6159ZM88.5561 16.3595V15.8468H89.5832V15.5397H88.5561V15.0271H90.3026V14.6159H88.1455V16.7694H90.3026V16.3595H88.5561ZM65.6463 10.2049H57.6333V7.84715H62.2569V6.20634H57.6333V4.15503H65.5446V2.41144H55.2709V12.0519H65.6463V10.2049ZM69.7564 5.59027L77.9754 12.0519H79.516V2.41144H77.4612V8.76971L69.2423 2.41144H67.7017V12.0519H69.7564V5.59027ZM10.0678 0.77002H3.39005C1.02706 0.77002 0 1.69259 0 3.94947V9.79506C0 12.0519 1.02768 12.9745 3.39005 12.9745H10.0678C12.3278 12.9745 13.3549 12.0519 13.3549 9.79506V8.97527H10.8896V10.1034C10.8896 10.8204 10.3754 10.9232 9.96485 10.9232H3.28709C2.87651 10.9232 2.67061 10.6161 2.67061 10.3077V3.43617C2.77356 2.9235 3.0818 2.71794 3.39005 2.71794H9.75956C10.6843 2.71794 10.7866 3.43617 10.8896 3.74328V4.66708H13.3549V3.94885C13.3555 1.69259 12.3278 0.77002 10.0678 0.77002ZM26.8134 2.41144H24.4504V9.48857C24.3474 9.79568 24.2451 10.2056 23.6286 10.2056H18.4921C17.8756 10.2056 17.7726 9.89846 17.7726 9.48857V2.41144H15.4096V9.38579C15.4096 11.2322 16.3344 12.0526 18.1832 12.0526H23.9362C25.888 12.0526 26.8127 11.2328 26.8127 9.38579V2.41144H26.8134ZM50.9561 12.0519H53.7297L50.442 8.56539C50.442 8.4626 50.2361 8.35982 50.1337 8.35982H50.8532C51.8802 8.35982 53.0109 7.74436 53.0109 6.20572V4.56492C53.0109 3.23123 51.9838 2.41083 50.4426 2.41083H42.1207V12.0513H44.3807V8.3592H46.2295C47.0513 8.3592 47.5648 8.46198 48.079 8.97466L48.2849 9.28177H48.3872L50.9561 12.0519ZM44.3807 6.71902V4.05225H49.7231C50.442 4.05225 50.8532 4.25781 50.8532 4.87203V6.00016C50.8532 6.61562 50.442 6.7184 49.7231 6.7184H44.3807V6.71902ZM37.7029 12.0519H40.5794L37.2924 8.56539C37.1894 8.4626 36.9841 8.35982 36.9841 8.35982H37.7036C38.7306 8.35982 39.7577 7.74436 39.7577 6.20572V4.56492C39.7577 3.23123 38.7306 2.41083 37.1894 2.41083H28.8681V12.0513H31.2311V8.3592H32.9776C33.9023 8.3592 34.3129 8.46198 34.8264 8.97466L35.1347 9.28177L37.7029 12.0519ZM31.2311 6.71902V4.05225H36.5729C37.1894 4.05225 37.6 4.25781 37.6 4.87203V6.00016C37.6 6.61562 37.1894 6.7184 36.5729 6.7184H31.2311V6.71902Z" fill="#525B61"/>
</g>
</svg>
