<svg width="79" height="48" fill="#4A249D" xmlns="http://www.w3.org/2000/svg"><path d="M47.395 36.778l-1.641-.233a7.285 7.285 0 0 0-.484-1.167l.996-1.327a.704.704 0 0 0-.065-.92l-1.812-1.814a.704.704 0 0 0-.921-.065l-1.326.996a7.293 7.293 0 0 0-1.165-.483l-.233-1.643a.704.704 0 0 0-.697-.605h-2.563a.704.704 0 0 0-.697.605l-.233 1.643a7.297 7.297 0 0 0-1.166.483l-1.149-.864a12.19 12.19 0 0 0 3.104-6.76h.298a.704.704 0 1 0 0-1.41h-.207l.002-.12c0-1.094-.144-2.179-.426-3.225a.705.705 0 1 0-1.36.367c.25.927.377 1.888.377 2.858a10.84 10.84 0 0 1-3.39 7.916l-.012.012c-.089.089-2.185 2.203-2.816 4.414-.14.489-.22 1.22-.268 1.923a.699.699 0 0 0-.01.117v.04c-.027.434-.041.85-.049 1.182h-1.998a53.864 53.864 0 0 1-.167-4.964c.02-1.089.082-1.985.17-2.722.915-.14 1.908-.383 2.613-.806 1.28-.767 1.55-2.323 1-3.295-.433-.766-1.496-1.362-3.067-.524-.803.428-1.362 1.41-1.707 3.002-.025.113-.049.23-.071.349-.48.04-.892.055-1.153.053a14 14 0 0 1-1.15-.053c-.023-.12-.046-.236-.071-.35-.346-1.59-.904-2.573-1.707-3.001-1.571-.838-2.635-.242-3.068.524-.286.504-.35 1.145-.179 1.759a2.61 2.61 0 0 0 1.18 1.536c.705.423 1.698.666 2.613.806.088.737.15 1.633.17 2.722a53.862 53.862 0 0 1-.167 4.964h-1.999c-.02-.907-.09-2.433-.327-3.262-.627-2.2-2.726-4.324-2.815-4.413l-.013-.013a10.842 10.842 0 0 1-3.39-7.916c0-6.029 4.901-10.933 10.924-10.933 3.963 0 7.623 2.155 9.552 5.625a.704.704 0 1 0 1.232-.685 12.342 12.342 0 0 0-2.754-3.371h.823a.705.705 0 0 0 0-1.41h-.94a.705.705 0 0 0-.7.765 12.33 12.33 0 0 0-6.536-2.313l-2.164-.308a10.532 10.532 0 0 0-.864-2.088l1.62-2.159a.704.704 0 0 0-.065-.92l-2.706-2.71a.704.704 0 0 0-.922-.065l-2.156 1.622a10.523 10.523 0 0 0-2.087-.865L16.057.606A.705.705 0 0 0 15.36 0h-3.828a.704.704 0 0 0-.697.606l-.38 2.673c-.724.213-1.423.502-2.086.865L6.213 2.522a.705.705 0 0 0-.922.065L2.585 5.296a.704.704 0 0 0-.065.92l1.62 2.16a10.542 10.542 0 0 0-.864 2.088l-2.67.38A.705.705 0 0 0 0 11.54v3.831c0 .35.258.648.605.698l2.671.379c.213.726.502 1.425.865 2.088l-1.621 2.16a.705.705 0 0 0 .065.92l2.706 2.709a.705.705 0 0 0 .922.065l2.157-1.622a10.52 10.52 0 0 0 2.086.865l.379 2.674c.05.347.346.605.697.605h1.836a12.267 12.267 0 0 0 3.221 5.11c.108.11 1.937 1.988 2.453 3.8.234.82.283 2.861.282 3.578v2.359a3.225 3.225 0 0 0 2.578 3.156 3.215 3.215 0 0 0 3.145 2.571h.113a3.215 3.215 0 0 0 3.145-2.57 3.225 3.225 0 0 0 2.578-3.157v-.916l.894.127c.127.403.289.793.483 1.168l-.996 1.326a.704.704 0 0 0 .065.921l1.812 1.814a.705.705 0 0 0 .922.065l1.325-.997a7.28 7.28 0 0 0 1.166.483l.233 1.644c.05.347.346.605.697.605h2.563c.35 0 .648-.258.697-.605l.233-1.643a7.284 7.284 0 0 0 1.166-.484l1.325.997c.28.21.673.183.922-.065l1.812-1.814a.705.705 0 0 0 .065-.92l-.996-1.327c.194-.375.356-.765.483-1.168l1.64-.233A.704.704 0 0 0 48 40.04v-2.565a.705.705 0 0 0-.605-.698zM28.696 27.63c.17-.091.492-.24.767-.24.17 0 .322.056.412.215.192.34.096 1.035-.5 1.392-.413.249-1.012.423-1.64.544.336-1.433.777-1.813.961-1.911zm-7.865 1.367c-.596-.357-.692-1.051-.5-1.392.09-.16.243-.215.412-.215.276 0 .597.148.768.24.183.098.624.478.96 1.911-.627-.12-1.225-.295-1.64-.544zm-8.687-3.493l-.359-2.528a.704.704 0 0 0-.53-.585 9.12 9.12 0 0 1-2.571-1.066.704.704 0 0 0-.79.039l-2.039 1.533-1.842-1.843 1.533-2.042a.705.705 0 0 0 .04-.789A9.136 9.136 0 0 1 4.52 15.65a.704.704 0 0 0-.585-.53l-2.526-.36v-2.607l2.526-.36a.705.705 0 0 0 .585-.53A9.135 9.135 0 0 1 5.585 8.69a.705.705 0 0 0-.039-.789L4.013 5.86l1.842-1.844 2.04 1.534c.23.173.543.188.789.039a9.121 9.121 0 0 1 2.571-1.067c.28-.068.49-.3.53-.585l.359-2.528h2.604l.359 2.528c.04.285.25.517.53.585a9.124 9.124 0 0 1 2.571 1.067c.247.15.56.134.79-.04l2.039-1.533 1.842 1.844-1.533 2.04a.705.705 0 0 0-.04.789c.45.741.79 1.54 1.015 2.378-1.164.27-2.265.706-3.278 1.28-.322-2.773-2.683-4.934-5.54-4.934a5.57 5.57 0 0 0-4.646 2.493.705.705 0 0 0 1.173.78 4.164 4.164 0 0 1 3.474-1.864 4.176 4.176 0 0 1 4.16 4.434 12.43 12.43 0 0 0-3.33 3.83 4.176 4.176 0 0 1-5-4.09.705.705 0 0 0-1.409 0 5.587 5.587 0 0 0 5.579 5.582l.122-.002a12.288 12.288 0 0 0-.855 4.516c0 .82.08 1.627.233 2.411h-.86zm20.116 9.874a7.297 7.297 0 0 0-.483 1.167l-.759.108c.038-.328.086-.62.146-.83.117-.41.3-.822.517-1.217l.58.772zm-7.962-1.658a30.254 30.254 0 0 0-.144-2.555c.535.034.905.036.948.035.044 0 .414 0 .95-.035a30.46 30.46 0 0 0-.144 2.555 54.491 54.491 0 0 0 .162 4.978h-1.933c.08-1.03.197-2.95.161-4.978zm.861 12.358h-.112a1.803 1.803 0 0 1-1.657-1.098h3.426a1.803 1.803 0 0 1-1.657 1.098zm4.315-4.318c0 .999-.812 1.811-1.81 1.811h-5.122c-.998 0-1.81-.812-1.81-1.811v-1.653h8.742v1.653zm17.117-2.331l-1.49.212a.704.704 0 0 0-.586.53 5.882 5.882 0 0 1-.686 1.658.705.705 0 0 0 .039.788l.905 1.206-.948.948-1.203-.905a.704.704 0 0 0-.79-.04 5.87 5.87 0 0 1-1.655.687c-.28.069-.49.3-.53.586l-.212 1.492h-1.34l-.211-1.492a.704.704 0 0 0-.53-.586 5.875 5.875 0 0 1-1.656-.686.705.705 0 0 0-.79.039l-1.203.905-.947-.948.905-1.206a.705.705 0 0 0 .039-.788 5.885 5.885 0 0 1-.686-1.658.705.705 0 0 0-.586-.53l-1.49-.212v-1.342l1.49-.211a.704.704 0 0 0 .586-.53 5.883 5.883 0 0 1 .686-1.658.704.704 0 0 0-.04-.789l-.904-1.205.947-.949 1.204.906c.23.173.543.188.789.038a5.876 5.876 0 0 1 1.656-.686c.28-.068.49-.3.53-.585l.212-1.493h1.339l.212 1.493c.04.285.25.517.53.585a5.882 5.882 0 0 1 1.656.687c.246.15.558.134.789-.04l1.203-.904.948.948-.905 1.205a.705.705 0 0 0-.04.789 5.88 5.88 0 0 1 .687 1.657c.068.28.3.49.585.53l1.491.212v1.342z" fill="#4A249D"/><path d="M38.765 34.622a4.14 4.14 0 0 0-4.133 4.136.705.705 0 1 0 1.409 0 2.729 2.729 0 0 1 2.725-2.727 2.729 2.729 0 0 1 2.724 2.727 2.729 2.729 0 0 1-2.724 2.728 2.719 2.719 0 0 1-1.806-.685.704.704 0 1 0-.935 1.054 4.13 4.13 0 0 0 2.74 1.04 4.14 4.14 0 0 0 4.134-4.137 4.14 4.14 0 0 0-4.134-4.136zM36.304 13.73h.94a.705.705 0 0 0 0-1.41h-.94a.704.704 0 1 0 0 1.41zm6.066.68c.233.141.455.303.66.482.31.27.797.21 1.036-.122a.71.71 0 0 0-.11-.941 6.198 6.198 0 0 0-.856-.624.705.705 0 0 0-.73 1.206zm-2.778-.68c.297 0 .59.012.887.031a.712.712 0 0 0 .751-.625.704.704 0 0 0-.622-.777 9.18 9.18 0 0 0-1.016-.038.704.704 0 1 0 0 1.409zm1.202 9.405a4.78 4.78 0 0 1-.813.079.705.705 0 0 0 .008 1.409h.008a6.184 6.184 0 0 0 1.054-.103.705.705 0 0 0-.257-1.385zm2.489-1.32a4.774 4.774 0 0 1-.623.529.711.711 0 0 0-.209.915.71.71 0 0 0 1.024.234 6.14 6.14 0 0 0 .808-.684.705.705 0 0 0-1-.994zm1.509-.805a.711.711 0 0 0 .904-.42 6.13 6.13 0 0 0 .277-1.023.705.705 0 0 0-1.387-.25c-.048.268-.12.533-.213.788a.705.705 0 0 0 .42.904zm-.55-4.49c.113.247.203.506.27.77a.711.711 0 0 0 .884.5.711.711 0 0 0 .482-.85 6.129 6.129 0 0 0-.352-1.001.704.704 0 1 0-1.284.58zM3.325 29.065a.705.705 0 0 0-.909.408 6.14 6.14 0 0 0-.29 1.02.705.705 0 0 0 1.384.266c.052-.267.127-.531.223-.785a.704.704 0 0 0-.408-.909zm2.342 6.628a4.781 4.781 0 0 1-.654-.49.705.705 0 0 0-.938 1.052c.264.234.55.448.848.634a.71.71 0 0 0 1.008-.295.711.711 0 0 0-.264-.901zm6.05.71h-.94a.705.705 0 0 0 0 1.409h.94a.705.705 0 0 0 0-1.41zm3.287 0h-.939a.705.705 0 0 0 0 1.409h.94a.705.705 0 0 0 0-1.41zm3.288 0h-.94a.705.705 0 0 0 0 1.409h.94a.705.705 0 0 0 0-1.41zM3.82 33.561a4.733 4.733 0 0 1-.26-.773.705.705 0 0 0-1.37.333c.084.343.198.681.34 1.005a.71.71 0 0 0 .975.34.711.711 0 0 0 .316-.905zm4.609 2.842c-.285 0-.568 0-.851-.036a.705.705 0 1 0-.173 1.399 8.55 8.55 0 0 0 1.024.046.705.705 0 1 0 0-1.409zM4.35 28.48a.702.702 0 0 0 .494-.203c.194-.19.406-.366.63-.52a.705.705 0 0 0-.802-1.16c-.29.2-.564.428-.816.675-.44.432-.125 1.207.494 1.207zm2.999-1.492c.266-.046.54-.07.814-.07a.704.704 0 1 0 0-1.409 6.2 6.2 0 0 0-1.055.09.71.71 0 0 0-.576.802c.06.384.433.653.817.587z" fill="#4A249D"/></svg>