<svg width="44" height="44" fill="none" xmlns="http://www.w3.org/2000/svg"><path d="M10.352 32.313c.38 0 .688.307.688.687h1.375a2.065 2.065 0 0 0-2.063-2.063v-1.375H8.977v1.375H6.915V33c0 1.137.925 2.063 2.062 2.063h1.375c.38 0 .688.307.688.687v.688H8.977a.688.688 0 0 1-.687-.688H6.915c0 1.137.925 2.063 2.062 2.063v1.374h1.375v-1.374h2.063V35.75a2.065 2.065 0 0 0-2.063-2.063H8.977A.688.688 0 0 1 8.29 33v-.688h2.062z" fill="#4A249D"/><path d="M43.352 9.625V.687h-8.937v1.375h6.59l-12.09 12.09-4.813-4.812-8.237 8.237a2.715 2.715 0 0 0-1.388-.39c-.914 0-1.4.555-1.721.922-.3.343-.42.453-.687.453-.268 0-.387-.11-.688-.453-.322-.367-.807-.922-1.72-.922-.914 0-1.399.556-1.72.923-.3.342-.419.453-.685.453-.267 0-.386-.111-.685-.453-.32-.367-.806-.922-1.719-.922a2.753 2.753 0 0 0-2.2 4.4l3.33 4.44-2.275 1.99a8.728 8.728 0 0 0-2.98 6.568c0 4.812 3.915 8.727 8.726 8.727h.422c1.74 0 3.358-.518 4.721-1.399a2.06 2.06 0 0 0 1.944 1.398h24.75a2.065 2.065 0 0 0 2.062-2.062v-1.375c0-.53-.207-1.01-.536-1.375.33-.366.536-.845.536-1.375V35.75c0-.53-.207-1.01-.536-1.375.33-.366.536-.845.536-1.375v-1.375c0-.53-.207-1.01-.536-1.375.33-.366.536-.845.536-1.375V27.5a2.065 2.065 0 0 0-2.062-2.063h-.688v-13.75h-5.5v13.75h-1.375v-6.875h-5.5v6.875h-.687c-.242 0-.472.05-.688.127v-9.752h-5.5v13.75h-4.351a8.704 8.704 0 0 0-1.38-1.544l-2.274-1.99 3.33-4.44a2.77 2.77 0 0 0 .55-1.65c0-.51-.148-.98-.39-1.389l7.265-7.264 4.813 4.812L41.977 3.035v6.59h1.375zM16.54 41.938a.688.688 0 0 1-.688-.688v-.322a8.76 8.76 0 0 0 1.375-1.66v1.294h1.375v-1.374h1.375v1.374h1.375v-1.374h1.375v1.374h1.375v-1.374h1.375v1.374h1.375v-1.374h1.375v1.374h1.375v-1.374h.688c.38 0 .687.307.687.687v1.375c0 .38-.308.688-.687.688H16.54zm2.038-6.876h1.4v1.376h1.374v-1.376h1.375v1.376h1.375v-1.376h1.375v1.376h1.375v-1.376h1.375v1.376h1.375v-1.376h.688c.38 0 .687.309.687.688v1.375c0 .38-.308.688-.687.688H17.976a8.673 8.673 0 0 0 .602-2.75zm16.524-2.75v-1.374h1.375v1.375h1.375v-1.376h1.375v1.375h1.375v-1.374h.688c.38 0 .687.308.687.687V33c0 .38-.308.688-.687.688h-9.064a2.04 2.04 0 0 0 .126-.688v-1.375c0-.242-.05-.472-.126-.688h1.501v1.375h1.375zm6.875 3.438v1.375c0 .38-.308.688-.687.688h-9.064a2.04 2.04 0 0 0 .126-.688V35.75c0-.242-.05-.472-.126-.688h1.501v1.376h1.375v-1.376h1.375v1.376h1.375v-1.376h1.375v1.376h1.375v-1.376h.688c.38 0 .687.309.687.688zm0 5.5c0 .38-.308.688-.687.688h-9.064a2.04 2.04 0 0 0 .126-.688v-1.375c0-.242-.05-.472-.126-.688h1.501v1.376h1.375v-1.376h1.375v1.376h1.375v-1.376h1.375v1.376h1.375v-1.376h.688c.38 0 .687.309.687.688v1.375zm-5.5-28.188h2.75v12.376h-2.75V13.063zm-6.875 6.876h2.75v5.5h-2.75v-5.5zm-2.062 6.875h.687v1.375h1.375v-1.375h1.375v1.375h1.375v-1.375h1.375v1.375h1.375v-1.375h1.375v1.375h1.375v-1.375h1.375v1.375h1.375v-1.375h.688c.38 0 .687.308.687.687v1.375c0 .38-.308.688-.687.688H27.54a.688.688 0 0 1-.688-.688V27.5c0-.38.308-.688.688-.688zm-4.813-9.625h2.75v12.375h-2.75V17.188zm-2.75 13.75v1.375h1.375v-1.376h1.375v1.375h1.375v-1.374h1.375v1.375h1.375v-1.376h1.375v1.375h1.375v-1.374h.688c.38 0 .687.308.687.687V33c0 .38-.308.688-.687.688H18.554a8.712 8.712 0 0 0-.754-2.75h2.177zm-2.75 3.648c0 4.054-3.298 7.352-7.351 7.352h-.422c-4.054 0-7.352-3.298-7.352-7.352 0-2.12.915-4.137 2.51-5.533l2.561-2.24h4.983l2.561 2.24a7.354 7.354 0 0 1 2.51 5.533zm-1.65-13.823l-3.506 4.674H7.258l-3.506-4.675a1.376 1.376 0 0 1 1.1-2.2c.267 0 .386.111.684.453.321.367.807.922 1.72.922.913 0 1.398-.555 1.72-.922.299-.342.418-.453.684-.453.268 0 .387.111.687.454.322.367.807.922 1.722.922.913 0 1.399-.555 1.72-.922.301-.343.42-.453.688-.453a1.376 1.376 0 0 1 1.1 2.2z" fill="#4A249D"/></svg>