<svg width="48" height="47" fill="none" xmlns="http://www.w3.org/2000/svg"><path d="M47.374 28.659l.007-.003-7.717-16.836 1.872-.932-.7-1.402-1.825.909-.247-.538a.783.783 0 0 0-1.424 0l-.22.48a10.077 10.077 0 0 0-4.238-.937h-6.58V7.833h1.567V6.267h-1.347l.564-2.254a3.23 3.23 0 1 0-6.267 0l.563 2.253h-1.346v1.567h1.566V9.4h-6.576a10.076 10.076 0 0 0-4.241.94l-.22-.481a.783.783 0 0 0-1.425 0l-.246.538-1.825-.913-.7 1.404 1.871.935L.524 28.656a.765.765 0 0 0-.071.327 5.49 5.49 0 0 0 5.483 5.483h7.833a5.49 5.49 0 0 0 5.483-5.483.765.765 0 0 0-.078-.324l-7.738-16.9a8.522 8.522 0 0 1 3.59-.793h6.576v28.66L18.928 42.3H16.12a3.921 3.921 0 0 0-3.917 3.916c0 .433.351.784.784.784H34.92a.783.783 0 0 0 .783-.784 3.921 3.921 0 0 0-3.916-3.916h-2.81l-2.674-2.675V10.966h6.58c1.24 0 2.465.27 3.59.793l-7.748 16.897a.765.765 0 0 0-.072.327 5.49 5.49 0 0 0 5.484 5.483h7.833a5.49 5.49 0 0 0 5.483-5.483.762.762 0 0 0-.078-.324zm-33.605 4.24H5.936a3.923 3.923 0 0 1-3.838-3.133h15.51a3.923 3.923 0 0 1-3.839 3.134zm3.48-4.7H2.456l7.196-15.698c.131.035.27.035.401 0L17.249 28.2zm5.393-25.993a1.714 1.714 0 0 1 2.62 0c.318.403.43.93.304 1.427l-.659 2.634h-1.91l-.658-2.634a1.654 1.654 0 0 1 .303-1.427zm.527 7.194V7.833h1.567V9.4h-1.567zm1.567 1.566v28.2h-1.567v-28.2h1.567zm7.05 32.9a2.354 2.354 0 0 1 2.216 1.567H13.903a2.355 2.355 0 0 1 2.216-1.567h15.667zM26.76 42.3h-5.618l1.567-1.567h2.485L26.76 42.3zm11.09-29.797a.53.53 0 0 0 .395-.016L45.448 28.2H30.656l7.194-15.697zM41.968 32.9h-7.833a3.923 3.923 0 0 1-3.839-3.134h15.51A3.923 3.923 0 0 1 41.97 32.9z" fill="#4A249D"/></svg>