<svg width="40" height="47" fill="none" xmlns="http://www.w3.org/2000/svg"><path d="M38.942 8.116c-6.329-1.772-12.695-4.53-18.41-7.979a.95.95 0 0 0-.984 0C13.668 3.684 7.646 6.294 1.137 8.116a.985.985 0 0 0-.712.953v10.102c0 10.403 4.697 17.289 8.637 21.233C13.304 44.651 18.246 47 20.04 47c1.794 0 6.735-2.349 10.977-6.596 3.94-3.944 8.637-10.83 8.637-21.233V9.07a.985.985 0 0 0-.712-.953zM37.72 19.17c0 9.716-4.381 16.142-8.056 19.821-4.172 4.176-8.632 6.03-9.623 6.03-.991 0-5.452-1.854-9.623-6.03-3.676-3.68-8.057-10.105-8.057-19.82V9.82c6.224-1.806 12.021-4.326 17.68-7.686C25.558 5.405 31.643 8.05 37.719 9.82v9.351z" fill="#4A249D"/><path d="M11.463 9.71a.961.961 0 0 0-1.255-.558 77.63 77.63 0 0 1-5.274 1.904.987.987 0 0 0-.678.943v3.818c0 .546.434.988.968.988a.978.978 0 0 0 .968-.988V12.72a79.573 79.573 0 0 0 4.725-1.73.995.995 0 0 0 .546-1.282zm1.837.187a.95.95 0 0 0 .389-.084l.018-.007c.49-.22.71-.802.495-1.302a.962.962 0 0 0-1.277-.507l-.015.007a.995.995 0 0 0-.497 1.3.968.968 0 0 0 .888.593zM31.568 31.88a.955.955 0 0 0-1.339.286 23.978 23.978 0 0 1-2.78 3.549c-.863.91-1.796 1.76-2.776 2.523a1.003 1.003 0 0 0-.183 1.386.96.96 0 0 0 .77.389.95.95 0 0 0 .586-.203 26.875 26.875 0 0 0 2.994-2.72 25.93 25.93 0 0 0 3.01-3.842 1.002 1.002 0 0 0-.282-1.369zm-9.143 7.909l-.055.033a1 1 0 0 0-.353 1.351c.18.317.505.494.839.494a.946.946 0 0 0 .483-.134l.065-.038a1 1 0 0 0 .346-1.353.957.957 0 0 0-1.325-.353zm-8.981-18.307a3.092 3.092 0 0 0-2.225-.94c-.84 0-1.63.333-2.225.94a3.269 3.269 0 0 0 0 4.547l5.714 5.838a3.093 3.093 0 0 0 2.225.941c.84 0 1.63-.334 2.225-.941L31.085 19.68a3.269 3.269 0 0 0 0-4.547 3.092 3.092 0 0 0-2.225-.941c-.84 0-1.63.334-2.225.941l-9.702 9.914-3.489-3.565zm14.56-4.95a1.19 1.19 0 0 1 1.713 0 1.258 1.258 0 0 1 0 1.75L17.789 30.469a1.19 1.19 0 0 1-1.713 0l-5.713-5.838a1.258 1.258 0 0 1 0-1.75 1.192 1.192 0 0 1 1.713 0l4.172 4.263a.956.956 0 0 0 1.368 0l10.388-10.613z" fill="#4A249D"/></svg>