<svg width="171" height="51" viewBox="0 0 171 51" fill="none" xmlns="http://www.w3.org/2000/svg">
<path d="M21.5342 37.2266H30.8557V39.9534H25.004V42.3648H30.4806V45.0731H25.004V50.434H21.5342V37.2266Z" fill="#980A00"/>
<path d="M32.2522 40.3546H34.9431V50.434H32.2522V40.3546Z" fill="#980A00"/>
<path d="M45.9481 40.3546V50.434H43.9585L39.3353 44.7148V50.434H36.8304V40.3546H38.7914L43.4146 46.0455V40.3546H45.9481Z" fill="#980A00"/>
<path d="M54.709 48.353H50.1859L49.2842 50.434H46.5933L51.3596 40.3546H53.478L58.2587 50.434H55.6107L54.709 48.353ZM53.8359 46.3569L52.4475 43.1717L51.0591 46.3569H53.8359Z" fill="#980A00"/>
<path d="M68.0062 40.3546V50.434H66.0167L61.3934 44.7148V50.434H58.8886V40.3546H60.8495L65.4728 46.0455V40.3546H68.0062Z" fill="#980A00"/>
<path d="M73.5895 50.5614C72.8262 50.5614 72.0723 50.4623 71.328 50.2641C70.5837 50.0659 69.9778 49.7969 69.5102 49.4572L70.3547 47.5744C70.8509 47.8858 71.3757 48.1265 71.9292 48.2963C72.4922 48.4568 73.0552 48.537 73.6182 48.537C74.1907 48.537 74.6297 48.4615 74.935 48.3105C75.2404 48.1501 75.393 47.9283 75.393 47.6452C75.393 47.3903 75.2547 47.1827 74.978 47.0223C74.7012 46.8524 74.1812 46.6872 73.4178 46.5268C72.454 46.3381 71.7049 46.1068 71.1706 45.8331C70.6362 45.55 70.2593 45.2197 70.0398 44.8422C69.8299 44.4647 69.7249 44.007 69.7249 43.469C69.7249 42.8556 69.9014 42.3035 70.2545 41.8127C70.6076 41.3125 71.1038 40.9256 71.7431 40.6519C72.3824 40.3688 73.1124 40.2272 73.9331 40.2272C74.6678 40.2272 75.3787 40.331 76.0658 40.5387C76.7624 40.7369 77.3063 41.0011 77.6975 41.3314L76.8673 43.2142C76.4188 42.9028 75.9465 42.6668 75.4503 42.5064C74.9541 42.3365 74.4579 42.2516 73.9617 42.2516C73.475 42.2516 73.0838 42.346 72.788 42.5347C72.4922 42.714 72.3443 42.9594 72.3443 43.2708C72.3443 43.4407 72.3968 43.5823 72.5017 43.6955C72.6067 43.8088 72.8023 43.922 73.0886 44.0353C73.3748 44.1391 73.8042 44.2523 74.3768 44.375C75.3024 44.5732 76.0276 44.8139 76.5524 45.097C77.0868 45.3707 77.4637 45.6963 77.6832 46.0738C77.9027 46.4419 78.0124 46.8854 78.0124 47.4045C78.0124 48.386 77.6259 49.1599 76.853 49.7261C76.0801 50.283 74.9923 50.5614 73.5895 50.5614Z" fill="#980A00"/>
<path d="M81.6434 42.5064H78.6089V40.3546H87.3974V42.5064H84.3629V50.434H81.6434V42.5064Z" fill="#980A00"/>
<path d="M88.5302 40.3546H91.2211V50.434H88.5302V40.3546Z" fill="#980A00"/>
<path d="M93.1084 40.3546H95.7994V48.2822H100.108V50.434H93.1084V40.3546Z" fill="#980A00"/>
<path d="M105.028 50.5614C104.264 50.5614 103.511 50.4623 102.766 50.2641C102.022 50.0659 101.416 49.7969 100.948 49.4572L101.793 47.5744C102.289 47.8858 102.814 48.1265 103.367 48.2963C103.93 48.4568 104.493 48.537 105.056 48.537C105.629 48.537 106.068 48.4615 106.373 48.3105C106.679 48.1501 106.831 47.9283 106.831 47.6452C106.831 47.3903 106.693 47.1827 106.416 47.0223C106.139 46.8524 105.619 46.6872 104.856 46.5268C103.892 46.3381 103.143 46.1068 102.609 45.8331C102.074 45.55 101.698 45.2197 101.478 44.8422C101.268 44.4647 101.163 44.007 101.163 43.469C101.163 42.8556 101.34 42.3035 101.693 41.8127C102.046 41.3125 102.542 40.9256 103.181 40.6519C103.821 40.3688 104.551 40.2272 105.371 40.2272C106.106 40.2272 106.817 40.331 107.504 40.5387C108.201 40.7369 108.745 41.0011 109.136 41.3314L108.306 43.2142C107.857 42.9028 107.385 42.6668 106.889 42.5064C106.392 42.3365 105.896 42.2516 105.4 42.2516C104.913 42.2516 104.522 42.346 104.226 42.5347C103.93 42.714 103.783 42.9594 103.783 43.2708C103.783 43.4407 103.835 43.5823 103.94 43.6955C104.045 43.8088 104.241 43.922 104.527 44.0353C104.813 44.1391 105.242 44.2523 105.815 44.375C106.741 44.5732 107.466 44.8139 107.991 45.097C108.525 45.3707 108.902 45.6963 109.121 46.0738C109.341 46.4419 109.451 46.8854 109.451 47.4045C109.451 48.386 109.064 49.1599 108.291 49.7261C107.518 50.283 106.431 50.5614 105.028 50.5614Z" fill="#980A00"/>
<path d="M115.832 46.5834V50.434H113.127V46.5693L108.847 40.3546H111.882L114.458 44.375L117.077 40.3546H120.141L115.832 46.5834Z" fill="#980A00"/>
<path d="M129.268 40.3546V50.434H127.278L122.655 44.7148V50.434H120.15V40.3546H122.111L126.734 46.0455V40.3546H129.268Z" fill="#980A00"/>
<path d="M131.158 40.3546H138.43V42.3931H133.778V44.2901H138.129V46.3286H133.778V48.3954H138.43V50.434H131.158V40.3546Z" fill="#980A00"/>
<path d="M142.374 42.5064H139.339V40.3546H148.128V42.5064H145.093V50.434H142.374V42.5064Z" fill="#980A00"/>
<path fill-rule="evenodd" clip-rule="evenodd" d="M73.9834 25.8167C45.4463 25.8167 13.0233 31.3357 0.390159 34.0942L0 32.3464C12.7033 29.5726 45.2667 24.0269 73.9834 24.0269V25.8167Z" fill="#980A00"/>
<path fill-rule="evenodd" clip-rule="evenodd" d="M97.0165 25.8167C125.554 25.8167 157.977 31.3357 170.61 34.0942L171 32.3464C158.297 29.5726 125.733 24.0269 97.0165 24.0269V25.8167Z" fill="#980A00"/>
<path fill-rule="evenodd" clip-rule="evenodd" d="M85.0069 1.73447V0.27002H85.994V1.73447H87.4747V2.71077H85.994V6.77868H85.0069V2.71077H83.6907V1.73447H85.0069Z" fill="#F8963D"/>
<path d="M87.6392 6.45324C87.6392 7.57657 86.7185 8.4872 85.5827 8.4872C84.4469 8.4872 83.5262 7.57657 83.5262 6.45324C83.5262 5.32992 84.4469 4.41929 85.5827 4.41929C86.7185 4.41929 87.6392 5.32992 87.6392 6.45324Z" fill="#F8963D"/>
<path fill-rule="evenodd" clip-rule="evenodd" d="M80.2937 9.61449C80.0042 9.74111 79.7914 9.96164 79.7378 10.4393C79.6285 11.4118 79.9338 12.3995 80.4011 13.275C80.8663 14.1467 81.4597 14.8454 81.8286 15.2103L80.7816 16.2458C80.3279 15.7971 79.6381 14.9826 79.0916 13.9586C78.7903 13.3942 78.5226 12.747 78.3696 12.0492C77.4841 11.5577 76.3775 11.1806 75.4651 11.1408C74.9656 11.119 74.5965 11.2012 74.3543 11.3466C74.1416 11.4743 73.9622 11.6871 73.8917 12.1059C73.8268 12.4912 73.966 12.9134 74.4342 13.5192C74.7785 13.9647 75.2242 14.4174 75.7517 14.9533C75.9597 15.1646 76.1804 15.3888 76.4126 15.6305L75.3391 16.6392C75.1455 16.4376 74.9483 16.2373 74.7528 16.0388C74.1993 15.4767 73.6599 14.9289 73.2578 14.4085C72.7018 13.6891 72.2653 12.8502 72.4311 11.8652C72.5662 11.0636 72.9728 10.4629 73.5859 10.0948C74.1694 9.74446 74.8657 9.64873 75.5304 9.67776C76.4253 9.71685 77.3932 9.98731 78.2574 10.3611C78.2601 10.3333 78.263 10.3055 78.2661 10.2776C78.377 9.2908 78.9148 8.61639 79.6947 8.2752C80.4174 7.95908 81.2776 7.95696 82.0679 8.09094C82.8726 8.22738 83.6929 8.51953 84.3934 8.88832C85.0799 9.24969 85.7242 9.72299 86.1071 10.264L86.2409 10.4531V15.7281H84.7602V10.9416C84.537 10.7028 84.1744 10.432 83.6977 10.1811C83.1233 9.87865 82.4525 9.64197 81.8177 9.53433C81.1684 9.42424 80.6405 9.4628 80.2937 9.61449Z" fill="#F8963D"/>
<path fill-rule="evenodd" clip-rule="evenodd" d="M90.7075 9.61449C90.997 9.74111 91.2098 9.96164 91.2634 10.4393C91.3727 11.4118 91.0674 12.3995 90.6001 13.275C90.1349 14.1467 89.5415 14.8454 89.1726 15.2103L90.2196 16.2458C90.6733 15.7971 91.3631 14.9826 91.9096 13.9586C92.2109 13.3942 92.4786 12.747 92.6316 12.0492C93.5171 11.5577 94.6237 11.1806 95.5361 11.1408C96.0356 11.119 96.4047 11.2012 96.6469 11.3466C96.8596 11.4743 97.039 11.6871 97.1095 12.1059C97.1744 12.4912 97.0352 12.9134 96.567 13.5192C96.2227 13.9647 95.777 14.4174 95.2495 14.9533C95.0415 15.1646 94.8208 15.3888 94.5886 15.6305L95.6621 16.6392C95.8556 16.4376 96.0529 16.2373 96.2484 16.0388C96.8019 15.4767 97.3413 14.9289 97.7434 14.4085C98.2994 13.6891 98.7359 12.8502 98.5701 11.8652C98.435 11.0636 98.0284 10.4629 97.4153 10.0948C96.8318 9.74446 96.1355 9.64873 95.4708 9.67776C94.5759 9.71685 93.608 9.98731 92.7437 10.3611C92.7411 10.3333 92.7382 10.3055 92.7351 10.2776C92.6242 9.2908 92.0864 8.61639 91.3065 8.2752C90.5838 7.95908 89.7236 7.95696 88.9333 8.09094C88.1286 8.22738 87.3083 8.51953 86.6078 8.88832C85.9213 9.24969 85.277 9.72299 84.8941 10.264L84.7603 10.4531L84.7602 15.7281H86.2409L86.241 10.9416C86.4642 10.7028 86.8268 10.432 87.3035 10.1811C87.8779 9.87865 88.5487 9.64197 89.1835 9.53433C89.8328 9.42424 90.3607 9.4628 90.7075 9.61449Z" fill="#F8963D"/>
<path d="M78.9195 18.0875C78.9195 18.9861 78.1829 19.7146 77.2743 19.7146C76.3657 19.7146 75.6291 18.9861 75.6291 18.0875C75.6291 17.1888 76.3657 16.4603 77.2743 16.4603C78.1829 16.4603 78.9195 17.1888 78.9195 18.0875Z" fill="#F8963D"/>
<path d="M83.0326 18.0875C83.0326 18.9861 82.296 19.7146 81.3874 19.7146C80.4787 19.7146 79.7421 18.9861 79.7421 18.0875C79.7421 17.1888 80.4787 16.4603 81.3874 16.4603C82.296 16.4603 83.0326 17.1888 83.0326 18.0875Z" fill="#F8963D"/>
<path d="M87.1457 18.0875C87.1457 18.9861 86.4091 19.7146 85.5004 19.7146C84.5918 19.7146 83.8552 18.9861 83.8552 18.0875C83.8552 17.1888 84.5918 16.4603 85.5004 16.4603C86.4091 16.4603 87.1457 17.1888 87.1457 18.0875Z" fill="#F8963D"/>
<path d="M91.2587 18.0875C91.2587 18.9861 90.5221 19.7146 89.6135 19.7146C88.7049 19.7146 87.9683 18.9861 87.9683 18.0875C87.9683 17.1888 88.7049 16.4603 89.6135 16.4603C90.5221 16.4603 91.2587 17.1888 91.2587 18.0875Z" fill="#F8963D"/>
<path d="M95.3718 18.0875C95.3718 18.9861 94.6352 19.7146 93.7266 19.7146C92.8179 19.7146 92.0813 18.9861 92.0813 18.0875C92.0813 17.1888 92.8179 16.4603 93.7266 16.4603C94.6352 16.4603 95.3718 17.1888 95.3718 18.0875Z" fill="#F8963D"/>
<path d="M77.2743 21.3418H93.7266V23.1317H77.2743V21.3418Z" fill="#F8963D"/>
<path d="M77.2743 24.108H93.7266V25.8979H77.2743V24.108Z" fill="#F8963D"/>
</svg>
