<svg width="46" height="47" viewBox="0 0 46 47" fill="none" xmlns="http://www.w3.org/2000/svg">
<g clip-path="url(#clip0)">
<path d="M45.8684 23.7232C45.8684 31.3974 39.7527 37.6695 32.108 37.6695C24.5362 37.6695 18.3477 31.3974 18.3477 23.7232C18.3477 16.049 24.4634 9.77686 32.0352 9.77686C39.7527 9.77686 45.8684 16.049 45.8684 23.7232Z" fill="#FFB600"/>
<path d="M32.108 9.77686C39.6799 9.77686 45.8684 16.049 45.8684 23.7232C45.8684 31.3974 39.7527 37.6695 32.108 37.6695C24.5362 37.6695 18.3477 31.3974 18.3477 23.7232" fill="#F7981D"/>
<path d="M32.1074 9.77686C39.6793 9.77686 45.8678 16.049 45.8678 23.7232C45.8678 31.3974 39.7521 37.6695 32.1074 37.6695" fill="#FF8500"/>
<path d="M13.6148 9.77686C6.11573 9.85065 0 16.049 0 23.7232C0 31.3974 6.11573 37.6695 13.7604 37.6695C17.3279 37.6695 20.5314 36.2675 23.0068 34.0538C23.5164 33.6111 23.9533 33.0945 24.3901 32.578H21.5506C21.1866 32.1353 20.8226 31.6187 20.5314 31.176H25.4094C25.7006 30.7332 25.9918 30.2167 26.2103 29.7002H19.7305C19.5121 29.2574 19.2937 28.7409 19.148 28.2244H26.7199C27.1567 26.8224 27.448 25.3466 27.448 23.797C27.448 22.7639 27.3023 21.8046 27.1567 20.8454H18.7112C18.784 20.3288 18.9296 19.8861 19.0752 19.3696H26.6471C26.5015 18.853 26.2831 18.3365 26.0646 17.8938H19.6577C19.8761 17.3772 20.1673 16.9345 20.4586 16.418H25.3366C25.0453 15.9014 24.6813 15.3849 24.2445 14.9422H21.5506C21.9875 14.4256 22.4243 13.9829 22.934 13.5402C20.5314 11.2527 17.2551 9.92444 13.6876 9.92444C13.6876 9.77686 13.6876 9.77686 13.6148 9.77686Z" fill="#FF5050"/>
<path d="M0 23.7231C0 31.3972 6.11573 37.6694 13.7604 37.6694C17.3279 37.6694 20.5314 36.2674 23.0068 34.0537C23.5164 33.6109 23.9533 33.0944 24.3901 32.5779H21.5506C21.1866 32.1351 20.8226 31.6186 20.5314 31.1759H25.4094C25.7006 30.7331 25.9918 30.2166 26.2103 29.7001H19.7305C19.5121 29.2573 19.2937 28.7408 19.148 28.2243H26.7199C27.1567 26.8223 27.448 25.3464 27.448 23.7969C27.448 22.7638 27.3023 21.8045 27.1567 20.8453H18.7112C18.784 20.3287 18.9296 19.886 19.0752 19.3695H26.6471C26.5015 18.8529 26.2831 18.3364 26.0646 17.8936H19.6577C19.8761 17.3771 20.1673 16.9344 20.4586 16.4178H25.3366C25.0453 15.9013 24.6813 15.3848 24.2445 14.942H21.5506C21.9875 14.4255 22.4243 13.9828 22.934 13.54C20.5314 11.2525 17.2551 9.92432 13.6876 9.92432H13.6148" fill="#E52836"/>
<path d="M13.7608 37.6694C17.3284 37.6694 20.5318 36.2674 23.0072 34.0537C23.5169 33.6109 23.9537 33.0944 24.3906 32.5779H21.5511C21.1871 32.1351 20.8231 31.6186 20.5318 31.1759H25.4098C25.7011 30.7331 25.9923 30.2166 26.2107 29.7001H19.731C19.5125 29.2573 19.2941 28.7408 19.1485 28.2243H26.7204C27.1572 26.8223 27.4484 25.3464 27.4484 23.7969C27.4484 22.7638 27.3028 21.8045 27.1572 20.8453H18.7117C18.7845 20.3287 18.9301 19.886 19.0757 19.3695H26.6475C26.5019 18.8529 26.2835 18.3364 26.0651 17.8936H19.6582C19.8766 17.3771 20.1678 16.9344 20.459 16.4178H25.337C25.0458 15.9013 24.6818 15.3848 24.2449 14.942H21.5511C21.988 14.4255 22.4248 13.9828 22.9344 13.54C20.5318 11.2525 17.2555 9.92432 13.688 9.92432H13.6152" fill="#CB2026"/>
<path d="M18.6387 27.265L18.8571 26.0106C18.7843 26.0106 18.6387 26.0844 18.4931 26.0844C17.9835 26.0844 17.9107 25.7892 17.9835 25.6416L18.4203 23.059H19.2212L19.4396 21.657H18.7115L18.8571 20.7715H17.401C17.401 20.7715 16.5273 25.6416 16.5273 26.232C16.5273 27.1174 17.037 27.4864 17.6922 27.4864C18.1291 27.4864 18.4931 27.3388 18.6387 27.265Z" fill="white"/>
<path d="M19.1484 24.9036C19.1484 26.9697 20.5318 27.4863 21.6967 27.4863C22.7888 27.4863 23.2256 27.2649 23.2256 27.2649L23.5168 25.8629C23.5168 25.8629 22.7159 26.2318 21.9879 26.2318C20.3861 26.2318 20.6774 25.0512 20.6774 25.0512H23.6624C23.6624 25.0512 23.8808 24.0919 23.8808 23.723C23.8808 22.7637 23.3712 21.5831 21.7695 21.5831C20.2405 21.4355 19.1484 23.0589 19.1484 24.9036ZM21.6967 22.7637C22.4975 22.7637 22.3519 23.723 22.3519 23.7968H20.7502C20.7502 23.723 20.8958 22.7637 21.6967 22.7637Z" fill="white"/>
<path d="M30.9428 27.2651L31.234 25.6417C31.234 25.6417 30.506 26.0106 29.9963 26.0106C28.9771 26.0106 28.5402 25.1989 28.5402 24.3135C28.5402 22.5425 29.4139 21.5832 30.4332 21.5832C31.1612 21.5832 31.7437 22.026 31.7437 22.026L31.9621 20.4764C31.9621 20.4764 31.0884 20.1074 30.2876 20.1074C28.613 20.1074 26.9385 21.5832 26.9385 24.3872C26.9385 26.232 27.8122 27.4864 29.5595 27.4864C30.142 27.4864 30.9428 27.2651 30.9428 27.2651Z" fill="white"/>
<path d="M10.6289 21.4355C9.60966 21.4355 8.88159 21.7307 8.88159 21.7307L8.66317 22.9851C8.66317 22.9851 9.31843 22.69 10.2649 22.69C10.7746 22.69 11.2114 22.7638 11.2114 23.2065C11.2114 23.5017 11.1386 23.5755 11.1386 23.5755C11.1386 23.5755 10.7018 23.5755 10.4833 23.5755C9.24562 23.5755 7.8623 24.092 7.8623 25.7892C7.8623 27.1174 8.73598 27.4126 9.24562 27.4126C10.2649 27.4126 10.7018 26.7484 10.7746 26.7484L10.7018 27.3388H12.0123L12.5947 23.2803C12.5947 21.5093 11.1386 21.4355 10.6289 21.4355ZM10.9202 24.7561C10.9202 24.9775 10.7746 26.1581 9.90088 26.1581C9.46404 26.1581 9.31843 25.7892 9.31843 25.5678C9.31843 25.1988 9.53685 24.6823 10.6289 24.6823C10.8474 24.7561 10.9202 24.7561 10.9202 24.7561Z" fill="white"/>
<path d="M13.9783 27.4126C14.3423 27.4126 16.1624 27.4864 16.1624 25.4941C16.1624 23.6493 14.4151 24.0183 14.4151 23.2804C14.4151 22.9114 14.7063 22.7638 15.216 22.7638C15.4344 22.7638 16.2352 22.8376 16.2352 22.8376L16.4537 21.5094C16.4537 21.5094 15.944 21.3618 15.0703 21.3618C13.9783 21.3618 12.8862 21.8046 12.8862 23.2804C12.8862 24.9775 14.7063 24.83 14.7063 25.4941C14.7063 25.9368 14.1967 26.0106 13.8326 26.0106C13.1774 26.0106 12.5221 25.7892 12.5221 25.7892L12.3037 27.1174C12.3765 27.265 12.7405 27.4126 13.9783 27.4126Z" fill="white"/>
<path d="M43.0279 20.2549L42.7367 22.2472C42.7367 22.2472 42.1542 21.5093 41.3533 21.5093C40.0428 21.5093 38.8779 23.1327 38.8779 25.0512C38.8779 26.2319 39.4604 27.4863 40.6981 27.4863C41.5718 27.4863 42.0814 26.896 42.0814 26.896L42.0086 27.4125H43.4647L44.5568 20.3287L43.0279 20.2549ZM42.3726 24.1658C42.3726 24.9775 42.0086 26.0105 41.2077 26.0105C40.6981 26.0105 40.4069 25.5678 40.4069 24.8299C40.4069 23.6492 40.9165 22.9113 41.5718 22.9113C42.0814 22.9113 42.3726 23.2803 42.3726 24.1658Z" fill="white"/>
<path d="M2.69387 27.3387L3.56754 22.0258L3.71315 27.3387H4.73244L6.6254 22.0258L5.82453 27.3387H7.35346L8.51836 20.2549H6.11576L4.65963 24.6085L4.58683 20.2549H2.47545L1.31055 27.3387H2.69387Z" fill="white"/>
<path d="M25.2638 27.3391C25.7007 24.9041 25.7735 22.9117 26.7928 23.2807C26.9384 22.3214 27.1568 21.9524 27.3024 21.5835C27.3024 21.5835 27.2296 21.5835 27.0112 21.5835C26.3559 21.5835 25.8463 22.469 25.8463 22.469L25.9919 21.6573H24.6086L23.6621 27.4129H25.2638V27.3391Z" fill="white"/>
<path d="M34.2911 21.4355C33.2718 21.4355 32.5437 21.7307 32.5437 21.7307L32.3253 22.9851C32.3253 22.9851 32.9805 22.69 33.927 22.69C34.4367 22.69 34.8735 22.7638 34.8735 23.2065C34.8735 23.5017 34.8007 23.5755 34.8007 23.5755C34.8007 23.5755 34.3639 23.5755 34.1454 23.5755C32.9077 23.5755 31.5244 24.092 31.5244 25.7892C31.5244 27.1174 32.3981 27.4126 32.9077 27.4126C33.927 27.4126 34.3639 26.7484 34.4367 26.7484L34.3639 27.3388H35.6744L36.2568 23.2803C36.3296 21.5093 34.8007 21.4355 34.2911 21.4355ZM34.6551 24.7561C34.6551 24.9775 34.5095 26.1581 33.6358 26.1581C33.199 26.1581 33.0533 25.7892 33.0533 25.5678C33.0533 25.1988 33.2718 24.6823 34.3639 24.6823C34.5823 24.7561 34.5823 24.7561 34.6551 24.7561Z" fill="white"/>
<path d="M37.4953 27.3391C37.9321 24.9041 38.0049 22.9117 39.0242 23.2807C39.1698 22.3214 39.3883 21.9524 39.5339 21.5835C39.5339 21.5835 39.4611 21.5835 39.2426 21.5835C38.5874 21.5835 38.0777 22.469 38.0777 22.469L38.2234 21.6573H36.84L35.8936 27.4129H37.4953V27.3391Z" fill="white"/>
<path d="M16.3818 26.232C16.3818 27.1174 16.8915 27.4864 17.5467 27.4864C18.0564 27.4864 18.4932 27.3388 18.6388 27.265L18.8572 26.0106C18.7844 26.0106 18.6388 26.0844 18.4932 26.0844C17.9836 26.0844 17.9108 25.7892 17.9836 25.6416L18.4204 23.059H19.2213L19.4397 21.657H18.7116L18.8572 20.7715" fill="#DCE5E5"/>
<path d="M19.876 24.9036C19.876 26.9697 20.5312 27.4863 21.6961 27.4863C22.7882 27.4863 23.2251 27.2649 23.2251 27.2649L23.5163 25.8629C23.5163 25.8629 22.7154 26.2318 21.9874 26.2318C20.3856 26.2318 20.6768 25.0512 20.6768 25.0512H23.6619C23.6619 25.0512 23.8803 24.0919 23.8803 23.723C23.8803 22.7637 23.3707 21.5831 21.7689 21.5831C20.24 21.4355 19.876 23.0589 19.876 24.9036ZM21.6961 22.7637C22.497 22.7637 22.6426 23.723 22.6426 23.7968H20.7497C20.7497 23.723 20.8953 22.7637 21.6961 22.7637Z" fill="#DCE5E5"/>
<path d="M30.9433 27.2651L31.2345 25.6417C31.2345 25.6417 30.5064 26.0106 29.9968 26.0106C28.9775 26.0106 28.5407 25.1989 28.5407 24.3135C28.5407 22.5425 29.4143 21.5832 30.4336 21.5832C31.1617 21.5832 31.7441 22.026 31.7441 22.026L31.9626 20.4764C31.9626 20.4764 31.0889 20.1074 30.288 20.1074C28.6135 20.1074 27.667 21.5832 27.667 24.3872C27.667 26.232 27.8126 27.4864 29.56 27.4864C30.1424 27.4864 30.9433 27.2651 30.9433 27.2651Z" fill="#DCE5E5"/>
<path d="M8.66317 23.0593C8.66317 23.0593 9.31843 22.7641 10.2649 22.7641C10.7746 22.7641 11.2114 22.8379 11.2114 23.2807C11.2114 23.5758 11.1386 23.6496 11.1386 23.6496C11.1386 23.6496 10.7018 23.6496 10.4833 23.6496C9.24562 23.6496 7.8623 24.1662 7.8623 25.8633C7.8623 27.1915 8.73598 27.4867 9.24562 27.4867C10.2649 27.4867 10.7018 26.8226 10.7746 26.8226L10.7018 27.4129H12.0123L12.5947 23.3545C12.5947 21.6573 11.1386 21.5835 10.5561 21.5835L8.66317 23.0593ZM11.6482 24.7565C11.6482 24.9778 10.7746 26.1585 9.90088 26.1585C9.46404 26.1585 9.31843 25.7895 9.31843 25.5682C9.31843 25.1992 9.53685 24.6827 10.6289 24.6827C10.8474 24.7565 11.6482 24.7565 11.6482 24.7565Z" fill="#DCE5E5"/>
<path d="M12.377 27.265C12.377 27.265 12.8138 27.4126 14.0515 27.4126C14.4155 27.4126 16.2357 27.4864 16.2357 25.4941C16.2357 23.6493 14.4883 24.0183 14.4883 23.2804C14.4883 22.9114 14.7796 22.7638 15.2892 22.7638C15.5076 22.7638 16.3085 22.8376 16.3085 22.8376L16.5269 21.5094C16.5269 21.5094 16.0173 21.3618 15.1436 21.3618C14.0515 21.3618 13.6875 21.8046 13.6875 23.2804C13.6875 24.9775 14.7796 24.83 14.7796 25.4941C14.7796 25.9368 14.2699 26.0106 13.9059 26.0106" fill="#DCE5E5"/>
<path d="M42.7375 22.2472C42.7375 22.2472 42.1551 21.5093 41.3542 21.5093C40.0437 21.5093 39.6068 23.1326 39.6068 25.0512C39.6068 26.2318 39.4612 27.4863 40.6989 27.4863C41.5726 27.4863 42.0823 26.8959 42.0823 26.8959L42.0094 27.4125H43.4656L44.5577 20.3286L42.7375 22.2472ZM42.6647 24.1657C42.6647 24.9774 42.0094 26.0104 41.2086 26.0104C40.6989 26.0104 40.4077 25.5677 40.4077 24.8298C40.4077 23.6492 40.9174 22.9113 41.5726 22.9113C42.0823 22.9113 42.6647 23.2802 42.6647 24.1657Z" fill="#DCE5E5"/>
<path d="M2.69387 27.3387L3.56754 22.0258L3.71315 27.3387H4.73244L6.6254 22.0258L5.82453 27.3387H7.35346L8.51836 20.2549H6.69821L4.65963 24.6085L4.58683 20.2549H3.78596L1.31055 27.3387H2.69387Z" fill="#DCE5E5"/>
<path d="M23.7344 27.3391H25.2633C25.7001 24.9041 25.7729 22.9117 26.7922 23.2807C26.9378 22.3214 27.1563 21.9524 27.3019 21.5835C27.3019 21.5835 27.2291 21.5835 27.0107 21.5835C26.3554 21.5835 25.8458 22.469 25.8458 22.469L25.9914 21.6573" fill="#DCE5E5"/>
<path d="M32.3253 23.0593C32.3253 23.0593 32.9805 22.7641 33.927 22.7641C34.4367 22.7641 34.8735 22.8379 34.8735 23.2807C34.8735 23.5758 34.8007 23.6496 34.8007 23.6496C34.8007 23.6496 34.3639 23.6496 34.1454 23.6496C32.9077 23.6496 31.5244 24.1662 31.5244 25.8633C31.5244 27.1915 32.3981 27.4867 32.9077 27.4867C33.927 27.4867 34.3639 26.8226 34.4367 26.8226L34.3639 27.4129H35.6744L36.2568 23.3545C36.2568 21.6573 34.8007 21.5835 34.2183 21.5835L32.3253 23.0593ZM35.3103 24.7565C35.3103 24.9778 34.4367 26.1585 33.563 26.1585C33.1262 26.1585 32.9805 25.7895 32.9805 25.5682C32.9805 25.1992 33.199 24.6827 34.2911 24.6827C34.5823 24.7565 35.3103 24.7565 35.3103 24.7565Z" fill="#DCE5E5"/>
<path d="M35.9658 27.3391H37.4948C37.9316 24.9041 38.0044 22.9117 39.0237 23.2807C39.1693 22.3214 39.3877 21.9524 39.5333 21.5835C39.5333 21.5835 39.4605 21.5835 39.2421 21.5835C38.5868 21.5835 38.0772 22.469 38.0772 22.469L38.2228 21.6573" fill="#DCE5E5"/>
</g>
<defs>
<clipPath id="clip0">
<rect width="45.8679" height="46.4878" fill="white" transform="translate(0 0.479004)"/>
</clipPath>
</defs>
</svg>
