<svg width="86" height="37" viewBox="0 0 86 37" fill="none" xmlns="http://www.w3.org/2000/svg">
<ellipse cx="17.7549" cy="18.5105" rx="17.7549" ry="17.76" fill="#1943EF"/>
<path d="M4.67183 16.7648L5.11283 18.1086H6.53994L5.38538 18.9391L5.82639 20.2829L4.67183 19.4524L3.51727 20.2829L3.95827 18.9391L2.80371 18.1086H4.23082L4.67183 16.7648Z" fill="#FEE55A"/>
<path d="M5.65395 10.7696L6.09496 12.1133H7.52207L6.36751 12.9439L6.80851 14.2877L5.65395 13.4571L4.49939 14.2877L4.9404 12.9439L3.78584 12.1133H5.21295L5.65395 10.7696Z" fill="#FEE55A"/>
<path d="M10.5646 5.90765L11.0056 7.25145H12.4327L11.2781 8.08196L11.7191 9.42576L10.5646 8.59524L9.41003 9.42576L9.85103 8.08196L8.69647 7.25145H10.1236L10.5646 5.90765Z" fill="#FEE55A"/>
<path d="M17.0109 3.96289L17.4519 5.30669H18.8791L17.7245 6.1372L18.1655 7.481L17.0109 6.65048L15.8564 7.481L16.2974 6.1372L15.1428 5.30669H16.5699L17.0109 3.96289Z" fill="#FEE55A"/>
<path d="M23.3322 5.90765L23.7732 7.25145H25.2003L24.0458 8.08196L24.4868 9.42576L23.3322 8.59524L22.1777 9.42576L22.6187 8.08196L21.4641 7.25145H22.8912L23.3322 5.90765Z" fill="#FEE55A"/>
<path d="M28.2429 10.7696L28.6839 12.1133H30.111L28.9564 12.9439L29.3974 14.2877L28.2429 13.4571L27.0883 14.2877L27.5293 12.9439L26.3748 12.1133H27.8019L28.2429 10.7696Z" fill="#FEE55A"/>
<path d="M30.2071 16.7648L30.6481 18.1086H32.0752L30.9207 18.9391L31.3617 20.2829L30.2071 19.4524L29.0526 20.2829L29.4936 18.9391L28.339 18.1086H29.7661L30.2071 16.7648Z" fill="#FEE55A"/>
<path d="M28.2429 23.4105L28.6839 24.7543H30.111L28.9564 25.5848L29.3974 26.9286L28.2429 26.0981L27.0883 26.9286L27.5293 25.5848L26.3748 24.7543H27.8019L28.2429 23.4105Z" fill="#FEE55A"/>
<path d="M23.3322 28.2724L23.7732 29.6162H25.2003L24.0458 30.4467L24.4868 31.7905L23.3322 30.96L22.1777 31.7905L22.6187 30.4467L21.4641 29.6162H22.8912L23.3322 28.2724Z" fill="#FEE55A"/>
<path d="M17.1482 29.2448L17.5892 30.5886H19.0163L17.8618 31.4191L18.3028 32.7629L17.1482 31.9324L15.9937 32.7629L16.4347 31.4191L15.2801 30.5886H16.7072L17.1482 29.2448Z" fill="#FEE55A"/>
<path d="M10.5646 27.3L11.0056 28.6438H12.4327L11.2781 29.4743L11.7191 30.8181L10.5646 29.9876L9.41003 30.8181L9.85103 29.4743L8.69647 28.6438H10.1236L10.5646 27.3Z" fill="#FEE55A"/>
<path d="M5.65395 23.4105L6.09496 24.7543H7.52207L6.36751 25.5848L6.80851 26.9286L5.65395 26.0981L4.49939 26.9286L4.9404 25.5848L3.78584 24.7543H5.21295L5.65395 23.4105Z" fill="#FEE55A"/>
<path d="M13.6998 16.1602V20.6179H12.972V17.8506L11.7655 20.6179H11.2229L10.01 17.8819V20.6179H9.28223V16.1602H9.93337L11.4974 19.6475L13.0487 16.1602H13.6998Z" fill="white"/>
<path d="M14.7554 17.4562H15.547V20.6179H14.7554V17.4562ZM15.5917 16.0225V16.7925H14.7043V16.0225H15.5917Z" fill="white"/>
<path d="M16.5971 16.1602H19.5655V16.8051H17.4142V18.0259H19.4379V18.6771H17.4142V20.6179H16.5971V16.1602Z" fill="white"/>
<path d="M20.37 16.1602H21.1935V20.6179H20.37V16.1602Z" fill="white"/>
<path d="M22.2976 16.1602H23.9701C24.7149 16.1602 25.2916 16.3543 25.7001 16.7425C26.1129 17.1306 26.3194 17.6774 26.3194 18.3828C26.3194 19.0924 26.1129 19.6433 25.7001 20.0357C25.2916 20.4239 24.7149 20.6179 23.9701 20.6179H22.2976V16.1602ZM23.9191 19.9605C24.966 19.9605 25.4895 19.4346 25.4895 18.3828C25.4895 17.3393 24.966 16.8176 23.9191 16.8176H23.1211V19.9605H23.9191Z" fill="white"/>
<path d="M54.4108 12.7348V24.1578H52.546V17.0665L49.4542 24.1578H48.0638L44.9557 17.1467V24.1578H43.0908V12.7348H44.7594L48.7672 21.671L52.7423 12.7348H54.4108Z" fill="white"/>
<path d="M56.9288 16.0558H58.9573V24.1578H56.9288V16.0558ZM59.0718 12.3818V14.3552H56.798V12.3818H59.0718Z" fill="white"/>
<path d="M61.4611 12.7348H69.0677V14.3873H63.555V17.5157H68.7406V19.1843H63.555V24.1578H61.4611V12.7348Z" fill="white"/>
<path d="M70.9421 12.7348H73.0524V24.1578H70.9421V12.7348Z" fill="white"/>
<path d="M75.6946 12.7348H79.9805C81.889 12.7348 83.3667 13.2321 84.4136 14.2268C85.4715 15.2215 86.0004 16.6227 86.0004 18.4302C86.0004 20.2485 85.4715 21.6603 84.4136 22.6657C83.3667 23.6604 81.889 24.1578 79.9805 24.1578H75.6946V12.7348ZM79.8496 22.4732C82.5324 22.4732 83.8738 21.1255 83.8738 18.4302C83.8738 15.7563 82.5324 14.4194 79.8496 14.4194H77.8048V22.4732H79.8496Z" fill="white"/>
</svg>
