<svg width="108" height="33" viewBox="0 0 108 33" fill="none" xmlns="http://www.w3.org/2000/svg">
<ellipse cx="15.7416" cy="16.4834" rx="15.7416" ry="15.7867" fill="#1943EF"/>
<path d="M4.14163 14.9317L4.53263 16.1262H5.79792L4.77428 16.8644L5.16527 18.0589L4.14163 17.3207L3.118 18.0589L3.50899 16.8644L2.48535 16.1262H3.75064L4.14163 14.9317Z" fill="#FEE55A"/>
<path d="M5.01239 9.60261L5.40339 10.7971H6.66867L5.64504 11.5353L6.03603 12.7298L5.01239 11.9916L3.98875 12.7298L4.37975 11.5353L3.35611 10.7971H4.6214L5.01239 9.60261Z" fill="#FEE55A"/>
<path d="M9.36619 5.28092L9.75718 6.47541H11.0225L9.99883 7.21364L10.3898 8.40813L9.36619 7.66989L8.34255 8.40813L8.73354 7.21364L7.70991 6.47541H8.97519L9.36619 5.28092Z" fill="#FEE55A"/>
<path d="M15.0816 3.55225L15.4726 4.74673H16.7378L15.7142 5.48496L16.1052 6.67945L15.0816 5.94122L14.0579 6.67945L14.4489 5.48496L13.4253 4.74673H14.6906L15.0816 3.55225Z" fill="#FEE55A"/>
<path d="M20.6861 5.28092L21.0771 6.47541H22.3423L21.3187 7.21364L21.7097 8.40813L20.6861 7.66989L19.6624 8.40813L20.0534 7.21364L19.0298 6.47541H20.2951L20.6861 5.28092Z" fill="#FEE55A"/>
<path d="M25.0399 9.60261L25.4308 10.7971H26.6961L25.6725 11.5353L26.0635 12.7298L25.0399 11.9916L24.0162 12.7298L24.4072 11.5353L23.3836 10.7971H24.6489L25.0399 9.60261Z" fill="#FEE55A"/>
<path d="M26.7814 14.9317L27.1724 16.1262H28.4377L27.414 16.8644L27.805 18.0589L26.7814 17.3207L25.7577 18.0589L26.1487 16.8644L25.1251 16.1262H26.3904L26.7814 14.9317Z" fill="#FEE55A"/>
<path d="M25.0399 20.839L25.4308 22.0335H26.6961L25.6725 22.7717L26.0635 23.9662L25.0399 23.228L24.0162 23.9662L24.4072 22.7717L23.3836 22.0335H24.6489L25.0399 20.839Z" fill="#FEE55A"/>
<path d="M20.6861 25.1607L21.0771 26.3552H22.3423L21.3187 27.0934L21.7097 28.2879L20.6861 27.5497L19.6624 28.2879L20.0534 27.0934L19.0298 26.3552H20.2951L20.6861 25.1607Z" fill="#FEE55A"/>
<path d="M15.2033 26.025L15.5943 27.2195H16.8596L15.8359 27.9578L16.2269 29.1522L15.2033 28.414L14.1796 29.1522L14.5706 27.9578L13.547 27.2195H14.8123L15.2033 26.025Z" fill="#FEE55A"/>
<path d="M9.36619 24.2964L9.75718 25.4908H11.0225L9.99883 26.2291L10.3898 27.4236L9.36619 26.6853L8.34255 27.4236L8.73354 26.2291L7.70991 25.4908H8.97519L9.36619 24.2964Z" fill="#FEE55A"/>
<path d="M5.01239 20.839L5.40339 22.0335H6.66867L5.64504 22.7717L6.03603 23.9662L5.01239 23.228L3.98875 23.9662L4.37975 22.7717L3.35611 22.0335H4.6214L5.01239 20.839Z" fill="#FEE55A"/>
<path d="M49.7555 4.95942V13.7623H48.3028V8.2976L45.8944 13.7623H44.8112L42.39 8.35942V13.7623H40.9373V4.95942H42.2371L45.3591 11.846L48.4557 4.95942H49.7555Z" fill="white"/>
<path d="M51.9634 4.95942H57.889V6.23287H53.5945V8.64378H57.6341V9.9296H53.5945V13.7623H51.9634V4.95942Z" fill="white"/>
<path d="M62.3278 13.8736C61.6312 13.8736 60.9771 13.7829 60.3654 13.6016C59.7622 13.4203 59.2482 13.1606 58.8235 12.8227L59.3842 11.6605C59.8259 11.982 60.2847 12.221 60.7604 12.3776C61.2447 12.526 61.7714 12.6001 62.3406 12.6001C62.9692 12.6001 63.4535 12.493 63.7933 12.2787C64.1416 12.0644 64.3158 11.7635 64.3158 11.3761C64.3158 11.0464 64.1544 10.7951 63.8315 10.622C63.5172 10.4406 62.9947 10.2717 62.2641 10.1151C61.1257 9.87602 60.2974 9.56693 59.7792 9.18778C59.261 8.80863 59.0019 8.25639 59.0019 7.53105C59.0019 7.01178 59.1463 6.55021 59.4351 6.14633C59.724 5.74245 60.1318 5.42511 60.6585 5.19433C61.1937 4.96354 61.8096 4.84814 62.5062 4.84814C63.1434 4.84814 63.7466 4.94293 64.3158 5.13251C64.8935 5.31384 65.365 5.56936 65.7303 5.89905L65.1823 7.06124C64.3752 6.43481 63.4832 6.1216 62.5062 6.1216C61.9201 6.1216 61.4571 6.24111 61.1172 6.48014C60.7774 6.71093 60.6075 7.02827 60.6075 7.43214C60.6075 7.77833 60.7562 8.04208 61.0535 8.22342C61.3594 8.40475 61.8776 8.57372 62.6082 8.73033C63.3643 8.90342 63.9802 9.09299 64.4559 9.29905C64.9317 9.49687 65.297 9.75651 65.5519 10.078C65.8067 10.3912 65.9342 10.7868 65.9342 11.2649C65.9342 11.7924 65.7897 12.254 65.5009 12.6496C65.212 13.037 64.7958 13.3378 64.2521 13.5521C63.7083 13.7664 63.0669 13.8736 62.3278 13.8736Z" fill="white"/>
<path d="M73.623 11.6976H69.1883L68.2708 13.7623H66.6142L70.7175 4.95942H72.0555L76.1716 13.7623H74.5277L73.623 11.6976ZM73.075 10.4612L71.4056 6.69033L69.7363 10.4612H73.075Z" fill="white"/>
<path d="M43.9829 27.6918C43.2863 27.6918 42.6321 27.6011 42.0204 27.4198C41.4173 27.2385 40.9033 26.9788 40.4785 26.6409L41.0392 25.4787C41.481 25.8001 41.9397 26.0392 42.4155 26.1958C42.8997 26.3441 43.4264 26.4183 43.9956 26.4183C44.6243 26.4183 45.1085 26.3112 45.4484 26.0969C45.7967 25.8826 45.9708 25.5817 45.9708 25.1943C45.9708 24.8646 45.8094 24.6132 45.4866 24.4401C45.1722 24.2588 44.6498 24.0898 43.9192 23.9332C42.7808 23.6942 41.9525 23.3851 41.4343 23.006C40.916 22.6268 40.6569 22.0746 40.6569 21.3492C40.6569 20.83 40.8013 20.3684 41.0902 19.9645C41.379 19.5606 41.7868 19.2433 42.3135 19.0125C42.8487 18.7817 43.4647 18.6663 44.1613 18.6663C44.7984 18.6663 45.4016 18.7611 45.9708 18.9507C46.5485 19.132 47.02 19.3875 47.3853 19.7172L46.8374 20.8794C46.0303 20.253 45.1383 19.9398 44.1613 19.9398C43.5751 19.9398 43.1121 20.0593 42.7723 20.2983C42.4325 20.5291 42.2626 20.8464 42.2626 21.2503C42.2626 21.5965 42.4112 21.8603 42.7086 22.0416C43.0144 22.2229 43.5326 22.3919 44.2632 22.5485C45.0193 22.7216 45.6353 22.9112 46.111 23.1172C46.5867 23.3151 46.952 23.5747 47.2069 23.8961C47.4618 24.2094 47.5892 24.605 47.5892 25.0831C47.5892 25.6106 47.4448 26.0721 47.1559 26.4678C46.8671 26.8552 46.4508 27.156 45.9071 27.3703C45.3634 27.5846 44.722 27.6918 43.9829 27.6918Z" fill="white"/>
<path d="M49.2229 21.3369H50.8031V27.5805H49.2229V21.3369ZM50.8923 18.5056V20.0263H49.121V18.5056H50.8923Z" fill="white"/>
<path d="M56.4532 21.1761C57.9909 21.1761 58.7598 22.0334 58.7598 23.7478V27.5805H57.1669V23.822C57.1669 23.3274 57.0692 22.9689 56.8738 22.7463C56.6784 22.5155 56.3768 22.4001 55.969 22.4001C55.4848 22.4001 55.094 22.5526 54.7966 22.8576C54.4993 23.1543 54.3506 23.55 54.3506 24.0445V27.5805H52.7705V23.1049C52.7705 22.4455 52.7365 21.8561 52.6685 21.3369H54.1595L54.2742 22.3631C54.495 21.9839 54.7924 21.6913 55.1662 21.4852C55.5485 21.2792 55.9775 21.1761 56.4532 21.1761Z" fill="white"/>
<path d="M63.5918 27.6794C62.9206 27.6794 62.3387 27.5475 61.846 27.2838C61.3532 27.02 60.9752 26.6491 60.7118 26.1711C60.4485 25.6848 60.3168 25.116 60.3168 24.4649C60.3168 23.8137 60.4527 23.2409 60.7246 22.7463C61.0049 22.2518 61.3957 21.8685 61.8969 21.5965C62.4067 21.3163 62.9929 21.1761 63.6555 21.1761C64.1143 21.1761 64.556 21.2462 64.9808 21.3863C65.4141 21.5264 65.7581 21.7201 66.013 21.9674L65.567 23.0554C65.2951 22.8411 65.0063 22.6804 64.7004 22.5732C64.3946 22.4578 64.093 22.4001 63.7957 22.4001C63.218 22.4001 62.7677 22.5774 62.4449 22.9318C62.1221 23.278 61.9607 23.7808 61.9607 24.4401C61.9607 25.0995 62.1178 25.6023 62.4322 25.9485C62.755 26.2947 63.2095 26.4678 63.7957 26.4678C64.093 26.4678 64.3946 26.4101 64.7004 26.2947C65.0063 26.1793 65.2951 26.0145 65.567 25.8001L66.013 26.8881C65.7411 27.1354 65.3886 27.3291 64.9553 27.4692C64.522 27.6094 64.0675 27.6794 63.5918 27.6794Z" fill="white"/>
<path d="M72.9399 24.5391H68.5053C68.5392 25.2067 68.7091 25.7012 69.015 26.0227C69.3293 26.3359 69.7923 26.4925 70.404 26.4925C71.1091 26.4925 71.7633 26.27 72.3664 25.8249L72.8252 26.8881C72.5194 27.1272 72.1413 27.3209 71.691 27.4692C71.2493 27.6094 70.799 27.6794 70.3403 27.6794C69.2868 27.6794 68.4585 27.3909 67.8554 26.814C67.2522 26.237 66.9506 25.4457 66.9506 24.4401C66.9506 23.8055 67.0823 23.2409 67.3456 22.7463C67.609 22.2518 67.9785 21.8685 68.4543 21.5965C68.93 21.3163 69.4695 21.1761 70.0727 21.1761C70.9562 21.1761 71.6528 21.4564 72.1625 22.0169C72.6808 22.5691 72.9399 23.3315 72.9399 24.3041V24.5391ZM70.1109 22.2889C69.6861 22.2889 69.3378 22.4125 69.066 22.6598C68.8026 22.8988 68.6327 23.2491 68.5562 23.7107H71.5509C71.4999 23.2409 71.3512 22.8864 71.1049 22.6474C70.867 22.4084 70.5357 22.2889 70.1109 22.2889Z" fill="white"/>
<path d="M84.3649 26.2823V27.5805H78.2737V26.406L81.3575 23.1791C81.7228 22.7917 81.9904 22.4372 82.1603 22.1158C82.3302 21.7943 82.4152 21.477 82.4152 21.1638C82.4152 20.7599 82.292 20.4549 82.0456 20.2489C81.8078 20.0428 81.4637 19.9398 81.0134 19.9398C80.2149 19.9398 79.3951 20.2448 78.554 20.8547L78.006 19.6925C78.3629 19.3793 78.8216 19.132 79.3823 18.9507C79.943 18.7611 80.508 18.6663 81.0772 18.6663C81.9862 18.6663 82.704 18.8848 83.2307 19.3216C83.766 19.7502 84.0336 20.3313 84.0336 21.0649C84.0336 21.5677 83.9189 22.0416 83.6895 22.4867C83.4686 22.9318 83.0948 23.4304 82.5681 23.9827L80.338 26.2823H84.3649Z" fill="white"/>
<path d="M89.0701 27.6918C87.9912 27.6918 87.1671 27.3085 86.5979 26.542C86.0372 25.7672 85.7569 24.6421 85.7569 23.1667C85.7569 21.716 86.0372 20.6074 86.5979 19.8409C87.1671 19.0743 87.9912 18.6911 89.0701 18.6911C90.149 18.6911 90.9688 19.0743 91.5295 19.8409C92.0987 20.5992 92.3833 21.7078 92.3833 23.1667C92.3833 24.6338 92.0987 25.7548 91.5295 26.5296C90.9688 27.3044 90.149 27.6918 89.0701 27.6918ZM89.0701 26.4431C89.6563 26.4431 90.081 26.1834 90.3444 25.6641C90.6163 25.1366 90.7522 24.3041 90.7522 23.1667C90.7522 22.0457 90.6163 21.2297 90.3444 20.7187C90.081 20.1994 89.6563 19.9398 89.0701 19.9398C88.4839 19.9398 88.0549 20.1994 87.783 20.7187C87.5197 21.2297 87.388 22.0457 87.388 23.1667C87.388 24.3041 87.5197 25.1366 87.783 25.6641C88.0549 26.1834 88.4839 26.4431 89.0701 26.4431Z" fill="white"/>
<path d="M100.134 26.2823V27.5805H94.5402V26.2823H96.5281V20.6074L94.6804 21.6831V20.2612L97.2035 18.7776H98.1592V26.2823H100.134Z" fill="white"/>
<path d="M108 26.2823V27.5805H102.406V26.2823H104.394V20.6074L102.546 21.6831V20.2612L105.069 18.7776H106.025V26.2823H108Z" fill="white"/>
</svg>
