<?xml version="1.0" encoding="utf-8"?>
<!-- Generator: Adobe Illustrator 17.0.0, SVG Export Plug-In . SVG Version: 6.00 Build 0)  -->
<!DOCTYPE svg PUBLIC "-//W3C//DTD SVG 1.1//EN" "http://www.w3.org/Graphics/SVG/1.1/DTD/svg11.dtd">
<svg version="1.1" id="Layer_1" xmlns="http://www.w3.org/2000/svg" xmlns:xlink="http://www.w3.org/1999/xlink" x="0px" y="0px"
	 width="100px" height="100px" viewBox="462 462 100 100" enable-background="new 462 462 100 100" xml:space="preserve">
<title></title>
<g id="icomoon-ignore">
</g>
<path d="M553.211,509.607c-0.121-0.558-0.378-1.066-0.773-1.503c-0.482-0.54-1.086-0.889-1.751-1.147
	c-0.701-0.269-1.43-0.414-2.174-0.494c-0.22-0.024-0.439-0.044-0.659-0.07c-0.097-0.009-0.192,0.031-0.289-0.022
	c-2.163,0-4.328,0-6.494,0c-0.106,0.57-0.213,1.139-0.32,1.711c-0.259,1.421-0.523,2.839-0.785,4.26
	c-0.232,1.265-0.465,2.524-0.701,3.789c-0.099,0.538-0.196,1.081-0.293,1.615c-0.032,0.167-0.034,0.17-0.189,0.17
	c-2.378,0-4.761,0-7.139,0c-0.051,0-0.106,0.003-0.172-0.027c0.036-0.182,0.066-0.366,0.104-0.548
	c0.112-0.621,0.232-1.243,0.347-1.872c0.027-0.153,0.031-0.153,0.177-0.153c0.88,0,1.755,0,2.633,0c0.505,0,1.013,0,1.52,0
	c0.226,0,0.206,0.024,0.245-0.196c0.157-0.885,0.32-1.767,0.478-2.645c0.02-0.116,0.02-0.119-0.102-0.119
	c-0.276-0.003-0.557,0-0.836,0c-1.12,0-2.24,0-3.363,0c-0.189,0-0.187,0-0.153-0.189c0.136-0.727,0.267-1.457,0.405-2.186
	c0.044-0.238-0.003-0.208,0.248-0.208c1.399-0.003,2.802-0.003,4.201-0.003c0.041,0,0.088-0.003,0.128,0.003
	c0.094,0.009,0.119-0.037,0.136-0.119c0.073-0.426,0.15-0.846,0.226-1.268c0.116-0.616,0.232-1.236,0.342-1.855
	c0.01-0.049,0.024-0.104,0.02-0.158c-3.156,0-6.313,0-9.469,0c-0.003,0.233-0.066,0.458-0.109,0.679
	c-0.124,0.732-0.264,1.459-0.4,2.191c-0.158,0.851-0.318,1.709-0.471,2.565c-0.187,1.025-0.378,2.046-0.565,3.069
	c-0.143,0.774-0.283,1.546-0.425,2.315c-0.024,0.123-0.027,0.126-0.158,0.126c-1.052,0-2.109,0-3.163,0
	c-0.143,0-0.15-0.01-0.121-0.146c0.194-1.06,0.393-2.124,0.594-3.183c0.189-1.02,0.378-2.039,0.565-3.057
	c0.199-1.081,0.402-2.155,0.603-3.231c0.077-0.403,0.152-0.815,0.226-1.22c0.007-0.036,0.005-0.075,0.007-0.111
	c-1.648,0-3.299,0-4.943,0c-0.235,1.273-0.468,2.541-0.705,3.816c-0.22,1.188-0.436,2.376-0.654,3.566
	c-0.213,1.144-0.425,2.291-0.638,3.435c-0.024,0.129-0.027,0.133-0.151,0.133c-1.028,0-2.056,0-3.084,0
	c-0.143,0-0.143-0.007-0.114-0.146c0.254-1.38,0.511-2.746,0.763-4.121c0.262-1.413,0.531-2.829,0.795-4.242
	c0.141-0.756,0.281-1.51,0.417-2.266c0.012-0.054,0.031-0.116,0.012-0.175c-1.649,0-3.297,0-4.945,0
	c-0.01,0.226-0.071,0.446-0.109,0.666c-0.121,0.674-0.247,1.341-0.371,2.014c-0.158,0.858-0.317,1.711-0.475,2.567
	c-0.165,0.902-0.334,1.808-0.497,2.711c-0.177,0.953-0.352,1.9-0.528,2.849c-0.039,0.213-0.085,0.422-0.116,0.635
	c-0.014,0.087-0.053,0.106-0.128,0.106c-0.032-0.003-0.065,0-0.097,0c-2.369,0-4.737,0-7.106-0.003c-0.203,0-0.226,0.051-0.177-0.22
	c0.138-0.74,0.269-1.479,0.402-2.22c0.029-0.157,0.029-0.157,0.199-0.157c1.377,0,2.757,0,4.134,0c0.044,0,0.087-0.003,0.129,0
	c0.071,0.007,0.107-0.024,0.119-0.097c0.167-0.938,0.337-1.874,0.505-2.809c0.002-0.003,0-0.008-0.002-0.017
	c-0.06-0.036-0.124-0.02-0.187-0.02c-1.375,0-2.746,0-4.119,0c-0.203,0-0.206,0-0.17-0.192c0.14-0.768,0.281-1.532,0.42-2.3
	c0.015-0.083,0.046-0.119,0.138-0.116c0.187,0.005,0.374,0,0.565,0c1.266,0,2.531,0,3.796,0c0.037,0,0.075-0.003,0.114,0.003
	c0.087,0.008,0.121-0.036,0.136-0.119c0.049-0.303,0.107-0.603,0.163-0.904c0.134-0.745,0.271-1.488,0.405-2.233
	c0.008-0.048,0.008-0.095,0.014-0.143c-9.814,0-19.626,0-29.44,0c-0.031,0.289-0.095,0.57-0.146,0.854
	c-0.189,1.035-0.378,2.075-0.567,3.105c-0.167,0.911-0.332,1.82-0.497,2.729c-0.134,0.737-0.272,1.476-0.407,2.213
	c-0.009,0.049-0.02,0.095-0.029,0.148c-0.051,0-0.051-0.037-0.061-0.063c-0.596-1.634-1.19-3.272-1.786-4.907
	c-0.478-1.314-0.96-2.623-1.442-3.937c-0.015-0.043-0.025-0.092-0.039-0.138c-1.712,0-3.425,0-5.137,0
	c-0.073,0.385-0.148,0.769-0.22,1.154c-0.23,1.244-0.458,2.492-0.688,3.733c-0.231,1.254-0.465,2.502-0.696,3.755
	c-0.22,1.197-0.437,2.397-0.659,3.593c-0.152,0.824-0.303,1.646-0.454,2.466c-0.019,0.053-0.032,0.099-0.07,0.133
	c0.002,0.048-0.019,0.124,0.082,0.1c0.02-0.01,0.043,0,0.065,0c1.598,0,3.198,0,4.798,0c-0.029-0.087-0.003-0.167,0.012-0.247
	c0.165-0.928,0.327-1.86,0.492-2.792c0.179-1.004,0.361-2.007,0.54-3.011c0.167-0.946,0.332-1.884,0.497-2.827
	c0.025-0.136,0.051-0.271,0.073-0.409c0.054-0.003,0.051,0.036,0.06,0.065c0.221,0.633,0.441,1.27,0.659,1.906
	c0.538,1.557,1.076,3.117,1.614,4.676c0.279,0.815,0.562,1.625,0.841,2.443c0.019,0.063,0.051,0.117,0.048,0.187
	c5.857,0,11.719,0,17.579,0c0.012-0.237,0.071-0.461,0.112-0.682c0.175-0.965,0.356-1.937,0.533-2.902
	c0.177-0.957,0.354-1.911,0.531-2.866c0.157-0.846,0.311-1.694,0.466-2.536c0.148-0.805,0.3-1.605,0.448-2.408
	c0.024-0.133,0.014-0.138,0.162-0.138c0.809,0,1.615,0,2.424,0c0.022,0,0.043,0.003,0.065,0.003
	c0.065-0.007,0.087,0.029,0.078,0.087c-0.027,0.155-0.051,0.31-0.08,0.463c-0.233,1.265-0.468,2.533-0.703,3.799
	c-0.232,1.244-0.463,2.494-0.693,3.738c-0.158,0.851-0.313,1.699-0.468,2.55c-0.054,0.3-0.107,0.596-0.16,0.89
	c15.382,0,30.764,0,46.145,0c0.01-0.23,0.07-0.449,0.107-0.674c0.133-0.744,0.269-1.489,0.405-2.233
	c0.187-1.025,0.38-2.048,0.569-3.072c0.073-0.395,0.143-0.795,0.216-1.19c0.054,0.005,0.048,0.051,0.056,0.085
	c0.334,1.113,0.669,2.233,0.999,3.353c0.364,1.222,0.727,2.439,1.086,3.658c0.007,0.022,0.01,0.043,0.014,0.066
	c1.641,0,3.278,0,4.916,0c-0.175-0.463-0.342-0.931-0.521-1.391c-0.545-1.46-1.096-2.919-1.643-4.373
	c-0.07-0.177-0.066-0.177,0.117-0.216c0.458-0.095,0.912-0.203,1.341-0.39c1.185-0.526,1.956-1.408,2.32-2.652
	c0.124-0.441,0.18-0.89,0.197-1.35C553.336,510.477,553.309,510.042,553.211,509.607L553.211,509.607z M491.454,509.903
	c-0.036,0.247-0.085,0.492-0.128,0.735c-0.136,0.745-0.276,1.5-0.415,2.249c-0.155,0.849-0.315,1.699-0.473,2.55
	c-0.141,0.778-0.284,1.552-0.426,2.33c-0.025,0.143-0.025,0.146-0.175,0.146c-2.393,0-4.785,0-7.174,0
	c-0.043,0-0.087,0.007-0.141-0.024c0.109-0.601,0.218-1.19,0.325-1.779c0.041-0.213,0.08-0.426,0.119-0.635
	c0.029-0.16,0.027-0.16,0.191-0.16c1.438,0,2.877,0,4.313,0c0.216,0,0.22,0,0.26-0.221c0.146-0.814,0.293-1.624,0.441-2.443
	c0.012-0.068,0.026-0.133,0.036-0.204c0.015-0.104,0.014-0.104-0.092-0.109c-0.044,0-0.087,0-0.129,0c-1.401,0-2.8,0-4.201,0
	c-0.206,0-0.206,0-0.172-0.196c0.128-0.734,0.254-1.469,0.383-2.206c0.029-0.169,0.029-0.172,0.199-0.172c1.588,0,3.178,0,4.766,0
	c0.754,0,1.508,0,2.262,0c0.039,0,0.077,0,0.114,0C491.47,509.769,491.478,509.777,491.454,509.903L491.454,509.903z
	 M548.355,512.06c-0.187,0.473-0.528,0.802-0.984,1.018c-0.335,0.157-0.698,0.233-1.071,0.277c-0.3,0.041-0.601,0.034-0.897,0.036
	c-0.221,0-0.443,0-0.666,0c-0.167-0.002-0.167-0.002-0.136-0.158c0.06-0.322,0.119-0.647,0.179-0.968
	c0.163-0.87,0.32-1.738,0.483-2.609c0.043-0.249,0.043-0.249,0.296-0.249c0.344,0,0.688-0.005,1.028,0.031
	c0.329,0.034,0.647,0.095,0.955,0.221c0.597,0.252,0.957,0.793,0.96,1.438C548.513,511.425,548.482,511.748,548.355,512.06
	L548.355,512.06z"/>
<path d="M556.762,519.207c0.061-0.017,0.107-0.027,0.155-0.043c0.439-0.169,0.555-0.728,0.223-1.06
	c-0.126-0.126-0.283-0.167-0.455-0.167c-0.356-0.012-0.71,0.027-1.062,0.037c-0.225,0.007-0.225,0.007-0.213,0.237
	c0,0.022,0.003,0.041,0.005,0.063c0.019,0.356,0.036,0.705,0.056,1.057c0.014,0.276,0.022,0.55,0.036,0.822
	c0.007,0.192,0.01,0.185,0.199,0.179c0.134-0.003,0.133-0.02,0.129-0.14c-0.01-0.226-0.024-0.449-0.032-0.674
	c-0.003-0.066-0.038-0.15,0.003-0.203c0.043-0.058,0.129-0.017,0.196-0.034c0.276-0.06,0.492,0.024,0.666,0.254
	c0.155,0.204,0.301,0.414,0.454,0.623c0.031,0.036,0.049,0.095,0.104,0.095c0.116,0,0.238,0.036,0.368-0.041
	C557.33,519.864,557.132,519.476,556.762,519.207L556.762,519.207z M556.544,518.97c-0.196,0.017-0.395,0.007-0.594,0.031
	c-0.017,0-0.036,0-0.048,0c-0.119,0-0.112-0.003-0.128-0.119c-0.015-0.16-0.002-0.32-0.027-0.48
	c-0.024-0.148-0.007-0.155,0.153-0.162c0.177-0.01,0.354,0,0.531-0.034c0.099-0.014,0.192,0,0.286,0.031
	c0.157,0.039,0.264,0.169,0.272,0.32c0.003,0.153-0.06,0.269-0.199,0.342C556.714,518.938,556.631,518.958,556.544,518.97
	L556.544,518.97z"/>
<path d="M558.453,518.518c-0.308-1.084-1.372-1.777-2.517-1.574c-1.147,0.201-1.951,1.29-1.786,2.451
	c0.128,0.895,0.638,1.489,1.479,1.808c0.1,0.036,0.209,0.043,0.303,0.1c0.259,0,0.516,0,0.774,0
	c0.177-0.066,0.363-0.097,0.531-0.177c0.638-0.303,1.049-0.795,1.232-1.477c0.022-0.085,0-0.175,0.046-0.248c0-0.192,0-0.39,0-0.582
	C558.465,518.723,558.481,518.618,558.453,518.518L558.453,518.518z M556.326,520.926c-0.888-0.003-1.806-0.727-1.808-1.811
	c-0.003-1.004,0.805-1.808,1.816-1.808c1.04,0,1.828,0.887,1.801,1.808C558.174,520.044,557.335,520.933,556.326,520.926z"/>
</svg>
