<svg width="112" height="20" viewBox="0 0 112 20" fill="none" xmlns="http://www.w3.org/2000/svg">
<path d="M98.4988 8.25436C97.905 8.66911 97.0433 8.87415 95.8642 8.87415H95.3525H94.6949L95.5916 4.02086H96.046H96.4514C97.4301 4.02086 98.145 4.17873 98.6376 4.49914C99.0226 4.75042 99.4789 5.24785 99.4789 6.19179C99.4789 7.3291 98.948 7.94095 98.4988 8.25436ZM28.7444 14.3454H19.6951L20.28 11.1731H25.956L26.601 7.6H20.9795L21.523 4.46037H30.5564L28.7444 14.3454ZM103.374 1.73737C102.043 0.82332 100.03 0.362793 97.39 0.362793H90.4767L87.9069 14.3458H78.8506L79.4313 11.1735H84.8874L85.5361 7.61027L80.0833 7.62008L80.6673 4.4613H86.286L87.0335 0.36326H75.62L73.1807 13.6284H68.9956L71.4526 0.36326H65.4858L63.0465 13.6284H58.9657L61.4251 0.36326H55.4643L52.888 14.3463H43.7674L44.3421 11.174H49.8228L50.4683 7.63129L44.9959 7.62615L45.5771 4.4613H51.2582L52.0021 0.36326H16.444L14.4199 11.4444L10.3877 0.362793H4.19901L0.868164 18.4462H6.77812L8.79378 7.06053L12.7072 18.4462H33.89L36.4649 4.46084H39.7795L37.2032 18.4462H92.9416L94.556 9.61726L97.1729 18.4462H103.086L100.377 11.2324L100.995 11.0983C102.358 10.8059 103.425 10.1759 104.165 9.23193C104.906 8.27911 105.283 7.05586 105.283 5.58647C105.283 3.87514 104.66 2.61686 103.374 1.73737Z" fill="#8DC640"/>
<path d="M108.246 16.3076L109.052 16.2656C109.222 16.2576 109.357 16.2319 109.451 16.1913C109.545 16.1516 109.617 16.0909 109.662 16.0091C109.708 15.9279 109.73 15.8424 109.724 15.7508C109.717 15.6154 109.662 15.5075 109.561 15.4248C109.46 15.3431 109.303 15.3095 109.093 15.3193L108.197 15.365L108.246 16.3076ZM107.949 17.9134L107.804 15.0689L109.063 15.0054C109.315 14.9923 109.507 15.0082 109.642 15.053C109.777 15.097 109.886 15.182 109.971 15.3076C110.057 15.4328 110.104 15.572 110.11 15.7289C110.122 15.9307 110.065 16.1035 109.941 16.2492C109.818 16.3935 109.622 16.4921 109.352 16.5435C109.454 16.5874 109.532 16.6294 109.585 16.6728C109.701 16.7681 109.811 16.8896 109.916 17.0362L110.445 17.7854L109.977 17.8092L109.572 17.2366C109.454 17.0708 109.357 16.9447 109.281 16.8578C109.206 16.7709 109.138 16.7116 109.081 16.678C109.024 16.6443 108.964 16.6224 108.906 16.6103C108.863 16.6037 108.793 16.6028 108.696 16.6079L108.263 16.6299L108.325 17.8942L107.949 17.9134Z" fill="#8DC640"/>
<path d="M106.719 16.5369C106.69 15.9484 106.89 15.3842 107.284 14.948C107.678 14.5108 108.219 14.2525 108.807 14.2226C110.018 14.1596 111.054 15.097 111.117 16.3118C111.118 16.3492 111.121 16.3889 111.121 16.4248C111.121 17.5906 110.204 18.5673 109.031 18.6289C107.818 18.6906 106.783 17.7522 106.719 16.5369ZM108.782 13.7691C108.076 13.8069 107.424 14.1161 106.95 14.6434C106.475 15.1703 106.233 15.8522 106.269 16.5617C106.346 18.0245 107.594 19.1534 109.055 19.0801C110.513 19.0044 111.642 17.7522 111.567 16.2894V16.288C111.493 14.8247 110.245 13.6948 108.782 13.7691Z" fill="#8DC640"/>
</svg>
