<svg width="115" height="20" viewBox="0 0 115 20" fill="none" xmlns="http://www.w3.org/2000/svg">
<g clip-path="url(#clip0)">
<path d="M112.894 1.51976C111.429 0.509342 109.211 -0.000245235 106.304 -0.000245235H98.6898L95.8593 15.4648H85.8849L86.526 11.9561H92.5344L93.2463 8.0153L87.2414 8.024L87.8843 4.53096H94.0732L94.8966 0.000657508H82.3283L79.6412 14.6702H75.0289L77.7342 -0.000114067H71.1642L68.4771 14.6695H63.9841L66.6919 -0.000114067H60.1254L57.2914 15.465H47.2454L47.8804 11.9563H53.913L54.6258 8.03781L48.599 8.03172L49.2384 4.53174H55.4967L56.315 -0.000488281H17.1498L14.9206 12.2544L10.4812 -0.000488281H3.66479L-0.00390625 19.9995H6.50586L8.72643 7.40663L13.0343 19.9995H36.3648L39.2014 4.52982H42.8502L40.0136 19.9995H101.401L103.181 10.2345L106.059 19.9995H112.573L109.589 12.0203L110.272 11.8724C111.775 11.5481 112.948 10.8516 113.764 9.80724C114.58 8.75335 114.995 7.40028 114.995 5.77499C114.995 3.88282 114.308 2.49067 112.892 1.5186L112.894 1.51976ZM30.6999 15.4648H20.7352L21.3789 11.9561H27.6291L28.3376 8.00411H22.1475L22.7437 4.53195H32.6939L30.698 15.4648L30.6999 15.4648ZM107.528 8.7282C106.873 9.18906 105.923 9.4134 104.624 9.4134H103.337L104.325 4.04632H105.272C106.35 4.04632 107.136 4.22023 107.679 4.575C108.102 4.85326 108.606 5.40371 108.606 6.44457C108.604 7.7037 108.018 8.38022 107.526 8.72804L107.528 8.7282Z" fill="#83BA3B"/>
</g>
<defs>
<clipPath id="clip0">
<rect width="115" height="20" fill="white"/>
</clipPath>
</defs>
</svg>
