<svg width="91" height="24" viewBox="0 0 91 24" fill="none" xmlns="http://www.w3.org/2000/svg">
<path d="M33.9148 4.9082H28.8959C28.7297 4.9081 28.569 4.96681 28.4427 5.07375C28.3163 5.18069 28.2327 5.32883 28.2068 5.49148L26.1769 18.2457C26.1676 18.3048 26.1713 18.3653 26.1878 18.4229C26.2043 18.4806 26.2332 18.534 26.2726 18.5794C26.3119 18.6249 26.3607 18.6614 26.4157 18.6864C26.4706 18.7114 26.5303 18.7243 26.5908 18.7242H28.9869C29.1531 18.7243 29.314 18.6655 29.4403 18.5584C29.5667 18.4513 29.6503 18.303 29.676 18.1402L30.2235 14.7002C30.2492 14.5375 30.3326 14.3893 30.4588 14.2823C30.5851 14.1752 30.7457 14.1163 30.9118 14.1162H32.5007C35.8067 14.1162 37.7148 12.5307 38.2131 9.38893C38.4377 8.01438 38.2227 6.93438 37.5732 6.17802C36.8599 5.34748 35.5947 4.9082 33.9148 4.9082ZM34.4939 9.56638C34.2194 11.3511 32.8434 11.3511 31.5129 11.3511H30.7555L31.2868 8.01802C31.3024 7.92051 31.3525 7.8317 31.4283 7.76757C31.504 7.70344 31.6004 7.6682 31.7 7.6682H32.0471C32.9535 7.6682 33.8084 7.6682 34.2502 8.1802C34.5137 8.48566 34.5944 8.93948 34.4939 9.56638ZM48.9174 9.50893H46.5139C46.4143 9.50893 46.318 9.54417 46.2422 9.60829C46.1665 9.67242 46.1163 9.76123 46.1008 9.85875L45.9943 10.5249L45.8263 10.2835C45.306 9.53511 44.1457 9.28493 42.9877 9.28493C40.3318 9.28493 38.0634 11.2784 37.6216 14.0747C37.3919 15.4697 37.7185 16.8035 38.5169 17.7337C39.2493 18.5889 40.2973 18.9453 41.5442 18.9453C43.6841 18.9453 44.8708 17.5817 44.8708 17.5817L44.7636 18.2435C44.7541 18.3026 44.7576 18.3632 44.7739 18.4209C44.7903 18.4786 44.819 18.5321 44.8582 18.5777C44.8974 18.6233 44.9461 18.66 45.001 18.6851C45.0559 18.7103 45.1156 18.7234 45.1761 18.7235H47.341C47.5073 18.7236 47.6681 18.6647 47.7944 18.5577C47.9208 18.4506 48.0044 18.3023 48.0301 18.1395L49.3291 9.98748C49.3386 9.92844 49.3351 9.86804 49.3188 9.81047C49.3025 9.7529 49.2738 9.69951 49.2347 9.65401C49.1955 9.60851 49.1469 9.57197 49.0921 9.54692C49.0373 9.52187 48.9777 9.50891 48.9174 9.50893ZM45.5672 14.1446C45.3353 15.5053 44.2455 16.4187 42.8556 16.4187C42.1577 16.4187 41.5999 16.1969 41.2418 15.7766C40.8866 15.3591 40.7516 14.7649 40.8646 14.1031C41.0811 12.754 42.1892 11.8107 43.5579 11.8107C44.2404 11.8107 44.7952 12.0355 45.1607 12.4595C45.5269 12.8878 45.6722 13.4857 45.5672 14.1446ZM61.7175 9.50893H59.3024C59.1885 9.50911 59.0763 9.53682 58.9757 9.58967C58.875 9.64252 58.7889 9.71891 58.7248 9.8122L55.3938 14.6747L53.9818 10.002C53.9385 9.8595 53.85 9.7346 53.7294 9.6458C53.6089 9.55699 53.4627 9.509 53.3125 9.50893H50.9392C50.8725 9.50875 50.8069 9.52435 50.7475 9.55442C50.6882 9.58449 50.637 9.62816 50.5982 9.68181C50.5594 9.73545 50.534 9.79751 50.5243 9.86282C50.5145 9.92813 50.5206 9.99481 50.5421 10.0573L53.2024 17.794L50.7014 21.2929C50.6569 21.355 50.6306 21.4279 50.6252 21.5038C50.6198 21.5797 50.6356 21.6556 50.6708 21.7232C50.7061 21.7908 50.7594 21.8475 50.825 21.887C50.8906 21.9266 50.9659 21.9475 51.0426 21.9475H53.4549C53.5675 21.9476 53.6785 21.9207 53.7783 21.869C53.8781 21.8174 53.9638 21.7424 54.028 21.6507L62.061 10.1598C62.1045 10.0977 62.1301 10.0249 62.1348 9.94935C62.1396 9.87382 62.1234 9.79844 62.088 9.73138C62.0526 9.66432 61.9994 9.60814 61.9341 9.56893C61.8688 9.52972 61.7939 9.50897 61.7175 9.50893Z" fill="#253B80"/>
<path d="M69.7118 4.90844H64.6921C64.5261 4.90851 64.3656 4.9673 64.2394 5.07422C64.1132 5.18115 64.0296 5.32919 64.0038 5.49171L61.9739 18.2459C61.9644 18.305 61.968 18.3654 61.9844 18.423C62.0008 18.4805 62.0296 18.5339 62.0688 18.5794C62.108 18.6249 62.1567 18.6614 62.2115 18.6864C62.2663 18.7115 62.326 18.7244 62.3863 18.7244H64.9622C65.0784 18.7243 65.1908 18.683 65.279 18.6081C65.3673 18.5332 65.4256 18.4295 65.4436 18.3157L66.0197 14.7004C66.0454 14.5378 66.1289 14.3896 66.2551 14.2825C66.3813 14.1754 66.542 14.1165 66.7081 14.1164H68.2962C71.603 14.1164 73.5103 12.531 74.0094 9.38917C74.2347 8.01462 74.0182 6.93462 73.3687 6.17826C72.6561 5.34771 71.3917 4.90844 69.7118 4.90844ZM70.2908 9.56662C70.0171 11.3514 68.6411 11.3514 67.3099 11.3514H66.5532L67.0853 8.01826C67.1006 7.92074 67.1505 7.83186 67.2262 7.76769C67.3018 7.70353 67.3982 7.66832 67.4977 7.66844H67.8449C68.7505 7.66844 69.6061 7.66844 70.0479 8.18044C70.3114 8.4859 70.3914 8.93971 70.2908 9.56662ZM84.7136 9.50917H82.3117C82.212 9.5089 82.1156 9.54405 82.0399 9.60824C81.9643 9.67244 81.9143 9.76141 81.8992 9.85899L81.7928 10.5252L81.624 10.2837C81.1037 9.53535 79.9442 9.28517 78.7861 9.28517C76.1303 9.28517 73.8626 11.2786 73.4208 14.075C73.1918 15.4699 73.5169 16.8037 74.3154 17.7339C75.0493 18.5892 76.0958 18.9455 77.3426 18.9455C79.4826 18.9455 80.6693 17.5819 80.6693 17.5819L80.5621 18.2437C80.5525 18.303 80.5561 18.3637 80.5725 18.4215C80.5889 18.4793 80.6178 18.5328 80.6572 18.5785C80.6965 18.6241 80.7454 18.6608 80.8005 18.6858C80.8555 18.7109 80.9154 18.7238 80.976 18.7237H83.1402C83.3063 18.7236 83.467 18.6647 83.5932 18.5577C83.7194 18.4506 83.8029 18.3024 83.8286 18.1397L85.1283 9.98771C85.1375 9.92849 85.1336 9.86799 85.117 9.81037C85.1004 9.75275 85.0714 9.69937 85.032 9.65391C84.9926 9.60844 84.9438 9.57197 84.8888 9.54698C84.8339 9.522 84.7741 9.5091 84.7136 9.50917ZM81.3635 14.1448C81.1331 15.5055 80.0418 16.419 78.6518 16.419C77.9554 16.419 77.3962 16.1972 77.0381 15.7768C76.6829 15.3594 76.5493 14.7652 76.6609 14.1033C76.8788 12.7543 77.9855 11.811 79.3542 11.811C80.0367 11.811 80.5915 12.0357 80.9569 12.4597C81.3246 12.8881 81.4699 13.4859 81.3635 14.1448ZM87.5471 5.25826L85.4871 18.2459C85.4777 18.305 85.4813 18.3654 85.4977 18.423C85.514 18.4805 85.5428 18.5339 85.582 18.5794C85.6212 18.6249 85.6699 18.6614 85.7247 18.6864C85.7796 18.7115 85.8392 18.7244 85.8996 18.7244H87.9705C88.3147 18.7244 88.6068 18.4772 88.6596 18.1404L90.691 5.38699C90.7004 5.32787 90.6968 5.26743 90.6805 5.20982C90.6641 5.15222 90.6353 5.09881 90.5961 5.05327C90.5569 5.00773 90.5082 4.97114 90.4534 4.94601C90.3986 4.92089 90.339 4.90782 90.2786 4.90771H87.9595C87.86 4.90806 87.7638 4.94353 87.6882 5.00777C87.6126 5.072 87.5626 5.1608 87.5471 5.25826Z" fill="#179BD7"/>
<path d="M5.33101 21.2028L5.71483 18.7868L4.85987 18.7672H0.777344L3.61449 0.939541C3.62294 0.88507 3.65085 0.83542 3.69315 0.799642C3.73545 0.763864 3.78931 0.744342 3.84492 0.744632H10.7286C13.0139 0.744632 14.591 1.2159 15.4144 2.14609C15.8004 2.58245 16.0463 3.03845 16.1651 3.54027C16.2899 4.06681 16.2921 4.6959 16.1703 5.46318L16.1615 5.51918V6.01081L16.5475 6.22754C16.8422 6.3755 17.1071 6.57564 17.3291 6.81809C17.6593 7.19118 17.8729 7.66536 17.9631 8.22754C18.0563 8.80572 18.0255 9.49372 17.8729 10.2726C17.6967 11.1686 17.412 11.949 17.0274 12.5875C16.6882 13.1596 16.232 13.655 15.6881 14.0421C15.1774 14.4014 14.5704 14.6741 13.8843 14.8486C13.2194 15.0203 12.4613 15.1068 11.6298 15.1068H11.0941C10.711 15.1068 10.3389 15.2435 10.0469 15.4886C9.7552 15.7363 9.56172 16.0786 9.50087 16.4544L9.46051 16.6719L8.78241 20.9301L8.75159 21.0864C8.74351 21.1359 8.72957 21.1606 8.70902 21.1774C8.68912 21.1935 8.66428 21.2025 8.63857 21.2028H5.33101Z" fill="#253B80"/>
<path d="M16.9158 5.57617C16.8952 5.70635 16.8717 5.83944 16.8453 5.97617C15.9375 10.5951 12.8318 12.1907 8.86521 12.1907H6.8456C6.36051 12.1907 5.95174 12.5398 5.87615 13.014L4.84213 19.5129L4.54931 21.3551C4.53765 21.4282 4.5421 21.5029 4.56237 21.5741C4.58263 21.6453 4.61823 21.7113 4.6667 21.7675C4.71517 21.8238 4.77538 21.869 4.84316 21.9C4.91095 21.931 4.9847 21.947 5.05935 21.9471H8.64138C9.06556 21.9471 9.42589 21.6416 9.49267 21.2271L9.52789 21.0467L10.2023 16.8053L10.2456 16.5725C10.3117 16.1565 10.6727 15.8511 11.0969 15.8511H11.6326C15.1031 15.8511 17.8199 14.4547 18.614 10.414C18.9457 8.72599 18.7739 7.31654 17.8962 6.32526C17.618 6.01862 17.2858 5.76477 16.9158 5.57617Z" fill="#179BD7"/>
<path d="M15.965 5.20061C15.6751 5.11751 15.3803 5.05266 15.0821 5.00643C14.4931 4.91671 13.8977 4.87367 13.3018 4.8777H7.90635C7.70102 4.87754 7.50241 4.95019 7.34641 5.08251C7.19042 5.21482 7.08733 5.39808 7.0558 5.59916L5.90802 12.8035L5.875 13.0137C5.91076 12.7844 6.02816 12.5753 6.20598 12.4243C6.38379 12.2733 6.61027 12.1903 6.84444 12.1904H8.86406C12.8306 12.1904 15.9364 10.5941 16.8442 5.97588C16.8713 5.83916 16.8941 5.70606 16.9146 5.57588C16.6751 5.45139 16.4254 5.34703 16.1683 5.26388C16.1009 5.24172 16.0331 5.22062 15.965 5.20061Z" fill="#222D65"/>
<path d="M7.05537 5.59927C7.08664 5.39814 7.18966 5.2148 7.34574 5.08255C7.50181 4.9503 7.70058 4.87791 7.90593 4.87855H13.3013C13.9405 4.87855 14.5372 4.92 15.0817 5.00727C15.4502 5.06466 15.8136 5.1505 16.1686 5.264C16.4364 5.352 16.6852 5.456 16.9149 5.576C17.185 3.86909 16.9127 2.70691 15.9814 1.65455C14.9548 0.496 13.1017 0 10.7306 0H3.84689C3.36253 0 2.94936 0.349091 2.87451 0.824L0.00727245 18.8349C-0.00608265 18.9185 -0.00100149 19.004 0.0221664 19.0855C0.0453343 19.167 0.0860391 19.2426 0.141481 19.307C0.196922 19.3714 0.265785 19.4231 0.343332 19.4586C0.420879 19.4942 0.50527 19.5126 0.5907 19.5127H4.84055L5.9076 12.8036L7.05537 5.59927Z" fill="#253B80"/>
</svg>
