<svg width="49" height="37" viewBox="0 0 49 37" fill="none" xmlns="http://www.w3.org/2000/svg">
<g opacity="0.8" clip-path="url(#clip0)">
<path d="M48.9998 15.7283H31.1768V11.3125H48.9998V15.7283Z" fill="#E669A2"/>
<path d="M46.6848 15.728H31.1768V4.68359H46.6848V15.728Z" fill="#F3BE26"/>
<path d="M40.2777 15.728H31.1768V0.27002H40.2777V15.728Z" fill="#EE9C34"/>
<path d="M42.0682 15.7282H31.1768V1.99512H42.0682V15.7282Z" fill="#F3BC87"/>
<path d="M31.1748 1.99756V15.7266H40.2773V1.99756H31.1748Z" fill="#E3721C"/>
<path d="M22.0508 15.728H31.1769V17.9362H22.0508V15.728Z" fill="#AD1B02"/>
<path d="M31.1748 4.68115V15.7266H42.074V4.68115H31.1748Z" fill="#E88D14"/>
<path d="M31.1748 4.68115V15.7266H40.2773V4.68115H31.1748Z" fill="#D85604"/>
<path d="M36.8681 15.7277H31.1768V9.09863H36.8681V15.7277Z" fill="#C14303"/>
<path d="M31.1748 11.3149V15.7262H46.6906V11.3149H31.1748Z" fill="#DB4E18"/>
<path d="M31.1748 11.3149V15.7262H42.074V11.3149H31.1748Z" fill="#D1390D"/>
<path d="M31.1748 11.3149V15.7262H40.2773V11.3149H31.1748Z" fill="#C22303"/>
<path d="M31.1748 11.3149V15.7262H36.8743V11.3149H31.1748Z" fill="#AD1B02"/>
<path d="M33.1614 24.045C31.6086 24.3123 30.7805 25.4479 30.7805 27.4187C30.7805 29.4228 31.8847 30.7589 33.5065 30.7589C34.3002 30.7589 34.9903 30.4917 36.4396 29.7902C36.4396 31.4269 36.4396 31.4269 36.4396 31.4269C34.6797 32.2286 33.6445 32.429 32.2643 32.429C30.7114 32.429 29.6072 32.0616 28.7445 31.1597C27.8474 30.2912 27.3643 29.1556 27.3643 27.8529C27.3643 25.0137 29.5727 23.043 32.7819 23.043C34.8868 23.043 36.3706 24.0116 36.3706 25.3811C36.3706 26.283 35.6805 26.9176 34.6797 26.9176C34.1621 26.9176 33.7481 26.7506 33.1614 26.45" fill="white"/>
<path d="M25.3975 27.8529C26.8123 26.1494 27.3299 25.4479 27.3299 24.6129C27.3299 23.7778 26.6398 23.043 25.6736 23.043C25.1215 23.043 24.6039 23.3436 24.3623 23.6108C24.3623 27.118 24.3623 27.118 24.3623 27.118C22.0504 30.1242 22.0504 30.1242 22.0504 30.1242C22.0504 23.3102 22.0504 23.3102 22.0504 23.3102C19.8419 23.3102 19.8419 23.3102 19.8419 23.3102C16.1842 29.1556 16.1842 29.1556 16.1842 29.1556C16.1842 23.3102 16.1842 23.3102 16.1842 23.3102C14.9419 23.3102 14.9419 23.3102 14.9419 23.3102C11.5947 24.045 11.5947 24.045 11.5947 24.045C11.5947 24.8801 11.5947 24.8801 11.5947 24.8801C13.4236 25.0471 13.4236 25.0471 13.4236 25.0471C13.4236 32.2954 13.4236 32.2954 13.4236 32.2954C15.7356 32.2954 15.7356 32.2954 15.7356 32.2954C19.2553 26.6838 19.2553 26.6838 19.2553 26.6838C19.2553 32.2954 19.2553 32.2954 19.2553 32.2954C21.8433 32.2954 21.8433 32.2954 21.8433 32.2954" fill="white"/>
<path d="M4.58944 31.1598C4.86549 31.1598 4.93451 31.1598 5.10704 31.1598C6.97042 31.1598 8.00563 30.0575 8.00563 27.853C8.00563 26.0159 7.17746 25.0138 5.62465 25.0138C5.41761 25.0138 5.10704 25.0472 4.58944 25.1474V31.1598ZM4.58944 35.1013C6.10775 35.4353 6.10775 35.4353 6.10775 35.4353C6.10775 36.2704 6.10775 36.2704 6.10775 36.2704C0.138028 36.2704 0.138029 36.2704 0.138029 36.2704C0.138029 35.4353 0.138029 35.4353 0.138029 35.4353C1.51831 35.1013 1.51831 35.1013 1.51831 35.1013C1.51831 25.0138 1.51831 25.0138 1.51831 25.0138C-1.8692e-07 25.0138 0 25.0138 0 25.0138C0 24.1787 0 24.1787 0 24.1787C3.62324 23.1099 3.62324 23.1099 3.62324 23.1099C4.58944 23.1099 4.58944 23.1099 4.58944 23.1099C4.58944 24.3123 4.58944 24.3123 4.58944 24.3123C6.28028 23.3103 6.8669 23.1433 7.76408 23.1433C9.76549 23.1433 11.2838 24.947 11.2838 27.4522C11.2838 30.3248 9.24789 32.2955 6.14225 32.2955C5.79718 32.2955 5.21056 32.2621 4.58944 32.2287" fill="white"/>
</g>
<defs>
<clipPath id="clip0">
<rect width="49" height="36" fill="white" transform="translate(0 0.27002)"/>
</clipPath>
</defs>
</svg>
