<svg width="68" height="24" viewBox="0 0 68 24" fill="none" xmlns="http://www.w3.org/2000/svg">
<g clip-path="url(#clip0)">
<path fill-rule="evenodd" clip-rule="evenodd" d="M48.7955 6.14791C50.3356 6.14791 51.5838 4.91977 51.5838 3.40531C51.5838 1.88997 50.3356 0.660645 48.7955 0.660645C47.2573 0.660645 46.0096 1.88997 46.0096 3.40531C46.0096 4.91977 47.2573 6.14791 48.7955 6.14791ZM27.4408 7.62906C27.315 7.94015 26.4095 10.4581 24.2194 13.0677V1.90943L18.384 3.04468V23.2702H24.2194V17.0184C25.9095 19.5136 26.7441 23.2702 26.7441 23.2702H33.7337C33.0423 20.4409 30.018 15.2241 30.018 15.2241C32.7323 11.8366 33.9245 8.22706 34.1141 7.62906H27.4408ZM42.7819 7.41793C37.5552 7.58305 34.902 9.89131 34.902 14.4798V23.2702H40.6041V16.1019C40.6041 13.3543 40.9695 12.1766 44.2818 12.0642V7.49843C43.7243 7.38195 42.7819 7.41793 42.7819 7.41793ZM8.59736 9.85622C7.88261 9.80993 6.22784 9.70466 6.22784 8.23826C6.22784 6.46873 8.61024 6.46873 9.50382 6.46873C11.075 6.46873 13.1099 6.92579 14.5631 7.35364C14.5631 7.35364 15.3737 7.63495 16.0636 7.92304L16.1277 7.94015V3.09393L16.0396 3.06827C14.3246 2.47764 12.3305 1.90943 8.6333 1.90943C2.25868 1.90943 0 5.56495 0 8.69649C0 10.5017 0.786044 14.7502 8.08661 15.2403C8.7055 15.2777 10.348 15.3709 10.348 16.8863C10.348 18.1374 9.00326 18.8752 6.74159 18.8752C4.26303 18.8752 1.85877 18.253 0.398414 17.663V22.6542C2.5846 23.2183 5.04907 23.5002 7.93743 23.5002C14.1704 23.5002 16.962 20.0417 16.962 16.6138C16.962 12.7271 13.8381 10.2018 8.59736 9.85622ZM45.9689 23.2702H51.6249V7.64675H45.9689V23.2702ZM62.2748 2.9055V23.2702H67.9317V1.90943L62.2748 2.9055ZM54.0208 2.9055L59.6722 1.90943V23.2702H54.0208V2.9055Z" fill="url(#paint0_linear)"/>
</g>
<defs>
<linearGradient id="paint0_linear" x1="18.3714" y1="0.660645" x2="23.3221" y2="28.859" gradientUnits="userSpaceOnUse">
<stop stop-color="#6B195F"/>
<stop offset="1" stop-color="#4C255B"/>
</linearGradient>
<clipPath id="clip0">
<rect width="68" height="23" fill="white" transform="translate(0 0.5)"/>
</clipPath>
</defs>
</svg>
