<?xml version="1.0" encoding="utf-8"?>
<!-- Generator: Adobe Illustrator 21.0.2, SVG Export Plug-In . SVG Version: 6.00 Build 0)  -->
<svg version="1.1" id="Layer_1" xmlns="http://www.w3.org/2000/svg" xmlns:xlink="http://www.w3.org/1999/xlink" x="0px" y="0px"
	 viewBox="0 0 1024 1024" style="enable-background:new 0 0 1024 1024;" xml:space="preserve">
<style type="text/css">
	.st0{fill:#B73091;}
	.st1{fill:#862165;}
</style>
<title></title>
<g id="icomoon-ignore">
</g>
<path class="st0" d="M768.3,397.8l71.7-12.9V663h-71.7V397.8z M883,397.8V663h71.7V384.9L883,397.8z M668,663h71.7V462.3H668V663z
	 M177.7,489.5c-10,0-31.5-1.4-31.5-21.5c0-22.9,31.5-22.9,43-22.9c20.1,0,47.3,5.7,65.9,11.5c0,0,12.9,4.3,21.5,7.2h2.9v-64.5
	l-2.9-1.4c-22.9-7.2-50.2-15.8-97.5-15.8c-83.2,2.9-113.3,51.6-113.3,93.2c0,24.4,10,80.3,106.1,87.5c8.6,0,30.1,1.4,30.1,21.5
	c0,17.2-20.1,25.8-50.2,25.8c-33,0-57.3-8.6-86-15.8v65.9c28.7,7.2,63.1,11.5,101.8,11.5c81.7,0,119-45.9,119-91.8
	C286.6,528.2,246.5,495.3,177.7,489.5L177.7,489.5z M623.5,458c-68.8,1.4-98.9,33-98.9,93.2V663h71.7v-90.3c0-35.8,0-51.6,43-53
	v-60.2C639.3,456.6,623.5,458,623.5,458L623.5,458z M424.2,462.3c-1.4,0-14.3,35.8-43,70.2V384.9l-71.7,15.8V663h71.7v-77.4
	c28.7,33,34.4,77.4,34.4,77.4h91.8c-8.6-28.7-48.7-103.2-48.7-103.2c35.8-44.4,51.6-97.5,53-97.5H424.2L424.2,462.3z M703.8,440.8
	c20.1,0,35.8-15.8,35.8-35.8s-15.8-35.8-35.8-35.8c-20.1,0-35.8,15.8-35.8,35.8S683.7,440.8,703.8,440.8z"/>
<path class="st1" d="M797,392l43-7.2V663h-71.7L797,392z M908.8,393.5L883,663h71.7V384.9L908.8,393.5z M668,663h71.7V462.3h-30.1
	L668,663z M65.8,475.2c0,24.4,10,80.3,104.7,87.5c8.6,0,43,1.4,43,21.5c0,17.2-34.4,25.8-63.1,25.8c-33,0-57.3-8.6-86-15.8v65.9
	c28.7,7.2,63.1,11.5,101.8,11.5c81.7,0,119-45.9,119-91.8c0-51.6-40.1-84.6-109-90.3c-10,0-30.1-1.4-30.1-21.5
	c0-22.9,31.5-22.9,43-22.9c20.1,0,47.3,5.7,65.9,11.5c0,0,12.9,4.3,21.5,7.2h2.9v-64.5l-2.9-1.4c-22.9-7.2-50.2-15.8-97.5-15.8
	L65.8,475.2z M524.6,548.3V663h71.7v-90.3c0-35.8,0-51.6,43-53v-60.2c0-1.4-15.8-1.4-15.8-1.4L524.6,548.3z M309.6,663h71.7v-77.4
	c28.7,33,61.6,77.4,61.6,77.4H506c-8.6-28.7-48.7-103.2-48.7-103.2c35.8-44.4,51.6-97.5,53-97.5h-43c-1.4,0-57.3,35.8-86,70.2V390.6
	L309.6,663z M703.8,440.8c20.1,0,35.8-15.8,35.8-35.8s-15.8-35.8-35.8-35.8V440.8z"/>
</svg>
