<svg width="60" height="25" viewBox="0 0 60 25" fill="none" xmlns="http://www.w3.org/2000/svg">
<g opacity="0.8" clip-path="url(#clip0)">
<path d="M54.4115 20.4028C53.5103 20.3335 52.538 20.0979 51.7665 19.7618C51.5918 19.6857 51.4683 18.9944 51.3805 18.9596L51.1999 18.034C51.1765 17.2092 51.1466 16.2981 51.1336 16.0093L51.1099 15.4841H51.4332H51.7565L51.8387 16.1301C52.1457 18.5433 53.3709 19.7579 55.4981 19.7579C56.9109 19.7579 57.7867 19.2066 58.2278 18.0398C58.3654 17.6758 58.3865 17.4881 58.3893 16.606C58.3925 15.602 58.3901 15.5857 58.165 15.1067C57.7701 14.2661 57.3708 13.9874 55.3812 13.1633C54.791 12.9189 54.0901 12.6046 53.8236 12.4648C52.0861 11.5539 51.2253 10.2617 51.2288 8.56934C51.2332 6.40435 52.3919 4.8417 54.412 4.27613C55.1152 4.07926 56.8286 4.10074 57.5618 4.31563C58.2494 4.51713 59.1585 4.89173 59.2549 5.0133C59.2961 5.06521 59.3432 5.67798 59.3643 6.43705C59.3848 7.16998 59.4129 7.94079 59.4269 8.14995L59.4523 8.53023H59.1248H58.7974L58.6536 7.76749C58.3188 5.99135 57.5328 5.05518 56.1794 4.82051C55.0838 4.63056 53.7562 5.07043 53.2334 5.79657C52.8359 6.34855 52.716 6.7809 52.716 7.661C52.716 8.36072 52.7324 8.45554 52.9215 8.84602C53.1671 9.35328 53.5162 9.68505 54.1697 10.0323C54.6275 10.2756 56.1735 10.9206 56.2988 10.9206C56.4206 10.9206 57.8094 11.6409 58.1682 11.8901C59.1667 12.5836 59.7227 13.5141 59.9209 14.823C60.0177 15.4628 60.0221 15.6761 59.9508 16.2689C59.7892 17.6121 59.4129 18.4442 58.6186 19.2148C57.6004 20.2025 56.3603 20.5527 54.4115 20.4028ZM29.8451 20.305C27.6414 19.8658 26.5994 18.6591 26.3093 16.2104C26.2646 15.8322 26.2366 13.5588 26.2366 10.2887V4.98086H25.4059H24.5752V4.6549V4.32893H27.3097H30.0441V4.65273V4.97653L29.1615 4.99681L28.2788 5.01708L28.2586 9.72543C28.2322 15.8519 28.2988 16.8386 28.8118 17.929C29.3179 19.0047 30.2958 19.5405 31.7529 19.5405C33.4056 19.5405 34.3268 18.8978 34.8238 17.3979C35.1416 16.4385 35.1661 15.9316 35.1665 10.2868L35.1669 4.98086H34.3362H33.5055V4.6549V4.32893H35.5131H37.5206V4.6549V4.98086H36.7619H36.0031L35.9815 10.7577C35.9601 16.4736 35.9582 16.5405 35.8057 17.1139C35.3552 18.8079 34.4646 19.7569 32.917 20.192C32.1942 20.3952 30.5932 20.4541 29.8451 20.305ZM38.4337 19.8882L38.4552 19.5768L39.2859 19.5653L40.1167 19.5538L40.1343 12.2695L40.1519 4.98532L39.3036 4.96498L38.4552 4.94464L38.4339 4.63679L38.4126 4.32893H41.8128C43.963 4.32893 45.3959 4.35854 45.7108 4.40948C46.913 4.60397 47.734 5.15622 48.1755 6.0674C48.5562 6.85307 48.6734 7.8372 48.4958 8.75636C48.3052 9.74235 47.9122 10.3501 47.1243 10.8772C46.5918 11.2334 46.2487 11.3809 45.5856 11.5387C45.281 11.6111 45.0061 11.6932 44.9746 11.7211C44.9432 11.749 45.1301 11.7943 45.39 11.8218C48.0641 12.1045 49.2354 13.3303 49.2354 15.8463C49.2354 17.2315 48.9211 18.1167 48.1418 18.9264C47.664 19.4227 47.0842 19.7523 46.2669 19.9921C45.7445 20.1453 45.5859 20.1523 42.0682 20.1755L38.4123 20.1996L38.4337 19.8882ZM44.7415 19.4325C45.9232 19.1104 46.7136 18.2583 46.9762 17.0235C47.1413 16.2468 47.0849 14.8231 46.865 14.2165C46.5976 13.4789 46.1467 12.8885 45.5971 12.5561C45.0477 12.2239 44.6494 12.152 43.3578 12.152H42.1588V15.8463V19.5405H43.2519C43.9975 19.5405 44.4711 19.5062 44.7415 19.4325ZM44.7376 11.3284C45.8824 10.9415 46.55 9.75228 46.5385 8.12056C46.5264 6.41878 45.6996 5.19418 44.4321 5.00097C44.2289 4.96999 43.6342 4.95456 43.1107 4.96667L42.1588 4.9887V8.19612C42.1588 9.9602 42.1822 11.4289 42.2108 11.4599C42.301 11.5577 44.3789 11.4496 44.7376 11.3284Z" fill="#FC0101"/>
<path d="M10.1244 24.7013C9.90646 24.6354 9.89946 24.6211 9.89946 24.2427C9.89946 23.8597 9.89509 23.8513 9.67447 23.8065C9.26285 23.723 8.55366 23.3841 8.22233 23.1125C7.00202 22.1123 6.5838 20.548 7.13329 19.0391C7.48463 18.0744 8.454 17.2118 9.50241 16.9311C10.0089 16.7954 9.98489 16.6437 9.44948 16.597L9.03412 16.5608V16.1986V15.8364L9.46679 15.8149L9.89946 15.7933V13.9496C9.89946 12.9356 9.88495 12.106 9.86721 12.106C9.84948 12.106 9.32738 12.5379 8.707 13.0658C8.08661 13.5936 7.49366 14.0954 7.38932 14.1808C7.28498 14.2662 7.20007 14.364 7.20064 14.3981C7.2012 14.4323 7.30725 14.5905 7.4363 14.7499C7.66404 15.0311 7.66768 15.0454 7.55997 15.2368C7.49893 15.3452 7.36318 15.4652 7.25829 15.5035C7.08351 15.5672 7.04463 15.5447 6.79259 15.2339C6.59444 14.9895 6.49628 14.9166 6.4413 14.9729C6.38594 15.0295 6.42578 15.1868 6.5865 15.5462C6.77855 15.9756 6.81217 16.14 6.8395 16.7831C6.86546 17.3937 6.84553 17.6123 6.72667 18.0206C6.39993 19.1432 5.61765 19.9616 4.54453 20.3036C4.15462 20.4279 3.95116 20.4483 3.40229 20.4184C2.63843 20.3769 2.19776 20.2224 1.5757 19.7782C1.3572 19.6221 1.15471 19.4958 1.12572 19.4974C1.09674 19.499 0.967103 19.5951 0.837647 19.711C0.614933 19.9102 0.591721 19.9159 0.40615 19.8154C0.21548 19.7123 6.72402e-06 19.3806 0 19.1902C-1.12066e-06 19.1384 0.1151 18.995 0.255782 18.8714L0.511568 18.6467L0.327071 18.2015C-0.483619 16.2456 0.342086 14.1096 2.18573 13.3933C2.5198 13.2636 2.73103 13.2355 3.3229 13.2422C4.17846 13.2519 4.5981 13.3884 5.31236 13.8896C5.87741 14.2861 6.01736 14.2198 5.63802 13.7354C5.38118 13.4075 5.37713 13.3934 5.48535 13.205C5.54649 13.0985 5.68054 12.9793 5.78325 12.9401C5.95399 12.8749 5.99448 12.8981 6.25597 13.2112L6.54195 13.5537L8.03033 12.2905C8.84894 11.5958 9.51871 10.9934 9.51871 10.9518C9.51871 10.9103 8.86451 10.324 8.06494 9.64901L6.61118 8.42171L6.4208 8.61137C6.17625 8.855 6.18047 8.99776 6.43811 9.19708C6.69167 9.39323 6.69334 9.42803 6.46304 9.71442L6.28029 9.94167L6.06169 9.71997C5.80032 9.4549 5.77188 9.45128 5.60001 9.66126C5.31944 10.004 5.31736 10.0498 5.57401 10.2326C5.70607 10.3267 5.81433 10.4401 5.81459 10.4845C5.81515 10.5792 5.54974 10.9471 5.48121 10.9467C5.41828 10.9463 4.12454 9.86432 4.09856 9.79033C4.08732 9.75831 4.40663 9.54391 4.80814 9.31389C5.20965 9.08387 5.53816 8.87049 5.53816 8.83972C5.53816 8.80895 5.44813 8.7167 5.3381 8.63472L5.13804 8.48566L4.4633 8.88549C4.0922 9.10539 3.77718 9.2734 3.76325 9.25883C3.74933 9.24426 3.84353 8.88419 3.97258 8.45868L4.20722 7.68502L4.03026 7.53937C3.93293 7.45926 3.82367 7.40405 3.78747 7.41668C3.75126 7.42931 3.61522 7.79536 3.48515 8.23012C3.35508 8.66489 3.23633 9.03351 3.22126 9.04928C3.19332 9.07851 1.7999 7.90799 1.7999 7.85529C1.7999 7.78602 2.10862 7.39762 2.16368 7.39762C2.19713 7.39762 2.33393 7.48496 2.46768 7.5917L2.71085 7.78578L2.91303 7.55941C3.02423 7.43491 3.11522 7.31028 3.11522 7.28247C3.11522 7.25465 2.99983 7.12752 2.85881 6.99997L2.60241 6.76805L2.77228 6.54357C2.98049 6.26843 3.00882 6.26548 3.26629 6.49217C3.37942 6.59177 3.49559 6.67326 3.52445 6.67326C3.59129 6.67326 3.94698 6.2581 3.94281 6.18494C3.94109 6.15472 3.6777 5.91812 3.35751 5.65916C2.70959 5.13515 2.65859 5.01087 2.94519 4.65448C3.30488 4.20719 2.96322 3.97488 7.06115 7.45303C9.27639 9.33324 9.82126 9.78802 9.85865 9.78802C9.88109 9.78802 9.89946 8.95682 9.89946 7.9409V6.09377H9.55332H9.20719V6.45596V6.81813H8.89567H8.58415V6.45596V6.09377H8.23801H7.89187V6.45596V6.81813H7.58036H7.26883V5.8413V4.86447L7.59766 5.00022C7.77852 5.07488 8.12656 5.22108 8.37109 5.32512C8.61563 5.42916 8.84148 5.51428 8.87299 5.51428C8.9045 5.51428 8.93008 5.39205 8.92984 5.24265L8.9294 4.97101L8.15865 4.65256L7.38791 4.3341L8.15909 4.01121L8.93028 3.68832V3.40611C8.93028 3.25089 8.91533 3.12388 8.89706 3.12388C8.87879 3.12388 8.5439 3.25784 8.15287 3.42157C7.76184 3.58529 7.40296 3.73546 7.35537 3.75528C7.28869 3.78304 7.26883 3.56511 7.26883 2.80567V1.82004H7.58036H7.89187V2.18222V2.5444H8.23801H8.58415V2.18222V1.82004H8.89567H9.20719V2.18222V2.5444H9.55332H9.89946V1.71417V0.883946L10.1662 0.808785C10.3543 0.755784 10.4972 0.757051 10.6508 0.813079L10.8686 0.892534V5.34803C10.8686 9.11584 10.8834 9.79757 10.9646 9.76499C11.0497 9.73083 12.9403 8.1442 16.2006 5.37075C16.7917 4.86801 17.3137 4.43177 17.3608 4.40132C17.4926 4.31607 17.7047 4.41581 17.8497 4.63122C18.1375 5.05889 18.123 5.09835 17.4825 5.63115C17.1574 5.90164 16.8914 6.1503 16.8914 6.18373C16.8914 6.27658 17.1862 6.67326 17.2552 6.67326C17.2886 6.67326 17.4264 6.58516 17.5613 6.47748L17.8066 6.2817L18.0028 6.53181L18.1991 6.78192L17.9263 7.03544L17.6536 7.28897L17.87 7.53614C18.0181 7.70537 18.1132 7.76248 18.1714 7.71724C18.6397 7.35348 18.6173 7.3595 18.7955 7.54906C18.8858 7.64505 18.9694 7.76116 18.9812 7.80708C19.0049 7.89869 17.6578 9.07538 17.5839 9.02762C17.5588 9.01136 17.4345 8.63796 17.3077 8.19784C17.181 7.75772 17.0432 7.39871 17.0016 7.40004C16.96 7.40136 16.8538 7.46544 16.7655 7.54243L16.605 7.68242L16.8439 8.48169C16.9753 8.92129 17.0678 9.28096 17.0494 9.28096C17.031 9.28096 16.7049 9.09828 16.3247 8.87499L15.6334 8.46901L15.4321 8.67075L15.2309 8.8725L15.6631 9.12242C15.9008 9.25987 16.246 9.46117 16.4303 9.56974L16.7653 9.76713L16.0428 10.3844L15.3202 11.0016L15.1266 10.7477L14.9329 10.4938L15.1975 10.2614L15.462 10.0291L15.2685 9.76367C15.1621 9.6177 15.0599 9.49828 15.0413 9.49828C15.0227 9.49828 14.8898 9.59586 14.7459 9.71513L14.4842 9.93199L14.2965 9.67455L14.1089 9.41711L14.3704 9.18053L14.632 8.94396L14.4307 8.67993C14.2585 8.45422 14.212 8.42874 14.1101 8.50436C13.8166 8.72208 11.2222 10.9147 11.2187 10.948C11.2165 10.9684 11.3939 11.1314 11.6128 11.3101C11.8317 11.4889 12.5182 12.067 13.1382 12.5949C13.7582 13.1228 14.2781 13.5547 14.2934 13.5547C14.3088 13.5547 14.4221 13.408 14.5451 13.2287C14.8098 12.8431 14.9547 12.8209 15.2426 13.1222L15.4523 13.3416L15.2702 13.5749C15.0339 13.8776 14.918 14.1217 14.9797 14.1863C15.0068 14.2146 15.0686 14.2063 15.1172 14.1678C15.5775 13.8038 16.1353 13.4704 16.4298 13.3833C18.139 12.8781 19.6929 13.5559 20.4394 15.1322L20.7335 15.7531V16.664C20.7335 17.605 20.7283 17.6289 20.3124 18.5918C20.2945 18.6332 20.4056 18.7636 20.5592 18.8816C20.791 19.0597 20.8316 19.1268 20.7981 19.2772C20.7547 19.4725 20.532 19.755 20.3333 19.8671C20.237 19.9213 20.1485 19.8814 19.9289 19.6848L19.6478 19.4331L19.3322 19.6852C18.6854 20.2018 18.0168 20.4373 17.2057 20.4344C16.2458 20.4309 15.5503 20.1352 14.9184 19.462C14.4274 18.9389 14.1647 18.4587 14.0213 17.8222C13.838 17.0085 13.9067 16.2885 14.2438 15.4892C14.3752 15.1778 14.4007 15.0485 14.3428 14.9878C14.2849 14.9272 14.2306 14.9514 14.1325 15.0816C13.709 15.6433 13.7556 15.613 13.5145 15.4825C13.3941 15.4174 13.2614 15.2971 13.2195 15.2151C13.1401 15.06 13.1573 15.0194 13.4965 14.5596L13.6369 14.3693L12.3233 13.2562C11.6008 12.644 10.9774 12.1318 10.9379 12.1181C10.8894 12.1012 10.8722 12.6867 10.8847 13.9285L10.9032 15.764L11.3169 15.7862C11.7649 15.8103 11.8357 15.8665 11.8357 16.1986C11.8357 16.5307 11.7649 16.587 11.3169 16.611C10.7269 16.6427 10.7696 16.7902 11.4263 16.9883C12.2989 17.2517 12.9204 17.7284 13.4149 18.5135C14.0121 19.4619 14.0772 20.8242 13.5766 21.9026C13.2356 22.637 12.3256 23.438 11.5733 23.6658C10.8506 23.8846 10.8686 23.8692 10.8686 24.2666C10.8686 24.6015 10.8553 24.6281 10.6506 24.7028C10.4043 24.7926 10.4271 24.7927 10.1244 24.7013ZM9.91239 22.6116C9.9322 22.3159 9.95349 22.2821 10.1591 22.2208C10.2972 22.1796 10.4709 22.1796 10.609 22.2208C10.8168 22.2828 10.8367 22.3155 10.8686 22.6478C10.9006 22.9803 10.9164 23.0062 11.0763 22.9887C11.4133 22.9518 12.0938 22.539 12.421 22.1729C12.9291 21.6046 13.1119 21.1175 13.1135 20.3275C13.1143 19.9689 13.0741 19.5525 13.0242 19.4021C12.6849 18.3786 11.4785 18.0901 10.9565 18.9076C10.6456 19.3946 10.8174 20.1475 11.2991 20.4081C11.511 20.5228 12.0229 20.5212 12.2705 20.405C12.3778 20.3547 12.3916 20.3939 12.3916 20.7473C12.3916 21.1298 12.3826 21.1496 12.1736 21.2259C11.6762 21.4073 10.9272 21.2316 10.6318 20.8643C10.5385 20.7483 10.449 20.6535 10.4328 20.6535C10.4166 20.6535 10.2944 20.761 10.1612 20.8924C9.77542 21.2732 9.20421 21.3971 8.6441 21.2215L8.37646 21.1376V20.7429C8.37646 20.3919 8.38987 20.355 8.49761 20.4097C8.56424 20.4435 8.81146 20.4714 9.04698 20.4717C9.42754 20.4723 9.49897 20.4485 9.68887 20.2581C10.114 19.8317 10.1137 19.1101 9.68822 18.6942C9.04721 18.0676 7.99493 18.586 7.75138 19.6483C7.50078 20.7413 7.91996 21.934 8.76967 22.5458C9.11385 22.7935 9.76929 23.0615 9.84317 22.9847C9.86932 22.9575 9.90047 22.7896 9.91239 22.6116ZM4.40102 19.4987C5.14064 19.2267 5.79865 18.5751 5.95764 17.9573C6.08691 17.455 5.98606 17.0466 5.64451 16.6892C5.3805 16.413 5.31386 16.3797 5.02463 16.3797C4.46805 16.3797 4.05269 16.7335 3.96797 17.2798C3.90987 17.6544 4.15924 18.1426 4.49842 18.3182L4.76696 18.4572L4.48232 18.6861C4.32577 18.812 4.15592 18.915 4.10488 18.915C4.05383 18.915 3.87422 18.782 3.70574 18.6195C3.32633 18.2536 3.14936 17.8077 3.20747 17.3641L3.24932 17.0446L2.90711 16.9954C2.38226 16.9198 1.86485 16.4687 1.66161 15.9093C1.59561 15.7277 1.61255 15.6881 1.85026 15.4683C1.9939 15.3354 2.12986 15.2254 2.15239 15.2238C2.17492 15.2221 2.22941 15.3467 2.27348 15.5006C2.38137 15.8774 2.81613 16.1986 3.21821 16.1986C3.76367 16.1986 4.22285 15.7155 4.22285 15.1416C4.22285 14.5127 3.71211 14.0612 3.00195 14.0625C1.71978 14.0647 0.608919 15.6281 0.836918 17.1095C0.91479 17.6155 1.06696 18.0457 1.16802 18.0457C1.20511 18.0457 1.32986 17.9626 1.44524 17.8611C1.64707 17.6834 1.66309 17.6807 1.86852 17.7919C1.98596 17.8554 2.13477 18.0231 2.19921 18.1645L2.31639 18.4217L2.05815 18.6693C1.91611 18.8055 1.7999 18.9294 1.7999 18.9446C1.7999 19.0259 2.55503 19.4619 2.82999 19.5394C3.31542 19.6763 3.96392 19.6595 4.40102 19.4987ZM18.3242 19.3908C18.5601 19.2795 18.8093 19.1234 18.878 19.0439C18.9994 18.9034 18.9966 18.894 18.7778 18.7027C18.5171 18.4748 18.4949 18.2873 18.6966 18.0188C18.9628 17.6648 19.0877 17.6434 19.3922 17.8994L19.6641 18.1281L19.818 17.779C19.9446 17.492 19.972 17.3014 19.972 16.7057C19.972 16.0575 19.9514 15.9375 19.7765 15.5648C19.4828 14.939 18.97 14.3897 18.512 14.2104C17.6954 13.8907 16.9974 14.0911 16.6934 14.7324C16.4779 15.1869 16.5301 15.4946 16.8858 15.8668C17.3397 16.3418 17.9244 16.3268 18.3417 15.8295C18.4578 15.6911 18.5528 15.4975 18.5528 15.3993C18.5528 15.1678 18.6057 15.1741 18.9178 15.4433C19.2127 15.6977 19.2266 15.7749 19.0442 16.1472C18.812 16.621 18.3271 16.959 17.851 16.9788L17.5724 16.9905L17.6164 17.2974C17.683 17.7623 17.5344 18.1735 17.1562 18.5709C16.9761 18.7602 16.7787 18.915 16.7175 18.915C16.6564 18.915 16.483 18.8113 16.3322 18.6845L16.0581 18.4539L16.2497 18.3677C16.5864 18.2163 16.7696 17.941 16.8073 17.5296C16.8511 17.0529 16.689 16.7122 16.3263 16.5186C15.7909 16.2328 15.2845 16.3864 14.982 16.9265C14.5659 17.6695 14.964 18.6784 15.8998 19.2522C16.3905 19.5531 16.7358 19.6402 17.3414 19.6157C17.7671 19.5984 17.9943 19.5464 18.3242 19.3908Z" fill="#a0a0a0"/>
</g>
<defs>
<clipPath id="clip0">
<rect width="60" height="24" fill="white" transform="translate(0 0.77002)"/>
</clipPath>
</defs>
</svg>
