<svg width="48" height="47" viewBox="0 0 48 47" fill="none" xmlns="http://www.w3.org/2000/svg">
<g clip-path="url(#clip0)">
<path d="M17.6152 30.3244L19.9765 17.1948H23.666L21.3785 30.3244H17.6152Z" fill="#3C58BF"/>
<path d="M17.6152 30.3244L20.6406 17.1948H23.666L21.3785 30.3244H17.6152Z" fill="#293688"/>
<path d="M34.7352 17.3404C33.9973 17.0486 32.8167 16.7568 31.3409 16.7568C27.6514 16.7568 24.9949 18.5804 24.9949 21.2063C24.9949 23.1757 26.8397 24.1969 28.3155 24.8534C29.7913 25.5099 30.234 25.9475 30.234 26.5311C30.234 27.4064 29.0534 27.844 28.0203 27.844C26.5445 27.844 25.7328 27.6252 24.4784 27.1146L23.9618 26.8958L23.4453 29.8864C24.3308 30.2511 25.9542 30.6158 27.6514 30.6158C31.5622 30.6158 34.1449 28.7923 34.1449 26.0205C34.1449 24.4887 33.1856 23.3216 30.9719 22.3734C29.6437 21.7169 28.832 21.3522 28.832 20.6957C28.832 20.1122 29.4961 19.5286 30.9719 19.5286C32.2263 19.5286 33.1118 19.7475 33.7759 20.0392L34.1449 20.1851L34.7352 17.3404Z" fill="#3C58BF"/>
<path d="M34.7352 17.3404C33.9973 17.0486 32.8167 16.7568 31.3409 16.7568C27.6514 16.7568 25.659 18.5804 25.659 21.2063C25.659 23.1757 26.8397 24.1969 28.3155 24.8534C29.7913 25.5099 30.234 25.9475 30.234 26.5311C30.234 27.4064 29.0534 27.844 28.0203 27.844C26.5445 27.844 25.7328 27.6252 24.4784 27.1146L23.9618 26.8958L23.4453 29.8864C24.3308 30.2511 25.9542 30.6158 27.6514 30.6158C31.5622 30.6158 34.1449 28.7923 34.1449 26.0205C34.1449 24.4887 33.1856 23.3216 30.9719 22.3734C29.6437 21.7169 28.832 21.3522 28.832 20.6957C28.832 20.1122 29.4961 19.5286 30.9719 19.5286C32.2263 19.5286 33.1118 19.7475 33.7759 20.0392L34.1449 20.1851L34.7352 17.3404Z" fill="#293688"/>
<path d="M41.0807 17.1948C40.1953 17.1948 39.5311 17.2678 39.1622 18.1431L33.6279 30.3244H37.6126L38.3505 28.1361H43.0731L43.5158 30.3244H47.0577L43.9585 17.1948H41.0807ZM39.3836 25.9479C39.6049 25.2914 40.8594 22.0819 40.8594 22.0819C40.8594 22.0819 41.1545 21.2796 41.3759 20.769L41.5973 22.009C41.5973 22.009 42.3352 25.2914 42.4827 26.0208H39.3836V25.9479Z" fill="#3C58BF"/>
<path d="M41.9662 17.1948C41.0807 17.1948 40.4166 17.2678 40.0477 18.1431L33.6279 30.3244H37.6126L38.3505 28.1361H43.0731L43.5158 30.3244H47.0577L43.9585 17.1948H41.9662ZM39.3836 25.9479C39.6787 25.2184 40.8594 22.0819 40.8594 22.0819C40.8594 22.0819 41.1545 21.2796 41.3759 20.769L41.5973 22.009C41.5973 22.009 42.3352 25.2914 42.4827 26.0208H39.3836V25.9479Z" fill="#293688"/>
<path d="M10.8272 26.3853L10.4583 24.4888C9.79417 22.3006 7.65425 19.8935 5.29297 18.7264L8.61352 30.3971H12.5982L18.5752 17.2676H14.5905L10.8272 26.3853Z" fill="#3C58BF"/>
<path d="M10.8272 26.3853L10.4583 24.4888C9.79417 22.3006 7.65425 19.8935 5.29297 18.7264L8.61352 30.3971H12.5982L18.5752 17.2676H15.3284L10.8272 26.3853Z" fill="#293688"/>
<path d="M0.570312 17.1948L1.23442 17.3407C5.95699 18.4348 9.20376 21.2066 10.4582 24.489L9.12997 18.289C8.9086 17.4137 8.24448 17.1948 7.43279 17.1948H0.570312Z" fill="#FFBC00"/>
<path d="M0.570312 17.1948C5.29288 18.289 9.20376 21.1337 10.4582 24.4161L9.20376 19.2372C8.98238 18.3619 8.24448 17.8513 7.43279 17.8513L0.570312 17.1948Z" fill="#F7981D"/>
<path d="M0.570312 17.1948C5.29288 18.289 9.20376 21.1337 10.4582 24.4161L9.57271 21.5713C9.35134 20.696 9.05618 19.8207 8.02311 19.456L0.570312 17.1948Z" fill="#ED7C00"/>
<path d="M14.5172 25.9475L12.0083 23.4675L10.8277 26.2393L10.5325 24.4157C9.86838 22.2275 7.72847 19.8204 5.36719 18.6533L8.68774 30.324H12.6724L14.5172 25.9475Z" fill="#051244"/>
<path d="M21.3795 30.3242L18.2065 27.1147L17.6162 30.3242H21.3795Z" fill="#051244"/>
<path d="M29.866 25.8018C30.1612 26.0935 30.3088 26.3124 30.235 26.6041C30.235 27.4794 29.0543 27.9171 28.0213 27.9171C26.5455 27.9171 25.7338 27.6983 24.4794 27.1877L23.9628 26.9688L23.4463 29.9595C24.3318 30.3242 25.9552 30.6889 27.6523 30.6889C30.0136 30.6889 31.9322 30.0324 33.039 28.8653L29.866 25.8018Z" fill="#051244"/>
<path d="M34.1455 30.3239H37.6136L38.3515 28.1357H43.0741L43.5169 30.3239H47.0588L45.8043 24.9992L41.3769 20.7686L41.5983 21.9356C41.5983 21.9356 42.3362 25.218 42.4838 25.9474H39.3846C39.6798 25.218 40.8604 22.0815 40.8604 22.0815C40.8604 22.0815 41.1556 21.2791 41.3769 20.7686" fill="#051244"/>
</g>
<defs>
<clipPath id="clip0">
<rect width="46.4878" height="45.9534" fill="white" transform="translate(0.570312 0.746094)"/>
</clipPath>
</defs>
</svg>
