<svg width="106" height="26" viewBox="0 0 106 26" fill="none" xmlns="http://www.w3.org/2000/svg">
<path d="M92.8856 0.484375C94.7766 0.484375 96.5757 0.913279 98.1902 1.68051C98.4434 1.7936 98.6983 1.92895 98.9506 2.06442L97.8436 3.03519L96.184 1.3423L93.3244 3.82492L91.6405 2.04157L86.3821 6.66883L89.7487 10.3028L88.4344 11.4311L91.7559 15.0651L90.4415 16.1929L95.1927 21.3618L98.0047 18.8337L100.45 21.5429C99.9658 21.9041 99.4353 22.266 98.8594 22.5815C97.1064 23.5519 95.0765 24.1151 92.9089 24.1151C86.2432 24.1151 80.8243 18.812 80.8243 12.2896C80.8008 5.81125 86.2206 0.484375 92.8856 0.484375ZM90.6713 11.5668L93.5542 9.03871L96.1378 11.86L93.2542 14.3878L90.6713 11.5668ZM92.7244 16.4423L95.5839 13.8918L98.1902 16.7129L95.3071 19.2411L92.7244 16.4423ZM88.6199 6.75942L91.502 4.23133L94.085 7.05261L91.2019 9.58058L88.6199 6.75942ZM93.9002 5.40472L96.0452 3.50887L97.9829 5.60805L95.8379 7.5263L93.9002 5.40472ZM97.729 14.0945L99.8733 12.1985L101.811 14.3196L99.6658 16.2168L97.729 14.0945ZM99.6199 18.3609L101.765 16.4645L103.701 18.5636L101.557 20.4816L99.6199 18.3609ZM100.496 8.6098L101.926 7.3457L103.217 8.74562L101.788 10.0093L100.496 8.6098ZM98.6514 4.43418L100.081 3.14792L101.373 4.56964L99.9423 5.83363L98.6514 4.43418ZM102.318 12.7858L103.748 11.5218L105.062 12.9212L103.61 14.1849L102.318 12.7858ZM95.8838 9.64832L98.029 7.75234L99.9658 9.85106L97.8216 11.7474L95.8838 9.64832Z" fill="#036CB5"/>
<mask id="mask0" mask-type="alpha" maskUnits="userSpaceOnUse" x="0" y="5" width="14" height="12">
<path d="M0.9375 5.39453V16.3043H13.543V5.39453H0.9375Z" fill="white"/>
</mask>
<g mask="url(#mask0)">
<path d="M7.26355 8.62504H7.15477L5.11251 16.3043H3.44325L0.9375 5.39453H2.66945L4.40182 13.5351H4.51L6.5203 5.39453H7.89726L10.0472 13.5351H10.1554L11.7332 5.39453H13.543L11.0366 16.3043H9.36606L7.26355 8.62504Z" fill="#036CB5"/>
</g>
<path d="M15.7412 11.6597H19.2824C19.2056 10.0445 18.4163 9.39879 17.5815 9.39879C16.638 9.39879 15.9106 10.1218 15.7412 11.6597ZM20.5195 14.5534V15.7231C19.8237 16.123 18.8962 16.431 17.782 16.431C15.1843 16.431 14.1172 14.8307 14.1172 12.3997C14.1172 10.0598 15.3078 8.36719 17.6278 8.36719C19.5606 8.36719 20.7522 9.61442 20.7522 12.122V12.6914H15.7102C15.7102 14.5373 16.4676 15.3531 18.0613 15.3531C18.8962 15.3531 19.6695 15.0602 20.5195 14.5534Z" fill="#036CB5"/>
<path d="M24.3508 15.1971C24.8458 15.4125 25.3875 15.4443 25.7748 15.4443C26.9191 15.4443 27.7843 14.7355 27.7843 12.2434C27.7843 10.2891 27.0729 9.65821 26.0371 9.65821C25.4179 9.65821 24.9696 9.82801 24.3508 10.1659V15.1971H24.3508ZM24.3671 9.02751C24.8299 8.78212 25.6185 8.45786 26.4541 8.45786C28.3721 8.45786 29.4085 9.78114 29.4085 12.2434C29.4085 15.121 28.0163 16.5213 25.7749 16.5213C24.9545 16.5213 23.6863 16.2596 22.7578 15.7661V5.02672L24.3671 4.64258V9.02751H24.3671Z" fill="#036CB5"/>
<path d="M36.3672 13.9894H36.4447L39.7538 5.3877H41.6726V16.2983H40.0023V8.38851H39.8629L36.7073 16.2983H35.7183L32.562 8.57343H32.4233V16.2983H31.0312V5.3877H32.9032L36.3672 13.9894Z" fill="#036CB5"/>
<path d="M48.4981 12.3993C48.4981 10.3221 47.6481 9.44544 46.5964 9.44544C45.576 9.44544 44.6936 10.3221 44.6936 12.3993C44.6936 14.5076 45.4989 15.3531 46.5964 15.3531C47.6939 15.3531 48.4981 14.5076 48.4981 12.3993ZM43.0703 12.3993C43.0703 9.70548 44.5555 8.36719 46.5964 8.36719C48.6386 8.36719 50.1229 9.70546 50.1229 12.3993C50.1229 15.03 48.7156 16.431 46.5964 16.431C44.4776 16.431 43.0703 15.03 43.0703 12.3993Z" fill="#036CB5"/>
<path d="M51.3438 9.50672C52.0397 9.09058 53.5096 8.36719 55.2878 8.36719C57.1436 8.36719 57.8383 9.09058 57.8383 10.6751V16.2462H56.231V11.0294C56.231 9.8141 55.6288 9.5987 54.839 9.5987C54.2211 9.5987 53.4314 9.87608 52.9523 10.153V16.2462H51.3438V9.50672H51.3438Z" fill="#036CB5"/>
<path d="M61.2447 11.6597H64.7861C64.71 10.0445 63.9203 9.39879 63.0851 9.39879C62.1414 9.39879 61.4155 10.1218 61.2447 11.6597ZM66.0231 14.5534V15.7231C65.3275 16.123 64.3995 16.431 63.2857 16.431C60.6889 16.431 59.6211 14.8307 59.6211 12.3997C59.6211 10.0598 60.8113 8.36719 63.1315 8.36719C65.0654 8.36719 66.2569 9.61442 66.2569 12.122V12.6914H61.2142C61.2142 14.5373 61.9722 15.3531 63.5652 15.3531C64.3995 15.3531 65.174 15.0602 66.0231 14.5534Z" fill="#036CB5"/>
<path d="M72.6806 8.36719H74.3359L71.5363 16.06C70.7619 18.1836 69.8196 19.2916 68.0413 19.2916V18.0307C69.0936 18.0307 69.7422 17.1994 70.1142 16.06L67.1445 8.36719H68.8461L70.8257 14.0297H70.9184L72.6806 8.36719Z" fill="#036CB5"/>
<path d="M17.6421 23.396V22.7315C18.2156 23.0198 18.7614 23.1645 19.2785 23.1645C19.7092 23.1645 20.0392 23.0864 20.2697 22.9285C20.5003 22.7717 20.6157 22.5597 20.6157 22.2917C20.6157 22.0238 20.5209 21.8229 20.3312 21.6892C20.142 21.5557 19.7883 21.3903 19.271 21.1945C19.0914 21.1277 18.9767 21.0842 18.9249 21.0635C18.874 21.0433 18.7741 21.0016 18.6253 20.9401C18.4769 20.8787 18.3796 20.8319 18.3336 20.8012C18.2874 20.7695 18.2095 20.723 18.0991 20.662C17.9891 20.5995 17.9149 20.5446 17.8762 20.4965C17.8382 20.4471 17.7854 20.3846 17.7188 20.3101C17.6523 20.2358 17.6073 20.162 17.5842 20.0867C17.5613 20.0122 17.5392 19.926 17.519 19.8279C17.4987 19.7297 17.4883 19.6244 17.4883 19.5111C17.4883 19.0733 17.6511 18.7215 17.9761 18.4534C18.3017 18.1862 18.7509 18.0522 19.3248 18.0522C19.8317 18.0522 20.3367 18.1447 20.8382 18.3302V19.0325C20.3517 18.7953 19.8651 18.6779 19.3784 18.6779C19.0353 18.6779 18.7791 18.7488 18.6101 18.8928C18.441 19.0368 18.3564 19.2274 18.3564 19.4646C18.3564 19.717 18.441 19.9084 18.6101 20.04C18.7791 20.172 19.0815 20.3175 19.517 20.4766C20.2646 20.7495 20.7796 20.9966 21.0611 21.2183C21.343 21.439 21.4838 21.7694 21.4838 22.2064C21.4838 22.6651 21.2905 23.04 20.9037 23.3308C20.5169 23.6217 19.9857 23.7672 19.3093 23.7672C18.6898 23.7672 18.1338 23.643 17.6421 23.396ZM25.4601 23.6503H24.7303L24.6764 23.2024C24.2355 23.5632 23.7953 23.7437 23.3547 23.7437C22.9861 23.7437 22.7004 23.6448 22.4983 23.446C22.2955 23.2479 22.1945 22.9976 22.1945 22.693C22.1945 22.5331 22.2239 22.3804 22.2829 22.2336C22.3419 22.0867 22.4392 21.9443 22.5748 21.8053C22.7105 21.6661 22.9154 21.5544 23.1894 21.4691C23.4633 21.3837 23.7927 21.3415 24.177 21.3415H24.6535V21.133C24.6535 20.7881 24.5895 20.5532 24.4613 20.4265C24.3329 20.3002 24.1179 20.2372 23.8158 20.2372C23.4471 20.2372 22.9936 20.3884 22.4559 20.693V20.0753C23.0092 19.8231 23.5519 19.6959 24.0846 19.6959C24.6018 19.6959 24.9607 19.8021 25.1602 20.0136C25.3602 20.2242 25.4601 20.5439 25.4601 20.9702V23.6503ZM24.6612 21.8818H24.2536C23.4134 21.8818 22.9936 22.1318 22.9936 22.6313C22.9936 22.807 23.0497 22.9331 23.1625 23.0134C23.2755 23.0934 23.4163 23.1329 23.5855 23.1329C23.8002 23.1329 24.0079 23.0814 24.2076 22.9781C24.4074 22.8758 24.5587 22.7574 24.6612 22.6235V21.8818H24.6612ZM26.7087 25.1954V20.2609C26.9342 20.0905 27.2001 19.9535 27.5078 19.8507C27.8153 19.7485 28.117 19.6959 28.4146 19.6959C29.4796 19.6959 30.0126 20.3424 30.0126 21.6352C30.0126 22.3045 29.8744 22.8168 29.5976 23.1715C29.3211 23.5271 28.9245 23.704 28.4066 23.704C28.048 23.704 27.7483 23.6138 27.5078 23.4348V25.1954H26.7087ZM27.5001 20.5226V22.8635C27.6025 22.9609 27.7317 23.0334 27.888 23.0826C28.0444 23.1315 28.1815 23.1559 28.2992 23.1559C28.5807 23.1559 28.8025 23.0471 28.9639 22.8283C29.1253 22.6091 29.2056 22.2115 29.2056 21.6353C29.2056 21.1667 29.1229 20.8234 28.9563 20.6083C28.7898 20.3913 28.5731 20.2837 28.3067 20.2837C28.0049 20.2837 27.7361 20.3631 27.5001 20.5226ZM31.8453 19.7356V23.6503H31.0462V19.9283L31.8453 19.7356ZM30.9231 18.5997C30.9231 18.4608 30.9756 18.3389 31.0805 18.2327C31.1858 18.1272 31.3075 18.0743 31.4453 18.0743C31.584 18.0743 31.7056 18.1272 31.8108 18.2327C31.9158 18.3389 31.9682 18.4608 31.9682 18.5997C31.9682 18.7387 31.9158 18.8614 31.8108 18.9674C31.7056 19.0719 31.584 19.1249 31.4453 19.1249C31.3075 19.1249 31.1858 19.0719 31.0805 18.9674C30.9756 18.8614 30.9231 18.7387 30.9231 18.5997ZM34.838 23.2024C35.2071 23.2024 35.6138 23.0684 36.0596 22.8013V23.3881C35.65 23.6253 35.1966 23.7437 34.6997 23.7437C34.0748 23.7437 33.6152 23.5659 33.3206 23.2105C33.026 22.8549 32.8788 22.3584 32.8788 21.72C32.8788 21.1121 33.03 20.6225 33.3318 20.253C33.6344 19.8823 34.0643 19.6959 34.6226 19.6959C35.1148 19.6959 35.4959 19.856 35.768 20.1755C36.0394 20.4952 36.1748 20.9631 36.1748 21.5808V21.8669H33.6702C33.6702 22.3254 33.765 22.663 33.9543 22.8779C34.1439 23.0951 34.4385 23.2024 34.838 23.2024ZM34.5995 20.2142C34.3592 20.2142 34.1566 20.3096 33.9926 20.4994C33.829 20.6901 33.7263 20.9738 33.6854 21.3486H35.4449C35.4242 20.9681 35.3348 20.6844 35.1759 20.4965C35.0174 20.3081 34.8253 20.2142 34.5995 20.2142ZM37.1927 23.6503V20.2681C37.8228 19.8868 38.4759 19.6959 39.1524 19.6959C39.6083 19.6959 39.9333 19.7893 40.1279 19.9748C40.3226 20.1603 40.42 20.4535 40.42 20.8548V23.6503H39.621V21.0325C39.621 20.7495 39.562 20.5588 39.4443 20.4615C39.3264 20.363 39.1549 20.3145 38.9294 20.3145C38.6222 20.3145 38.3096 20.4076 37.9922 20.5927V23.6503H37.1927V23.6503ZM42.4292 19.8824H43.6433L43.4511 20.4076H42.4292V22.4458C42.4292 22.9609 42.6495 23.2182 43.0899 23.2182C43.259 23.2182 43.4305 23.1825 43.6053 23.1102V23.604C43.3643 23.6969 43.0773 23.7437 42.7444 23.7437C42.3601 23.7437 42.0785 23.634 41.899 23.4145C41.7199 23.1967 41.6301 22.9093 41.6301 22.5532V19.3721L42.4292 18.7923V19.8824H42.4292ZM45.2074 19.7356V23.6503H44.408V19.9283L45.2074 19.7356ZM44.2853 18.5997C44.2853 18.4608 44.3378 18.3389 44.4422 18.2327C44.5472 18.1272 44.6688 18.0743 44.8075 18.0743C44.9456 18.0743 45.0676 18.1272 45.1723 18.2327C45.2775 18.3389 45.33 18.4608 45.33 18.5997C45.33 18.7387 45.2775 18.8614 45.1723 18.9674C45.0676 19.0719 44.9457 19.1249 44.8075 19.1249C44.6688 19.1249 44.5472 19.0719 44.4422 18.9674C44.3378 18.8614 44.2853 18.7387 44.2853 18.5997ZM50.6471 20.0055V20.6225C50.2628 20.3654 49.8734 20.2372 49.4794 20.2372C49.2796 20.2372 49.1157 20.2758 48.9872 20.3532C48.8594 20.4299 48.7953 20.554 48.7953 20.723C48.7953 20.8835 48.8656 21.0105 49.0064 21.1057C49.1474 21.2012 49.369 21.2978 49.6715 21.3949C49.8405 21.4516 49.9671 21.4957 50.0514 21.5264C50.1362 21.558 50.2473 21.6096 50.3859 21.6812C50.5241 21.7536 50.628 21.825 50.697 21.8976C50.7662 21.9699 50.8289 22.0646 50.8854 22.1835C50.9417 22.3018 50.9695 22.4327 50.9695 22.577C50.9695 22.9325 50.8274 23.2155 50.5436 23.4267C50.2592 23.6378 49.8786 23.7437 49.4025 23.7437C48.8696 23.7437 48.4262 23.6304 48.073 23.4032V22.8013C48.5236 23.0685 48.9361 23.2024 49.3104 23.2024C49.8734 23.2024 50.1553 23.0176 50.1553 22.6465C50.1553 22.5748 50.1386 22.5073 50.1054 22.4459C50.072 22.3841 50.0337 22.3339 49.9902 22.2951C49.9465 22.2566 49.876 22.213 49.7786 22.1633C49.6812 22.1154 49.5995 22.0795 49.5328 22.056C49.4663 22.033 49.3613 21.9956 49.2181 21.9443C49.0078 21.8669 48.8414 21.8003 48.7183 21.7433C48.5952 21.6862 48.4727 21.6131 48.3496 21.5234C48.2265 21.4332 48.1367 21.3257 48.0807 21.2025C48.0245 21.0793 47.9963 20.9321 47.9963 20.7625C47.9963 20.5461 48.0474 20.3613 48.1498 20.2072C48.2522 20.0517 48.3857 19.9411 48.5493 19.8744C48.7132 19.8073 48.8631 19.7606 48.9988 19.7357C49.1347 19.709 49.2691 19.6959 49.4025 19.6959C49.838 19.6959 50.2528 19.7992 50.6471 20.0055ZM54.8921 23.6503H54.1624L54.1083 23.2024C53.6675 23.5632 53.2274 23.7437 52.787 23.7437C52.4182 23.7437 52.1326 23.6448 51.9302 23.446C51.7277 23.2479 51.6267 22.9976 51.6267 22.693C51.6267 22.5331 51.6561 22.3804 51.7152 22.2336C51.774 22.0867 51.8714 21.9443 52.0071 21.8053C52.1432 21.6661 52.3476 21.5544 52.6216 21.4691C52.8958 21.3837 53.2251 21.3415 53.6087 21.3415H54.0857V21.133C54.0857 20.7881 54.0213 20.5532 53.8939 20.4265C53.765 20.3002 53.55 20.2372 53.2483 20.2372C52.8792 20.2372 52.4258 20.3884 51.888 20.693V20.0753C52.4414 19.8231 52.9841 19.6959 53.5168 19.6959C54.0344 19.6959 54.3925 19.8021 54.5924 20.0136C54.7921 20.2242 54.8921 20.5439 54.8921 20.9702V23.6503H54.8921ZM54.0937 21.8818H53.6861C52.8459 21.8818 52.4258 22.1318 52.4258 22.6313C52.4258 22.807 52.4822 22.9331 52.5947 23.0134C52.7076 23.0934 52.8481 23.1329 53.0175 23.1329C53.2324 23.1329 53.4394 23.0814 53.6399 22.9781C53.8396 22.8758 53.991 22.7574 54.0937 22.6235V21.8818H54.0937ZM56.9018 19.8824H58.1157L57.9231 20.4076H56.9018V22.4458C56.9018 22.9609 57.1219 23.2182 57.5619 23.2182C57.7311 23.2182 57.9022 23.1825 58.0771 23.1102V23.604C57.8363 23.6969 57.5498 23.7437 57.2159 23.7437C56.8323 23.7437 56.5507 23.634 56.3714 23.4145C56.192 23.1967 56.102 22.9093 56.102 22.5532V19.3721L56.9018 18.7923V19.8824H56.9018Z" fill="#B6B6B6"/>
</svg>
